<?xml version="1.0" encoding="utf-8" ?>
<svg xmlns="http://www.w3.org/2000/svg" xmlns:xlink="http://www.w3.org/1999/xlink" width="377" height="350">
	<path d="M203.887 38.5904C204.123 38.5328 204.349 38.4839 204.592 38.4628C205.48 38.3855 206.564 38.89 207.222 39.4788Q207.355 39.5958 207.459 39.7393Q207.562 39.8828 207.632 40.0457Q207.701 40.2086 207.733 40.3828Q207.765 40.557 207.757 40.7339C207.614 43.9985 200.605 48.3465 198.182 50.5012C197.332 51.2576 195.69 52.4819 195.622 53.6688C197.052 54.5249 199.189 54.7616 200.794 55.2518C203.756 56.1562 206.694 57.1608 209.648 58.094C222.936 62.2924 236.008 67.1437 249.301 71.3341C253.241 72.576 257.245 73.6321 261.224 74.7385C263.241 75.2992 265.619 75.7392 267.49 76.6721C268.342 77.0971 268.585 77.5275 268.874 78.4103C268.83 79.0496 268.746 79.4223 268.266 79.8746C265.936 82.07 259.873 82.7783 256.753 82.7824C257.848 84.6932 259.352 86.4855 260.664 88.2606C263.777 92.4736 267.021 96.5795 270.157 100.771C276.34 109.036 282.097 117.662 288.396 125.844C290.06 128.007 295.022 132.813 295.641 134.976C295.794 135.512 295.695 136.39 295.307 136.821C293.638 138.674 281.451 138.445 278.322 139.099L278.009 139.167C279.013 141.402 283.162 146.671 283.425 148.041C283.547 148.674 283.416 148.887 283.046 149.384C281.105 150.295 278.321 149.431 276.386 148.869C276.647 152.62 276.549 157.33 277.798 160.892C279.418 165.515 285.748 170.187 286.293 172.188C286.469 172.832 286.519 173.647 286.144 174.23C285.742 174.854 285.094 175.127 284.398 175.291C280.683 176.169 275.243 174.481 272.128 172.429C271.601 175.749 270.786 178.946 269.831 182.166C271.627 182.359 273.34 182.533 275.021 183.249C279.275 185.064 282.136 189.306 283.799 193.466C287.264 202.132 285.605 212.466 281.964 220.829C278.786 228.13 275.625 236.774 267.656 239.905C267.731 241.144 267.795 242.448 268.05 243.664C268.433 245.491 269.308 247.456 269.296 249.317C269.289 250.308 269.1 251.035 268.386 251.737C264.587 253.632 261.948 247.702 259.394 247.52C257.656 250.206 262.787 260.642 261.632 263.027C261.394 263.519 260.674 264.015 260.174 264.19C256.262 265.557 253.454 257.602 251.474 256.726C250.115 258.264 249.336 260.153 248.216 261.852C247.357 263.155 246.09 264.182 245.073 265.36C239.619 271.674 233.651 278.318 226.962 283.366C224.841 284.967 222.387 286.112 220.212 287.644C217.122 289.821 214.277 292.242 210.599 293.384C203.671 295.534 197.415 294.848 190.562 296.225C188.187 296.548 185.699 296.033 183.304 295.949C180.004 295.833 176.636 296.049 173.362 295.556C168.541 294.828 161.485 290.839 157.181 288.465C155.071 287.301 153.064 285.867 151.001 284.609C148.185 282.891 145.209 281.266 142.502 279.386C137.465 275.888 126.731 267.385 123.611 262.452C123.253 261.886 123.069 261.121 122.884 260.481C119.43 262.382 116.731 265.701 112.319 265.152C111.241 265.017 110.206 264.472 109.57 263.571C108.446 261.979 111.995 253.178 112.323 250.614C112.431 249.77 112.515 248.632 111.972 247.943C110.993 248.044 108.818 249.904 107.551 250.376C105.334 251.203 102.013 251.448 99.836 250.378C99.2107 250.07 98.6678 249.612 98.4587 248.925C97.7619 246.637 101.324 245.037 102.582 243.776C103.243 243.113 103.703 242.153 104.157 241.341C100.638 239.826 98.0685 237.015 95.7305 234.079C89.0004 225.626 85.3759 215.627 84.7169 204.877C84.5666 202.426 84.425 199.922 84.7215 197.477C85.5556 190.597 89.1964 184.804 96.526 183.815C98.0694 183.606 100.668 183.856 101.906 182.878C102.524 180.316 99.414 167.462 98.1523 164.74C95.7323 168.678 93.0069 172.349 89.3265 175.187C88.2196 175.365 86.4944 175.65 85.4829 175.053C84.5418 174.498 84.4969 173.625 84.8187 172.669C85.2643 171.346 85.9324 170.094 86.3032 168.744C87.8837 162.992 87.9264 155.941 86.2286 150.234C86.9184 148.414 87.814 146.742 88.7353 145.033C87.5152 145.431 86.0611 146.083 84.7689 146.006C83.8448 145.951 82.8347 145.692 82.2393 144.931C79.6915 141.674 90.509 125.529 91.185 121.183C89.8323 120.351 87.4596 120.584 85.8491 120.046C84.904 119.73 83.7858 119.186 83.3786 118.216C83.0963 117.543 83.1943 116.81 83.4605 116.15C84.847 112.709 107.633 80.9456 111.08 77.811C115.942 73.3893 123.998 69.5034 129.726 65.893C132.185 64.3432 134.384 62.3167 137.047 61.124C140.33 61.6727 143.663 61.9858 146.97 62.3678C147.322 60.5158 147.863 58.7667 149.046 57.263C152.909 52.3503 181.64 44.8694 189.11 42.6897C194.007 41.2607 198.8 39.2297 203.887 38.5904ZM218.415 134.501C215.797 137.722 214.388 141.612 212.132 145.058C206.824 153.168 199.133 160.751 190.071 164.439C188.382 165.127 186.607 165.841 184.779 166.013C183.858 166.1 183.053 166.044 182.261 165.534C181.915 164.922 181.788 164.642 181.96 163.906C182.571 161.284 186.064 159.104 187.661 156.978C190.045 153.804 191.52 150.021 192.387 146.178C188.615 148.065 185.866 150.906 182.718 153.628C176.238 159.231 168.089 162.191 159.822 163.971C157.097 164.558 153.211 165.629 150.474 164.815C149.774 164.607 149.444 164.29 149.123 163.661C148.824 163.078 148.441 162.119 148.653 161.459C149.288 159.473 151.916 158.895 153.321 157.595C158.055 153.215 160.481 146.566 161.13 140.326C159.929 140.851 158.723 141.378 157.622 142.096C153.952 144.492 138.109 157.396 134.264 155.537C133.742 155.285 133.435 154.833 133.338 154.268C132.782 151.011 137.76 145.483 138.782 142.092C134.76 144.215 114.84 161.543 113.737 165.33C113.663 165.585 113.785 165.736 113.874 165.976C114.832 166.165 115.719 165.779 116.604 166.174C117.683 169.181 117.014 173.754 117.061 176.975L117.333 200.919C117.365 203.631 117.762 206.372 117.669 209.076C117.62 210.489 117.418 212.095 116.813 213.385C116.701 213.624 116.56 213.672 116.348 213.819C115.498 213.912 114.94 213.793 114.277 213.225C109.656 209.265 105.941 190.507 104.246 188.994C103.366 188.208 101.416 188.46 100.291 188.505C97.4251 188.619 94.5948 189.11 92.5854 191.341C89.7591 194.48 89.6255 199.998 89.8881 204.003C90.1251 207.619 90.7502 211.948 91.7621 215.429C93.5864 221.706 97.914 229.927 102.893 234.292C104.86 236.016 111.05 239.761 113.639 239.604C115.171 239.511 115.952 238.262 116.871 237.203L114.908 235.444C114.48 233.793 113.101 230.525 114.134 228.939C114.436 228.475 114.937 228.22 115.471 228.125C116.3 227.976 117.2 228.105 117.885 228.615C118.395 228.994 118.745 229.466 118.972 230.054C119.714 231.975 119.833 234.18 120.36 236.171C120.863 238.069 121.674 239.892 122.214 241.785C123.7 246.989 124.738 252.008 127.473 256.807C133.725 267.774 148.581 276.992 159.461 282.894C164.321 285.53 168.7 287.914 174.132 289.264C179.553 290.612 184.485 290.242 189.997 290.174C191.966 290.15 193.986 290.319 195.944 290.104C197.605 289.923 206.914 288.655 208.167 288.209C213.131 286.442 217.347 282.502 221.639 279.554C223.572 278.227 225.775 277.086 227.53 275.541C232.44 271.219 237.201 266.136 241.242 261.008C243.447 258.21 246.112 254.997 247.383 251.653C249.027 247.328 250.095 238.898 250.819 234.096C251.155 231.867 251.206 229.095 252.236 227.058C252.645 226.251 253.343 225.662 254.249 225.521C255.034 225.398 255.955 225.424 256.61 225.926C257.288 226.445 257.504 227.251 257.588 228.064C257.884 230.904 256.332 235.045 256.923 237.446C257.508 237.9 259.438 237.591 260.213 237.495C264.392 236.979 268.517 233.944 271.022 230.67C274.772 225.77 279.091 215.071 280.144 209.017C280.649 206.115 280.687 202.809 280.258 199.895C279.708 196.153 277.79 191.455 274.652 189.15C272.547 187.604 269.508 186.809 266.998 186.143C265.166 188.682 262.95 190.052 261.224 192.292C259.583 194.422 257.886 198.682 257.226 201.31C256.714 203.348 256.505 205.504 255.793 207.484C255.426 208.504 254.797 209.665 253.615 209.87C253.181 209.945 252.612 209.834 252.261 209.573C251.67 209.135 251.526 208.361 251.46 207.672C251.281 205.793 251.781 203.733 251.885 201.832C252.102 197.873 252.149 193.903 252.389 189.946C252.52 187.794 252.848 185.646 252.929 183.493C253.048 180.321 252.546 176.998 252.379 173.822C252.124 168.951 252.065 164.068 251.86 159.195L250.818 158.705C249.854 159.681 248.966 160.722 247.474 160.711C246.728 160.706 245.939 160.528 245.204 160.398C239.879 152.946 237.29 143.868 232.946 135.91L232.726 136.18C227.797 142.304 227.612 148.548 220.165 153.237C219.337 153.758 218.307 154.682 217.295 154.725C217.012 154.738 216.756 154.669 216.483 154.603C215.95 153.975 215.805 153.556 215.89 152.684C216.077 150.752 217.168 148.77 217.834 146.944C218.986 143.781 219.795 138.556 218.671 135.285C218.582 135.025 218.503 134.762 218.415 134.501Z"/>
	<path fill="#CAC8C9" d="M250.818 158.705C250.915 156.937 251.163 151.19 252.198 150.078C253.096 151.282 252.55 153.545 252.601 154.992L256.929 157.282C255.64 157.247 253.993 156.945 252.839 157.573C252.39 158.086 252.13 158.571 251.86 159.195L250.818 158.705Z"/>
	<path d="M172.801 174.735C173.58 175.214 174.107 175.53 174.329 176.455C174.668 177.866 174.954 180.688 174.108 181.937C173.863 182.298 173.751 182.228 173.352 182.317C172.923 181.999 172.822 181.815 172.627 181.34C173.015 179.306 172.91 176.803 172.801 174.735Z"/>
	<path fill="#CAC8C9" d="M171.889 173.585C172.172 174.233 172.138 174.435 172.801 174.735C172.91 176.803 173.015 179.306 172.627 181.34C172.536 181.288 172.453 181.22 172.355 181.184C171.719 180.949 171.054 181.333 170.491 181.592C170.395 179.637 169.811 176.013 170.643 174.262C170.896 173.729 171.371 173.735 171.889 173.585Z"/>
	<path d="M188.432 212.44C188.987 212.476 189.656 212.742 190.079 213.108C192.269 214.999 192.412 234.415 192.455 238.486C192.477 240.538 192.554 242.535 191.023 244.099C190.563 244.194 190.111 244.271 189.64 244.237C188.893 244.183 188.144 243.897 187.663 243.303C187.038 242.532 186.963 240.995 186.879 240.036C186.481 235.457 186.685 230.668 186.624 226.062C186.578 222.496 186.155 218.594 186.625 215.068C186.803 213.728 187.434 213.224 188.432 212.44Z"/>
	<path d="M207.314 257.637C208.096 257.625 209.371 257.948 209.923 258.549C210.224 258.876 210.388 259.382 210.358 259.826C210.203 262.098 207.589 264.335 206.063 265.818C203.077 266.442 200.109 267.235 197.104 267.753C193.303 268.41 189.358 268.722 185.524 269.207C183.268 269.492 180.711 270.093 178.448 269.968C177.396 269.822 175.993 269.79 175.139 269.14C174.91 268.761 174.774 268.54 174.769 268.084C174.764 267.606 174.756 267.059 175.123 266.694C175.604 266.214 177.819 265.928 178.55 265.769Q184.317 264.476 190.144 263.491C193.481 262.955 200.485 262.457 203.338 261.239C205.006 260.527 206.069 258.898 207.314 257.637Z"/>
	<path d="M101.809 215.086C102.394 216.32 103.089 217.595 103.258 218.967C103.409 220.183 103.351 221.286 102.568 222.287C102.02 222.644 101.615 222.809 100.955 222.671C99.6565 222.4 98.7033 221.359 98.0531 220.262C96.2204 217.169 94.9486 211.042 95.7659 207.493C96.0514 206.254 96.759 205.096 97.0151 203.865C97.3068 202.463 94.9719 202.41 94.0707 200.837C93.8052 200.374 93.7651 199.961 93.9272 199.452C94.1243 198.832 94.6166 198.164 95.2075 197.872C96.4137 197.277 99.2265 197.761 100.45 198.256C105.733 200.393 106.467 208.494 109.041 213.035C110.392 215.418 112.917 217.402 113.92 219.939C114.24 220.747 114.341 221.342 114.006 222.156C113.5 222.766 112.977 223.024 112.178 223.075C108.08 223.335 106.394 217.323 103.716 214.983L101.809 215.086ZM101.809 215.086L103.716 214.983C103.161 213.314 102.569 210.561 101.298 209.35C100.916 209.658 100.954 210.038 100.906 210.507C100.753 212 101.395 213.659 101.809 215.086Z"/>
	<path fill="#CAC8C9" fill-opacity="0.98823529" d="M101.809 215.086C101.395 213.659 100.753 212 100.906 210.507C100.954 210.038 100.916 209.658 101.298 209.35C102.569 210.561 103.161 213.314 103.716 214.983L101.809 215.086Z"/>
	<path d="M270.668 195.114C271.948 195.294 273.154 195.561 274.168 196.437C274.731 196.922 275.425 197.796 275.434 198.581C275.44 199.195 275.177 199.681 274.69 200.05C273.875 200.669 272.45 200.814 271.458 200.686C270.974 200.624 270.651 200.604 270.17 200.69C270.158 200.822 270.101 200.957 270.133 201.085C270.289 201.72 273.384 205.93 274.11 208.433C274.613 210.169 274.682 212.102 274.534 213.894C274.253 217.286 272.528 221.773 269.822 223.968C268.901 224.715 267.672 225.223 266.47 225.05C265.864 224.964 265.274 224.674 264.924 224.158C263.55 222.127 267.626 218.522 268.618 216.679C269.09 215.804 269.281 214.768 269.495 213.804C269.125 210.197 269.056 207.357 266.396 204.64C264.706 207.052 263.333 210.189 262.311 212.951C261.867 214.149 261.552 215.498 260.984 216.631C260.761 217.075 260.406 217.469 259.958 217.693C259.242 218.051 257.989 218.096 257.259 217.747C256.722 217.491 256.394 217.079 256.283 216.491C255.865 214.263 259.482 206.229 260.701 203.956Q262.033 201.497 263.769 199.305C266.078 196.347 266.882 195.578 270.668 195.114Z"/>
	<path d="M222.408 190.891C226.565 190.471 231.024 191.065 234.73 193.087C238.8 195.308 240.484 199.158 241.752 203.38C241.366 204.184 240.911 205.316 240.095 205.756C239.593 206.027 239.453 205.925 238.934 205.784C237.48 204.38 237.373 201.773 236.805 199.911C234.741 198.517 232.685 197.251 230.394 196.262C230.547 196.585 230.699 196.908 230.857 197.228C231.999 199.551 232.115 201.993 231.245 204.447C230.275 207.183 228.455 208.808 225.899 210.036C223.995 210.782 222.229 211.041 220.205 210.58C218.195 210.121 216.632 208.833 215.576 207.089C213.522 203.694 214.034 199.448 214.913 195.76C213.021 196.799 211.189 197.878 209.385 199.065C208.922 200.162 208.396 201.821 207.292 202.397C206.696 202.707 206.433 202.616 205.836 202.436C205.439 201.98 205.23 201.604 205.171 200.991C204.995 199.175 206.055 197.339 207.193 196.004C211.193 191.311 216.788 191.362 222.408 190.891Z"/>
	<path d="M146.916 191.846Q147.561 191.779 148.209 191.766C155.192 191.603 163.941 191.835 169.311 196.961Q169.358 197.189 169.4 197.418C169.659 198.845 170.084 200.797 169.227 202.044C167.588 202.185 165.859 200.194 164.55 199.312C164.031 198.963 163.659 198.729 163.039 198.835C162.618 199.985 163.8 202.438 162.58 205.728C161.653 208.229 159.953 210.322 157.484 211.419C155.174 212.445 153.199 212.197 150.902 211.337C149.31 210.545 147.788 209.502 146.78 208.009C144.615 204.805 145.487 200.467 146.213 196.934Q144.032 197.346 141.962 198.147Q139.892 198.948 138.002 200.111C137.021 201.859 136.901 203.437 136.254 205.254C135.995 205.981 135.621 206.179 134.982 206.498C134.429 206.508 134.082 206.455 133.623 206.121C133.068 205.717 132.666 205.075 132.567 204.395C132.274 202.364 133.841 199.002 135.116 197.413C137.939 193.895 142.599 192.353 146.916 191.846Z"/>
	<path d="M230.067 165.494C231.049 165.76 231.8 166.914 232.717 166.91C234.096 166.902 234.687 165.784 236.382 166.418C238.463 167.197 245.315 174.749 246.138 176.776C246.446 177.535 246.439 177.889 246.131 178.619C245.902 178.758 245.704 178.88 245.439 178.942C243.125 179.478 238.913 177.362 237.017 176.101C230.605 177.39 224.115 178.339 217.671 179.458Q217.116 179.621 216.552 179.751C214.597 180.191 204.279 182.297 202.828 181.544C201.619 180.916 201.614 179.018 200.047 178.03L199.475 177.67L199.244 177.528C199.078 176.389 199.19 175.189 199.231 174.04C199.965 172.791 200.66 171.584 201.888 170.76C205.702 168.202 218.451 167.149 223.538 166.627C225.686 166.406 228.11 166.443 230.067 165.494Z"/>
	<path d="M134.497 181.187C133.882 181.815 133.181 182.422 132.448 182.909C130.944 183.908 127.699 185.273 125.874 184.726C125.312 184.558 124.913 184.2 124.716 183.645C124.319 182.526 124.974 181.074 125.525 180.101C127.82 176.053 131.266 171.712 135.971 170.516C136.546 170.37 136.814 170.524 137.319 170.814C137.565 170.955 137.777 171.116 138.062 171.166C138.971 171.325 139.564 170.057 140.296 169.676C141.383 169.109 166.019 169.683 168.077 170.318C169.894 170.879 171.029 171.92 171.889 173.585C171.371 173.735 170.896 173.729 170.643 174.262C169.811 176.013 170.395 179.637 170.491 181.592C170.313 181.698 170.114 181.833 169.91 181.893C169.234 182.091 168.999 181.919 168.421 181.604C168.374 181.572 168.331 181.534 168.28 181.508C167.642 181.19 166.524 181.368 165.84 181.505C162.879 182.763 140.473 180.584 134.497 181.187Z"/>
	<path fill="#CAC8C9" d="M165.84 181.505C165.843 180.041 165.678 178.126 166.769 176.978C166.917 176.823 167.02 176.752 167.197 176.61C167.645 176.648 167.695 176.592 167.978 176.944C168.962 178.169 168.52 180.136 168.421 181.604C168.374 181.572 168.331 181.534 168.28 181.508C167.642 181.19 166.524 181.368 165.84 181.505Z"/>
</svg>
