<?xml version="1.0" encoding="utf-8" ?>
<svg xmlns="http://www.w3.org/2000/svg" xmlns:xlink="http://www.w3.org/1999/xlink" width="377" height="350">
	<path d="M203.886 38.5902C204.583 38.4095 205.267 38.4372 205.936 38.7093C206.826 39.0715 207.402 39.5204 207.766 40.4173C207.973 44.9876 197.847 49.1043 195.745 53.1818C195.91 54.1697 196.857 54.2244 197.718 54.4587C215.648 59.3362 232.923 66.4232 250.702 71.7981C253.61 72.6771 266.418 75.6693 267.85 76.8786C268.268 77.2311 268.513 77.7705 268.55 78.312C268.593 78.9554 268.354 79.5568 267.92 80.0254C265.884 82.2206 259.634 82.7765 256.741 82.7812C257.868 84.7024 259.356 86.483 260.682 88.2784C263.913 92.6503 267.271 96.9162 270.53 101.264C276.593 109.354 282.262 117.769 288.409 125.806C289.727 127.53 295.415 133.534 295.736 135.03C295.857 135.596 295.712 136.375 295.31 136.817C293.608 138.688 281.478 138.439 278.322 139.099L278.009 139.167C279.011 141.397 283.163 146.675 283.425 148.041C283.546 148.674 283.415 148.887 283.045 149.383C281.109 150.297 278.318 149.43 276.387 148.869C276.647 152.62 276.549 157.33 277.798 160.892C279.418 165.515 285.747 170.187 286.293 172.188C286.468 172.832 286.519 173.647 286.144 174.23C285.743 174.855 285.094 175.128 284.398 175.292C280.635 176.179 275.278 174.484 272.128 172.432C271.603 175.751 270.786 178.946 269.832 182.165C271.627 182.358 273.341 182.532 275.021 183.249C279.275 185.064 282.136 189.306 283.799 193.466C287.264 202.133 285.605 212.465 281.964 220.829C278.786 228.13 275.624 236.774 267.655 239.906C267.75 241.171 267.8 242.519 268.07 243.759C268.458 245.541 269.418 247.658 269.347 249.476C269.319 250.199 269.117 250.998 268.523 251.467C265.457 253.888 260.697 247.503 259.473 247.395C257.509 249.944 262.829 260.552 261.632 263.028C261.395 263.52 260.675 264.015 260.175 264.189C256.259 265.558 253.446 257.587 251.475 256.728C250.193 258.164 249.398 259.96 248.376 261.579C247.492 262.978 246.199 264.06 245.126 265.307C239.771 271.535 233.473 278.488 226.895 283.416C224.79 284.993 222.366 286.125 220.214 287.641C217.088 289.844 214.233 292.272 210.505 293.412C203.222 295.638 197.476 294.726 190.554 296.244C188.146 296.571 185.618 296.028 183.19 295.936C179.928 295.812 176.589 296.051 173.351 295.579C168.648 294.893 161.573 290.847 157.347 288.554C155.269 287.427 153.305 286.014 151.283 284.78C148.374 283.004 145.3 281.328 142.502 279.386C137.443 275.874 126.733 267.378 123.611 262.453C123.251 261.886 123.063 261.124 122.874 260.483C121.084 261.535 119.57 263.191 117.762 264.094C116.008 264.97 112.793 265.436 110.928 264.735C106.298 262.995 113.94 252.065 112.106 247.937C110.887 247.994 108.833 249.889 107.447 250.408C105.263 251.226 101.976 251.431 99.8362 250.378C99.2112 250.07 98.6683 249.612 98.4589 248.926C97.7606 246.637 101.324 245.037 102.582 243.776C103.242 243.113 103.702 242.153 104.156 241.342C101.121 240.055 98.7397 237.719 96.6634 235.224C89.4544 226.563 85.4307 216.325 84.7285 205.083C84.5829 202.751 84.4359 200.365 84.6625 198.035C85.5109 189.311 89.6162 184.882 98.2207 183.666C99.2297 183.523 101.19 183.458 101.927 182.848C102.525 180.334 99.3968 167.421 98.1511 164.742C95.7313 168.68 93.0066 172.349 89.3265 175.187C88.2196 175.365 86.4943 175.65 85.4829 175.053C84.5418 174.498 84.4969 173.625 84.8187 172.669C85.2643 171.346 85.9324 170.094 86.3032 168.744C87.8839 162.992 87.9263 155.941 86.2285 150.234C86.9184 148.413 87.815 146.742 88.7375 145.033C87.2725 145.537 85.7833 146.163 84.2047 146.007C83.4565 145.933 82.7116 145.763 82.2374 145.127C81.6272 144.307 81.6762 143.162 81.8771 142.212C82.5314 139.118 86.8251 130.551 88.4891 127.217C89.3562 125.48 90.9335 123.126 91.1325 121.199C89.9913 120.451 87.6768 120.526 86.2829 120.199C85.2564 119.959 84.0011 119.483 83.4811 118.502C83.0815 117.748 83.2279 116.877 83.5175 116.115C84.9476 112.353 108.342 80.246 111.623 77.2721C113.105 75.9293 114.991 74.9043 116.677 73.8385C120.984 71.1173 125.42 68.6105 129.724 65.8976C132.178 64.3507 134.388 62.3076 137.047 61.124C140.33 61.6727 143.663 61.9858 146.97 62.3678C147.322 60.5157 147.863 58.7666 149.046 57.2629C152.91 52.35 181.639 44.8696 189.11 42.6897C194.006 41.2608 198.799 39.2303 203.886 38.5902ZM218.413 134.521C215.804 137.684 214.418 141.544 212.198 144.954C206.895 153.105 199.158 160.726 190.077 164.439C188.366 165.138 186.552 165.858 184.697 166.016C183.848 166.089 183.116 166.014 182.354 165.613C181.988 165.142 181.804 164.876 181.879 164.253C182.211 161.47 186.389 158.828 187.997 156.521Q188.799 155.358 189.478 154.12Q190.158 152.881 190.708 151.58Q191.258 150.279 191.673 148.929Q192.088 147.578 192.363 146.193C187.951 148.393 184.903 152.014 181.059 154.979C173.92 160.485 159.525 165.723 150.564 164.878L149.562 164.429C149.112 163.551 148.619 162.742 148.536 161.742C149.432 159.607 151.022 159.437 152.674 158.092C157.901 153.838 160.402 146.75 161.141 140.305C156.942 142.244 153.762 145.032 150.034 147.691C147.023 149.838 143.786 151.818 140.618 153.729C139.13 154.626 136.337 156.249 134.514 155.63C133.991 155.452 133.697 155.197 133.469 154.702C132.326 152.225 137.659 145.216 138.66 142.424L138.774 142.102C133.864 144.701 118.947 158.416 115.088 163.029C114.425 163.823 113.63 164.769 113.72 165.858C114.435 166.34 114.816 165.966 115.602 165.98C116.275 165.993 116.463 166.147 116.923 166.613C117.425 168.166 117.01 173.466 117.031 175.504L117.322 200.8C117.355 203.789 117.874 206.878 117.725 209.85C117.666 211.026 117.264 212.229 116.816 213.31C116.59 213.457 116.337 213.695 116.066 213.7C115.263 213.714 114.577 213.533 113.992 212.953C111.317 210.296 109.011 202.506 107.698 198.868C107.402 198.046 106.928 197.282 106.679 196.446C106.031 194.276 106.071 190.572 104.23 189C103.362 188.258 101.669 188.47 100.616 188.515C97.7433 188.64 94.7118 188.889 92.6801 191.179C89.9037 194.309 89.6041 199.807 89.8693 203.771C90.1289 207.65 90.8092 212.252 91.9353 215.968C93.8061 222.141 98.0484 230.121 102.994 234.386C104.79 235.935 111.452 239.866 113.81 239.589C115.248 239.421 115.997 238.238 116.873 237.211L114.903 235.431C114.531 233.728 113.146 231.113 113.963 229.475C114.282 228.836 115.098 228.229 115.781 228.047C116.382 227.888 117.127 228.122 117.651 228.434C119.614 229.6 119.424 232.546 119.893 234.523C120.454 236.893 121.364 239.249 122.036 241.6C123.55 246.9 124.866 252.116 127.535 257.005C132.23 265.604 144.731 274.181 152.873 279.24C154.71 280.382 156.653 281.28 158.534 282.335C165.977 286.509 172.39 289.835 181.121 290.339C183.821 290.494 186.534 290.161 189.236 290.137C195.437 290.082 201.895 289.698 207.963 288.232C211.496 287.379 216.062 283.66 219.008 281.457C221.69 279.452 224.879 277.836 227.406 275.702C233.084 270.909 245.185 257.95 247.598 251.103C249.377 246.053 250.791 229.028 252.459 226.623C252.914 225.967 253.678 225.628 254.449 225.519C255.24 225.408 256.125 225.579 256.751 226.099C258.607 227.646 256.743 235.169 257.023 237.684C259.309 238.048 262.568 237.159 264.608 236.075C272.834 231.704 276.796 220.631 279.354 212.197C281.21 206.078 281.066 198.892 277.98 193.194C275.441 188.507 271.766 187.527 266.984 186.142C266.388 186.936 265.826 187.84 265.133 188.549C263.849 189.863 262.254 190.897 261.151 192.385C259.585 194.497 257.952 198.556 257.287 201.121C256.718 203.316 256.48 205.57 255.645 207.695C255.143 208.973 254.804 209.485 253.524 210.041C252.954 209.992 252.733 210.034 252.308 209.611C251.78 209.087 251.571 208.17 251.515 207.451C251.386 205.798 251.721 203.883 251.806 202.203C252.005 198.227 252.074 194.224 252.363 190.255C252.532 187.93 252.958 185.578 252.969 183.251C252.982 180.478 252.614 177.643 252.445 174.873C252.124 169.636 251.888 164.296 251.917 159.049C251.486 158.946 251.059 158.906 250.62 158.857C249.679 159.88 248.936 160.65 247.452 160.74C246.509 160.797 245.568 160.396 244.907 159.731C243.586 158.402 242.725 156.317 241.866 154.665C240.473 151.985 239.019 149.304 237.783 146.547C236.192 142.999 234.824 139.324 232.947 135.912L232.749 136.146C231.616 137.503 230.794 139.113 229.965 140.666C227.476 145.332 225.453 149.253 221.249 152.664C220.225 153.495 219.074 154.456 217.708 154.585C217.13 154.639 216.807 154.505 216.324 154.21C215.924 153.653 215.678 153.128 215.439 152.487C217.756 147.863 218.979 144.163 219.031 138.947C219.043 137.787 219.187 136.605 218.795 135.49C218.689 135.191 218.541 134.914 218.429 134.619C218.417 134.588 218.418 134.554 218.413 134.521Z"/>
	<path fill="#D1CED0" d="M250.62 158.857C251.036 155.985 251.171 152.792 252.032 150.034L252.279 149.866C252.855 151.434 252.656 153.336 252.616 154.978L256.946 157.289C255.641 157.25 254.018 156.952 252.842 157.583C252.437 158.053 252.172 158.483 251.917 159.049C251.486 158.946 251.059 158.906 250.62 158.857Z"/>
	<path d="M170.29 170.272C170.991 170.519 171.551 170.589 171.936 171.29C172.645 172.582 173.007 175.514 172.579 176.884C172.525 177.058 172.422 177.232 172.339 177.39L171.812 177.604C171.269 177.293 171.208 177.151 170.899 176.629C171.087 174.665 170.749 172.186 170.29 170.272Z"/>
	<path fill="#D1CED0" d="M168.832 177.303C168.775 177.103 168.719 176.908 168.681 176.703C168.375 175.053 167.422 171.085 168.36 169.752L169.446 169.617L169.661 170.169L170.29 170.272C170.749 172.186 171.087 174.665 170.899 176.629C170.117 176.506 169.603 176.71 168.971 177.183C168.922 177.22 168.878 177.263 168.832 177.303Z"/>
	<path d="M188.433 212.44C188.988 212.476 189.656 212.742 190.079 213.107C192.276 215.001 192.412 234.391 192.456 238.486C192.478 240.539 192.554 242.534 191.023 244.099C190.563 244.194 190.112 244.272 189.64 244.237C188.893 244.183 188.144 243.897 187.663 243.303C187.038 242.532 186.963 240.995 186.879 240.036C186.481 235.457 186.684 230.668 186.624 226.062C186.578 222.495 186.156 218.594 186.625 215.068C186.803 213.727 187.434 213.224 188.433 212.44Z"/>
	<path d="M223.499 190.858C227.211 190.503 231.425 191.313 234.705 193.102C238.768 195.317 240.477 199.166 241.754 203.379C241.37 204.154 240.943 205.172 240.212 205.675C239.719 206.014 239.46 205.942 238.918 205.791C237.477 204.426 237.389 201.957 236.888 200.13C235.324 198.724 233.695 197.343 231.723 196.562C230.125 195.929 228.323 195.992 226.625 195.922C222.138 195.683 214.248 194.881 210.749 198.072C209.438 199.268 208.717 201.325 207.272 202.34C206.701 202.742 206.413 202.687 205.781 202.583C205.312 202.162 205.072 201.98 205.027 201.295C204.91 199.503 205.794 197.582 206.935 196.253C211.321 191.141 217.399 191.341 223.499 190.858Z"/>
	<path d="M147.732 191.849C154.931 191.748 163.558 191.752 169.24 196.869C169.564 198.115 170.044 200.15 169.47 201.355C169.227 201.865 169.092 201.868 168.593 202.063C167.17 201.741 166.57 200.752 165.757 199.644C163.256 198.988 160.781 197.511 158.239 197.166C156.566 198.419 152.587 197.824 150.511 197.806C143.974 197.694 144.34 196.319 137.999 200.13C137.143 201.485 136.88 202.747 136.541 204.292C136.35 205.16 136.09 205.978 135.249 206.429C134.678 206.736 134.42 206.667 133.818 206.5C133.064 205.859 132.814 205.102 132.731 204.13C132.531 201.761 133.778 198.953 135.295 197.187C138.388 193.589 143.173 192.182 147.732 191.849Z"/>
	<path d="M101.81 215.085C102.418 216.38 103.379 218.118 103.556 219.521C103.65 220.263 103.46 221.089 102.997 221.685Q102.849 221.877 102.665 222.035Q102.48 222.193 102.268 222.31Q102.055 222.427 101.823 222.498Q101.591 222.569 101.349 222.591C100.557 222.666 99.7989 222.354 99.2046 221.841C96.2412 219.286 95.2141 211.188 95.7794 207.644C96.0254 206.103 97.1969 204.452 97.1221 202.976C96.6575 202.729 96.1605 202.615 95.6995 202.378C94.987 202.012 94.2435 201.415 94.0257 200.61C93.8685 200.028 94.0317 199.436 94.3763 198.956C94.936 198.176 95.8619 197.779 96.7875 197.642C98.8274 197.339 100.727 198.147 102.334 199.349C105.251 201.533 106.584 207.963 108.269 211.38C109.471 213.817 114.03 219.358 114.164 220.867C114.214 221.426 114.063 222.043 113.698 222.477C113.3 222.951 112.757 223.207 112.127 223.214C108.155 223.259 106.326 217.262 103.716 214.983L101.81 215.085ZM101.81 215.085L103.716 214.983C103.29 213.661 102.311 210.069 101.236 209.297C100.619 211.12 101.286 213.31 101.81 215.085Z"/>
	<path fill="#D1CED0" fill-opacity="0.98823529" d="M101.81 215.085C101.286 213.31 100.619 211.12 101.236 209.297C102.311 210.069 103.29 213.661 103.716 214.983L101.81 215.085Z"/>
	<path d="M270.673 195.113C271.423 195.197 272.249 195.37 272.938 195.685C273.853 196.102 275.179 197.102 275.47 198.098C275.604 198.556 275.573 198.984 275.32 199.389C274.175 201.224 271.812 200.373 270.136 200.78C270.232 202.415 275.546 207.066 274.638 214.397C274.285 217.248 271.915 222.397 269.576 224.124C268.899 224.623 267.736 225.437 266.863 225.267Q266.569 225.207 266.293 225.088Q266.017 224.969 265.771 224.797Q265.525 224.624 265.32 224.405Q265.115 224.186 264.958 223.93C263.646 221.793 267.625 218.571 268.608 216.72C269.084 215.824 269.279 214.787 269.496 213.804C269.124 210.197 269.057 207.358 266.397 204.64C264.009 208.078 262.883 212.194 261.191 215.967C260.824 216.785 260.412 217.561 259.508 217.867C258.766 218.118 257.9 218.081 257.215 217.682C256.674 217.367 256.311 216.87 256.22 216.245C255.949 214.367 259.631 205.785 260.741 203.788C261.748 201.979 263.02 200.185 264.314 198.568C266.177 196.241 267.73 195.439 270.673 195.113Z"/>
	<path d="M207.395 161.312C209.952 161.739 212.831 161.515 215.425 161.506Q221.142 161.471 226.858 161.588C229.019 161.626 231.284 161.526 233.384 162.095C234.909 164.202 235.411 162.392 237.433 162.928C240.682 163.79 245.447 172.827 247.004 175.66C246.642 176.018 246.222 176.495 245.769 176.733C244.8 177.243 241.974 175.896 240.845 175.626C239.638 174.77 238.498 173.775 237.341 172.849C232.289 173.077 227.24 172.968 222.193 173.133C217.163 173.297 207.07 174.287 202.652 173.335C202.006 171.164 201.428 170.493 199.846 168.958C199.698 167.907 200.285 165.905 200.781 164.953C202.263 162.108 204.538 162.179 207.164 161.384L207.395 161.312Z"/>
	<path d="M150.353 167.288C155.099 167.027 164.786 164.643 168.427 167.949C168.98 168.451 169.219 168.901 169.446 169.617L168.36 169.752C167.422 171.085 168.375 175.053 168.681 176.703C168.719 176.908 168.775 177.103 168.832 177.303C168.572 177.44 168.28 177.608 167.994 177.675C167.323 177.832 167 177.63 166.441 177.321C165.596 177.196 165.106 177.27 164.313 177.587C163.899 177.984 163.436 178.167 162.87 178.272C159.149 178.962 155.031 178.735 151.25 178.973C145.237 179.351 139.272 180.046 133.279 180.584C130.983 182.984 129.004 184.48 125.775 185.495C124.989 185.122 124.291 184.741 123.577 184.237C123.314 183.745 123.27 183.395 123.356 182.838C123.682 180.727 127.402 173.504 129.087 172.427C129.981 171.856 132.872 170.073 133.867 170.109C134.299 170.125 134.935 170.362 135.369 170.465C135.928 170.32 136.143 170.175 136.544 169.751C136.807 169.474 137.427 168.74 137.794 168.628C139.772 168.027 143.154 168.732 145.111 167.949C145.209 167.909 145.305 167.863 145.403 167.82C146.974 167.398 148.727 167.53 150.353 167.288Z"/>
	<path fill="#D1CED0" d="M164.313 177.587C164.162 176.583 163.824 175.082 164.155 174.117C164.396 173.413 164.704 173.068 165.351 172.757L165.836 172.982C166.9 174.316 166.554 175.734 166.441 177.321C165.596 177.196 165.106 177.27 164.313 177.587Z"/>
	<path d="M210.301 257.286C210.637 257.354 210.922 257.517 211.229 257.665C211.462 258.069 211.595 258.41 211.681 258.867C212.88 265.264 208.111 271.393 204.656 276.392C202.878 278.962 200.638 281.648 197.388 282.205C191.587 283.199 186.394 279.459 181.932 276.294C179.985 274.86 174.54 271.362 173.737 269.175C173.512 268.563 173.659 267.945 173.988 267.397C174.077 267.249 174.243 267.063 174.358 266.935C175.766 265.371 197.87 262.549 201.891 261.688C204.515 261.127 205.493 258.871 207.674 257.921C208.461 257.578 209.457 257.451 210.301 257.286ZM202.914 266.298C200.529 266.817 198.162 267.86 195.741 268.112C193.53 268.342 183.649 268.963 182.272 269.622Q184.043 270.954 185.862 272.219C187.327 271.854 191.314 270.393 192.63 271.259C193.172 271.616 193.363 271.906 193.541 272.507C193.443 272.611 193.207 272.901 193.087 272.966C192.135 273.578 191.341 273.997 190.266 274.346C190.026 274.424 189.789 274.511 189.551 274.592C191.309 275.85 193.666 277.155 195.916 276.733C198.239 276.297 199.455 274.236 200.727 272.467C199.627 272.538 198.514 272.7 197.457 272.317C196.968 271.87 196.811 271.683 196.789 270.999C196.774 270.516 197.052 270.051 197.403 269.738C198.554 268.712 201.233 268.527 202.768 268.21C203.294 267.735 204.276 267.067 204.433 266.367C203.854 266.116 203.532 266.226 202.914 266.298Z"/>
</svg>
