<?xml version="1.0" encoding="utf-8" ?>
<svg xmlns="http://www.w3.org/2000/svg" xmlns:xlink="http://www.w3.org/1999/xlink" width="686" height="314">
	<defs>
		<linearGradient id="gradient_0" gradientUnits="userSpaceOnUse" x1="44.097191" y1="172.88112" x2="43.259911" y2="174.05476">
			<stop offset="0" stop-color="#000001" stop-opacity="0.93725491"/>
			<stop offset="1" stop-color="#010000" stop-opacity="0.98039216"/>
		</linearGradient>
	</defs>
	<path fill="url(#gradient_0)" d="M44.5956 170.445C44.3906 170.998 44.0413 171.721 44.1761 172.314C44.1615 172.71 44.0435 173.005 44.3344 173.304C44.7562 173.737 45.5984 173.908 46.1672 174.085C45.5335 174.429 44.8595 174.745 44.299 175.201C43.3339 175.36 41.2787 174.177 40.3313 173.771C41.6847 172.483 42.9123 171.299 44.5956 170.445Z"/>
	<path fill="#010000" fill-opacity="0.97647059" d="M520.851 122.968C520.696 122.48 520.531 121.978 520.449 121.471C520.333 120.756 520.516 120.099 520.942 119.521C522.855 116.932 528.638 116.631 531.543 116.282L532.034 117.013L531.058 117.598C531.286 117.627 531.563 117.693 531.795 117.663C528.75 119.299 524.466 118.142 521.853 121.004L521.76 122.035L520.851 122.968Z"/>
	<path fill="#010000" fill-opacity="0.98039216" d="M46.1672 174.085C50.8264 175.461 56.0059 175.583 60.8238 175.947L60.8979 176.352L59.532 176.822C60.3396 176.934 61.0565 176.972 61.7376 177.462C55.7602 177.38 50.0584 176.972 44.299 175.201C44.8595 174.745 45.5335 174.429 46.1672 174.085Z"/>
	<defs>
		<linearGradient id="gradient_1" gradientUnits="userSpaceOnUse" x1="74.867752" y1="177.13982" x2="75.194748" y2="175.39807">
			<stop offset="0" stop-color="black" stop-opacity="0.96862745"/>
			<stop offset="1" stop-color="#010000"/>
		</linearGradient>
	</defs>
	<path fill="url(#gradient_1)" d="M60.8238 175.947C65.2303 176.003 69.6135 175.601 74.0167 175.558C76.513 175.691 78.7223 176.257 81.1657 176.655C78.0273 177.218 74.9101 177.38 71.7257 177.342C68.3942 177.531 65.0724 177.493 61.7376 177.462C61.0565 176.972 60.3396 176.934 59.532 176.822L60.8979 176.352L60.8238 175.947Z"/>
	<path fill="#010000" d="M60.8979 176.352C62.873 176.378 70.544 176.011 71.9102 176.936L71.7257 177.342C68.3942 177.531 65.0724 177.493 61.7376 177.462C61.0565 176.972 60.3396 176.934 59.532 176.822L60.8979 176.352Z"/>
	<path fill="#010000" d="M504.043 219.111L527.357 219.569C527.679 219.632 527.947 219.731 528.265 219.629L528.936 220.123L529.026 220.011C526.477 220.228 522.405 219.403 520.151 220.547C519.689 220.782 519.148 221.035 518.647 221.153C510.603 221.579 501.854 220.922 493.865 219.889C494.686 219.451 501.691 219.524 504.043 219.111Z"/>
	<path fill="#010000" fill-opacity="0.97254902" d="M471.615 209.121L471.792 209.241C473.402 210.362 474.595 211.986 476.221 213.082C481.958 216.945 490.229 218.147 496.972 218.515C498.974 218.625 502.187 218.357 504.043 219.111C501.691 219.524 494.686 219.451 493.865 219.889C493.783 219.897 493.701 219.906 493.618 219.913C492.288 220.019 490.502 219.563 489.165 219.363C481.559 218.224 476.66 215.399 470.964 210.399L471.62 209.801L471.615 209.121Z"/>
	<path fill="#010000" fill-opacity="0.98039216" d="M130.801 219.557C134.556 218.827 138.43 218.709 142.231 218.321C148.84 217.646 154.996 216.223 161.205 213.873C161.301 214.389 161.362 214.945 161.542 215.438C154.712 219.065 142.197 220.74 134.305 220.55L134.249 220.198C134.057 220.172 133.884 220.159 133.69 220.17C132.476 220.245 131.817 220.273 130.801 219.557Z"/>
	<path fill="#010000" d="M531.543 116.282C542.528 114.112 577.229 113.347 586.364 119.32C587.149 119.833 587.654 120.362 588.107 121.182C588.134 121.559 588.192 121.902 588.038 122.26L586.809 122.611C586.778 122.053 586.667 121.73 586.228 121.355C577.225 113.663 543.833 116.848 531.795 117.663C531.563 117.693 531.286 117.627 531.058 117.598L532.034 117.013L531.543 116.282Z"/>
	<path fill="#010000" d="M521.76 122.035C534.276 128.956 563.645 125.962 578.648 125.95C579.351 126.117 579.874 126.09 580.306 126.707C579.942 126.99 579.64 127.218 579.199 127.375C566.067 127.172 530.048 130.749 520.851 122.968L521.76 122.035Z"/>
	<path fill="#010000" d="M573.099 218.871C572.217 219.749 570.168 220.203 568.95 220.514C562.028 222.277 548.724 224.229 542.213 220.187C541.428 219.7 540.918 219.231 540.695 218.3C541.024 217.463 541.214 217.146 541.958 216.635C546.243 213.695 569.381 213.531 574.998 214.559C574.776 215.317 574.631 215.466 573.878 215.839C573.598 215.978 573.28 216.065 572.98 216.153C571.818 215.02 563.5 215.495 561.443 215.52C556.821 215.578 547.331 215.555 543.38 217.697L542.903 218.333C543.181 219.052 543.432 219.201 544.138 219.52C549.856 222.107 564.821 220.612 570.643 218.229C570.74 218.189 570.833 218.142 570.928 218.098C571.739 218.267 572.385 218.418 573.099 218.871Z"/>
	<path fill="#010000" fill-opacity="0.97647059" d="M519.797 161.468L520.793 161.134C521.183 161.694 521.547 162.276 521.712 162.947C522.624 166.67 522.89 170.817 523.454 174.626Q524.851 183.494 526.561 192.307C527.218 195.717 528.04 198.946 529.111 202.252C530.434 206.335 534.56 213.984 533.904 218.055C533.765 218.914 533.198 219.571 532.505 220.058C529.396 222.243 522.37 221.304 518.647 221.153C519.148 221.035 519.689 220.782 520.151 220.547C522.405 219.403 526.477 220.228 529.026 220.011L528.936 220.123L528.265 219.629C527.947 219.731 527.679 219.632 527.357 219.569C529.427 219.547 531.127 219.497 532.676 217.996C533.247 213.287 528.218 205.002 526.84 200.084C525.021 193.595 523.824 186.786 522.764 180.134C522.096 175.946 521.325 164.564 519.797 161.468Z"/>
	<path fill="#010000" fill-opacity="0.96862745" d="M586.809 122.611L588.038 122.26C588.155 123.009 588.253 123.715 588.557 124.416C589.742 125.194 590.749 125.379 591.081 126.913C591.905 130.721 589.443 143.048 587.252 146.334C587.173 146.454 587.087 146.569 587.001 146.684L587.129 146.648C592.614 145.087 596.885 140.502 602.986 143.841C604.655 144.755 606.171 145.934 606.716 147.806L606.539 148.741C606.792 149.796 606.64 150.713 606.028 151.631C605.999 151.673 605.964 151.711 605.933 151.751C605.946 151.692 605.961 151.632 605.972 151.572C606.266 150.074 605.801 148.994 605.001 147.753C604.977 147.676 604.959 147.598 604.928 147.524C604.516 146.523 602.833 145.294 601.882 144.857C597.288 142.743 591.477 146.001 588.248 149.277C587.299 150.239 586.578 151.782 585.335 152.261C584.856 151.872 584.811 151.787 584.828 151.155C584.979 145.444 590.807 135.011 589.979 128.922C589.838 127.89 589.5 127.481 588.71 126.849C586.415 126.358 581.197 129.952 577.337 130.699C577.1 130.317 576.638 129.959 576.31 129.643C576.521 129.595 576.728 129.54 576.935 129.475C577.839 129.194 579.071 128.766 579.539 127.899L579.199 127.375C579.64 127.218 579.942 126.99 580.306 126.707C579.874 126.09 579.351 126.117 578.648 125.95C580.993 125.555 584.058 126.167 586.077 124.781C586.677 123.993 586.814 123.602 586.809 122.611Z"/>
	<defs>
		<linearGradient id="gradient_2" gradientUnits="userSpaceOnUse" x1="127.01369" y1="220.98283" x2="127.22166" y2="219.35442">
			<stop offset="0" stop-color="black" stop-opacity="0.96470588"/>
			<stop offset="1" stop-color="#010000"/>
		</linearGradient>
	</defs>
	<path fill="url(#gradient_2)" d="M134.305 220.55C127.479 223.032 114.557 218.942 108.65 222.411C105.913 224.018 107.489 234.196 106.568 237.891C105.586 241.83 102.065 244.831 98.7312 246.852C95.7095 248.684 79.4167 254.834 76.3443 254.084C76.6782 253.355 77.1393 253.072 77.8704 252.749C85.1377 249.54 93.0062 248.991 99.9893 243.966C101.603 242.805 102.717 241.425 103.709 239.723C106.993 234.088 104.482 230.41 105.478 224.88C105.76 223.314 106.523 221.827 107.889 220.941C109.067 220.179 110.755 219.97 112.13 219.817C114.722 219.529 128.834 219.092 130.801 219.557C131.817 220.273 132.476 220.245 133.69 220.17C133.884 220.159 134.057 220.172 134.249 220.198L134.305 220.55Z"/>
	<path fill="#010000" fill-opacity="0.98823529" d="M518.769 127.719C523.097 128.024 527.724 129.342 532.088 129.916C546.887 131.865 561.579 132.288 576.31 129.643C576.638 129.959 577.1 130.317 577.337 130.699C575.59 131.98 571.698 132.233 569.567 132.483C558.004 133.84 546.426 133.249 534.891 131.847C529.832 131.233 524.693 130.013 519.601 129.933C520.77 131.937 519.946 137.65 519.966 140.091C519.991 143.212 521.451 159.077 521.223 160.192C521.155 160.523 520.966 160.85 520.793 161.134L519.797 161.468C520.21 160.228 518.425 142.977 518.478 139.099C518.515 136.402 519.301 129.855 518.769 127.719Z"/>
	<path fill="#010000" fill-opacity="0.97647059" d="M198.464 211.82L199.092 213.356C200.3 216.826 200.338 220.233 204.077 222.083C206.631 223.346 209.723 223.745 212.534 223.937C222.69 224.63 233.27 223.867 243.46 223.561Q273.218 222.428 302.994 222.032C307.361 222.017 314.892 221.427 318.778 222.136C317.334 223.186 315.411 222.008 314.072 222.708C317.224 224.485 328.347 221.856 332.543 223.235C330.588 223.976 285.97 223.956 280.179 224.054C263.521 224.335 246.896 225.149 230.232 225.286C223.585 225.341 216.674 225.795 210.067 225.053C206.292 224.63 202.902 224.143 200.397 220.923C198.395 218.35 198.089 214.954 198.464 211.82Z"/>
	<path fill="#010000" fill-opacity="0.97647059" d="M102.711 167.776C104.035 165.017 106.024 162.573 108.719 161.059C115.321 157.349 132.448 157.847 140.617 156.921C142.885 156.664 145.233 156.404 147.431 155.785C152.22 154.436 158.478 150.872 163.489 152.392C166.448 153.289 167.757 155.644 169.1 158.198C168.613 158.14 168.094 157.954 167.698 158.257C166.631 156.443 165.149 154.236 162.989 153.637C158.484 152.387 149.943 156.883 145.106 157.833C135.777 159.664 116.207 158.516 109.137 162.779C106.165 164.571 104.682 167.541 103.165 170.519C97.8577 165.17 87.5292 164.512 80.4924 164.478C71.3661 164.434 60.4709 165.742 51.8722 168.841C49.2438 169.789 46.7438 171.205 44.1761 172.314C44.0413 171.721 44.3906 170.998 44.5956 170.445C46.9845 169.113 49.5627 168.085 52.1579 167.233C67.5031 162.199 87.963 160.307 102.711 167.776Z"/>
	<path fill="#010000" fill-opacity="0.98431373" d="M260.27 259.509C265.135 257.619 278.88 251.492 283.324 250.998C291.221 250.121 300.158 251.715 308.053 252.641Q342.483 256.571 376.315 264.075C385.648 266.221 395.581 268.48 404.374 272.359C405.184 272.716 406.134 273.073 406.734 273.745C406.124 274.387 406.153 274.405 406.126 275.296C405.738 275.229 405.335 275.183 404.958 275.072L404.87 274.752C396.628 266.626 300.088 250.82 284.035 252.278C278.937 252.741 260.158 262.498 258.425 262.236L257.799 261.113C258.854 258.966 259.17 256.701 260.571 254.67C261.52 254.476 262.193 253.294 262.949 252.616L263.884 252.722C262.646 254.968 261.401 257.207 260.27 259.509Z"/>
	<path fill="#010000" fill-opacity="0.95686275" d="M585.873 186.368C586.241 184.185 584.679 175.279 584.791 171.38C585.013 163.687 586.828 155.806 592.631 150.367C593.772 149.298 595.643 147.74 597.317 147.906C598.116 147.986 598.775 148.446 599.256 149.064C604.053 155.228 597.108 172.56 593.584 178.893C592.282 181.235 588.713 184.404 588.422 186.974C588.883 187.569 589.175 187.737 589.917 187.907C590.297 187.993 591.142 187.965 591.47 187.755C597.122 184.145 604.225 165.107 605.63 158.767C606.034 156.948 606.957 153.366 605.933 151.751C605.964 151.711 605.999 151.673 606.028 151.631C606.64 150.713 606.792 149.796 606.539 148.741C607.595 149.791 607.687 151.536 607.697 152.947C607.756 161.933 600.133 181.687 593.792 188.044C592.991 188.847 591.93 189.623 590.748 189.635C588.99 189.653 587.416 187.8 585.881 189.311C581.003 194.111 580.764 211.876 578.274 214.505L651.48 214.814C656.072 214.807 682.64 214.373 684.709 214.982C684.899 215.038 685.167 215.252 685.346 215.357C685.222 215.791 685.253 215.946 684.851 216.176C683.181 217.131 587.445 216.169 576.853 216.039C576.225 217.362 575.299 218.145 573.927 218.647C573.652 218.747 573.387 218.816 573.099 218.871C572.385 218.418 571.739 218.267 570.928 218.098C571.773 217.904 572.584 217.825 573.171 217.133L572.98 216.153C573.28 216.065 573.598 215.978 573.878 215.839C574.631 215.466 574.776 215.317 574.998 214.559C575.476 214.547 576.107 214.59 576.534 214.368C577.337 213.952 578.165 210.736 578.356 209.822C579.377 204.919 579.479 199.178 581.378 194.534C582.148 192.65 583.06 190.741 584.111 188.996C584.659 188.085 585.511 187.372 585.873 186.368ZM595.111 150.298C595.076 150.336 595.04 150.375 595.004 150.413C594.091 151.373 592.913 152.017 592.064 153.044C587.234 158.888 586.26 166.712 586.365 174.022C586.411 177.227 586.636 180.245 587.603 183.316L587.975 183.554C588.37 183.282 588.52 183.25 588.681 182.784C593.585 179.271 597.94 164.515 598.907 158.672C599.286 156.381 599.898 152.971 598.486 150.945C598.174 150.497 597.765 150.262 597.279 150.043C596.544 150.091 595.834 150.14 595.111 150.298Z"/>
	<path fill="#010000" d="M318.778 222.136C326.575 221.445 387.987 221.403 389.739 220.131C389.739 219.858 389.721 219.59 389.665 219.322C389.147 216.861 387.183 215.388 384.84 214.821C381.348 213.976 376.938 214.712 373.342 214.775L354.932 215.004L289.995 215.23Q274.542 215.431 259.088 215.474C254.006 215.498 248.859 215.703 243.784 215.495C242.309 215.435 240.108 215.332 238.842 214.533C238.305 213.713 238.058 212.972 238.083 211.982C238.249 205.492 249.881 195.387 254.66 190.914C255.844 189.806 256.782 189.272 258.356 188.874C263.293 187.626 268.773 187.374 273.842 186.988C287.599 185.943 301.401 185.776 315.19 185.593C331.031 185.383 347.074 184.816 362.896 185.367C364.782 186.737 367.265 186.552 369.517 186.322C368.321 186.47 367.062 186.584 365.903 186.924C374.547 187.007 382.927 188.696 391.41 190.209Q404.31 192.485 417.185 194.899C427.585 196.863 438.686 198.265 448.758 201.469C453.039 202.831 457.803 204.753 460.998 208.037C461.458 208.51 461.785 208.894 461.954 209.546C461.605 210.14 461.531 210.137 460.898 210.291C457.791 211.048 453.77 210.814 450.543 210.933Q437.538 211.421 424.528 211.737C420.544 211.834 416.076 211.454 412.181 212.072C414.768 212.32 427.161 212.322 427.951 212.793L428.009 213.104C434.563 213.131 458.07 212.956 462.764 211.372C463.867 212.609 464.841 214.978 464.799 216.664C464.79 217.003 464.689 217.292 464.514 217.578L463.801 218.147C464.604 218.442 464.628 218.543 465.393 218.196L465.346 218.539C465 219.566 464.487 220.067 463.509 220.573C462.087 221.308 460.014 221.312 458.438 221.344C453.206 221.45 448.074 220.46 442.874 220.476C435.456 220.497 427.972 221.591 420.565 221.149C415.219 221.421 409.854 221.419 404.504 221.583C401.389 221.679 398.223 222.057 395.111 221.915C396.108 225.175 393.4 231.356 391.868 234.221C387.416 242.548 378.171 247.487 369.418 250.09C351.649 255.376 330.352 253.786 312.515 249.673C300.771 246.965 290.437 240.785 278.026 244.026C274.068 245.059 270.099 246.74 267.111 249.585C266.158 250.492 264.977 252.041 263.884 252.722L262.949 252.616C262.193 253.294 261.52 254.476 260.571 254.67C259.17 256.701 258.854 258.966 257.799 261.113L258.425 262.236C260.158 262.498 278.937 252.741 284.035 252.278C300.088 250.82 396.628 266.626 404.87 274.752L404.958 275.072C405.335 275.183 405.738 275.229 406.126 275.296C406.153 274.405 406.124 274.387 406.734 273.745C408.057 274.163 409.73 274.907 410.478 276.147C410.672 276.469 410.737 276.816 410.765 277.185L410.221 277.797C409.646 278.203 409.484 278.031 408.834 277.921C405.505 277.356 402.125 277.06 398.788 276.483C370.505 271.593 342.35 266.183 313.956 261.925C306.54 260.812 293.945 258.171 286.835 259.199C281.851 259.92 264.561 268.294 260.026 270.971C258.528 271.855 257.688 272.723 257.287 274.456C257.02 275.608 257.18 276.785 257.851 277.77C258.57 278.824 259.73 279.512 260.908 279.939C263.964 281.047 267.357 281.648 270.527 282.403Q279.891 284.644 289.297 286.699Q313.551 292.214 337.892 297.332C345.503 298.883 354.487 301.253 362.168 301.407C375.025 301.665 395.292 293.489 406.386 286.889C409.754 284.886 412.767 282.311 416.034 280.148L416.551 280.611C417.309 283.616 416.459 289.342 415.561 292.3C415.468 292.399 415.336 292.546 415.227 292.639C411.339 295.936 404.322 298.567 399.705 300.965C389.108 306.467 374.723 312.394 362.737 313.161C354.423 313.694 343.381 310.554 335.084 308.818C310.526 303.68 286.171 297.667 261.674 292.244C253.303 290.391 239.002 286.466 230.863 286.052C230.615 282.662 230.721 279.659 232.333 276.552C236.338 268.828 245.919 266.005 253.551 263.601C254.069 262.857 253.591 262.068 253.579 261.171C253.559 259.64 254.042 258.09 254.537 256.655C258.862 244.106 272.855 236.666 285.672 237.513C293.904 238.056 301.863 241.582 309.815 243.633C328.819 248.535 357.109 251.132 375.155 242.327C381.312 239.322 387.16 234.318 389.357 227.608C389.951 225.795 390.338 223.805 389.435 222.045C370.485 222.472 351.496 223.48 332.543 223.235C328.347 221.856 317.224 224.485 314.072 222.708C315.411 222.008 317.334 223.186 318.778 222.136ZM365.903 186.924C353.399 187.294 340.831 187.023 328.319 187.06C312.598 187.106 296.996 187.482 281.303 188.297C275.682 188.589 263.025 188.892 258.175 190.76C254.279 192.261 249.984 197.622 247.093 200.692C244.918 203.003 239.246 208.862 239.46 212.256C239.506 212.988 239.673 213.057 240.179 213.536C244.423 214.819 263.945 213.939 269.882 213.917L362.84 213.165C366.799 213.149 382.952 212.521 385.587 213.269C389.76 214.454 390.546 219.124 392.999 220.183C393.547 219.618 393.591 218.988 393.575 218.207C393.548 216.896 392.922 213.686 393.521 212.647C397.135 211.695 408.147 211.706 412.181 212.072C416.076 211.454 420.544 211.834 424.528 211.737Q437.538 211.421 450.543 210.933C453.77 210.814 457.791 211.048 460.898 210.291C461.531 210.137 461.605 210.14 461.954 209.546C461.785 208.894 461.458 208.51 460.998 208.037C457.803 204.753 453.039 202.831 448.758 201.469C438.686 198.265 427.585 196.863 417.185 194.899Q404.31 192.485 391.41 190.209C382.927 188.696 374.547 187.007 365.903 186.924ZM257.799 261.113C256.992 261.02 256.1 261.17 255.288 261.235C255.754 262.14 256.185 262.97 256.403 263.973C254.927 265.605 250.851 266.046 248.7 266.704C239.792 269.429 232.415 274.816 232.277 284.796C237.132 285.049 242.147 286.371 246.908 287.367Q261.376 290.409 275.74 293.91L329.554 306.09C337.512 307.929 354.385 312.28 362.13 311.775C376.66 310.827 402.278 299.246 414.293 291.429C414.803 290.577 415.599 284.865 415.402 283.927C415.346 283.66 415.238 283.398 415.123 283.152C402.848 292.55 374.002 304.75 358.437 302.642C349.37 301.415 340.287 299.23 331.324 297.392Q305.611 292.287 280.132 286.119C274.165 284.694 262.459 282.801 257.414 279.848C256.296 277.862 255.313 275.775 255.998 273.44C256.644 271.242 258.66 269.906 260.583 268.905C262.638 267.834 264.803 266.976 266.874 265.931C273.278 262.698 279.864 258.489 287.122 257.662C294.732 256.794 305.434 258.981 313.101 260.106C335.464 263.385 357.686 267.719 379.958 271.569Q388.15 272.984 396.361 274.28C398.877 274.677 401.764 274.833 404.197 275.549L404.958 275.072L404.87 274.752C396.628 266.626 300.088 250.82 284.035 252.278C278.937 252.741 260.158 262.498 258.425 262.236L257.799 261.113ZM428.009 213.104C416.89 213.502 405.784 213.526 394.668 214.002C395.446 215.744 395.928 217.856 395.195 219.71C395.136 219.858 395.109 219.908 395.044 220.039C400.857 219.987 406.824 219.64 412.619 219.886C414.666 221.36 419.48 219.771 420.565 221.149C427.972 221.591 435.456 220.497 442.874 220.476C448.074 220.46 453.206 221.45 458.438 221.344C460.014 221.312 462.087 221.308 463.509 220.573C464.487 220.067 465 219.566 465.346 218.539L465.393 218.196C464.628 218.543 464.604 218.442 463.801 218.147L464.514 217.578C464.689 217.292 464.79 217.003 464.799 216.664C464.841 214.978 463.867 212.609 462.764 211.372C458.07 212.956 434.563 213.131 428.009 213.104ZM406.734 273.745C406.124 274.387 406.153 274.405 406.126 275.296C405.738 275.229 405.335 275.183 404.958 275.072L404.197 275.549C404.47 275.644 404.711 275.699 404.939 275.878L403.95 276.553C405.911 276.911 408.58 276.563 410.221 277.797L410.765 277.185C410.737 276.816 410.672 276.469 410.478 276.147C409.73 274.907 408.057 274.163 406.734 273.745Z"/>
	<path fill="#010000" fill-opacity="0.96078432" d="M406.734 273.745C408.057 274.163 409.73 274.907 410.478 276.147C410.672 276.469 410.737 276.816 410.765 277.185L410.221 277.797C408.58 276.563 405.911 276.911 403.95 276.553L404.939 275.878C404.711 275.699 404.47 275.644 404.197 275.549L404.958 275.072C405.335 275.183 405.738 275.229 406.126 275.296C406.153 274.405 406.124 274.387 406.734 273.745Z"/>
	<path fill="#FEFEFE" d="M293.416 240.775C299.622 242.224 305.567 244.671 311.796 246.125C330.93 250.59 361.215 253.469 378.537 242.707C384.21 239.182 389.392 234.558 391.21 227.866C391.615 226.378 391.766 224.042 392.71 222.832C393.366 223.949 392.697 226.541 392.368 227.796C390.509 234.883 386.215 239.796 379.946 243.439C360.118 254.957 330.83 252.596 309.504 246.806C303.848 245.271 298.391 243.051 292.656 241.814C283.737 240.483 274.362 241.465 266.916 246.987C264.616 248.692 261.353 251.838 260.571 254.67C259.17 256.701 258.854 258.966 257.799 261.113C256.992 261.02 256.1 261.17 255.288 261.235Q255.437 260.241 255.681 259.267C257.263 253.164 262.155 247.195 267.529 244.016C275.902 239.061 284.141 238.371 293.416 240.775Z"/>
	<defs>
		<linearGradient id="gradient_3" gradientUnits="userSpaceOnUse" x1="437.79721" y1="220.62369" x2="437.79126" y2="219.49312">
			<stop offset="0" stop-color="black" stop-opacity="0.96862745"/>
			<stop offset="1" stop-color="#010000"/>
		</linearGradient>
	</defs>
	<path fill="url(#gradient_3)" d="M463.801 218.147C464.604 218.442 464.628 218.543 465.393 218.196L465.346 218.539C465 219.566 464.487 220.067 463.509 220.573C462.087 221.308 460.014 221.312 458.438 221.344C453.206 221.45 448.074 220.46 442.874 220.476C435.456 220.497 427.972 221.591 420.565 221.149C419.48 219.771 414.666 221.36 412.619 219.886C417.294 219.08 422.498 219.409 427.238 219.296C432.843 219.161 438.532 218.721 444.131 218.937C449.558 219.146 455.143 219.921 460.565 219.383C461.898 219.251 462.716 218.927 463.801 218.147Z"/>
	<path fill="#010000" d="M180.719 91.0602C192.777 99.9155 211.569 104.313 224.963 111.341C229.738 105.914 233.443 97.8767 241.511 97.3398C244.733 97.1255 248 97.8218 251.033 98.8637C253.434 99.6887 263.92 105.268 265.548 104.682C266.409 101.507 265.436 99.8463 269.009 97.8452C271.292 96.5666 274.424 96.2247 276.922 97.0256C277.796 97.3056 278.649 97.7521 279.467 98.1637C282.184 102.34 280.916 107.107 280.941 111.814C283.057 114.824 288.85 119.147 289.447 122.387C289.217 123.281 288.997 123.92 288.115 124.361C287.071 124.883 285.433 124.866 284.273 124.969C291.803 128.406 299.551 130.91 302.664 139.362C303.831 142.53 301.842 147.425 302.543 149.09C303.573 151.539 323.499 162.312 323.904 165.531C322.633 166.949 320.642 167.55 318.789 167.647C313.221 167.939 306.398 164.503 302.4 160.81Q301.656 160.122 300.963 159.383C298.99 162.34 296.385 163.54 294.064 165.987C290.866 170.894 285.272 173.638 279.676 174.826C277.543 175.278 273.833 175.818 271.745 175.11C270.393 174.762 268.127 174.424 267.311 173.194C267.228 173.07 267.198 173.002 267.136 172.876C267.716 171.902 268.52 171.645 269.609 171.366C274.647 170.078 290.837 167.646 293.343 163.45C293.809 162.669 293.695 162.035 293.494 161.206C292.721 160.091 292.063 159.523 290.694 159.285C284.592 158.225 276.211 161.618 271.327 165.139C265.542 169.308 261.327 175.916 256.849 181.415C247.962 192.328 233.771 203.492 219.877 206.781C213.587 208.27 207.218 208.306 200.795 208.497C200.377 210.049 200.076 212.069 199.092 213.356L198.464 211.82C198.613 210.732 198.905 209.484 198.756 208.399C194.153 206.823 181.038 210.875 175.81 211.76Q171.09 212.594 166.299 212.481C164.859 213.648 163.277 214.751 161.542 215.438C161.362 214.945 161.301 214.389 161.205 213.873C161.393 213.399 161.392 213.218 161.289 212.719C160.355 212.314 159.356 212.359 158.358 212.367C154.8 212.393 151.193 212.86 147.633 213.045C143.384 213.266 139.098 213.186 134.844 213.113C126.527 212.971 114.505 212.168 108.38 205.688C100.985 197.864 107.128 189.456 107.272 180.842C107.294 179.546 107.074 178.258 106.119 177.308C102.512 173.717 86.5964 176.568 81.1657 176.655C78.7223 176.257 76.513 175.691 74.0167 175.558C69.6135 175.601 65.2303 176.003 60.8238 175.947C56.0059 175.583 50.8264 175.461 46.1672 174.085C45.5984 173.908 44.7562 173.737 44.3344 173.304C44.0435 173.005 44.1615 172.71 44.1761 172.314C46.7438 171.205 49.2438 169.789 51.8722 168.841C60.4709 165.742 71.3661 164.434 80.4924 164.478C87.5292 164.512 97.8577 165.17 103.165 170.519C104.682 167.541 106.165 164.571 109.137 162.779C116.207 158.516 135.777 159.664 145.106 157.833C149.943 156.883 158.484 152.387 162.989 153.637C165.149 154.236 166.631 156.443 167.698 158.257C168.094 157.954 168.613 158.14 169.1 158.198C169.63 159.121 169.81 159.783 170.784 160.248C171.846 158.957 172.684 157.19 173.917 156.089C177.148 153.204 183.85 152.537 187.977 149.596C193.42 145.717 216.895 121.77 217.433 116.378C216.552 115.21 215.222 114.485 213.945 113.817C210.33 111.926 206.335 110.605 202.576 109.001C196.715 106.502 190.924 103.801 185.017 101.413C181.94 100.169 178.616 99.2603 175.681 97.7255C176.93 94.8645 178.454 93.1672 180.719 91.0602ZM201.871 158.162L198.526 164.83C194.98 162.873 192.533 162.171 188.477 162.198C186.056 162.263 181.935 163.16 179.889 162.871C177.004 163.238 174.118 162.543 171.265 162.841C170.899 163.664 171.501 164.812 171.751 165.686C172.896 169.687 173.463 173.801 173.979 177.922C174.994 186.037 175.118 195.128 172.393 202.943C171.881 204.41 168.932 209.838 168.935 210.604C171.48 212.347 186.556 207.684 190.202 207.155C193.452 206.683 196.795 206.762 200.072 206.793C206.076 199.7 214.887 197.825 222.854 193.788C229.571 190.385 236.285 186.629 242.661 182.62C249.581 178.269 262.01 168.861 262.714 159.83C262.914 157.261 261.076 154.853 261.576 152.19C262.151 149.138 264.846 146.979 265.454 144.073C266.343 139.82 262.066 138.853 260.222 135.974C260.19 135.924 260.16 135.873 260.128 135.823C259.353 134.616 259.486 132.78 259.431 131.377C257.565 130.876 255.42 131.117 254.045 129.605C253.808 128.312 255.486 123.551 255.831 122.022C253.652 120.123 252.393 120.756 249.698 120.829C250.184 118.653 251.015 116.079 251.027 113.846C251.032 113.008 250.939 112.132 250.34 111.498C248.838 110.837 247.506 110.686 245.88 110.95C243.174 111.388 240.552 112.788 238.363 114.404C230.804 119.985 216.055 137.2 210.357 145.074C207.307 149.289 204.873 153.927 201.871 158.162ZM103.165 170.519C97.8577 165.17 87.5292 164.512 80.4924 164.478C71.3661 164.434 60.4709 165.742 51.8722 168.841C49.2438 169.789 46.7438 171.205 44.1761 172.314C44.1615 172.71 44.0435 173.005 44.3344 173.304C44.7562 173.737 45.5984 173.908 46.1672 174.085C50.8264 175.461 56.0059 175.583 60.8238 175.947C65.2303 176.003 69.6135 175.601 74.0167 175.558C76.4999 175.136 79.2556 175.174 81.7869 174.976C88.2172 174.472 95.4245 173.335 101.834 174.073C103.945 174.316 106.469 175.055 107.814 176.827C110.531 180.405 106.894 189.502 106.346 193.633C105.872 197.204 106.229 200.682 108.529 203.609C118.95 216.874 150.909 209.37 165.84 211.139C167.801 209.183 169.167 207.091 170.231 204.547C175.655 191.577 172.929 170.955 167.698 158.257C166.631 156.443 165.149 154.236 162.989 153.637C158.484 152.387 149.943 156.883 145.106 157.833C135.777 159.664 116.207 158.516 109.137 162.779C106.165 164.571 104.682 167.541 103.165 170.519ZM175.054 161.212C175.534 161.903 175.571 162.108 176.425 162.255C177.533 162.447 178.77 162.007 179.756 162.535L179.889 162.871C181.935 163.16 186.056 162.263 188.477 162.198C192.533 162.171 194.98 162.873 198.526 164.83L201.871 158.162L201.182 157.715L201.019 158.254L200.27 158.189C205.951 146.698 230.043 116.574 240.95 111.111C243.506 109.831 247.149 108.647 249.936 109.749C254.768 111.661 250.879 115.557 252.134 118.376C252.386 118.943 254.152 119.186 254.801 119.451C259.66 121.44 254.868 125.949 256.223 129.108C257.308 129.432 258.503 129.671 259.539 130.109C259.595 130.133 259.649 130.159 259.703 130.187C259.748 130.211 259.794 130.236 259.837 130.265C261.82 131.61 260.51 133.574 261.456 135.287C262.195 136.623 264.377 137.397 265.385 138.903C266.33 140.316 266.685 142.389 267.309 144.009C266.013 147.408 263.035 150.333 263.257 154.148C263.392 156.468 264.174 158.668 263.991 161.025C263.751 164.124 261.899 166.953 260.135 169.42C252.592 179.974 233.921 190.185 222.035 195.804C214.664 199.289 208.64 201.233 202.266 206.574Q202.664 206.639 203.064 206.696C221.069 209.277 242.236 196.01 253.677 182.91C259.342 176.424 263.631 168.847 270.649 163.617C275.536 159.975 284.004 156.733 290.156 157.717C292.961 158.165 294.304 159.8 295.844 161.988C296.41 161.937 296.645 161.94 297.117 161.605C298.292 160.772 299.624 158.916 299.815 157.463C300.026 155.858 299.403 153.818 298.623 152.436C292.419 141.441 273.487 144.973 265.797 134.089C265.198 133.242 264.315 131.989 264.501 130.905L265.053 130.582C273.244 130.476 284.543 137.34 291.301 141.744C293.491 143.171 295.583 144.996 297.902 146.184C299.116 146.806 299.938 146.987 301.232 146.578C301.649 146.123 301.938 145.731 302.038 145.111C302.339 143.228 301.691 140.939 300.979 139.185C295.742 126.276 278.346 127.765 268.291 121.308C264.157 118.653 261.348 114.13 258.539 110.208C259.007 109.233 258.599 108.807 259.471 107.952L260.075 108.097C260.433 108.641 260.771 108.928 261.321 109.274C262.172 109.15 262.315 109.09 262.981 108.546C273.63 116.653 273.65 121.825 288.554 123.341C285.988 119.074 279.637 115.01 279.277 109.901C279.066 106.892 279.87 103.947 279.58 100.82C279.048 100.169 278.501 99.5192 277.805 99.0379C276.29 97.9916 274.168 97.8607 272.408 98.1828C270.666 98.5016 268.684 99.4269 267.7 100.965C267.211 101.731 267.056 102.57 267.258 103.461C267.514 104.588 268.644 105.153 269.544 105.74C268.893 106.11 268.35 106.442 267.826 106.994C268.306 108.003 270.325 107.969 270.041 109.047C270.032 109.08 270.009 109.108 269.993 109.139C267.661 108.321 265.312 107.504 263.094 106.405C255.918 102.851 245.837 95.8749 237.48 99.94C233.285 101.98 228.935 109.083 225.617 112.714C221.965 111.641 218.403 110.081 214.864 108.68Q202.217 103.679 189.885 97.9469C188.576 97.3505 181.366 93.116 180.505 93.5523C179.355 94.1355 178.522 95.4637 177.986 96.5985L178.033 97.2993C180.313 98.5611 183.569 99.2098 186.076 100.19C191.962 102.49 197.669 105.212 203.471 107.712C207.486 109.442 211.905 110.954 215.729 113.06C216.519 113.495 218.234 114.451 218.463 115.399C218.976 117.521 217.523 120.013 216.33 121.674C211.801 127.98 195.222 147.085 188.982 150.894C185.115 153.256 180.778 154.091 176.853 156.158C175.495 156.873 172.863 158.522 172.767 160.244C173.351 160.841 173.924 160.853 174.693 161.033C174.901 161.082 174.835 161.07 175.054 161.212ZM301.456 150.964C301.065 152.958 301.048 154.785 301.123 156.81C304.41 161.149 310.252 165.117 315.715 165.891C317.124 166.091 319.086 166.094 320.483 165.72L320.94 165.014C319.838 162.917 304.095 151.768 301.7 151.033C301.619 151.008 301.537 150.987 301.456 150.964ZM266.601 132.339C269.638 137.638 276.033 139.968 281.591 141.478C284.087 142.156 286.607 142.729 289.044 143.6C289.224 143.665 289.399 143.702 289.587 143.731C287.179 139.369 274.601 134.238 269.911 132.888C268.807 132.57 267.763 132.259 266.601 132.339ZM271.745 175.11C273.833 175.818 277.543 175.278 279.676 174.826C285.272 173.638 290.866 170.894 294.064 165.987C292.661 166.072 290.862 167.465 289.9 168.459C289.668 168.698 289.516 168.983 289.328 169.253C289.198 169.441 289.038 169.62 288.895 169.799L289.597 169.426L288.693 169.529L288.526 168.913C284.945 168.476 280.536 170.747 277.062 171.603C276.198 171.816 274.669 171.759 273.948 172.12C273.667 172.26 273.347 172.588 273.093 172.787L273.188 173.359C273.987 173.76 274.688 173.992 275.566 174.162C274.575 174.161 273.283 173.94 272.489 174.519L272.585 174.717L271.745 175.11ZM260.781 110.114C264.428 115.528 268.355 121.463 275.383 122.619C275.558 122.648 275.743 122.654 275.92 122.656C273.558 120.137 265.278 112.113 262.735 110.615C262.112 110.248 261.494 110.14 260.781 110.114Z"/>
	<defs>
		<linearGradient id="gradient_4" gradientUnits="userSpaceOnUse" x1="274.54068" y1="173.5981" x2="274.89465" y2="174.96794">
			<stop offset="0" stop-color="#010000" stop-opacity="0.94509804"/>
			<stop offset="1" stop-color="#010000" stop-opacity="0.98039216"/>
		</linearGradient>
	</defs>
	<path fill="url(#gradient_4)" d="M271.745 175.11L272.585 174.717L272.489 174.519C273.283 173.94 274.575 174.161 275.566 174.162C274.688 173.992 273.987 173.76 273.188 173.359L273.093 172.787C273.347 172.588 273.667 172.26 273.948 172.12C274.669 171.759 276.198 171.816 277.062 171.603C280.536 170.747 284.945 168.476 288.526 168.913L288.693 169.529L289.597 169.426L288.895 169.799C289.038 169.62 289.198 169.441 289.328 169.253C289.516 168.983 289.668 168.698 289.9 168.459C290.862 167.465 292.661 166.072 294.064 165.987C290.866 170.894 285.272 173.638 279.676 174.826C277.543 175.278 273.833 175.818 271.745 175.11Z"/>
	<path fill="#010000" fill-opacity="0.96470588" d="M269.544 105.74C271.252 106.548 274.711 108.009 275.459 109.83C275.477 109.874 275.491 109.919 275.507 109.964C275.013 110.432 274.721 110.538 274.038 110.513C272.755 110.466 271.155 109.681 269.993 109.139C270.009 109.108 270.032 109.08 270.041 109.047C270.325 107.969 268.306 108.003 267.826 106.994C268.35 106.442 268.893 106.11 269.544 105.74Z"/>
	<path fill="#010000" fill-opacity="0.98039216" d="M258.539 110.208C257.362 109.221 255.95 108.017 254.488 107.518C253.196 107.077 251.576 107.579 250.545 106.712L250.685 105.975C251.051 105.727 251.434 105.545 251.877 105.488C255.551 105.018 260.089 106.343 262.981 108.546C262.315 109.09 262.172 109.15 261.321 109.274C260.771 108.928 260.433 108.641 260.075 108.097L259.471 107.952C258.599 108.807 259.007 109.233 258.539 110.208Z"/>
	<defs>
		<linearGradient id="gradient_5" gradientUnits="userSpaceOnUse" x1="189.40656" y1="161.48399" x2="189.43796" y2="160.81525">
			<stop offset="0" stop-color="black" stop-opacity="0.95294118"/>
			<stop offset="1" stop-color="#010000" stop-opacity="0.98823529"/>
		</linearGradient>
	</defs>
	<path fill="url(#gradient_5)" d="M200.27 158.189L201.019 158.254L201.182 157.715L201.871 158.162L198.526 164.83C194.98 162.873 192.533 162.171 188.477 162.198C186.056 162.263 181.935 163.16 179.889 162.871L179.756 162.535C178.77 162.007 177.533 162.447 176.425 162.255C175.571 162.108 175.534 161.903 175.054 161.212C176.63 161.174 178.499 160.952 180.047 161.142C186.717 160.52 191.74 160.032 198.108 162.391C198.745 160.963 199.547 159.577 200.27 158.189ZM175.054 161.212C175.534 161.903 175.571 162.108 176.425 162.255C177.533 162.447 178.77 162.007 179.756 162.535L179.889 162.871C181.935 163.16 186.056 162.263 188.477 162.198L189.801 161.788C188.662 161.046 181.977 161.354 180.047 161.142C178.499 160.952 176.63 161.174 175.054 161.212Z"/>
	<path fill="#010000" fill-opacity="0.98039216" d="M175.054 161.212C176.63 161.174 178.499 160.952 180.047 161.142C181.977 161.354 188.662 161.046 189.801 161.788L188.477 162.198C186.056 162.263 181.935 163.16 179.889 162.871L179.756 162.535C178.77 162.007 177.533 162.447 176.425 162.255C175.571 162.108 175.534 161.903 175.054 161.212Z"/>
	<path fill="#010000" fill-opacity="0.98431373" d="M373.851 179.029C373.886 178.976 373.923 178.925 373.955 178.871C374.571 177.856 374.497 176.693 374.697 175.556C375.74 169.637 377.721 163.495 379.676 157.815C390.687 125.828 403.496 94.4393 416.22 63.109C418.859 56.6111 424.541 39.6037 428.6 34.6998C432.121 30.4468 438.485 29.1178 443.547 27.7329C471.909 19.9731 500.515 13.2418 528.991 5.94083C534.943 4.41471 540.974 3.07453 546.975 1.74404C549.055 1.28272 551.276 1.13855 553.299 0.510861C553.514 0.697312 553.885 0.904359 553.909 1.19138C554.188 4.57464 549.278 16.5869 547.856 20.4992Q533.312 59.7989 517.028 98.4092Q497.742 145.947 476.508 192.646C474.962 195.974 472.273 203.263 470.01 205.821C469.911 205.932 469.806 206.039 469.7 206.143C470.499 206.882 471.502 207.771 471.618 208.931C471.624 208.994 471.616 209.058 471.615 209.121L471.62 209.801L470.964 210.399C470.616 209.7 470.382 209.106 469.654 208.726C468.072 208.998 466.325 211.226 464.527 211.904C465.456 213.463 466.759 215.448 466.271 217.345C466.102 218 465.862 218.174 465.346 218.539L465.393 218.196C464.628 218.543 464.604 218.442 463.801 218.147L464.514 217.578C464.689 217.292 464.79 217.003 464.799 216.664C464.841 214.978 463.867 212.609 462.764 211.372C458.07 212.956 434.563 213.131 428.009 213.104L427.951 212.793C427.161 212.322 414.768 212.32 412.181 212.072C416.076 211.454 420.544 211.834 424.528 211.737Q437.538 211.421 450.543 210.933C453.77 210.814 457.791 211.048 460.898 210.291C461.531 210.137 461.605 210.14 461.954 209.546C461.785 208.894 461.458 208.51 460.998 208.037C457.803 204.753 453.039 202.831 448.758 201.469C438.686 198.265 427.585 196.863 417.185 194.899Q404.31 192.485 391.41 190.209C382.927 188.696 374.547 187.007 365.903 186.924C367.062 186.584 368.321 186.47 369.517 186.322C367.265 186.552 364.782 186.737 362.896 185.367C373.051 183.832 411.937 192.297 424.367 194.745C432.055 196.259 439.962 197.43 447.525 199.48C451.271 200.496 455.737 201.795 458.917 204.107C460.098 204.966 463.937 209.514 464.572 209.744C464.719 209.797 465.302 209.684 465.489 209.669C466.441 209.108 467.481 208.023 467.727 206.914C467.783 206.663 467.81 206.425 467.82 206.169C467.544 204.044 465.139 201.77 463.521 200.515C446.45 187.262 396.825 185.171 373.851 179.029ZM549.8 2.51291C549.763 2.5421 549.728 2.57286 549.69 2.60047C548.458 3.49933 530.733 7.28818 528.05 7.9188C509.729 12.2254 491.557 17.0132 473.299 21.5544C461.605 24.4629 445.528 27.6703 434.607 32.2337C432.782 32.9964 430.743 34.4073 429.5 35.9592C426.782 39.352 423.74 48.5566 421.933 52.9439L405.217 94.3111C401.393 103.696 397.876 113.182 394.255 122.644C390.243 133.131 386.182 143.556 382.614 154.206C380.425 160.74 377.598 167.772 376.332 174.517C376.12 175.643 375.847 176.948 376.221 178.055C378.853 179.908 394.211 181.505 398.316 182.33C414.782 184.39 457.574 189.36 468.12 202.723C468.421 203.105 468.637 203.505 468.808 203.96C469.979 202.914 470.627 201.683 471.348 200.308C474.788 193.746 477.542 186.746 480.536 179.968L496.139 144.237Q519.045 91.3459 539.801 37.574C543.103 28.9231 551.007 11.1247 551.866 2.88693L551.668 2.43537C550.987 2.3509 550.47 2.35492 549.8 2.51291Z"/>
</svg>
