<?xml version="1.0" encoding="utf-8" ?>
<svg xmlns="http://www.w3.org/2000/svg" xmlns:xlink="http://www.w3.org/1999/xlink" width="450" height="416">
	<path fill="#010000" d="M0 0L168.778 0L177.062 0L327.829 0L449.562 0C449.835 0.482197 449.946 0.818529 449.974 1.37194C450.271 7.27454 450.011 13.3295 450.011 19.248L450.006 54.4703L449.997 162.002L449.998 337.612L450.012 376.242C450.013 378.937 450.422 387.729 449.866 389.743Q449.796 389.997 449.711 390.246C450.366 392.174 450.419 401.286 449.682 403.201C450.274 404.86 450.428 414.324 449.644 415.865C449.62 415.912 449.59 415.955 449.562 416L229.898 416L220.828 416L220.562 416L56.2081 416L55.7922 416L0 416L0 398.36L0 393.484L0 0ZM44.7608 234.265C47.8107 234.438 50.8645 234.245 53.9079 234.427L53.9409 230.622C58.1181 229.597 62.6211 229.844 66.8295 230.681L66.5129 234.415C79.7439 234.015 93.0085 234.44 106.245 234.267Q184.37 233.33 262.5 233.281L344.306 232.706C357.078 232.611 369.992 232.074 382.756 232.475C382.758 231.243 382.745 230.012 382.826 228.782C385.381 228.42 393.293 227.593 395.337 229.025C395.946 229.453 395.983 229.889 396.041 230.585C396.094 231.213 395.957 231.853 396.389 232.364C397.761 232.384 399.142 232.367 400.506 232.53C400.423 229.069 400.473 225.163 401.008 221.742C400.724 218.992 401.234 215.812 401.316 213.031Q401.955 195.885 403.19 178.771C403.869 168.083 404.082 157.333 404.43 146.632C404.669 139.263 405.101 131.898 405.322 124.528Q406.016 93.5615 405.79 62.5881C405.73 53.5411 404.866 44.3382 405.367 35.3142C404.93 30.9603 404.841 14.7315 401.925 12.1636C399.284 9.83877 291.221 9.68001 278.277 9.68129Q189.61 9.79462 100.956 11.3334C86.6099 11.6379 72.3045 11.8969 57.9635 12.4078C52.1965 12.6132 45.678 12.2184 40.0558 13.4337C39.7189 13.5065 39.5328 13.6146 39.2846 13.8484C37.8034 17.8193 38.522 37.1064 38.5327 43.0342Q38.6771 138.746 44.7608 234.265ZM234.833 238.136C221.632 238.411 208.394 238.225 195.188 238.298Q130.86 238.384 66.5414 239.495C66.6002 240.81 66.8082 242.327 66.4751 243.602C65.402 244.613 62.5676 244.409 61.1728 244.369C58.7178 244.299 56.2216 244.201 53.7854 243.889C53.8112 242.505 53.9414 241.024 53.6284 239.673C50.3036 239.577 46.955 239.685 43.6282 239.719C40.2534 253.291 36.8426 266.73 33.0174 280.193C29.0669 294.097 -1.69682 393.482 1.28876 398.288C1.55732 398.72 1.84824 398.942 2.34995 399.027C5.14583 399.502 8.30436 399.422 11.1494 399.577C19.1383 400.014 27.016 400.226 35.0118 400.292L66.9724 400.857Q139.767 401.736 212.562 400.87L281.733 400.265L321.815 399.356C327.464 399.239 333.114 399.372 338.763 399.266C347.809 399.096 356.861 398.649 365.906 398.381C377.284 398.043 444.369 396.689 448.572 393.3C448.629 393.254 448.671 393.192 448.721 393.138C450.348 385.255 416.855 283.297 411.32 266.038L405.242 247.072C404.389 244.432 403.719 241.18 402.369 238.781C400.98 237.985 398.408 238.599 396.769 238.277C395.981 238.902 396.054 240.079 395.934 241.048C393.619 241.611 384.907 242.44 383.024 241.129C382.733 240.926 382.682 240.757 382.675 240.391C382.659 239.601 383.073 238.969 382.623 238.211C380.758 237.624 376.728 238.091 374.644 238.071L339.757 237.976L271.549 237.977L248.25 238.043C243.785 238.055 239.292 237.93 234.833 238.136ZM327.829 0C330.609 1.18998 365.495 0.997489 370.789 1.13369C374.727 1.23503 378.627 1.73911 382.558 1.9323C385.957 2.09938 390.552 1.62515 393.696 2.83229C397.516 4.29901 402.077 9.24539 403.613 13.0183C405.678 18.0905 405.588 25.6944 405.771 31.1944C405.706 32.1461 406.019 36.2306 405.627 36.5771C405.583 36.1613 405.609 35.6594 405.367 35.3142C404.866 44.3382 405.73 53.5411 405.79 62.5881Q406.015 93.5615 405.322 124.528C405.101 131.898 404.669 139.263 404.43 146.632C404.082 157.333 403.869 168.083 403.19 178.771Q401.955 195.885 401.316 213.031C401.234 215.812 400.724 218.992 401.008 221.742C401.23 223.908 400.664 227.114 401.562 229.056C401.531 230.601 401.522 232.151 401.449 233.695C399.682 233.602 397.923 233.49 396.154 233.56L396.186 237.223C398.52 237.235 400.947 237.11 403.263 237.392C404.168 241.538 405.699 245.62 406.998 249.66L413.813 270.822Q424.634 304.19 434.933 337.722Q440.656 356.171 445.867 374.771Q447.115 379.342 448.159 383.964C448.614 385.957 448.878 388.415 449.711 390.246Q449.796 389.997 449.866 389.743C450.422 387.729 450.013 378.937 450.012 376.242L449.998 337.612L449.997 162.002L450.006 54.4703L450.011 19.248C450.011 13.3295 450.271 7.27454 449.974 1.37194C449.946 0.818529 449.835 0.482197 449.562 0L327.829 0ZM0 0L0 393.484C0.242848 393.135 0.400139 392.792 0.511537 392.382C1.34283 389.321 1.82583 386.108 2.53665 383.011Q4.52516 374.68 6.77135 366.415C14.5032 337.968 23.5549 309.882 31.6317 281.533Q35.7101 267.271 39.5134 252.933C40.6598 248.514 41.2687 243.67 42.8174 239.407C44.4585 237.885 50.4386 239.334 52.7637 238.417C53.4299 238.154 53.5574 237.9 53.8491 237.271C53.763 236.498 53.7765 236.346 53.2765 235.711C51.8953 235.144 46.236 235.536 44.3503 235.532C42.5151 219.087 41.9765 202.65 41.1779 186.138Q38.7751 136.834 38.2444 87.4736Q37.6115 63.7142 37.4529 39.9466C37.4557 30.9326 37.3022 21.7128 38.4807 12.7661C42.7914 9.1359 46.9617 5.84161 52.5467 4.40876C57.0181 3.26164 61.4339 3.24257 65.9977 2.99452C69.4888 2.80478 72.9745 2.47359 76.4686 2.34479C79.9466 2.2166 83.4323 2.27845 86.9128 2.16374C95.0651 1.89507 103.216 1.26939 111.368 1.09262C117.103 0.968252 122.852 1.22916 128.589 1.18661Q148.421 0.949241 168.249 0.495187L168.778 0L0 0ZM1.66331 399.588C3.08005 403.231 3.20909 407.573 5.95203 410.611C7.27739 412.079 9.47806 412.629 11.3618 412.968C15.6689 413.743 20.9164 413.543 25.3319 413.747C41.4061 414.491 57.4499 414.135 73.5235 414.607L73.8886 414.944C73.4063 415.084 72.9292 415.196 72.4387 415.301C69.5778 415.145 58.7732 414.343 56.5077 415.534L56.2081 416L220.562 416L220.828 416C221.644 415.299 223.316 415.505 224.374 415.491C222.835 415.102 221.969 415.647 220.768 414.391C224.12 413.871 229.829 414.309 233.389 414.311L263.258 414.324Q337.17 414.098 411.032 411.382C417.093 411.144 442.763 410.563 446.773 408.605C447.421 407.895 447.725 407.22 447.995 406.298C448.667 404.001 449.532 396.26 448.485 394.349C442.355 397.37 393.073 398.492 384.241 398.773Q232.648 403.114 80.9999 401.711C60.7946 401.572 40.6328 401.758 20.4366 400.858C14.2365 400.581 7.75051 400.948 1.66331 399.588ZM236.332 1.1148C227.701 1.32168 219.059 1.19736 210.426 1.26274Q179.831 1.65453 149.233 1.68363C136.16 1.77559 123.067 2.26764 109.992 2.50264C104.21 2.60657 98.4028 2.54845 92.6258 2.73095C87.1662 2.90343 81.715 3.30666 76.2567 3.511C69.2009 3.77515 61.6274 3.57846 54.6903 4.95839C49.5421 5.98245 44.6599 8.46931 41.0213 12.2714C46.247 12.1551 51.4594 11.5831 56.6849 11.3873C60.4222 11.2474 64.1623 11.3331 67.8999 11.2281L95.6927 10.3462Q151.424 9.1796 207.168 9.29156C224.566 8.76807 242.041 8.92388 259.449 8.92021Q300.599 8.69627 341.746 9.29044C349.08 9.36341 356.417 9.21329 363.751 9.30774C370.596 9.3959 377.461 9.72397 384.301 10.0014C390.026 10.2335 396.002 10.0564 401.615 11.2675C398.879 7.64375 396.02 4.01998 391.257 3.37571C383.506 2.32725 375.416 2.57136 367.607 2.35473C353.011 1.94978 338.463 1.62397 323.86 1.52766L259.291 1.06374C251.646 1.06456 243.974 0.939226 236.332 1.1148ZM359.314 233.61C353.033 233.915 346.673 233.723 340.383 233.725C326.694 233.728 312.989 233.568 299.302 233.737L150.953 234.741L94.2174 235.175L77.5183 235.262C73.8992 235.276 70.2196 235.141 66.6216 235.568C66.6125 236.533 66.6085 237.484 66.4858 238.443C74.0403 238.138 81.6272 238.27 89.1875 238.268L265.98 237.032L349.572 237.025C360.653 237.035 371.722 237.459 382.807 237.234C382.593 235.96 382.732 234.759 382.853 233.484Q371.084 233.652 359.314 233.61ZM232.516 415.524L229.898 416L449.562 416C449.59 415.955 449.62 415.912 449.644 415.865C450.428 414.324 450.274 404.86 449.682 403.201C449.103 405.279 449.153 408.392 447.047 409.562C443.836 411.346 428.01 411.609 423.406 411.848Q375.254 414.15 327.051 414.758Q292.737 414.684 258.427 415.184C249.804 415.294 241.13 415.175 232.516 415.524ZM55.8282 230.811C55.3187 231.041 54.9397 231.091 54.7152 231.657C54.1674 233.038 54.7132 240.477 54.3025 242.989C54.2824 243.113 54.267 243.237 54.2483 243.361L54.2128 243.583C57.2824 243.154 60.3877 243.724 63.3929 243.296C64.1893 243.301 65.0627 243.425 65.752 242.967C66.3723 239.279 66.0283 235.252 66.2373 231.505C62.6562 231.035 59.4506 230.604 55.8282 230.811ZM383.676 229.359C382.818 231.388 383.878 237.984 383.429 240.732C387.464 241.005 391.129 240.784 395.147 240.299C395.969 239.123 395.312 231.664 395.512 229.519C392.417 229.426 386.15 229.935 383.676 229.359ZM0 398.36L0 416L55.7922 416C52.9082 414.858 24.8791 414.918 18.9748 414.597C7.55985 413.978 4.72191 413.954 1.61369 402.346C1.2781 401.093 1.06285 399.456 0.142675 398.495C0.0973124 398.448 0.0475584 398.405 0 398.36ZM224.374 415.491C223.316 415.505 221.644 415.299 220.828 416L229.898 416L232.516 415.524C229.81 415.439 227.085 415.54 224.374 415.491ZM168.778 0L168.249 0.495187C170.433 0.441493 175.276 1.06592 177.062 0L168.778 0Z"/>
	<path fill="#908E8C" fill-opacity="0.1882353" d="M168.778 0L177.062 0C175.276 1.06592 170.433 0.441493 168.249 0.495187L168.778 0Z"/>
	<path fill="#565B5A" fill-opacity="0.40784314" d="M224.374 415.491C227.085 415.54 229.81 415.439 232.516 415.524L229.898 416L220.828 416C221.644 415.299 223.316 415.505 224.374 415.491Z"/>
	<path fill="#1F1F1F" d="M203.652 414.519Q212.208 414.252 220.768 414.391C221.969 415.647 222.835 415.102 224.374 415.491C223.316 415.505 221.644 415.299 220.828 416L220.562 416C220.412 415.84 220.116 415.554 219.911 415.48C219.341 415.276 208.751 416.088 205.711 415.167C205.073 414.973 204.698 414.897 204.032 414.953C203.096 414.981 202.175 414.942 201.242 414.893C202.076 414.874 202.999 415.053 203.652 414.519Z"/>
	<path fill="#010000" fill-opacity="0.93333334" d="M73.5235 414.607Q120.446 415.173 167.37 414.794L191.629 414.554C195.543 414.502 199.785 414.108 203.652 414.519C202.999 415.053 202.076 414.874 201.242 414.893C202.175 414.942 203.096 414.981 204.032 414.953C204.698 414.897 205.073 414.973 205.711 415.167C208.751 416.088 219.341 415.276 219.911 415.48C220.116 415.554 220.412 415.84 220.562 416L56.2081 416L56.5077 415.534C58.7732 414.343 69.5778 415.145 72.4387 415.301C72.9292 415.196 73.4063 415.084 73.8886 414.944L73.5235 414.607ZM56.2081 416L220.562 416C220.412 415.84 220.116 415.554 219.911 415.48C219.341 415.276 208.751 416.088 205.711 415.167C205.073 414.973 204.698 414.897 204.032 414.953C203.242 415.318 202.341 415.825 201.458 415.858C195.673 416.076 189.82 415.746 184.027 415.749L128.217 415.388L88.4337 415.45C84.8873 415.46 75.2781 416.026 72.4387 415.301C69.5778 415.145 58.7732 414.343 56.5077 415.534L56.2081 416Z"/>
	<defs>
		<linearGradient id="gradient_0" gradientUnits="userSpaceOnUse" x1="138.7549" y1="414.73328" x2="138.7451" y2="416.26834">
			<stop offset="0" stop-color="#19171B" stop-opacity="0.93725491"/>
			<stop offset="1" stop-color="black"/>
		</linearGradient>
	</defs>
	<path fill="url(#gradient_0)" d="M56.2081 416L56.5077 415.534C58.7732 414.343 69.5778 415.145 72.4387 415.301C75.2781 416.026 84.8873 415.46 88.4337 415.45L128.217 415.388L184.027 415.749C189.82 415.746 195.673 416.076 201.458 415.858C202.341 415.825 203.242 415.318 204.032 414.953C204.698 414.897 205.073 414.973 205.711 415.167C208.751 416.088 219.341 415.276 219.911 415.48C220.116 415.554 220.412 415.84 220.562 416L56.2081 416Z"/>
	<path fill="#010000" fill-opacity="0.89411765" d="M405.771 31.1944C406.334 34.8428 406.261 38.7334 406.415 42.4352C406.913 54.4436 406.636 66.4982 406.638 78.5173Q406.666 138.527 402.891 198.417C402.409 206.045 402.09 213.739 401.75 221.378C401.639 223.886 401.855 226.584 401.562 229.056C400.664 227.114 401.23 223.908 401.008 221.742C400.724 218.992 401.234 215.812 401.316 213.031Q401.955 195.885 403.19 178.771C403.869 168.083 404.082 157.333 404.43 146.632C404.669 139.263 405.101 131.898 405.322 124.528Q406.016 93.5615 405.79 62.5881C405.73 53.5411 404.866 44.3382 405.367 35.3142C405.609 35.6594 405.583 36.1613 405.627 36.5771C406.019 36.2306 405.706 32.1461 405.771 31.1944Z"/>
	<path fill="#010000" d="M104.828 272.857C108.651 272.613 112.919 272.459 116.698 273.122L116.807 273.384C116.309 273.737 116.084 273.74 115.467 273.789C113.91 273.914 112.23 273.629 110.66 273.604C107.667 273.558 104.657 273.703 101.661 273.721C101.543 276.123 101.501 278.435 101.631 280.836Q106.943 280.935 112.255 280.944C113.585 280.814 114.932 280.768 116.267 280.688C116.392 278.714 116.219 276.752 116.349 274.8L116.594 274.634C117.567 276.471 116.758 279.539 116.686 281.58C111.521 281.927 106.263 281.746 101.084 281.738Q100.768 279.725 100.568 277.697C100.425 276.335 100.167 274.809 101.168 273.694C102.047 272.714 103.619 272.901 104.828 272.857Z"/>
	<path fill="#010000" d="M307.346 285.124C310.139 284.358 318.67 284.947 321.51 285.825C320.989 286.199 316.5 285.736 315.674 285.717C311.104 285.609 306.645 285.907 302.095 286.221C302.029 287.737 301.715 289.196 301.699 290.723C301.684 292.254 301.984 293.71 301.927 295.261Q309.818 295.605 317.713 295.392C318.943 295.28 320.191 295.301 321.426 295.282C321.377 292.551 321.278 289.725 321.523 287.006L321.735 287.239C322.126 289.24 322.544 292.24 321.866 294.2C321.751 294.532 321.677 294.793 321.633 295.146C321.586 295.534 321.578 295.57 321.364 295.934C317.934 297.168 305.559 296.486 301.544 296.181C301.26 292.533 301.261 289.011 301.437 285.358C303.409 285.235 305.373 285.317 307.346 285.124Z"/>
	<path fill="#010000" d="M304.705 243.416C306.68 243.167 308.707 243.255 310.687 243.397C310.664 244.577 310.938 251.052 310.438 251.687C308.388 251.774 306.543 251.779 304.49 251.558C304.37 249.043 303.844 245.819 304.705 243.416ZM305.715 244.324C305.128 245.328 304.632 247.768 304.958 248.902C305.206 249.767 305.892 250.561 306.711 250.929C307.388 251.234 308.799 251.018 309.552 250.984C310.251 249.16 309.801 246.325 309.763 244.35L305.715 244.324Z"/>
	<path fill="#010000" d="M348.533 243.38C350.494 243.181 352.497 243.277 354.467 243.298C354.809 246.021 354.623 248.947 354.706 251.703C352.56 251.735 350.591 251.825 348.439 251.588C348.275 249.019 348.044 245.911 348.533 243.38ZM349.463 244.212C348.567 245.893 349.012 249.088 349.308 250.943C350.666 250.998 352.036 251.019 353.391 251.123C353.988 249.131 353.568 246.346 353.518 244.258C352.159 244.307 350.817 244.381 349.463 244.212Z"/>
	<path fill="#010000" d="M315.627 243.391C317.617 243.226 319.578 243.285 321.571 243.347C321.523 245.732 322.492 249.841 321.171 251.869C319.362 252.043 317.345 251.756 315.523 251.661C315.493 248.977 314.792 245.992 315.627 243.391ZM316.712 244.359C315.916 245.519 316.425 249.499 316.577 250.996Q318.617 251.018 320.657 251.08C321.113 249.572 321.735 246.933 320.952 245.487C320.645 244.919 320.177 244.54 319.572 244.324C318.836 244.061 317.5 244.304 316.712 244.359Z"/>
	<path fill="#010000" d="M359.414 243.309C360.496 243.265 361.582 243.216 362.665 243.21C363.535 243.205 364.622 243.366 365.235 244.063C366.258 245.226 365.608 249.935 365.572 251.607C363.312 251.937 361.596 251.926 359.334 251.517C359.301 248.786 359.187 246.033 359.414 243.309ZM360.286 244.183C360.247 246.488 360.14 248.743 360.57 251.022C361.605 251.032 363.76 251.355 364.571 250.812C364.808 249.303 365.572 246.535 364.565 245.222C364.158 244.691 363.596 244.414 362.937 244.347C362.062 244.258 361.166 244.232 360.286 244.183Z"/>
	<path fill="#010000" d="M354.717 332.389C358.919 331.939 368.365 331.995 372.167 333.284L372.212 333.527C368.827 334.16 364.593 333.43 361.097 333.352C357.627 333.275 354.176 333.459 350.709 333.581C350.485 337.438 350.348 341.348 350.704 345.2C354.992 345.785 363.199 345.315 367.874 345.319L372.002 345.27C371.989 343.312 372.37 341.357 372.429 339.394C372.478 337.768 372.237 336.134 372.231 334.501L372.445 334.391L372.291 334.27L372.246 334.425L372.317 334.247C373.76 336.343 372.782 343.298 372.549 345.841C365.364 346.76 357.624 346.337 350.411 345.934C349.6 341.406 349.675 337.286 350.222 332.742C351.694 332.519 353.229 332.5 354.717 332.389Z"/>
	<path fill="#010000" d="M361.206 315.362C364.727 315.068 368.409 315.452 371.898 315.92C372.558 320.42 372.489 324.467 371.877 328.961C368.639 329.387 365.21 329.41 361.945 329.441C359.946 329.46 352.532 329.851 351.156 328.499L351.342 328.193C352.483 327.83 354.579 328.409 355.866 328.375C360.759 328.247 365.666 328.308 370.562 328.271L370.998 328.27L371.336 327.921C371.569 324.264 371.713 320.312 371.222 316.67C366.431 315.892 356.696 316.531 351.766 316.802C351.582 318.512 351.775 326.234 351.365 326.981L351.103 326.726C350.373 323.473 350.961 319.429 351.146 316.091C354.504 315.749 357.833 315.469 361.206 315.362Z"/>
	<path fill="#010000" d="M65.8192 260.861C68.8019 260.552 72.2618 260.728 75.2078 261.211C75.4781 263.013 76.0347 267.973 74.9956 269.476C73.9387 269.867 72.7396 269.746 71.625 269.743C68.2442 269.759 64.8439 269.845 61.4693 269.619C61.3606 267.93 61.1876 266.246 61.0796 264.559C61.0123 263.509 61.115 262.428 61.891 261.639C62.8705 260.643 64.5319 260.874 65.8192 260.861ZM62.6056 261.605C61.7016 263.08 62.1594 266.944 62.2658 268.697C66.3044 269.381 70.2801 268.627 74.3145 268.866C74.8447 266.629 74.5355 263.813 74.4822 261.496C71.3143 261.812 65.6474 262.13 62.6056 261.605Z"/>
	<path fill="#010000" d="M373.639 260.848C377.293 260.742 380.924 260.661 384.563 261.07C384.972 263.666 385.502 266.869 384.312 269.316C383.642 269.796 383.369 269.703 382.563 269.713C378.555 269.78 374.321 270.067 370.338 269.591Q370.31 265.384 370.416 261.178C371.487 261.049 372.566 260.957 373.639 260.848ZM371.284 261.714C370.943 264.162 370.991 266.482 371.211 268.939C375.489 269.009 379.71 268.881 383.981 268.714C384.179 266.454 384.386 264.083 384.084 261.827C379.829 261.5 375.543 261.876 371.284 261.714Z"/>
	<path fill="#010000" d="M151.16 260.86C154.418 260.712 157.596 260.831 160.843 261.092C161.254 264.067 161.07 266.784 160.737 269.742Q158.647 269.708 156.556 269.732C153.187 269.822 149.765 269.871 146.404 269.607C146.221 266.897 146.309 264.141 146.314 261.424C147.938 261.074 149.502 260.941 151.16 260.86ZM147.384 261.72C147.113 264.116 147.081 266.403 147.246 268.807C151.726 269.126 156.159 268.66 160.607 268.866C160.166 266.622 160.331 264.02 160.409 261.734C156.081 261.689 151.702 261.863 147.384 261.72Z"/>
	<path fill="#010000" d="M395.385 272.614C398.014 272.623 401.513 272.577 404.044 273.206C404.571 273.701 404.483 274.219 404.514 274.916C404.572 276.237 404.809 280.702 404.041 281.542C402.294 282.039 400.124 281.768 398.312 281.736Q393.512 281.767 388.712 281.694C388.268 278.888 388.319 275.9 388.601 273.082C390.854 272.837 393.123 272.741 395.385 272.614ZM389.475 273.523C389.155 276.037 388.906 278.312 389.543 280.796C392.536 280.869 401.402 281.565 403.741 280.604C403.885 278.283 403.725 275.968 403.86 273.667C399.628 273.641 393.442 274.052 389.475 273.523Z"/>
	<path fill="#010000" d="M121.522 272.875C124.905 272.635 130.571 272.263 133.868 272.937C134.364 273.039 134.858 273.19 135.13 273.643C136.193 275.418 135.601 279.246 135.031 281.137C134.479 281.677 134.305 281.62 133.562 281.719C128.882 281.714 124.11 281.947 119.446 281.586C119.345 279.654 118.52 274.941 119.755 273.396C120.164 272.885 120.912 272.957 121.522 272.875ZM124.352 273.622C122.937 273.664 121.507 273.745 120.093 273.692C120.039 276.077 119.964 278.426 120.229 280.802C123.884 281.002 127.608 281.035 131.262 280.816C132.325 280.796 133.387 280.764 134.449 280.806C134.605 278.359 134.61 275.968 134.524 273.519C131.131 273.834 127.736 273.432 124.352 273.622Z"/>
	<path fill="#010000" d="M236.753 272.856C240.919 272.308 245.479 272.712 249.652 273.098C249.569 275.874 249.513 278.618 249.665 281.393C248.885 281.52 248.097 281.601 247.312 281.694Q240.448 281.803 233.584 281.684C233.416 280.016 233.194 278.325 233.127 276.651C233.083 275.567 233.274 274.164 234.113 273.381C234.768 272.77 235.906 272.886 236.753 272.856ZM234.561 273.638C234.266 276.053 234.184 278.335 234.512 280.749C239.149 281.018 244.194 281.212 248.796 280.52C248.932 278.239 248.913 275.959 248.886 273.676C244.196 273.665 239.215 274.032 234.561 273.638Z"/>
	<path fill="#010000" d="M329.923 285.114C332.16 284.452 343.549 285.004 346.12 285.604C347.099 287.863 346.521 293.725 346.143 296.195C344.864 296.249 343.58 296.375 342.303 296.473C337.035 296.535 331.013 296.971 325.855 295.903C325.571 292.32 325.369 289.097 325.984 285.527Q327.955 285.339 329.923 285.114ZM330.632 285.897C329.296 285.956 327.958 286.037 326.62 285.998Q326.417 290.749 326.486 295.504C331.456 294.979 336.631 295.521 341.636 295.462C342.519 295.396 344.895 295.543 345.48 295.044C346.067 292.22 345.812 288.845 345.482 285.997C340.555 285.935 335.54 285.335 330.632 285.897Z"/>
	<path fill="#010000" d="M128.42 285.359C131.538 284.842 141.04 285.162 144.394 285.527C144.624 289.219 144.646 292.845 144.46 296.54C143.13 296.665 141.783 296.69 140.448 296.747L124.459 296.726C124.397 296.448 124.341 296.168 124.276 295.891C123.498 292.551 123.72 289.111 124.158 285.738C125.559 285.515 127.005 285.464 128.42 285.359ZM129.658 286.358C127.945 286.449 126.231 286.558 124.516 286.578C124.504 289.596 124.329 292.727 124.666 295.726C126.892 295.564 129.146 295.804 131.375 295.857Q135.595 295.919 139.813 295.776C141.105 295.723 142.414 295.709 143.702 295.597C144.001 292.461 143.999 289.531 143.842 286.384C139.665 286.249 133.655 285.626 129.658 286.358Z"/>
	<path fill="#010000" d="M78.0056 285.39C82.0767 285.041 90.6442 284.832 94.506 285.626C94.3799 289.076 95.3351 292.65 94.423 296.058C93.3677 297.05 91.3154 296.74 89.9375 296.745Q82.1778 296.775 74.4183 296.707C73.6433 293.09 73.8824 289.382 74.1672 285.727C75.416 285.482 76.7349 285.469 78.0056 285.39ZM79.2879 286.388Q77.0227 286.484 74.759 286.611C74.5707 289.651 74.3993 292.591 74.7934 295.627C79.5788 295.82 84.3353 295.941 89.125 295.783C90.4991 295.785 92.2492 296.043 93.3473 295.058C94.0322 294.443 94.3031 293.49 94.3104 292.595C94.3269 290.605 94.0478 288.577 93.9389 286.588C89.1273 285.989 84.1203 286.081 79.2879 286.388Z"/>
	<path fill="#010000" d="M278.022 285.091Q286.467 284.686 294.895 285.348C295.654 289.104 295.541 292.42 294.888 296.187L291.811 296.46C286.263 296.536 280.084 296.946 274.63 295.848C274.369 292.319 274.13 288.891 274.911 285.411L278.022 285.091ZM279.595 285.891C278.249 285.988 276.929 286.004 275.58 285.981C275.207 289.13 275.497 292.157 275.278 295.281C280.326 295.361 285.407 295.576 290.452 295.432C291.783 295.411 293.117 295.365 294.448 295.422C294.545 292.264 294.631 289.167 294.368 286.014C289.515 285.898 284.418 285.295 279.595 285.891Z"/>
	<path fill="#010000" d="M225.191 285.323C230.712 285.006 237.989 284.98 243.444 285.549C243.624 288.26 244.736 293.856 243.356 296.277C243.153 296.634 242.899 296.577 242.52 296.672C236.178 296.98 229.615 296.849 223.288 296.452C223.256 293.742 222.006 287.971 223.648 285.812C224.007 285.34 224.644 285.401 225.191 285.323ZM226.392 286.375C225.509 286.405 224.666 286.31 223.956 286.904C223.208 289.44 223.576 292.739 223.913 295.321C229.323 295.79 234.629 295.882 240.053 295.785C241.009 295.706 241.939 295.638 242.876 295.419C243.2 292.945 243.943 289.274 242.808 287C240.557 285.77 229.22 285.99 226.392 286.375Z"/>
	<path fill="#010000" d="M355.404 285.358C358.09 284.857 368.711 285.136 371.56 285.601C371.43 287.452 371.786 289.357 371.83 291.219C371.873 293.016 371.64 294.806 371.546 296.601L368.313 296.73Q359.859 296.774 351.404 296.732C350.792 293.002 350.832 289.442 351.308 285.701C352.659 285.52 354.044 285.462 355.404 285.358ZM356.87 286.357C355.152 286.467 353.415 286.528 351.706 286.724C351.552 289.818 351.422 292.664 351.995 295.73C356.649 295.708 361.28 295.906 365.937 295.79C367.447 295.791 369.328 296.076 370.485 294.9C371.226 294.145 371.35 293.105 371.303 292.093C371.218 290.251 371.025 288.395 370.901 286.552C366.441 286.176 361.293 285.722 356.87 286.357Z"/>
	<path fill="#010000" d="M201.625 285.353C205.706 284.944 214.06 285.031 218.165 285.531C218.844 288.93 218.696 293.142 218.198 296.573C216.969 296.653 215.736 296.695 214.506 296.755L198.312 296.737C198.061 295.727 197.844 294.684 197.744 293.647C197.556 291.697 197.067 287.481 198.345 285.963C199.355 285.401 200.495 285.431 201.625 285.353ZM202.978 286.375C201.454 286.448 199.923 286.557 198.398 286.505C198.637 289.586 198.474 292.682 198.612 295.769C203.456 295.69 208.274 295.942 213.125 295.784L217.458 295.664C217.932 292.478 217.961 289.528 217.558 286.332C212.721 286.201 207.809 286.004 202.978 286.375Z"/>
	<path fill="#010000" d="M152.085 285.359C157.525 285.104 163.107 285.174 168.552 285.349C169.283 288.12 169.981 293.743 168.543 296.306C167.618 296.772 166.627 296.711 165.613 296.738Q157.095 296.774 148.577 296.708C148.369 293.096 148.165 289.422 148.47 285.811C149.653 285.546 150.881 285.477 152.085 285.359ZM153.701 286.353C152.187 286.428 150.665 286.535 149.148 286.516C149.227 289.128 148.433 292.679 149.335 295.112C151.613 296.491 161.818 295.841 164.812 295.758C165.984 295.717 167.178 295.634 168.349 295.657Q168.49 290.974 168.401 286.29C163.509 286.521 158.611 286.011 153.701 286.353Z"/>
	<path fill="#010000" d="M100.93 285.33C104.949 284.95 114.855 285.045 118.883 285.517C119.556 288.067 120.364 293.684 118.965 296.052C118.58 296.705 117.922 296.618 117.248 296.72C111.094 296.756 104.924 296.933 98.7879 296.373C98.5997 293.019 97.7954 289.192 98.9945 285.961C99.5392 285.427 100.194 285.454 100.93 285.33ZM99.5806 286.395C99.4565 289.415 99.4475 292.39 99.438 295.411C105.747 295.806 111.927 295.886 118.246 295.741C118.78 292.536 118.73 289.533 118.422 286.307C112.133 286.354 105.871 286.048 99.5806 286.395Z"/>
	<path fill="#010000" d="M175.295 285.307C181.432 285.326 187.817 284.868 193.915 285.54C193.994 285.899 194.061 286.259 194.134 286.62C194.579 288.849 195.166 294.419 193.921 296.353C193.718 296.668 193.353 296.653 193.013 296.74C186.624 296.763 180.209 296.905 173.835 296.407C173.501 293.513 172.59 288.792 173.968 286.089C174.286 285.466 174.673 285.495 175.295 285.307ZM174.534 286.282C174.359 289.394 174.275 292.388 174.494 295.503C177.812 295.562 181.117 295.836 184.438 295.875C187.406 295.909 190.397 295.697 193.358 295.798C193.61 292.602 193.694 289.609 193.378 286.405Q187.817 286.134 182.25 286.198C179.709 286.225 177.062 286.451 174.534 286.282Z"/>
	<path fill="#010000" d="M251.96 285.388C256.112 284.978 263.795 284.967 267.818 285.52Q268.01 286.188 268.106 286.876C268.398 288.865 269.07 294.705 267.672 296.293C267.074 296.972 264.801 296.753 263.938 296.751Q255.92 296.805 247.902 296.699C247.033 293.19 247.018 289.113 247.868 285.612C249.223 285.484 250.6 285.456 251.96 285.388ZM252.786 286.389C251.306 286.488 249.847 286.507 248.364 286.483C248.374 289.176 247.594 292.824 248.56 295.333C250.184 296.31 259.891 295.868 262.187 295.819C263.924 295.765 265.686 295.647 267.422 295.713C267.377 292.591 267.341 289.363 267.46 286.245C262.587 286.532 257.655 285.867 252.786 286.389Z"/>
	<path fill="#010000" d="M194.173 315.359C197.911 315.095 201.968 315.354 205.664 315.949C205.7 320.221 205.886 324.655 205.426 328.901C202.743 329.279 200.018 329.31 197.313 329.413C193.149 329.428 188.71 329.68 184.621 328.843C184.324 324.584 184.196 320.384 184.692 316.133C187.851 315.738 190.994 315.517 194.173 315.359ZM185.522 316.606C185.275 320.676 185.205 324.404 185.422 328.484C190.94 327.966 199.261 328.024 204.81 328.345C204.806 328.266 204.802 328.187 204.799 328.109C204.718 325.838 205.776 318.297 204.606 316.802C200.017 315.528 190.741 317.173 185.522 316.606Z"/>
	<path fill="#010000" d="M217.75 315.358C221.377 315.098 225.268 315.376 228.866 315.863C230.018 319.909 229.785 324.881 228.881 328.946C226.217 329.295 223.496 329.301 220.813 329.394C216.675 329.424 212.501 329.474 208.389 328.948C208.36 327.056 208.114 325.165 208.087 323.266C208.053 320.89 208.24 318.483 208.365 316.109C211.504 315.789 214.594 315.495 217.75 315.358ZM212.845 316.61C211.592 316.669 210.333 316.756 209.078 316.711C208.768 320.787 208.379 324.189 209.073 328.275Q216.88 328.349 224.687 328.314C225.915 328.319 227.146 328.305 228.372 328.387C228.539 325.342 229.116 319.363 228.426 316.612C223.682 316.466 217.501 316.028 212.845 316.61Z"/>
	<path fill="#010000" d="M169.954 315.358C173.673 315.037 177.687 315.435 181.387 315.87C181.705 320.159 181.946 324.691 181.125 328.928C178.541 329.292 175.917 329.306 173.312 329.39C171.073 329.425 162.263 329.904 160.959 328.472C159.641 327.024 160.36 318.449 160.385 316.175C163.562 315.664 166.744 315.499 169.954 315.358ZM165.482 316.606C164.076 316.673 162.67 316.76 161.262 316.734C161.059 320.62 161.108 324.377 161.254 328.263C166.736 328.547 172.282 328.273 177.774 328.308C178.652 328.318 179.525 328.325 180.401 328.39C180.808 325.05 181.481 320.154 180.601 316.904C177.444 315.982 168.937 316.319 165.482 316.606Z"/>
	<path fill="#010000" d="M241.927 315.357C245.598 315.121 249.323 315.519 252.984 315.801C253.496 320.333 253.712 324.445 252.924 328.978C249.912 329.295 246.838 329.303 243.812 329.404C240.917 329.542 235.382 329.737 232.753 328.872C231.322 327.145 232.188 318.637 232.423 316.071C235.594 315.746 238.741 315.474 241.927 315.357ZM236.489 316.64C235.549 316.665 233.975 316.495 233.192 317.018C231.758 319.862 232.537 325.201 233.025 328.267Q240.731 328.352 248.438 328.33C249.745 328.325 251.053 328.304 252.359 328.372Q252.693 322.415 252.432 316.454C247.5 317.109 241.648 316.233 236.489 316.64Z"/>
	<path fill="#010000" d="M336.818 315.375C340.737 315.168 344.564 315.49 348.467 315.808C348.866 319.868 349.145 324.995 348.183 328.97C345.196 329.295 342.152 329.32 339.149 329.436C335.342 329.445 331.28 329.608 327.531 328.873C327.363 326.164 326.871 318.46 327.768 316.232C330.245 315.215 334.144 315.501 336.818 315.375ZM328.596 316.589C327.339 319.262 328.129 325.241 328.243 328.287C331.121 328.301 346.216 328.786 347.615 328.116C347.742 324.263 347.668 320.477 347.724 316.635Q342.086 316.4 336.445 316.531C333.884 316.584 331.137 316.914 328.596 316.589Z"/>
	<path fill="#010000" d="M98.7499 315.357C102.45 315.112 106.283 315.468 109.964 315.859C110.596 320.338 110.706 324.436 109.933 328.908C107.054 329.376 103.979 329.371 101.062 329.43C97.2493 329.47 93.0935 329.638 89.3518 328.837C89.4664 327.065 89.0898 325.127 89.0058 323.332C88.891 320.882 89.1529 318.494 89.4269 316.064Q94.0775 315.567 98.7499 315.357ZM94.317 316.64C92.8982 316.673 91.4761 316.727 90.0572 316.731C89.781 320.72 89.3891 324.23 90.0465 328.234C94.9482 328.51 99.902 328.271 104.812 328.312C106.323 328.325 107.876 328.268 109.375 328.456Q109.688 322.499 109.429 316.54C104.41 316.612 99.3227 316.192 94.317 316.64Z"/>
	<path fill="#010000" d="M313.454 315.366Q318.978 315.108 324.448 315.921C324.63 318.126 325.301 326.926 324.026 328.289C322.553 329.863 316.867 329.388 314.688 329.419C311.004 329.451 307.205 329.543 303.568 328.89C303.034 324.977 302.881 319.987 303.575 316.102C306.879 315.783 310.133 315.485 313.454 315.366ZM304.68 316.614C303.461 318.312 304.168 325.971 304.296 328.273L317.679 328.348C319.501 328.358 321.906 328.683 323.656 328.285C323.653 328.214 323.65 328.143 323.648 328.073C323.556 324.938 324.793 319.715 323.596 316.902C319.553 315.429 309.386 317.248 304.68 316.614Z"/>
	<path fill="#010000" d="M290.068 315.36C292.546 315.207 298.393 314.929 300.513 316.214C301.716 318.784 301.101 326.244 300.427 328.982C297.574 329.403 294.517 329.338 291.635 329.378C287.955 329.45 283.734 329.748 280.134 328.911C279.31 324.53 279.487 320.446 279.93 316.05C283.313 315.895 286.672 315.475 290.068 315.36ZM284.577 316.625C283.211 316.688 281.842 316.774 280.475 316.764C280.892 320.47 280.568 324.689 280.453 328.434C285.746 328.168 291.104 328.256 296.403 328.328L300.188 328.249C300.289 324.686 300.968 320.646 300.351 317.141C298.15 315.981 287.528 316.389 284.577 316.625Z"/>
	<path fill="#010000" d="M146.389 315.358C150.101 315.075 153.931 315.535 157.635 315.824C157.77 319.729 158.754 324.935 157.498 328.703C155.673 329.763 151.125 329.376 148.896 329.442C144.99 329.441 140.893 329.543 137.034 328.913C136.161 324.735 136.411 320.443 136.866 316.227C139.964 315.562 143.234 315.512 146.389 315.358ZM137.471 316.462C137.548 320.397 137.399 324.331 137.556 328.265C141.007 328.433 154.33 328.719 156.887 328.16C157.479 324.872 157.944 320.533 157.25 317.202C154.765 315.263 141.556 317.356 137.471 316.462Z"/>
	<path fill="#010000" d="M122.555 315.359C124.817 315.169 127.261 315.304 129.534 315.39C130.793 315.438 132.501 315.503 133.37 316.563C134.99 318.541 133.845 326.244 133.64 329.001Q129.356 329.321 125.062 329.426C121.111 329.446 117.007 329.539 113.097 328.909C112.011 324.919 112.427 320.383 112.822 316.303C115.877 315.466 119.404 315.515 122.555 315.359ZM113.442 316.536C113.613 320.436 113.522 324.393 113.448 328.296C116.489 328.31 131.639 328.784 133.014 327.921C133.291 326.295 133.952 318.446 133.012 317.111C132.551 316.457 129.817 316.487 129.037 316.47C124.852 316.383 117.013 317.131 113.442 316.536Z"/>
	<path fill="#010000" d="M265.718 315.36Q266.802 315.311 267.887 315.302C269.908 315.286 274.888 314.878 276.308 316.461C277.973 318.316 276.817 326.259 276.656 328.935C273.735 329.299 270.753 329.317 267.813 329.419L260.997 329.397C259.523 329.379 257.252 329.542 256.195 328.32C254.666 326.556 255.591 318.647 255.831 316.124C259.139 315.791 262.392 315.475 265.718 315.36ZM256.49 316.496C256.571 320.431 256.574 324.41 256.444 328.344C259.139 328.331 274.676 328.755 275.95 327.933C276.807 324.279 276.4 320.383 276.099 316.675Q270.828 316.382 265.551 316.503C262.676 316.555 259.285 317.06 256.49 316.496Z"/>
	<path fill="#010000" d="M366.02 299.109C370.098 298.328 375.202 299.14 379.358 299.333Q379.707 302.626 379.695 305.938Q379.683 309.25 379.311 312.541C376.818 312.831 374.263 312.734 371.755 312.741C367.151 312.775 361.905 313.285 357.397 312.428C357.277 308.091 357.248 303.815 357.452 299.479C360.277 299.121 363.174 299.327 366.02 299.109ZM366.358 299.882C363.607 300.105 360.835 300.174 358.099 300.549C357.902 304.285 357.762 307.677 358.279 311.408C362.04 312.157 366.18 311.937 370 311.931Q374.236 311.865 378.457 311.508C378.714 308.997 379.716 302.82 378.142 300.816C377.475 299.966 376.311 299.81 375.304 299.746C372.445 299.565 369.206 299.618 366.358 299.882Z"/>
	<path fill="#010000" d="M340.311 299.106C345.079 298.84 349.711 299.301 354.46 299.289C355.061 303.497 354.792 308.346 354.362 312.569C352.11 312.786 349.82 312.729 347.558 312.746C342.559 312.76 337.545 312.855 332.55 312.627C332.243 308.262 332.046 303.771 332.519 299.413C335.104 299.176 337.713 299.33 340.311 299.106ZM342.118 299.886C339.165 300.094 336.195 300.2 333.253 300.53C333.058 304.181 332.942 307.664 333.267 311.315C337.098 312.057 341.053 311.924 344.938 311.91C347.814 311.828 350.672 311.724 353.539 311.471C353.895 307.601 354.091 304.107 353.437 300.246C349.771 299.9 345.782 299.409 342.118 299.886Z"/>
	<path fill="#010000" d="M139.259 299.142C143.916 298.758 148.516 299.186 153.172 299.287C153.691 303.838 153.758 308.079 153.08 312.619C150.511 312.843 147.875 312.752 145.294 312.76C140.761 312.751 135.935 313.057 131.436 312.542C131.206 307.803 130.916 304.205 131.488 299.454C134.056 299.12 136.675 299.401 139.259 299.142ZM140.144 299.887Q136.036 300.14 131.925 300.326C132.013 304.343 131.167 307.62 132.277 311.629C136.25 311.956 140.254 311.966 144.238 311.949L152.449 311.634C152.728 307.697 152.752 303.984 152.445 300.052C148.429 299.915 144.132 299.358 140.144 299.887Z"/>
	<path fill="#010000" d="M189.837 299.106C192.631 298.63 200.36 298.764 203.178 299.377C203.326 299.568 203.356 299.584 203.456 299.847C204.367 302.249 204.234 310.051 203.345 312.412C201.719 313.246 198.23 312.781 196.374 312.759C192.893 312.771 186.149 313.249 183.003 312.58C182.402 312.452 182.162 312.393 181.847 311.827C180.729 309.817 181.415 301.745 181.915 299.503C184.488 299.096 187.224 299.334 189.837 299.106ZM190.731 299.859C187.989 300.018 185.242 300.221 182.498 300.32C182.24 304.203 182.107 307.831 182.536 311.707Q189.296 312.021 196.062 311.945C198.063 311.888 200.842 312.137 202.692 311.436C204.039 308.766 203.463 303.439 203.084 300.481C200.917 299.377 193.279 299.441 190.731 299.859Z"/>
	<path fill="#010000" d="M290.397 299.103C294.988 298.74 299.594 299.157 304.184 299.314C304.428 303.91 304.778 307.943 304.051 312.558C301.596 312.843 299.059 312.741 296.589 312.757C293.847 312.742 284.615 313.358 282.673 312.451C282.608 312.278 282.526 312.073 282.475 311.891C281.776 309.381 281.433 301.623 282.684 299.451C285.1 298.935 287.893 299.347 290.397 299.103ZM291.003 299.865C289.346 299.988 284.068 299.736 282.927 300.754C282.21 303.7 282.087 308.41 283.202 311.283C284.309 312.404 290.551 311.944 292.258 311.954L295.836 311.971C298.287 311.861 300.882 311.588 303.323 311.782C303.745 307.763 303.531 304.099 303.45 300.094C299.569 299.917 294.805 299.117 291.003 299.865Z"/>
	<path fill="#010000" d="M240.02 299.141C244.627 298.719 249.205 299.257 253.813 299.26C254.117 303.823 254.487 308.035 253.648 312.592C251.213 312.865 248.621 312.737 246.165 312.761Q239.271 312.82 232.378 312.668C231.039 308.356 231.374 303.93 232.106 299.535C234.668 299.027 237.409 299.383 240.02 299.141ZM240.58 299.894L232.468 300.308C232.722 304.086 232.555 307.991 232.615 311.791C237.015 311.803 241.412 311.967 245.812 311.972C248.275 311.867 250.957 311.49 253.399 311.678L253.455 300.076C249.134 300.006 244.906 299.466 240.58 299.894Z"/>
	<path fill="#010000" d="M164.105 299.105C168.409 298.35 173.617 299.155 177.992 299.328C178.76 303.862 178.636 308.078 178.065 312.627C175.846 312.851 173.543 312.743 171.312 312.755L156.49 312.693C155.771 308.19 155.533 303.807 156.592 299.332C159.098 299.319 161.608 299.348 164.105 299.105ZM164.843 299.894C163.191 299.981 158.099 299.706 157.007 300.743C156.341 303.078 155.949 309.089 157.079 311.239C158.546 312.366 166.734 311.963 168.875 311.945C171.68 311.896 174.58 311.622 177.374 311.782C177.65 307.78 177.579 304.016 177.425 300.021C173.267 299.987 168.975 299.32 164.843 299.894Z"/>
	<path fill="#010000" d="M215.492 299.109C219.576 298.368 224.595 299.15 228.744 299.374C228.335 303.405 229.911 308.409 228.358 312.214C226.586 313.3 222.685 312.776 220.625 312.757C216.082 312.775 211.335 313.036 206.825 312.52C205.768 308.501 206.15 303.59 206.686 299.49C209.597 299.131 212.563 299.347 215.492 299.109ZM215.991 299.864Q211.731 300.11 207.474 300.404C207.242 304.149 206.915 307.884 207.651 311.596C211.864 311.95 216.087 311.948 220.312 311.932C222.216 311.888 226.352 312.258 227.711 310.747C229.113 309.187 227.943 302.449 228.01 300.156C224.129 299.964 219.84 299.282 215.991 299.864Z"/>
	<path fill="#010000" d="M315.199 299.106C319.37 298.834 324.883 298.513 328.915 299.601C330.372 301.638 329.313 309.994 329.001 312.512C326.721 312.832 324.343 312.727 322.043 312.748C317.223 312.767 312.312 312.953 307.504 312.623C307.1 309.164 305.898 303.033 307.455 299.818C308.523 298.811 313.239 299.306 314.849 299.143L315.199 299.106ZM315.121 299.892Q311.442 300.171 307.755 300.33C307.582 302.674 306.642 309.508 308.235 311.176C309.549 312.554 319.027 311.946 321.251 311.952C323.599 311.858 325.97 311.687 328.319 311.733C328.622 307.793 328.616 304.069 328.33 300.13C323.932 299.897 319.522 299.41 315.121 299.892Z"/>
	<path fill="#010000" d="M115.039 299.111C117.893 298.376 124.681 299.136 127.882 299.362C128.281 303.885 128.482 308.032 127.746 312.553C124.949 312.856 122.111 312.761 119.3 312.755C115.765 312.698 111.896 313.189 108.426 312.774C107.581 312.673 106.779 312.43 106.252 311.723C104.513 309.39 105.64 302.437 106.066 299.533C108.958 298.986 112.087 299.354 115.039 299.111ZM114.007 299.888C111.514 300.108 108.973 300.273 106.472 300.325C106.552 304.155 106.408 307.992 106.641 311.815C111.112 311.499 115.822 311.986 120.328 311.94C122.654 311.839 125.064 311.616 127.388 311.687C127.445 307.836 127.533 303.96 127.382 300.112C122.969 299.864 118.414 299.384 114.007 299.888Z"/>
	<path fill="#010000" d="M264.199 299.143C266.935 298.891 276.276 298.558 278.518 299.711C279.945 302.572 279.091 309.26 278.64 312.52C276.197 312.817 273.69 312.737 271.231 312.758C266.573 312.766 261.898 312.859 257.244 312.645C255.81 308.751 256.182 303.433 256.964 299.393C259.375 299.242 261.794 299.388 264.199 299.143ZM265.755 299.861L257.555 300.305C257.451 304.132 257.368 307.936 257.637 311.758Q264.083 311.958 270.532 311.967C273.213 311.852 275.912 311.804 278.571 311.415C278.239 307.709 278.537 303.947 278.41 300.228C274.544 299.91 269.503 299.033 265.755 299.861Z"/>
	<path fill="#010000" d="M276.651 332.387C282.393 331.818 289.124 332.161 294.833 333.09Q295.299 336.301 295.236 339.546Q295.172 342.79 294.581 345.981C293.127 345.99 291.671 346.091 290.219 346.169C286.027 346.35 276.132 346.805 272.547 345.527C271.412 343.656 272.209 335.307 272.367 332.848C273.797 332.572 275.198 332.466 276.651 332.387ZM278.847 333.354C277.569 333.395 274.035 333.165 273.124 333.888C271.957 337.045 272.551 342.084 273.214 345.316L289.063 345.305C290.818 345.272 292.577 345.263 294.331 345.198Q294.537 339.474 294.351 333.75C289.419 333.496 283.747 332.813 278.847 333.354Z"/>
	<path fill="#010000" d="M121.818 332.358C125.362 331.982 129.407 332.22 132.963 332.487C133.726 332.544 135.113 332.565 135.575 333.239C136.93 335.214 136.055 343.463 135.557 345.864C132.95 346.085 130.334 346.152 127.72 346.243C122.972 346.307 118.075 346.466 113.376 345.743C113.022 341.434 113.001 337.397 113.359 333.095C116.132 332.517 118.998 332.48 121.818 332.358ZM123.283 333.36C120.221 333.492 117.06 333.796 114.002 333.678C113.698 337.724 113.323 341.202 114.118 345.234C118.044 345.438 122.006 345.318 125.937 345.3C128.965 345.292 131.999 345.324 135.026 345.241C135.602 341.853 135.842 337.258 135.302 333.86C132.754 332.916 126.168 333.199 123.283 333.36Z"/>
	<path fill="#010000" d="M303.743 332.364C309.294 331.776 315.478 332.407 321.008 332.951C321.647 337.308 321.578 341.557 320.859 345.89L316.779 346.162C310.731 346.311 304.394 346.662 298.405 345.655C298.593 341.394 297.889 337.155 298.621 332.908C300.304 332.467 302.015 332.439 303.743 332.364ZM305.501 333.36C303.412 333.453 301.316 333.515 299.229 333.66C298.968 337.589 298.946 341.378 299.308 345.307L314.706 345.307L320.239 345.284C320.638 341.293 320.263 337.441 320.392 333.468C315.483 333.94 310.447 333.085 305.501 333.36Z"/>
	<path fill="#010000" d="M328.739 332.392C334.576 331.897 340.877 332.305 346.676 333.021C346.681 335.067 346.953 337.102 346.965 339.146C346.979 341.435 346.698 343.688 346.534 345.968C345.127 346.007 343.719 346.089 342.312 346.153C336.41 346.494 330.431 346.252 324.53 345.951Q324.3 345.005 324.107 344.05C323.624 341.618 323.04 335.113 324.448 333.018C325.661 332.324 327.361 332.451 328.739 332.392ZM330.787 333.359L324.519 333.622C324.552 337.496 324.459 341.375 324.579 345.247C329.782 345.342 334.986 345.241 340.187 345.319L345.926 345.271C346.011 343.382 346.326 341.528 346.345 339.636C346.364 337.666 346.087 335.725 346.016 333.759C341.305 333.529 335.346 332.798 330.787 333.359Z"/>
	<path fill="#010000" d="M147.903 332.358C152.319 331.926 157.502 332.119 161.881 332.815C162.829 337.132 162.551 341.631 161.806 345.947L154.174 346.242C149.355 346.296 144.205 346.624 139.472 345.644C139.29 341.522 139.013 337.25 139.49 333.145C142.21 332.467 145.116 332.474 147.903 332.358ZM149.639 333.362C146.525 333.495 143.33 333.774 140.215 333.687C140.036 337.608 139.858 341.408 140.32 345.323L152.188 345.294Q156.744 345.263 161.3 345.286C161.492 341.359 161.55 337.476 161.38 333.547C157.577 333.435 153.406 332.906 149.639 333.362Z"/>
	<path fill="#010000" d="M252.283 332.36C257.617 331.685 264.401 332.384 269.719 333.046C269.563 337.137 270.088 341.544 269.368 345.575C268.255 346.328 265.677 346.142 264.342 346.201Q255.797 346.436 247.263 345.935C247.027 345.064 246.838 344.153 246.718 343.259C246.487 341.537 246 334.34 247.166 333.2C248.165 332.224 250.916 332.425 252.283 332.36ZM252.978 333.375Q250.253 333.487 247.526 333.569C247.488 337.489 247.365 341.405 247.668 345.318L263.906 345.312C265.477 345.301 267.06 345.247 268.63 345.3C269.031 341.299 268.783 337.625 268.814 333.647C264.341 333.556 257.133 332.763 252.978 333.375Z"/>
	<path fill="#010000" d="M96.0912 332.36C100.712 332.195 105.482 332.094 110.06 332.834C111.019 337.128 110.743 341.643 110.049 345.955Q106.179 346.083 102.31 346.25C97.4867 346.279 92.3399 346.629 87.6009 345.636C87.2546 341.48 87.1529 337.209 87.6375 333.061C90.4755 332.771 93.2345 332.463 96.0912 332.36ZM98.6568 333.363C95.516 333.483 91.6362 334.062 88.5697 333.542C88.1182 337.506 88.0211 341.353 88.4895 345.329L100.062 345.29C103.085 345.291 106.188 345.145 109.2 345.341C109.875 341.343 109.754 337.571 109.407 333.559C105.834 333.424 102.23 333.19 98.6568 333.363Z"/>
	<path fill="#010000" d="M69.3977 332.36C73.0167 332.188 76.7108 332.202 80.3292 332.371C81.3546 332.42 83.3337 332.362 84.0067 333.249C85.4033 335.09 84.4128 343.67 84.0034 345.972Q80.3437 346.052 76.6876 346.235C74.7895 346.255 62.9673 346.665 61.9733 345.457C60.7154 343.929 61.4006 335.355 61.583 333.115C64.1853 332.641 66.7617 332.499 69.3977 332.36ZM71.5969 333.389C68.763 333.507 65.7682 333.819 62.9528 333.502L62.5568 333.461C62.1225 337.471 62.0668 341.31 62.5026 345.334L74.3125 345.295C77.2955 345.296 80.2998 345.22 83.2801 345.311C83.7772 341.272 83.7079 337.57 83.4288 333.517C79.4867 333.446 75.5355 333.164 71.5969 333.389Z"/>
	<path fill="#010000" d="M45.0231 285.36C48.1807 284.986 51.6658 285.259 54.8673 285.261C59.8634 285.265 65.17 284.891 70.1103 285.532C71.0191 289.089 70.3205 293.004 70.1094 296.623C68.7696 296.727 67.4065 296.708 66.0625 296.732C57.4164 296.762 48.7279 296.928 40.0865 296.687L40.0463 296.361C39.7668 294.06 38.6914 287.652 40.0955 285.859C41.6659 285.436 43.4019 285.454 45.0231 285.36ZM47.7892 286.358C45.311 286.471 42.8175 286.639 40.3375 286.662C40.5242 289.701 40.4666 292.745 40.6568 295.783C47.5633 295.498 54.5121 296.003 61.4375 295.817C63.9636 295.756 66.7254 295.477 69.2243 295.767C69.5253 292.62 69.6368 289.522 69.5243 286.361C62.3318 286.763 55.006 285.668 47.7892 286.358Z"/>
	<path fill="#010000" d="M39.1607 332.361C43.1832 332.194 55.5253 331.741 58.6171 333.045C59.8925 336.837 58.2567 341.611 58.6501 345.585L58.6878 345.937L48.5694 346.247C42.4619 346.291 34.676 346.852 28.8087 345.721C28.4512 342.629 28.3044 339.42 28.1773 336.308C28.1397 335.388 28.2266 334.222 28.94 333.547C30.5338 332.039 36.8525 332.437 39.1607 332.361ZM41.6815 333.387C37.734 333.517 33.2593 334.092 29.3742 333.557C29.2475 337.523 29.4329 341.431 29.5246 345.392C34.9678 345.207 40.4286 345.286 45.875 345.291L57.7502 345.28C57.9186 341.697 58.6614 337.541 58.0573 334.013C56.3784 333.008 44.2219 333.234 41.6815 333.387Z"/>
	<path fill="#010000" d="M392.178 315.387C395.794 315.19 413.304 314.891 415.527 316.334C416.106 320.265 415.64 324.998 415.462 328.981Q407.423 329.36 399.375 329.455Q391.681 329.52 383.99 329.327C381.342 329.259 378.646 329.324 376.028 328.875C375.676 325.744 374.699 319.332 375.819 316.453C377.381 315.445 389.406 315.46 392.178 315.387ZM376.6 316.611C376.15 320.564 376.81 324.56 376.402 328.492C380.214 328.138 384.114 328.27 387.941 328.276L405.009 328.306C408.108 328.31 411.659 328.628 414.72 328.18C415.12 324.362 414.808 320.552 415.141 316.765Q402.374 316.284 389.601 316.529C385.437 316.58 380.673 317.253 376.6 316.611Z"/>
	<path fill="#010000" d="M51.0565 299.111C53.2204 298.81 55.6314 298.954 57.8307 298.943C64.4536 298.909 71.0498 299.297 77.6698 299.284C77.6874 300.831 77.8959 302.366 77.8961 303.917C77.8964 306.739 77.6434 309.599 77.4868 312.417C73.0094 313.259 67.8424 312.77 63.2822 312.758C54.364 312.768 45.3892 312.96 36.4792 312.566C36.479 308.124 35.7044 303.971 36.3344 299.507C41.1655 298.787 46.1848 299.535 51.0565 299.111ZM54.1206 299.884C48.3527 300.165 42.5745 300.239 36.8017 300.521C36.5216 304.153 36.9112 307.696 37.2424 311.312C44.4205 312.341 52.1632 311.94 59.4202 311.918C65.1832 311.917 70.9292 311.694 76.6866 311.478C76.8699 307.696 77.2281 304.067 77.0199 300.264C69.9311 299.959 61.0862 299.028 54.1206 299.884Z"/>
	<path fill="#010000" d="M385.68 332.362C389.781 332.104 394.013 332.251 398.124 332.264C404.965 332.285 412.05 332.223 418.845 333.037C419.035 333.322 419.123 333.453 419.215 333.767C419.824 335.855 419.574 344.063 418.481 345.98C416.177 345.941 413.864 346.074 411.562 346.154C400.517 346.55 389.454 346.133 378.411 345.926C378.222 342.532 376.831 336.161 378.282 333.127C379.677 332.006 383.892 332.44 385.68 332.362ZM389.701 333.365C386.048 333.497 382.167 333.804 378.525 333.573C378.483 337.45 378.158 341.471 379.113 345.253Q393.588 345.351 408.063 345.298L417.83 345.258C418.652 343.881 418.834 335.701 418.351 334.086C418.306 333.935 418.202 333.74 418.137 333.608C408.719 333.772 399.076 332.71 389.701 333.365Z"/>
	<path fill="#010000" d="M54.3681 315.389C64.6985 314.938 75.2629 315.193 85.5801 315.88C86.288 320.361 85.8015 324.522 85.284 328.98Q75.044 329.382 64.7961 329.4Q53.9415 329.553 43.0888 329.298C39.91 329.219 36.7169 329.273 33.5535 328.915C33.4121 324.654 33.0163 320.391 33.5248 316.141C39.492 315.328 48.1128 315.466 54.3681 315.389ZM46.1358 316.616C42.206 316.688 38.0787 316.983 34.1734 316.648C33.7198 320.657 34.3768 324.454 34.2259 328.423C39.2342 328.177 44.2735 328.285 49.2868 328.282L73.8125 328.292C76.0334 328.307 82.6555 328.953 84.3235 327.797C85.8504 325.691 85.2862 319.463 85.3333 316.709C72.2957 316.464 59.1715 316.201 46.1358 316.616Z"/>
	<path fill="#010000" d="M377.532 285.314C382.23 285.113 404.775 284.882 407.284 285.818L407.257 286.276L407.434 286.068C408.597 290.636 410.074 307.533 409.448 312.11C408.874 312.598 407.793 312.55 407.062 312.62C404.419 312.977 401.502 312.777 398.832 312.777C393.477 312.778 388.151 312.794 382.804 312.443C381.884 307.079 382.081 300.749 382.57 295.368C380.511 295.717 378.496 295.743 376.415 295.765C376.068 293.401 375.037 288.026 376.216 285.931C376.505 285.419 377.005 285.442 377.532 285.314ZM376.509 286.321C376.472 289.117 376.321 292.093 377.032 294.818C378.746 294.741 380.901 294.379 382.552 294.889C383.283 295.954 383.493 309.578 383.404 311.475C391.851 311.795 399.977 312.031 408.427 311.462C409.438 309.99 407.937 298.457 407.772 296.051C407.585 293.333 407.738 290.317 407.271 287.649C407.22 287.361 407.25 287.195 406.997 287.014C404.52 285.244 381.384 286.869 376.509 286.321Z"/>
	<path fill="#010000" d="M241.876 332.361C242.38 332.265 242.706 332.286 243.207 332.385C244.883 334.338 243.491 342.592 243.671 345.332L243.692 345.624C236.894 346.54 229.501 346.147 222.618 346.277Q195.149 346.804 167.688 345.963C166.853 345.987 165.956 345.775 165.128 345.655C164.749 341.555 164.446 337.465 165.046 333.37C173.461 332.843 182.97 333.279 191.463 333.282Q216.681 333.439 241.876 332.361ZM242.262 333.388C236.468 333.657 230.689 333.62 224.893 333.731Q195.357 334.292 165.816 334.078C165.241 335.365 165.306 343.202 165.713 344.732L166.013 345.008C173.618 345.565 181.331 345.298 188.957 345.31L228.571 345.294C233.348 345.289 238.241 344.856 242.993 345.1C243.084 343.074 243.863 334.736 242.726 333.469L242.262 333.388Z"/>
	<path fill="#010000" d="M183.375 353.107C189.99 352.535 198.041 352.933 204.768 352.956C223.153 353.018 241.556 353.728 259.933 352.925C260.695 357.386 260.483 362.36 260.5 366.89C260.532 375.84 260.354 384.716 260.084 393.658C252.131 393.586 244.013 394.043 236.062 394.428Q209.685 394.898 183.305 394.585Q175.207 394.495 167.112 394.282C164.456 394.213 161.717 394.315 159.083 393.985C159.045 393.936 159.001 393.892 158.969 393.839C157.793 391.839 158.301 358.401 158.837 354.204Q166.029 353.346 173.271 353.309C176.626 353.273 180.035 353.423 183.375 353.107ZM187.862 353.884C184.129 354.005 180.396 354 176.663 354.142C172.695 354.293 162.838 355.248 159.536 354.475C159.4 361.793 159.054 369.064 159.139 376.39C159.204 381.992 159.781 387.827 159.454 393.398C170.737 393.168 181.991 393.608 193.271 393.704C205.718 393.811 218.141 393.566 230.582 393.456C236.34 393.229 242.093 393.398 247.85 393.255C251.707 393.16 255.708 392.586 259.549 392.855C258.888 386.827 259.796 380.379 259.8 374.3C259.804 367.601 259.086 360.293 259.376 353.715Q238.185 354.296 216.99 353.924C210.287 353.813 203.606 353.672 196.901 353.675C193.955 353.677 190.773 353.46 187.862 353.884Z"/>
	<path fill="#010000" fill-opacity="0.82745099" d="M55.1303 129.123C54.2385 118.032 54.5696 106.739 54.3383 95.625C54.1165 84.9679 53.524 74.3102 53.337 63.6493C53.2236 57.1848 53.3993 50.7041 53.4089 44.2377C53.4167 39.0207 52.3932 29.2675 53.1934 24.5752C53.2545 25.0282 53.3159 26.5614 53.6063 26.8076L53.7754 25.7885C54.3494 28.0387 53.9097 31.4953 53.9275 33.8647Q53.9866 42.6614 54.134 51.4571L55.6446 127.569C55.4537 128.079 55.2375 128.587 55.1303 129.123Z"/>
	<path fill="#010000" d="M53.1934 24.5752C56.7283 23.7361 60.8508 23.9378 64.4792 23.8102C71.7552 23.5542 78.9922 23.3876 86.2708 23.2775C93.8021 23.1637 101.347 22.6688 108.878 22.4165C113.266 22.2694 117.652 22.3633 122.038 22.2386Q209.412 19.3557 296.833 19.2882Q332.809 18.9692 368.763 20.2525C376.393 20.4978 383.952 20.5676 391.583 21.0677C391.138 30.9926 391.498 41.0063 391.257 50.9513Q389.767 108.848 390.048 166.763L390.396 208.901Q245.839 212.651 101.246 210.705C89.9733 210.489 78.7572 210.276 67.4886 209.85C64.7269 209.746 60.2167 210.15 57.706 209.329C57.8178 208.326 57.8465 207.289 57.8837 206.28L58.4099 208.372C59.9454 209.359 77.2828 209.247 80.7412 209.331Q97.9323 209.897 115.128 210.279Q222.533 210.864 329.927 209.293C344.439 209.12 358.954 208.374 373.468 208.28C378.739 208.246 384.23 207.967 389.477 208.394Q389.228 178.223 389.43 148.053Q389.251 123.148 389.467 98.2444L390.401 47.3618C390.531 38.8358 390.959 30.2617 390.657 21.7407Q288.279 18.6838 185.895 21.5717Q131.585 22.4776 77.3016 24.398C74.2952 24.5117 54.9338 24.6256 53.9159 25.134L53.7754 25.7885L53.6063 26.8076C53.3159 26.5614 53.2545 25.0282 53.1934 24.5752Z"/>
	<path fill="#010000" fill-opacity="0.86274511" d="M57.6822 191.058C58.4515 195.282 58.5571 203.94 58.4099 208.372L57.8837 206.28C57.8465 207.289 57.8178 208.326 57.706 209.329C56.8111 203.662 57.8361 197.747 57.1387 192.048L57.6822 191.058Z"/>
	<path fill="#010000" fill-opacity="0.8392157" d="M55.6446 127.569C56.1566 130.701 56.0897 134.003 56.1947 137.176C56.4083 143.629 56.4888 150.07 56.5811 156.524C56.657 161.828 57.1076 167.161 57.2987 172.469C57.5218 178.666 57.4952 184.863 57.6822 191.058L57.1387 192.048C56.6068 183.094 56.5675 174.147 56.3078 165.19C56.106 158.232 55.7102 151.272 55.4504 144.314C55.2637 139.313 55.7842 134.062 55.1303 129.123C55.2375 128.587 55.4537 128.079 55.6446 127.569Z"/>
</svg>
