<?xml version="1.0" encoding="utf-8" ?>
<svg xmlns="http://www.w3.org/2000/svg" xmlns:xlink="http://www.w3.org/1999/xlink" width="412" height="294">
	<defs>
		<linearGradient id="gradient_0" gradientUnits="userSpaceOnUse" x1="185.79623" y1="28.979548" x2="191.66985" y2="27.394697">
			<stop offset="0" stop-color="black" stop-opacity="0"/>
			<stop offset="1" stop-color="#201F23" stop-opacity="0.0078431377"/>
		</linearGradient>
	</defs>
	<path fill="url(#gradient_0)" d="M188.872 17.6245L189.194 17.7947C189.386 19.2387 189.741 22.2414 189.147 23.5158C188.813 23.2008 188.859 21.8222 188.824 21.3107C188.613 26.098 189.006 31.0638 189 35.875C189.018 36.974 189.042 38.1485 188.691 39.1992L188.498 39.0112C188.501 32.038 188.115 24.8296 188.567 17.8869L188.872 17.6245Z"/>
	<path d="M131.232 86.5798C132.157 87.9225 133.295 88.9301 134.594 89.9018C136.273 90.0737 137.984 90.1895 139.651 90.4444C141.983 93.7497 144.917 96.5269 147.533 99.5974C150.119 102.632 152.431 105.933 155.098 108.893C155.966 109.856 157.233 110.333 158.052 111.341C160.52 114.375 161.35 118.509 163.885 121.494C165.159 122.995 166.808 124.248 168.197 125.655C170.87 128.362 173.317 131.354 175.873 134.175C178.929 137.549 183.476 141.289 185.402 145.487C186.091 146.99 185.718 149.658 185.685 151.285C182.102 156.342 177.713 160.991 173.629 165.645C171.754 167.781 170.141 170.143 168.319 172.325C166.613 174.368 164.705 176.234 162.99 178.27C159.982 181.841 156.88 185.443 154.002 189.117C152.296 191.296 150.802 193.672 148.988 195.759C146.831 198.239 144.242 200.399 141.977 202.796C139.635 205.275 137.309 208.008 134.72 210.23C132.986 211.718 130.575 211.574 128.865 212.931C128.699 213.063 128.527 213.187 128.361 213.32C127.599 212.107 126.856 211.029 125.852 209.992C123.058 210.413 120.218 210.627 117.396 210.381C110.489 209.778 103.45 207.888 96.6378 206.52C91.2551 205.439 85.5531 204.719 80.3155 203.103C78.0966 202.418 76.0411 201.477 74.1452 200.127C68.8719 196.374 65.4134 191.025 64.3762 184.634C63.1912 177.331 63.0376 169.787 62.5128 162.412C61.8123 152.568 60.5662 142.792 60.9919 132.898C61.149 129.249 61.7715 125.517 62.2298 121.888C62.9826 115.927 63.6868 110.27 67.3096 105.271Q67.8121 104.585 68.3589 103.933Q68.9058 103.282 69.4947 102.668Q70.0835 102.055 70.7118 101.481Q71.34 100.908 72.0049 100.378Q72.6698 99.8473 73.3683 99.3621Q74.0669 98.877 74.7961 98.4392Q75.5253 98.0015 76.282 97.6131Q77.0386 97.2246 77.8193 96.8872C82.1605 95.0491 87.0785 94.6443 91.7088 93.9619C98.7624 92.9222 105.846 91.7244 112.937 90.9999C118.025 90.4801 123.216 90.4892 128.265 89.6881C129.408 88.8592 130.292 87.6272 131.232 86.5798Z"/>
	<path fill="#CF3231" d="M121.304 16.3379C124.415 16.0139 127.801 15.7524 130.908 16.2073C132.458 16.4341 135.108 17.2321 136.034 18.574C136.957 19.9128 135.234 21.2099 135.006 22.4169C135.408 22.9529 136.461 23.0055 137.113 23.2854L137.135 23.639C136.656 23.9903 136.397 24.1963 136.172 24.7538C136.355 28.2622 147.481 36.1259 150.332 38.5955C152.082 40.1119 153.662 41.8349 155.346 43.4242C158.915 46.7913 163.568 50.2784 165.695 54.8279L165.943 54.6859C167.798 53.608 169.492 52.2619 171.27 51.0622C174.58 48.8292 177.959 46.6339 181.391 44.5907C194.457 36.8119 217.807 25.6373 232.817 24.1531Q235.461 23.8972 238.108 24.1052Q240.756 24.3132 243.327 24.9787C250.193 26.7498 255.94 30.6662 259.57 36.8263C261.624 40.3112 263.079 44.4646 263.377 48.5102C263.503 50.2088 263.383 52.1661 263.778 53.8029C263.986 54.6659 264.327 55.3123 265.035 55.8552C266.725 54.5734 268.022 52.6107 269.501 51.0757C272.186 48.2894 281.55 39.3144 284.591 37.8011C285.307 37.4451 285.852 37.4498 286.623 37.5585Q287.56 37.699 288.484 37.9129C290.153 36.3641 292.004 35.1734 293.699 33.6974C295.379 32.2347 296.708 30.3688 298.442 28.9867C301.145 26.832 308.69 24.0706 312.167 23.9845L312.756 24.2368C312.797 24.4202 312.872 24.5993 312.878 24.7871C312.895 25.3826 309.088 32.7832 308.641 33.475C308.354 33.9194 307.997 34.2214 307.584 34.5407C306.864 35.0976 305.745 35.9544 305.336 36.7404L305.605 36.9604C309.064 35.8607 312.29 28.7715 317.432 30.7289C317.826 31.1067 318.147 31.4748 318.454 31.9267C320.147 31.8543 320.951 29.8828 322.881 30.3437C323.378 30.9113 323.421 31.443 323.371 32.174C323.308 33.1082 323.225 34.069 322.857 34.9384C324.39 34.5067 326.117 33.7989 327.67 34.5922C328.191 34.858 329.522 35.8922 329.775 36.3696Q329.918 36.8733 330.011 37.3887Q330.104 37.9041 330.146 38.4261Q330.187 38.9482 330.177 39.4718Q330.166 39.9954 330.104 40.5154Q330.042 41.0354 329.928 41.5467Q329.815 42.058 329.652 42.5556Q329.489 43.0531 329.277 43.5321Q329.065 44.0111 328.807 44.4668C325.506 50.3975 322.211 56.1589 318.47 61.8227C317.471 63.3349 316.565 64.9683 315.462 66.4028C314.387 67.8006 312.833 68.9573 311.593 70.231C310.268 71.5919 309.125 73.1252 307.816 74.5016C306.2 76.2001 304.434 77.7562 302.847 79.4809C296.935 85.9081 291.593 92.8313 285.654 99.2593C283.732 101.339 275.544 111.055 273.958 111.951C273.419 114.461 274.012 117.899 274.116 120.511C274.337 126.022 274.402 131.569 274.745 137.071C275.016 141.425 275.617 145.835 275.657 150.19C275.683 153.004 275.344 155.841 275.279 158.659C275.14 164.685 275.177 170.699 274.911 176.726C274.755 180.257 274.275 183.916 274.349 187.431C274.358 187.87 274.481 188.296 274.634 188.704C275.076 188.889 275.39 189.119 275.712 189.47C278.222 192.211 280.384 195.283 282.739 198.157C284.89 200.783 287.283 203.234 289.347 205.927C291.101 208.215 292.56 210.742 294.346 212.997C295.601 214.58 297.654 215.46 298.952 216.989C303.433 222.271 307.649 227.84 311.956 233.274C313.926 235.76 315.957 239.068 318.444 240.992C319.37 241.709 319.817 241.492 320.869 241.628C321.006 242.106 321.102 242.275 320.869 242.752C320.111 244.304 317.57 244.971 317.781 246.968C319.192 250.343 326.029 253.455 324.369 257.929C325.141 258.386 325.979 258.786 326.545 259.498L326.356 259.867C325.958 259.924 324.949 259.94 324.715 260.23C323.633 261.573 324.217 265.585 321.979 266.822C320.521 266.208 320.447 263.866 318.167 264.091C318.424 266.639 323.279 267.957 323.344 270.486C321.79 271.531 317.825 269.768 315.842 270.176C315.794 270.47 315.836 270.599 315.965 270.852C316.274 271.458 316.549 271.888 316.448 272.598C316.15 273.188 315.766 273.433 315.149 273.653C314.504 273.882 313.855 273.977 313.191 273.796L313.144 273.45L314.063 272.698L314.033 272.356C313.083 271.652 311.496 271.401 310.334 271.442C310.691 272.27 312.431 272.075 312.228 273.33C310.578 274.306 307.397 273.717 305.483 273.812C304.376 272.747 302.821 271.067 301.479 270.402C299.245 269.961 293.669 269.502 292.218 267.813C292.025 267.181 291.879 266.7 291.451 266.177C289.731 265.651 287.981 265.451 287.037 263.719C286.509 262.75 286.097 261.597 285.412 260.732C284.273 259.292 282.647 257.995 281.323 256.707C278.46 253.92 275.63 251.132 272.725 248.386C270.964 246.721 269.417 244.839 267.653 243.178Q267.521 244.363 267.31 245.537Q267.099 246.71 266.811 247.867Q266.523 249.024 266.158 250.159Q265.793 251.294 265.354 252.403Q264.914 253.511 264.402 254.588Q263.889 255.664 263.307 256.704Q262.724 257.745 262.073 258.744Q261.422 259.743 260.706 260.696C255.37 267.666 247.525 271.851 238.871 272.952C233.338 273.656 227.944 272.103 222.622 270.76C202.927 265.788 177.559 255.269 161.467 242.85C158.432 244.961 155.88 248.416 153.313 251.072C151.507 252.941 149.496 254.593 147.71 256.489C145.971 258.335 143.977 261.212 141.697 262.393C140.265 263.134 138.019 263.316 136.423 263.617C136.483 263.925 136.408 264.244 136.223 264.5C134.199 267.302 132.902 264.928 132.159 265.246C131.075 265.711 130.533 266.873 129.238 266.999C128.521 266.642 128.499 266.095 128.223 265.37L127.831 265.199C125.773 266.048 120.214 271.769 118.542 273.656C116.185 274.041 113.871 273.927 111.505 273.705C111.181 272.697 110.768 271.707 110.394 270.717C111.082 269.745 111.634 268.712 112.198 267.667C110.149 268.774 107.938 270.756 105.581 271.042C104.03 271.231 102.87 269.428 101.697 268.6C99.4617 267.022 96.5772 266.445 94.4816 264.78L94.4757 264.546C94.4228 262.432 94.1641 259.954 94.9577 257.959C96.5702 253.904 102.686 246.534 105.53 242.775C112.646 233.368 119.589 223.576 127.693 214.998C128.2 214.461 128.382 214.07 128.361 213.32C128.527 213.187 128.699 213.063 128.865 212.931C130.575 211.574 132.986 211.718 134.72 210.23C137.309 208.008 139.635 205.275 141.977 202.796C144.242 200.399 146.831 198.239 148.988 195.759C150.802 193.672 152.296 191.296 154.002 189.117C156.88 185.443 159.982 181.841 162.99 178.27C164.705 176.234 166.613 174.368 168.319 172.325C170.141 170.143 171.754 167.781 173.629 165.645C177.713 160.991 182.102 156.342 185.685 151.285C185.718 149.658 186.091 146.99 185.402 145.487C183.476 141.289 178.929 137.549 175.873 134.175C173.317 131.354 170.87 128.362 168.197 125.655C166.808 124.248 165.159 122.995 163.885 121.494C161.35 118.509 160.52 114.375 158.052 111.341C157.233 110.333 155.966 109.856 155.098 108.893C152.431 105.933 150.119 102.632 147.533 99.5974C144.917 96.5269 141.983 93.7497 139.651 90.4444C137.984 90.1895 136.273 90.0737 134.594 89.9018C133.295 88.9301 132.157 87.9225 131.232 86.5798C128.415 82.3376 124.987 78.4166 121.926 74.3322C117.845 68.8864 114.089 63.3098 110.18 57.747C108.858 55.8663 106.235 53.1449 105.353 51.1758C104.99 50.3659 105.149 49.8499 105.474 49.0788C105.914 48.0353 103.838 47.0162 103.677 45.7536C104.343 45.0356 105.189 45.2131 105.923 44.6211C105.534 43.7159 100.094 40.7817 98.8021 39.992C109.36 33.3955 115.591 27.6909 121.304 16.3379ZM113.932 39.1033C113.863 39.1386 113.795 39.1746 113.726 39.2092C112.531 39.8092 110.57 39.1799 110.261 39.8152C110.951 41.4819 115.392 44.8966 116.823 46.2636C118.183 47.5622 119.213 49.1681 120.535 50.4429C121.175 50.9927 121.792 51.6212 122.632 51.8294L123.005 51.604C122.703 49.6744 119.873 48.3 118.784 46.7156C117.195 44.402 115.956 41.672 114.492 39.2437C114.359 39.206 114.064 39.0911 113.932 39.1033Z"/>
	<path d="M241.412 146.775C242.94 145.323 244.901 144.587 246.418 143.152C248.629 141.061 253.644 134.904 255.283 132.286C256.507 130.329 257.352 128.146 258.594 126.189C261.642 121.386 264.531 121.295 268.111 117.967C269.716 116.475 271.935 112.406 273.958 111.951C273.419 114.461 274.012 117.899 274.116 120.511C274.337 126.022 274.402 131.569 274.745 137.071C275.016 141.425 275.617 145.835 275.657 150.19C275.683 153.004 275.344 155.841 275.279 158.659C275.14 164.685 275.177 170.699 274.911 176.726C274.755 180.257 274.275 183.916 274.349 187.431C274.358 187.87 274.481 188.296 274.634 188.704C273.271 187.894 254.927 164.274 253.428 161.952C252.855 161.063 253.421 160.395 252.756 159.547C249.232 155.057 244.991 151.216 241.412 146.775Z"/>
	<path d="M165.695 54.8279L165.943 54.6859C167.798 53.608 169.492 52.2619 171.27 51.0622C174.58 48.8292 177.959 46.6339 181.391 44.5907C194.457 36.8119 217.807 25.6373 232.817 24.1531Q235.461 23.8972 238.108 24.1052Q240.756 24.3132 243.327 24.9787C250.193 26.7498 255.94 30.6662 259.57 36.8263C261.624 40.3112 263.079 44.4646 263.377 48.5102C263.503 50.2088 263.383 52.1661 263.778 53.8029C263.986 54.6659 264.327 55.3123 265.035 55.8552C264.563 56.6755 264.021 57.0576 263.166 57.4314C262.533 57.7082 259.89 61.9246 259.042 62.8808L240.099 84.4544C237.775 87.1385 235.13 89.5127 232.912 92.3087C227.332 99.3405 222.673 106.938 217.474 114.22L214.629 114.86C212.416 111.586 209.667 108.853 207.212 105.783C200.389 97.2531 193.668 88.8056 186.495 80.556C183.032 76.5736 178.823 72.6489 175.866 68.3006C174.922 66.9126 174.541 65.5114 174.364 63.8577C172.896 62.5153 171.657 60.7921 170.337 59.2939C168.904 57.6666 167.337 56.2416 165.695 54.8279Z"/>
	<path d="M161.467 242.85C161.873 240.88 166.8 236.702 168.258 234.716C169.488 233.038 169.768 230.739 170.967 229.021C174.497 223.969 178.724 219.402 182.462 214.517C184.144 212.32 185.361 209.771 187.003 207.523Q194.088 197.93 202.36 189.341C203.537 188.101 204.353 186.503 205.72 185.468C206.119 185.166 206.755 184.766 206.948 184.309L206.706 183.95C207.318 182.419 208.572 181.006 209.541 179.676L209.935 179.591C210.155 180.002 210.31 180.385 210.45 180.829C211.359 181.073 212.102 180.022 212.831 180.687C215.442 183.065 218.278 188.772 220.949 191.85C224.357 195.775 229.665 198.535 232.286 203.016C232.723 203.764 232.933 204.382 233.064 205.238C233.12 205.604 233.191 205.969 233.25 206.335C236.265 208.77 238.693 210.838 240.538 214.334C241.2 215.59 241.629 216.942 242.403 218.14C244.028 218.634 244.959 219.286 246.166 220.455C247.398 226.837 263.813 235.849 267.653 243.178Q267.521 244.363 267.31 245.537Q267.099 246.71 266.811 247.867Q266.523 249.024 266.158 250.159Q265.793 251.294 265.354 252.403Q264.914 253.511 264.402 254.588Q263.889 255.664 263.307 256.704Q262.724 257.745 262.073 258.744Q261.422 259.743 260.706 260.696C255.37 267.666 247.525 271.851 238.871 272.952C233.338 273.656 227.944 272.103 222.622 270.76C202.927 265.788 177.559 255.269 161.467 242.85Z"/>
</svg>
