<?xml version="1.0" encoding="utf-8" ?>
<svg xmlns="http://www.w3.org/2000/svg" xmlns:xlink="http://www.w3.org/1999/xlink" width="412" height="294">
	<path d="M288.378 177.364C294.275 172.302 301.069 163.823 303.285 156.326C305.916 147.429 302.977 136.95 296.907 130.123C294.094 126.959 290.595 124.361 287.411 121.577C285.607 120 282.617 117.872 281.527 115.763C280.674 114.11 280.615 110.729 281.234 108.993C281.637 107.865 282.438 107.017 283.518 106.509C286.131 105.279 289.406 106.138 291.971 107.087C295.336 108.333 302.969 112.409 304.496 115.719C304.873 116.067 305.386 116.424 305.475 116.95C306.463 118.026 309.334 120.893 309.456 122.278C310.201 123.168 313.007 127.726 312.955 128.771C312.952 128.835 312.944 128.899 312.938 128.964C313.463 129.641 313.982 130.282 313.964 131.19C314.608 132.15 315.722 134.59 315.637 135.738C319.351 141.46 319.177 155.647 317.824 162.034C316.778 166.974 314.875 173.646 311.514 177.558C311.146 178.267 310.816 178.717 310.231 179.272C309.341 181.947 301.672 188.53 298.99 189.986C297.821 190.907 296.434 191.566 295.129 192.274Q294.53 192.554 293.918 192.804C289.53 194.593 285.765 194.728 281.381 192.87C280.972 191.239 280.874 189.445 280.81 187.767C280.653 183.614 283.816 181.625 286.344 178.88C287.06 178.439 287.714 177.88 288.378 177.364Z"/>
	<path d="M310.232 91.7295C308.584 88.8559 292.767 85.2334 295.017 77.4648C295.579 75.5255 297.272 74.0809 299.005 73.1809C301.553 71.8574 305.475 71.1479 308.251 72.0856C314.44 74.1757 320.753 76.2496 326.438 79.5538C339.256 87.004 350.325 101.411 356.635 114.556C360.089 121.752 362.848 130.09 364.13 137.976C365.208 144.613 365.151 158.68 364.239 165.323C363.65 169.61 362.537 174.123 361.103 178.203C354.255 197.684 340.797 213.744 322.027 222.759C315.586 225.852 305.97 229.252 298.873 226.766C297.379 226.242 295.952 225.322 295.279 223.835C294.723 222.608 294.735 221.248 295.235 220.008C295.596 219.112 296.488 218.145 296.727 217.28C297.673 216.823 299.035 215.998 299.478 215.026L299.246 214.738C299.844 211.012 299.09 207.346 299.027 203.625C298.971 200.288 299.53 192.877 298.99 189.986C301.672 188.53 309.341 181.947 310.231 179.272C310.816 178.717 311.146 178.267 311.514 177.558C314.875 173.646 316.778 166.974 317.824 162.034C319.177 155.647 319.351 141.46 315.637 135.738C315.722 134.59 314.608 132.15 313.964 131.19C313.982 130.282 313.463 129.641 312.938 128.964C312.944 128.899 312.952 128.835 312.955 128.771C313.007 127.726 310.201 123.168 309.456 122.278C309.334 120.893 306.463 118.026 305.475 116.95C305.386 116.424 304.873 116.067 304.496 115.719C304.677 115.526 305.06 115.077 305.131 114.829C305.574 113.299 304.848 106.331 304.888 104.068C304.897 103.544 304.9 102.669 305.282 102.306C305.507 102.638 305.72 103.004 305.974 103.312C306.502 103.95 307.651 104.633 308.474 104.717C309.071 104.778 309.641 104.801 310.119 104.432C309.914 100.23 309.864 95.9195 310.232 91.7295ZM345.716 127.769L345.932 128.85C345.408 129.421 343.853 129.342 343.062 129.372C340.519 129.469 333.594 129.615 331.339 129.082L331.277 128.949C331.094 128.569 330.944 128.32 330.638 128.031C327.372 127.975 318.122 127.578 315.323 128.109C314.697 128.228 314.139 128.572 313.627 128.934L312.938 128.964C313.463 129.641 313.982 130.282 313.964 131.19C314.608 132.15 315.722 134.59 315.637 135.738C319.351 141.46 319.177 155.647 317.824 162.034C316.778 166.974 314.875 173.646 311.514 177.558C311.146 178.267 310.816 178.717 310.231 179.272C310.249 179.32 310.267 179.367 310.283 179.416C311.206 182.206 309.812 190.869 310.537 192.557C310.6 192.705 310.953 192.987 311.079 193.118C311.648 193.095 311.85 192.926 312.287 192.585C313.544 191.605 314.504 190.241 315.736 189.217C317.972 187.36 320.81 185.947 322.744 183.749C324.197 182.098 322.702 179.856 327.085 179.242C329.113 178.958 335.859 178.983 337.781 179.339Q338.333 179.439 338.844 179.672Q339.355 179.905 339.792 180.257C339.956 180.387 340.088 180.524 340.229 180.678L340.301 180.562C340.512 180.228 340.704 179.983 340.998 179.719L341.03 179.956C341.291 179.746 341.54 179.518 341.736 179.244C342.84 177.7 346.466 171.333 346.191 169.71C346.334 169.595 346.375 169.572 346.489 169.445C347.231 168.615 347.637 167.101 347.973 166.037C350.069 159.39 350.521 152.444 350.175 145.52C349.994 141.892 348.227 130.044 345.716 127.769ZM310.232 91.7295C309.864 95.9195 309.914 100.23 310.119 104.432C309.641 104.801 309.071 104.778 308.474 104.717C307.651 104.633 306.502 103.95 305.974 103.312C305.72 103.004 305.507 102.638 305.282 102.306C304.9 102.669 304.897 103.544 304.888 104.068C304.848 106.331 305.574 113.299 305.131 114.829C305.06 115.077 304.677 115.526 304.496 115.719C304.873 116.067 305.386 116.424 305.475 116.95C306.463 118.026 309.334 120.893 309.456 122.278C310.201 123.168 313.007 127.726 312.955 128.771C312.952 128.835 312.944 128.899 312.938 128.964L313.627 128.934C314.139 128.572 314.697 128.228 315.323 128.109C318.122 127.578 327.372 127.975 330.638 128.031C330.944 128.32 331.094 128.569 331.277 128.949L331.339 129.082C333.594 129.615 340.519 129.469 343.062 129.372C343.853 129.342 345.408 129.421 345.932 128.85L345.716 127.769C345.766 127.497 345.794 127.286 345.744 127.013C345.366 124.927 342.923 119.868 341.25 118.536C341.311 117.881 340.877 117.236 340.56 116.685C335.848 108.503 327.413 101.94 319.555 96.9243C317.935 95.8903 316.041 94.488 314.2 93.9918L314.107 93.7816C313.038 92.8526 311.594 92.1084 310.232 91.7295ZM310.231 179.272C309.341 181.947 301.672 188.53 298.99 189.986C299.53 192.877 298.971 200.288 299.027 203.625C299.09 207.346 299.844 211.012 299.246 214.738L299.478 215.026C301.346 214.42 303.003 213.032 304.717 212.067C309.837 209.183 314.955 206.579 319.811 203.227C327.662 197.807 332.368 192.606 337.925 185.019C338.928 183.648 340.723 181.63 341.03 179.956L340.998 179.719C340.704 179.983 340.512 180.228 340.301 180.562L340.229 180.678C340.088 180.524 339.956 180.387 339.792 180.257Q339.355 179.905 338.844 179.672Q338.333 179.439 337.781 179.339C335.859 178.983 329.113 178.958 327.085 179.242C322.702 179.856 324.197 182.098 322.744 183.749C320.81 185.947 317.972 187.36 315.736 189.217C314.504 190.241 313.544 191.605 312.287 192.585C311.85 192.926 311.648 193.095 311.079 193.118C310.953 192.987 310.6 192.705 310.537 192.557C309.812 190.869 311.206 182.206 310.283 179.416C310.267 179.367 310.249 179.32 310.231 179.272Z"/>
	<path d="M233.769 23.8851C240.515 23.3723 248.595 25.8642 253.832 30.1976C258.687 34.2152 262.26 40.3361 262.99 46.626C263.262 48.9753 263.094 51.3986 263.718 53.7002C264.416 56.2723 265.892 58.5967 266.63 61.2123C269.761 72.3016 271.48 83.5429 272.572 94.9988C273.824 108.131 274.142 121.316 274.648 134.49C274.847 139.649 275.506 144.862 275.559 150.004Q275.652 170.392 274.194 190.727Q272.735 211.062 269.733 231.228C268.765 237.431 267.984 244.131 266.089 250.11C264.797 254.188 262.851 258.051 260.108 261.348Q259.594 261.972 259.049 262.569Q258.505 263.166 257.932 263.735Q257.358 264.305 256.757 264.845Q256.156 265.385 255.529 265.895Q254.901 266.404 254.249 266.882Q253.597 267.359 252.923 267.804Q252.248 268.249 251.552 268.659Q250.856 269.07 250.14 269.445Q249.424 269.82 248.691 270.159Q247.957 270.499 247.208 270.801Q246.458 271.103 245.694 271.368Q244.931 271.632 244.155 271.859Q243.379 272.085 242.593 272.272Q241.807 272.459 241.012 272.607Q240.218 272.755 239.417 272.864Q238.616 272.972 237.811 273.04C231.806 273.581 225.377 271.534 219.617 269.979C190.355 262.078 168.343 249.296 145.172 229.991C138.217 223.623 132.125 216.858 125.802 209.885C123.346 210.21 120.884 210.606 118.4 210.433C111.134 209.93 103.691 207.91 96.5384 206.488C91.0805 205.403 85.2798 204.679 79.9731 203.022Q78.4867 202.548 77.0865 201.86Q75.6862 201.172 74.4027 200.285C69.1133 196.683 65.6517 191.433 64.4696 185.159C63.1614 178.215 63.1376 170.955 62.6326 163.908C61.891 153.561 60.5285 143.255 61.0041 132.857C61.1678 129.279 61.7546 125.642 62.196 122.087C62.9266 116.202 63.635 110.595 67.0725 105.589C69.6621 101.818 73.6745 98.6266 77.8755 96.8344C83.3573 94.4958 108.926 91.2821 115.62 90.7458C119.339 90.4478 124.232 90.8713 127.753 89.6582C129.123 89.1861 141.598 75.5702 143.952 73.3354Q147.238 70.155 150.665 67.1266Q154.092 64.0983 157.652 61.2281Q161.212 58.358 164.899 55.652Q168.586 52.9459 172.391 50.4096Q176.196 47.8732 180.113 45.5117Q184.029 43.1502 188.048 40.9684Q192.067 38.7867 196.181 36.789Q200.295 34.7914 204.495 32.9821C211.62 29.9091 219.054 27.0926 226.599 25.2408C228.958 24.662 231.381 24.3265 233.769 23.8851Z"/>
</svg>
