<?xml version="1.0" standalone="no"?>
<!DOCTYPE svg PUBLIC "-//W3C//DTD SVG 20010904//EN"
 "http://www.w3.org/TR/2001/REC-SVG-20010904/DTD/svg10.dtd">
<svg version="1.0" xmlns="http://www.w3.org/2000/svg"
 width="1227.000000pt" height="692.000000pt" viewBox="0 0 1227.000000 692.000000"
 preserveAspectRatio="xMidYMid meet">

<g transform="translate(0.000000,692.000000) scale(0.100000,-0.100000)"
fill="#000000" stroke="none">
<path d="M6415 6411 c-66 -33 -160 -84 -209 -113 l-90 -54 -110 38 c-289 98
-678 114 -1015 42 -129 -27 -267 -72 -339 -108 l-49 -25 -69 51 c-143 104
-307 166 -390 148 -97 -22 -148 -147 -175 -428 -11 -120 -13 -125 -59 -201
-86 -144 -127 -314 -116 -481 l7 -95 -69 -70 c-174 -178 -201 -407 -76 -659
24 -49 43 -90 42 -91 -2 -1 -55 -7 -118 -14 -239 -24 -489 -86 -556 -136 -19
-14 -19 -14 3 -15 12 0 77 13 144 30 119 29 380 73 510 86 l65 6 60 -49 c76
-65 98 -89 91 -106 -6 -15 -40 -26 -187 -62 -149 -37 -325 -97 -421 -145 -89
-44 -143 -79 -135 -87 7 -7 57 10 235 79 130 50 488 158 526 158 10 0 105
-128 105 -143 0 -3 -60 -36 -132 -74 -174 -89 -451 -273 -435 -289 6 -7 232
110 402 209 72 41 132 71 134 65 11 -30 -13 -101 -48 -142 -56 -64 -104 -147
-172 -297 -33 -73 -86 -177 -119 -233 l-59 -101 -673 4 c-980 7 -1248 5 -1683
-13 -356 -15 -655 -33 -664 -41 -1 -2 0 -8 4 -14 9 -15 135 -14 760 5 462 15
614 15 1187 4 361 -6 743 -8 849 -4 163 6 191 5 186 -7 -3 -8 -30 -68 -60
-134 -30 -66 -80 -190 -111 -275 -31 -85 -62 -167 -67 -181 l-10 -26 -69 35
c-41 21 -89 37 -118 40 l-51 4 -76 -72 c-75 -71 -78 -72 -119 -68 -45 5 -58 1
-118 -39 l-36 -24 -39 19 c-21 11 -53 23 -71 27 -34 7 -61 31 -115 105 -44 61
-89 76 -176 60 -71 -12 -145 -46 -178 -82 -28 -30 -60 -101 -68 -153 -3 -22
-8 -50 -11 -62 l-4 -23 -388 6 -387 6 -46 48 c-51 53 -63 89 -48 143 13 50 67
93 184 148 188 88 401 144 775 203 91 15 206 33 255 41 50 8 110 21 135 29
l45 14 -70 1 c-214 3 -724 -87 -991 -174 -190 -62 -342 -153 -381 -228 -24
-47 -20 -118 11 -173 14 -26 25 -48 24 -49 -2 -1 -94 3 -205 8 -224 11 -336 3
-341 -24 -2 -9 5 -20 15 -23 25 -10 446 -15 2078 -26 776 -6 1624 -17 1885
-25 261 -8 716 -19 1010 -25 616 -11 1313 -30 1319 -35 2 -2 -13 -42 -33 -88
-19 -46 -49 -138 -65 -206 -16 -67 -31 -125 -34 -127 -2 -2 -188 3 -413 11
-238 9 -668 15 -1026 15 -409 0 -711 5 -895 15 -153 8 -489 19 -748 25 -258 6
-569 15 -690 21 -144 8 -493 10 -1014 6 -491 -3 -818 -1 -860 5 -88 12 -538
13 -576 0 l-30 -9 30 -13 c42 -19 573 -35 955 -29 551 7 1471 2 1680 -10 540
-31 1292 -52 2175 -62 517 -5 1044 -13 1170 -17 l230 -7 0 -215 c1 -184 4
-230 23 -317 70 -323 234 -603 439 -749 126 -91 266 -134 434 -134 156 0 270
41 387 140 184 155 300 407 327 710 7 82 -10 411 -25 475 -5 22 -7 41 -5 43 2
2 223 -3 492 -12 268 -9 722 -21 1008 -26 286 -5 657 -13 825 -16 299 -7 386
-1 430 26 12 7 12 12 2 22 -10 10 -89 12 -365 10 -514 -3 -2370 41 -2389 57
-4 4 -3 22 2 40 5 19 15 82 21 140 7 66 22 134 39 180 l27 75 109 -2 c60 -1
210 -7 334 -13 315 -16 1039 -16 1235 -1 251 19 872 26 1235 14 179 -7 359 -8
400 -4 69 7 73 9 52 21 -13 7 -67 17 -120 21 -130 12 -1328 17 -1617 7 l-230
-8 75 30 c125 51 320 162 351 201 42 51 53 126 52 340 0 134 -5 200 -16 239
l-15 54 142 -7 c77 -4 215 -11 306 -16 91 -5 253 -10 360 -10 107 0 254 -5
325 -10 152 -12 472 -14 497 -5 104 40 -328 73 -1082 81 -431 5 -561 10 -581
20 -60 30 -209 39 -634 39 -475 -1 -478 -1 -712 -76 -84 -27 -160 -49 -169
-49 -11 0 18 36 72 93 87 89 286 318 353 405 20 25 34 57 36 78 4 41 -4 29
139 199 281 333 519 593 619 677 44 36 88 80 99 97 24 37 20 71 -8 82 -35 13
-67 -12 -99 -77 -40 -82 -68 -117 -210 -264 -110 -114 -174 -185 -470 -519
-68 -76 -117 -123 -154 -144 -59 -33 -92 -72 -254 -292 -57 -77 -127 -164
-156 -193 l-52 -53 -102 6 c-56 3 -397 10 -757 16 -360 5 -722 14 -805 19 -82
5 -203 9 -269 9 -109 1 -118 2 -111 19 39 89 80 211 96 285 25 115 37 322 30
512 l-6 150 31 60 c17 33 39 81 49 108 10 26 24 47 31 47 24 0 301 -90 431
-139 142 -55 244 -84 276 -79 l22 3 -23 21 c-38 35 -340 148 -547 205 -133 36
-155 49 -155 89 0 44 28 53 171 58 136 5 307 -9 441 -34 46 -9 114 -21 151
-28 122 -23 86 20 -45 53 -109 28 -371 53 -533 51 -194 -3 -177 -7 -173 43 3
39 6 44 48 64 94 47 278 72 592 81 213 7 252 11 234 30 -13 13 -326 14 -463 2
-116 -10 -303 -44 -355 -65 -17 -7 -17 -5 -2 36 24 65 29 228 10 319 -32 151
-142 321 -233 359 -23 9 -33 23 -43 54 -18 61 -26 187 -19 307 10 165 9 428
-1 509 -19 145 -74 311 -103 311 -7 0 -66 -27 -132 -59z m-700 -135 c117 -16
325 -64 325 -75 0 -3 -17 -17 -37 -31 -20 -14 -71 -58 -112 -99 -85 -83 -65
-80 -246 -46 -57 11 -147 18 -245 19 -137 1 -176 -3 -329 -32 l-173 -33 -36
22 c-20 11 -73 50 -119 87 -58 46 -80 68 -71 74 25 16 224 76 308 93 229 46
496 54 735 21z m-1472 -97 c126 -83 421 -418 393 -446 -6 -6 -64 29 -154 92
-35 25 -69 45 -75 45 -6 0 33 -45 88 -100 55 -55 96 -100 91 -100 -5 0 -52 27
-105 59 -111 68 -181 104 -188 98 -4 -5 15 -21 135 -113 65 -50 24 -60 -76
-17 -93 39 -94 17 -2 -50 24 -17 24 -18 3 -13 -13 4 -32 9 -43 12 -25 8 -27
-12 -3 -38 17 -19 16 -19 -10 -13 -24 6 -27 4 -27 -17 0 -17 -21 -43 -74 -90
l-74 -67 -6 27 c-4 15 -9 106 -13 202 -6 194 5 332 39 473 24 100 30 103 101
56z m-294 -700 c1 -193 -3 -215 -41 -235 -47 -24 -58 -7 -58 88 0 86 15 160
57 278 23 65 28 72 34 50 4 -14 7 -95 8 -181z m276 -248 c83 -37 165 -160 209
-314 47 -162 44 -319 -8 -474 -24 -70 -35 -80 -80 -69 -21 5 -22 9 -16 48 4
24 15 72 24 108 22 92 21 257 -3 352 -21 82 -66 178 -104 224 -49 59 -97 126
-97 135 0 14 31 10 75 -10z m2591 -127 c50 -89 74 -195 74 -325 0 -98 -8 -136
-25 -109 -3 5 -14 53 -25 107 -10 54 -39 163 -63 243 -24 80 -47 159 -51 175
l-8 30 32 -30 c17 -16 47 -57 66 -91z m-2729 85 c55 -26 116 -96 153 -173 83
-176 90 -392 20 -578 l-21 -58 -79 0 -80 0 11 26 c5 15 24 45 41 66 44 56 60
110 66 214 7 149 -28 257 -115 354 -50 55 -95 83 -167 101 -25 6 -46 15 -46
19 0 16 87 49 129 50 26 0 63 -9 88 -21z m2402 -14 c121 -83 169 -302 97 -442
-14 -29 -28 -53 -30 -53 -2 0 1 24 6 53 16 86 -22 215 -74 251 -61 43 -141 -3
-178 -100 -36 -96 -23 -189 36 -253 41 -46 42 -54 7 -40 -37 13 -110 85 -133
129 -70 137 -41 330 67 438 l54 54 54 -4 c38 -3 66 -13 94 -33z m-1047 -26
c103 -52 180 -159 207 -287 20 -95 12 -101 -28 -22 -45 87 -66 109 -116 120
-119 27 -203 -76 -193 -236 5 -67 8 -78 46 -127 58 -75 56 -81 -23 -74 -117
11 -252 104 -298 205 -30 65 -30 179 0 243 38 83 115 154 202 185 58 21 155
17 203 -7z m-1490 -80 c166 -83 238 -356 143 -537 -32 -61 -41 -72 -98 -115
-47 -36 -51 -37 -135 -37 l-87 0 -32 48 c-96 140 -127 340 -78 486 27 79 60
123 117 156 59 33 102 33 170 -1z m2237 -621 c-7 -13 -25 -42 -41 -66 -26 -37
-30 -53 -33 -130 l-4 -87 55 -50 c83 -78 68 -104 -25 -40 -28 19 -55 35 -60
35 -5 0 -27 -15 -50 -34 -52 -44 -110 -80 -117 -73 -3 3 32 45 77 92 l83 87 4
68 4 68 -51 49 c-52 51 -65 88 -33 96 9 3 59 5 110 6 l93 1 -12 -22z m-2014
-122 c18 -13 17 -14 -9 -31 -31 -21 -117 -45 -157 -45 -34 0 -93 21 -144 51
l-40 24 80 6 c160 11 250 10 270 -5z m-31 -479 c17 -29 39 -110 34 -131 -2
-14 -11 -11 -50 16 -67 47 -83 78 -68 134 l12 44 30 -21 c16 -12 35 -31 42
-42z m2560 -120 c-1 -242 -39 -437 -119 -615 -26 -58 -28 -60 -72 -66 -128
-17 -170 -5 -188 54 -4 14 -28 70 -53 124 -44 98 -45 100 -32 149 8 30 10 71
6 108 -7 55 -5 61 19 83 14 13 71 52 128 86 121 74 186 128 247 203 30 39 48
53 55 46 6 -6 10 -73 9 -172z m-2339 -31 c189 -121 418 -210 666 -260 181 -37
272 -47 482 -53 111 -4 193 -10 202 -17 10 -7 16 -31 18 -66 l2 -55 -75 -8
c-95 -11 -296 -2 -420 18 -271 45 -547 144 -836 302 l-121 66 -23 66 c-13 36
-26 72 -28 80 -6 17 -12 20 133 -73z m1815 -215 c16 -30 12 -47 -16 -80 -34
-40 -128 -85 -249 -117 -107 -28 -114 -26 -115 31 0 17 -3 39 -6 51 -5 18 4
22 98 46 57 14 137 39 178 56 90 37 96 38 110 13z m-416 -363 c26 -34 40 -32
48 7 9 48 91 -15 104 -80 15 -82 -22 -145 -96 -165 -98 -26 -186 61 -165 163
8 39 53 107 71 107 7 0 24 -15 38 -32z m746 -134 c0 -8 -112 -155 -116 -152
-2 3 -34 146 -34 156 0 1 34 2 75 2 41 0 75 -3 75 -6z m450 -14 c146 -6 562
-15 925 -20 363 -5 672 -12 688 -15 34 -9 36 -41 6 -79 -24 -30 -67 -54 -164
-91 -135 -50 -151 -76 -163 -260 -10 -146 -11 -148 -108 -184 -48 -18 -77 -21
-227 -21 -95 1 -243 7 -330 14 -175 15 -175 15 -197 91 -20 68 -55 111 -112
139 -84 41 -136 44 -196 11 -67 -36 -90 -62 -132 -148 -46 -95 -63 -101 -168
-64 -96 34 -116 34 -184 -1 l-56 -28 -70 215 -71 215 53 61 c29 34 72 90 97
124 l44 62 50 -6 c28 -2 169 -9 315 -15z m2326 -9 c-3 -4 -33 -18 -67 -31 -73
-26 -113 -63 -99 -90 45 -85 458 -73 554 17 30 27 33 49 11 80 -13 19 -13 22
1 27 40 15 408 1 398 -16 -10 -16 -117 -65 -254 -116 -74 -28 -151 -59 -170
-69 -31 -16 -78 -18 -400 -25 -201 -4 -446 -12 -544 -18 -99 -5 -200 -10 -225
-9 -43 0 -39 3 69 38 63 21 216 75 340 120 123 45 240 86 260 91 47 11 132 12
126 1z m963 -45 c24 -29 42 -460 22 -551 -8 -39 -71 -77 -314 -189 -175 -81
-252 -105 -272 -84 -17 17 -25 99 -25 273 0 236 -19 323 -50 229 -9 -26 -10
-94 -5 -248 4 -117 4 -227 0 -244 l-7 -32 -191 0 c-106 0 -276 3 -380 7 -175
6 -186 7 -157 21 44 21 82 70 78 100 -2 14 -15 34 -29 45 -72 53 -338 -8 -446
-103 -44 -38 -50 -41 -100 -38 l-54 3 -2 272 -2 271 35 6 c68 10 300 18 760
26 529 9 512 6 720 97 69 30 167 70 219 89 51 19 105 41 120 49 33 18 65 19
80 1z m-3027 -408 c62 -18 93 -62 107 -150 15 -91 29 -114 78 -123 102 -18
158 -88 93 -115 -51 -21 -123 -8 -166 30 -86 75 -187 91 -265 42 -24 -16 -53
-39 -63 -50 -18 -21 -28 -22 -190 -22 -94 0 -188 5 -208 11 -38 10 -38 10 -38
63 0 70 24 102 85 111 52 8 96 -5 159 -47 43 -28 49 -29 78 -17 45 18 88 58
88 80 0 32 39 98 87 150 50 54 78 60 155 37z m-4779 -73 c16 -10 31 -33 37
-54 14 -51 46 -78 110 -92 71 -14 100 -33 100 -64 0 -13 -4 -26 -9 -30 -5 -3
-124 -8 -264 -11 l-255 -5 -21 34 c-12 19 -21 48 -21 64 0 50 50 114 116 151
53 29 66 32 120 29 35 -3 72 -12 87 -22z m749 -15 c57 -16 78 -51 77 -124 -1
-33 -4 -72 -8 -85 l-6 -24 -222 -1 c-226 -1 -264 5 -277 40 -15 39 95 83 160
65 52 -14 48 -16 62 23 7 18 26 52 42 75 29 39 33 41 83 41 28 0 69 -5 89 -10z
m5059 -186 c4 -28 4 -68 0 -89 l-6 -37 -275 1 c-151 1 -291 4 -310 8 -46 7
-70 30 -70 64 0 19 -12 40 -35 64 -20 19 -30 35 -23 35 7 0 80 -9 161 -20 291
-38 391 -36 476 9 59 31 75 24 82 -35z m7 -190 l122 -6 0 -27 c0 -14 -9 -56
-19 -93 -11 -36 -25 -108 -31 -160 -7 -51 -16 -106 -20 -123 l-6 -30 -360 2
c-441 3 -1052 18 -1061 27 -8 8 38 192 66 266 11 30 34 78 50 105 l29 50 553
-3 c305 -1 609 -5 677 -8z m-933 -474 c149 -6 430 -14 625 -18 l354 -7 15 -45
c23 -71 21 -506 -3 -620 -39 -185 -104 -331 -187 -421 -28 -30 -63 -67 -77
-83 -37 -41 -133 -101 -195 -123 -81 -28 -300 -26 -387 5 -94 32 -161 74 -241
149 -258 244 -396 651 -364 1076 l7 97 91 0 c51 0 214 -5 362 -10z"/>
<path d="M3905 4929 c-26 -41 -12 -236 22 -307 23 -48 33 -24 33 82 0 146 -30
267 -55 225z"/>
<path d="M9862 2654 c-83 -78 -112 -191 -76 -297 18 -54 64 -97 102 -97 41 0
144 53 175 90 72 84 94 184 59 263 -25 56 -63 78 -147 85 l-61 4 -52 -48z
m122 -75 c11 -54 7 -187 -6 -195 -21 -13 -48 35 -48 85 0 49 26 141 40 141 4
0 10 -14 14 -31z"/>
<path d="M8525 2553 c-76 -9 -72 -4 -70 -101 2 -49 8 -98 14 -110 14 -26 57
-29 426 -37 149 -3 334 -11 413 -17 111 -9 146 -8 155 1 8 8 12 48 12 117 0
103 -1 106 -28 130 l-28 24 -432 -1 c-238 -1 -445 -4 -462 -6z m295 -69 c15
-38 12 -91 -6 -108 -13 -13 -43 -16 -168 -16 l-152 0 4 63 c2 34 9 68 14 75 8
8 51 12 154 12 l144 0 10 -26z m222 2 c12 -18 9 -91 -4 -108 -13 -16 -44 -21
-119 -19 l-36 1 1 68 c1 58 4 68 21 74 28 9 128 -2 137 -16z m369 -10 c14 -30
4 -89 -17 -107 -18 -15 -161 -24 -236 -15 l-53 7 1 67 c1 37 2 68 3 70 1 1 66
2 146 2 144 0 146 0 156 -24z"/>
<path d="M2760 5950 c-56 -10 -94 -21 -93 -28 3 -11 19 -128 28 -193 4 -33 2
-38 -25 -49 -37 -16 -70 -55 -70 -85 0 -56 90 -76 137 -29 24 25 25 29 18 92
-4 37 -8 85 -9 106 l-1 40 60 18 c92 27 91 27 99 -46 6 -63 6 -64 -28 -98 -66
-66 -60 -123 14 -123 63 0 84 32 81 122 -3 103 -18 206 -37 252 -19 48 -22 48
-174 21z"/>
<path d="M2353 3960 c-59 -43 -87 -106 -80 -176 11 -106 76 -164 183 -164 51
0 65 5 105 34 47 35 89 103 89 144 0 35 -25 87 -56 116 -25 22 -158 76 -190
76 -5 0 -29 -14 -51 -30z m75 -19 c9 -5 35 -14 57 -20 86 -23 125 -93 90 -160
-27 -53 -71 -81 -127 -81 -44 0 -54 4 -84 34 -29 29 -34 41 -34 81 0 49 8 71
47 123 27 36 26 36 51 23z"/>
<path d="M1434 3599 c-53 -16 -63 -24 -84 -61 -32 -57 -34 -144 -4 -185 26
-36 86 -66 134 -66 81 0 170 82 170 158 0 17 -11 53 -24 82 -19 39 -34 57 -65
72 -47 25 -48 25 -127 0z m140 -71 c20 -28 20 -90 1 -128 -16 -30 -61 -60 -90
-60 -30 0 -75 30 -91 62 -29 57 2 128 70 159 35 15 43 16 67 3 15 -7 35 -24
43 -36z"/>
<path d="M2731 2843 c-75 -113 -14 -233 118 -233 33 0 49 7 80 36 70 63 75
138 13 196 -41 39 -66 48 -125 48 -54 0 -55 -1 -86 -47z m166 -25 c32 -30 32
-90 -2 -123 -34 -35 -78 -33 -116 4 -31 32 -35 50 -18 84 29 57 95 74 136 35z"/>
</g>
</svg>
