<?xml version="1.0" encoding="utf-8" ?>
<svg xmlns="http://www.w3.org/2000/svg" xmlns:xlink="http://www.w3.org/1999/xlink" width="1227" height="692">
	<path fill="#F3EDD6" d="M0 0L1225.95 0C1227.39 2.26316 1226.99 5.54227 1227 8.14407L1227 502.045L1227 637.999L1227 673.985C1227 678.964 1227.67 685.068 1226.83 689.91C1226.7 690.664 1226.36 691.359 1225.95 692L0 692L0 0Z"/>
	<path d="M279.796 402.791C282.229 402.683 285.127 402.821 287.454 403.566C291.478 404.855 295.196 407.844 297.129 411.617Q297.409 412.162 297.633 412.733Q297.857 413.304 298.023 413.894Q298.188 414.484 298.294 415.088Q298.4 415.692 298.445 416.303Q298.49 416.915 298.474 417.528Q298.458 418.141 298.38 418.749Q298.303 419.357 298.165 419.954Q298.027 420.551 297.83 421.132C296.391 425.364 292.623 428.684 288.742 430.657C284.268 430.867 280.328 431.06 276.307 428.71C273.162 426.872 270.915 424.013 270.071 420.447C269.176 416.668 269.882 411.951 272.023 408.69C274.097 405.531 276.101 403.518 279.796 402.791Z"/>
	<path fill="#F3EDD6" d="M281.835 407.937C282.801 407.85 283.771 407.766 284.742 407.767C286.802 407.768 289.076 408.794 290.454 410.332C292.056 412.118 292.377 414.449 292.099 416.745C291.587 420.968 289.342 423.051 286.126 425.55C285.637 425.552 285.15 425.544 284.663 425.494C281.802 425.197 278.534 423.837 276.813 421.446C275.571 419.72 275.243 417.624 275.61 415.564C276.288 411.759 278.823 409.982 281.835 407.937Z"/>
	<path d="M149.901 330.195C151.967 330.449 153.87 330.791 155.756 331.715C161.638 334.595 163.508 340.973 165.546 346.683C164.643 349.586 163.795 352.646 162.193 355.252C158.944 360.54 154.149 362.268 148.383 363.714C145.215 363.182 142.133 362.597 139.324 360.956C136.098 359.071 133.739 356.221 132.815 352.572C131.107 345.825 134.155 339.757 137.473 334.113C141.518 332.594 145.765 331.452 149.901 330.195Z"/>
	<path fill="#F3EDD6" d="M149.778 334.164C150.66 334.308 151.41 334.555 152.221 334.925C155.1 336.239 157.606 338.307 158.698 341.358C159.855 344.592 159.342 348.2 157.835 351.226C155.706 355.499 152.829 357.073 148.438 358.484L147.713 358.239C143.998 356.959 140.85 355.268 139.124 351.546C137.922 348.955 137.96 346.072 139.017 343.437C141.022 338.439 145.056 336.154 149.778 334.164Z"/>
	<path d="M288.934 94.8642C289.624 95.0467 290.851 95.1791 291.355 95.6603C296.924 100.98 297.14 123.056 297.47 130.962L297.271 131.245C296.437 132.414 295.657 133.664 294.688 134.727C293.204 136.353 290.692 137.556 288.481 137.5C287.044 137.463 285.731 136.922 284.786 135.821C283.701 134.558 283.449 133.074 283.6 131.458C284.047 126.689 287.987 123.717 291.39 120.883C290.466 116.367 290.111 111.652 289.577 107.071C284.762 108.297 279.998 109.836 275.234 111.25C271.882 115.801 276.678 125.344 276.051 130.79C275.779 133.152 274.796 135.279 272.815 136.696C270.735 138.182 267.923 138.557 265.456 138.034C263.429 137.604 261.278 136.447 260.244 134.588Q260.125 134.373 260.029 134.146Q259.933 133.92 259.862 133.684Q259.79 133.449 259.744 133.208Q259.697 132.966 259.676 132.721Q259.656 132.476 259.661 132.23Q259.666 131.984 259.697 131.74Q259.728 131.496 259.784 131.257Q259.841 131.017 259.922 130.785C261.294 126.744 266.224 124.341 269.782 122.709C269.105 114.526 268.199 106.554 266.206 98.5758C273.855 97.873 281.394 96.2912 288.934 94.8642Z"/>
	<path d="M239.959 292.896C247.976 294.555 257.75 297.071 262.425 304.388C264.513 307.656 265.286 311.514 264.373 315.302C262.73 322.12 256.994 326.261 251.345 329.708C247.935 330.614 244.106 330.662 240.66 329.911C236.28 328.956 232.531 326.455 230.117 322.661C227.371 318.345 226.507 312.831 227.628 307.856C229.258 300.628 234.015 296.634 239.959 292.896Z"/>
	<path fill="#F3EDD6" d="M240.841 296.903C243.989 297.741 253.633 301.761 255.891 303.896C257.776 305.678 259.021 307.991 259.018 310.633C259.012 315.788 255.017 319.797 251.656 323.232C249.467 323.733 247.251 324.233 244.997 324.271C241.828 324.325 238.331 323.2 236.052 320.937C233.76 318.661 232.68 315.373 232.742 312.181C232.87 305.645 236.41 301.232 240.841 296.903Z"/>
	<path d="M654.888 44.9272C657.39 46.3239 659.126 51.3003 660.081 53.9498C667.098 73.4292 666.638 95.9853 665.539 116.392C665.117 124.23 664.319 132.216 664.552 140.055C664.772 147.478 665.859 154.347 668.048 161.437C679.809 167.14 687.405 177.197 691.82 189.232C696.963 203.252 698.431 221.024 691.985 234.883C717.065 228.291 741.768 226.068 767.671 227.06C769.886 227.145 773.368 227.091 774.975 228.829L774.348 229.736C767.501 232.763 746.662 231.098 737.876 231.524Q726.012 232.094 714.254 233.771C707.828 234.72 692.173 236.581 688.303 242.395C687.481 243.629 687.276 245.198 687.596 246.632C688.123 248.999 690.083 250.024 692.303 250.426C698.103 251.478 705.417 249.868 711.374 249.799C723.58 249.657 758.588 252.415 768.039 258.226C769.262 258.978 770.563 259.643 770.927 261.057C765.778 262.677 751.603 258.003 745.734 256.989C733.021 254.791 701.167 251.107 690.321 255.696C688.635 256.409 687.218 257.382 686.553 259.16C686.28 259.889 686.479 261.027 686.827 261.701C687.852 263.689 690.341 265.142 692.343 265.971C698.323 268.448 705.342 269.637 711.609 271.447C720.216 273.934 728.669 277.061 737.047 280.224C742.11 282.136 756.702 286.631 758.817 291.311C758.709 291.385 758.612 291.475 758.495 291.533C756.384 292.573 751.101 291.298 748.803 290.675C739.219 288.08 729.825 283.77 720.474 280.418C708.976 276.297 697.197 272.832 685.536 269.199C682.673 277.047 679.54 284.237 675.334 291.463C677.645 326.671 677.707 354.642 662.788 387.665C695.357 388.535 727.851 390.386 760.434 390.876L821.047 391.629C834.272 391.729 853.598 390.378 865.908 393.475C879.706 386.783 895.74 356.859 906.651 344.722C910.871 340.028 917.211 338.139 921.744 333.468C935.48 319.316 947.901 303.778 961.229 289.227C971.563 277.946 983.452 267.631 992.516 255.286C995.337 251.443 996.396 247.137 998.927 243.262C1000.37 241.056 1002.48 238.962 1005.18 238.513C1006.76 238.251 1007.74 238.771 1008.98 239.676C1009.74 240.804 1010.21 241.702 1010.13 243.101C1009.75 249.886 995.977 258.243 991.126 262.816C987.803 265.948 984.779 269.535 981.709 272.915Q963.081 293.179 945.213 314.116C937.764 322.876 930.496 333.162 922.093 340.951C922.702 342.512 922.86 344.586 922.482 346.206C920.981 352.637 879.633 399.02 873.332 402.616C888.236 400.6 901.837 392.7 916.91 390.788C927.86 389.399 939.16 389.422 950.176 389.19C969.821 388.778 989.947 388.464 1009.51 390.216C1013.86 390.605 1018.69 390.753 1022.94 391.739C1026.15 392.482 1028.79 394.76 1032.16 394.851C1071.29 395.904 1110.43 395.175 1149.58 396.684C1157.01 396.97 1192.19 398.225 1196.17 402.519C1192.55 404.858 1183.83 404.414 1179.56 404.445C1162.48 404.568 1145.46 402.822 1128.42 402.026C1113.94 401.349 1099.37 401.909 1084.86 401.427C1066.69 400.824 1048.64 399.258 1030.45 399.025C1031.75 400.455 1032.21 402.15 1032.69 403.982C1035.8 415.863 1036.63 449.803 1030.5 459.89C1025.02 468.917 994.719 482.927 984.313 485.351C1005.06 485.394 1025.75 483.581 1046.5 483.124C1071.77 482.567 1096.95 483.519 1122.22 484.024C1138.39 484.347 1154.52 483.956 1170.68 484.808C1174.65 485.018 1181.84 485.268 1184.54 488.263C1183.9 488.757 1183.78 488.778 1182.96 488.854C1154.09 491.537 1124.74 487.474 1095.78 487.739Q1061.66 487.99 1027.57 489.354C1004.38 490.354 981.374 491.921 958.125 491.828C920.715 491.679 883.245 489.822 845.866 488.335C845.907 488.713 845.925 488.801 845.927 489.224C845.95 492.993 842.987 498.662 841.979 502.563C840.373 508.776 840.03 515.323 839.106 521.664C838.59 525.203 838.387 529.864 835.743 532.516C894.803 533.53 953.84 536.395 1012.92 537.388Q1042.37 537.925 1071.83 537.582C1083.87 537.489 1096.35 536.813 1108.36 537.716C1110.33 537.863 1112.93 538.131 1114.29 539.687L1113.5 540.737C1108.23 543.19 1102.28 543.874 1096.53 544.142C1083.1 544.768 1069.56 543.827 1056.14 543.305C1043.51 542.813 1030.88 542.692 1018.24 542.45Q927.153 541.2 836.122 537.779C836.222 537.885 836.328 537.986 836.423 538.096C841.059 543.423 840.811 579.763 840.52 587.963C839.622 613.24 829.557 641.143 810.735 658.606C797.925 670.492 783.011 675.942 765.556 675.281C744.91 674.498 726.763 665.412 712.826 650.336C693.15 629.054 680.962 597.655 679.483 568.835C678.88 557.077 680.103 545.303 680.583 533.558C666.676 532.731 652.608 532.754 638.672 532.409C592.649 531.269 546.713 531.617 500.691 531.298C477.161 531.134 453.623 530.014 430.108 529.224Q381.737 527.9 333.411 525.435C322.176 525.09 310.954 524.247 299.718 523.866Q274.818 523.201 249.908 523.215Q214.029 523.052 178.153 523.598C163.14 523.909 148.117 524.904 133.1 524.755C124.726 524.672 116.444 523.446 108.091 523.242C90.838 522.821 70.4494 525.867 54.1657 519.574C84.7351 514.066 116.03 520.47 146.799 520.025C158.034 519.863 169.259 519.206 180.495 519.013Q229.727 518.506 278.958 519.056C302.418 519.5 325.893 520.934 349.356 521.641C375.296 522.422 401.252 522.502 427.188 523.482C444.639 524.141 462.034 525.458 479.503 525.88C497.695 526.321 515.939 525.599 534.145 525.74Q607.721 525.884 681.23 529.047C683.115 518.697 685.677 508.021 689.43 498.195C690.585 495.169 694.17 489.478 693.643 486.383C686.915 485.63 679.994 485.754 673.225 485.552Q657.116 484.941 641 484.545L534.34 482.466L258.096 477.767C201.969 477.362 145.805 477.969 89.7021 476.411C83.5869 476.242 77.4424 476.596 71.3395 476.348C68.5643 476.234 64.3905 475.708 62.4643 473.617C62.6722 473.328 62.8112 473.089 63.076 472.859C69.3755 467.386 108.887 471.334 118.687 471.695C115.478 467.382 112.785 462.89 112.612 457.366C112.451 452.206 114.773 447.582 118.306 443.936C140.865 420.652 225.232 409.497 258.462 409.084C248.877 413.937 232.743 414.713 221.885 416.306C197.833 419.835 139.195 429.851 122.911 446.523C120.193 449.306 118.387 452.773 118.53 456.736C118.771 463.418 124.012 467.854 128.564 472.008C142.313 472.004 156.107 471.809 169.849 472.168C182.035 472.488 194.315 473.768 206.474 472.559C206.966 465.661 208.019 458.392 211.806 452.458C215.871 446.089 222.381 442.973 229.548 441.355C240.36 438.913 245.595 439.989 251.554 449.211C252.982 451.421 254.262 453.646 256.401 455.253C260.854 458.598 267.273 459.282 272.225 462.396C275.676 459.815 279.024 457.3 282.852 455.293C285.616 455.628 288.408 455.781 291.185 455.986C297.755 452.263 302.772 442.886 310.492 441.986C317.128 441.212 325.722 446.579 330.823 450.492C338.253 428.713 346.455 407.435 356.709 386.823C298.663 388.776 240.803 385.38 182.793 386.168Q145.702 386.758 108.627 387.977C94.5368 388.495 73.502 390.797 60.1872 388.618C58.9857 388.422 57.7143 388.347 56.9864 387.338C65.4783 382.663 187.234 380.27 206.564 380.342C233.312 380.441 260.026 381.856 286.772 381.905C310.838 381.949 334.976 379.564 358.976 381.753C363.31 374.623 367.715 367.371 371.4 359.884C379.514 343.395 385.489 327.401 398.249 313.684L399.263 302.935C380.185 312.104 363.353 325.116 343.274 332.458C359.779 316.735 382.437 305.589 402.769 295.515C399.145 290.715 395.778 285.711 392.348 280.771C377.765 284.186 363.069 287.915 348.935 292.905C336.979 297.126 325.786 302.521 313.391 305.491C329.385 293.179 349.849 286.898 369.16 281.892C374.482 280.513 380.243 279.764 385.411 277.965C387.558 277.218 389.036 276.421 390.034 274.343C388.796 269.54 377.986 262.522 374.159 259.465C359.904 261.909 345.46 263.213 331.208 265.849C320.575 267.816 310.218 271.27 299.465 272.483L299.762 272.283C318.778 259.741 348.279 257.561 370.66 255.505C362.659 242.516 357.276 229.418 358.048 213.905C358.957 195.628 367.755 185.111 380.729 173.438Q380.526 172.35 380.338 171.259C376.417 148.475 382.796 127.17 395.961 108.536C396.681 94.3465 397.507 71.2567 405.731 59.4245C408.162 55.9263 411.462 53.5217 415.718 52.8501C430.494 50.5178 448.85 64.4003 460.043 72.7243C462.91 71.3302 465.789 69.9325 468.731 68.703C512.012 50.6137 567.912 49.926 611.317 67.733C625.579 59.2776 639.417 51.0455 654.888 44.9272Z"/>
	<path fill="#F3EDD6" d="M635.813 392.767C641.077 392.731 646.369 392.96 651.634 393.067L644.647 402.844L638.997 409.52C638.312 403.88 637 398.319 635.813 392.767Z"/>
	<path fill="#F3EDD6" d="M407.3 301.209C408.31 301.764 409.27 302.402 410.208 303.071C414.759 306.316 417.493 312.811 418.21 318.229C418.407 319.723 418.357 320.602 417.43 321.808C413.696 319.458 408.34 316.696 406.355 312.595C404.474 308.71 405.925 304.987 407.3 301.209Z"/>
	<path fill="#F3EDD6" d="M393.867 258.564C400.548 258.258 408.142 257.404 414.733 258.481C416.419 258.756 417.482 258.989 418.488 260.422C418.325 260.813 418.253 261.061 418.015 261.394C415.837 264.446 410.056 265.643 406.666 266.391C396.768 268.622 389.484 263.922 381.413 258.871L393.867 258.564Z"/>
	<path fill="#F3EDD6" d="M672.13 170.096C674.785 171.313 676.854 173.873 678.58 176.145C688.909 189.736 690.657 209.384 688.404 225.743L687.606 226.225C685.418 224.753 684.795 217.655 684.24 214.907C681.16 199.658 675.401 185.263 672.13 170.096Z"/>
	<path fill="#F3EDD6" d="M393.274 123.851C393.562 124.149 393.798 124.312 393.935 124.712C395.306 128.705 395.776 162.264 393.888 165.445C392.602 167.611 388.883 168.494 386.617 169.279C386.389 168.842 386.308 168.715 386.132 168.292C380.759 155.445 388.432 135.862 393.274 123.851Z"/>
	<path fill="#F3EDD6" d="M615.016 244.739L619.917 244.792C620.157 247.436 613.271 256.342 611.471 259.056C611.801 264.643 611.924 269.946 610.598 275.43C614.714 278.459 619.692 282.07 621.887 286.811L621.456 287.69C616.859 287.642 611.544 282.928 607.916 280.438L600.283 286.796C597.01 289.232 593.672 291.116 590.059 292.99C594.941 285.712 600.988 280.174 607.446 274.354C607.451 269.48 607.741 264.616 607.992 259.749C605.077 257.301 600.066 253.981 598.727 250.408C598.135 248.829 598.349 248.428 599.019 246.998C602.976 243.982 610.201 244.795 615.016 244.739Z"/>
	<path fill="#F3EDD6" d="M615.564 341.431L616.18 341.576C617.333 342.525 617.976 343.413 618.405 344.864C618.998 346.868 618.586 348.924 617.507 350.681C611.744 360.064 592.675 363.492 582.649 365.98L581.57 365.787C579.135 362.73 579.462 356.474 579.24 352.694Q583.963 351.993 588.618 350.932Q593.274 349.872 597.835 348.458Q602.395 347.044 606.834 345.284Q611.273 343.525 615.564 341.431Z"/>
	<path fill="#F3EDD6" d="M572.059 376.544C572.121 376.566 572.183 376.589 572.245 376.609C575.421 377.634 577.844 381.78 580.032 384.241C580.497 381.86 580.675 378.835 582.562 377.27C584.181 377.292 584.778 377.317 586.178 378.251C589.068 380.177 591.032 384.591 591.635 387.887C592.623 393.278 591.175 397.076 588.141 401.477C585.392 403.1 582.607 404.315 579.392 404.622C576.047 404.942 572.76 404.033 570.205 401.818C567.246 399.254 565.66 395.433 565.436 391.569C565.067 385.217 568.031 381.014 572.059 376.544Z"/>
	<path fill="#F3EDD6" d="M414.558 167.336C416.773 167.303 418.974 167.253 421.075 168.05C429.846 171.375 435.558 179.992 439.314 188.206C449.209 209.848 448.637 232.402 440.446 254.378C438.694 255.362 435.379 254.632 433.482 254.226C433.181 253.937 432.764 253.733 432.58 253.358C431.756 251.676 436.117 234.735 436.571 231.764C437.301 226.984 437.758 221.943 437.392 217.114C436.25 202.009 431.554 190.441 422.139 178.671C419.543 175.425 416.015 171.674 414.673 167.711C414.631 167.587 414.597 167.461 414.558 167.336Z"/>
	<path fill="#F3EDD6" d="M305.729 448.959C309.304 448.622 313.657 448.747 317.175 449.443C320.436 450.089 323.503 451.568 325.377 454.404C329.077 460.004 326.795 467.66 325.471 473.649C315.414 473.35 305.331 473.424 295.269 473.371Q291.848 473.661 288.415 473.727C284.186 473.789 279.725 473.39 276.545 470.328C275.885 468.667 275.876 468.538 276.34 466.813C277.433 465.431 278.491 464.647 280.083 463.925C285.47 461.48 290.983 462.404 296.305 464.375C298.538 458.378 301.123 453.502 305.729 448.959Z"/>
	<path fill="#F3EDD6" d="M820.487 462.829C821.707 462.73 822.608 462.892 823.79 463.192C824.14 463.522 824.431 463.781 824.615 464.239C826.211 468.233 826.026 476.81 824.523 480.677C823.562 481.479 823.575 481.471 822.376 481.488C815.593 481.581 808.817 480.574 802.026 480.504C791.934 480.401 781.715 481.28 771.646 480.874C765.954 480.645 762.364 480.302 758.412 476.025C758.841 474.804 759.265 474.165 758.942 472.878C757.938 468.879 754.279 466.104 750.871 464.147C769.461 464.779 787.73 470.34 806.448 468.177C810.713 467.684 817.67 466.364 820.487 462.829Z"/>
	<path fill="#F3EDD6" d="M228.658 446.386C254.242 445.073 241.413 453.295 252.196 460.604C256.491 463.515 262.449 462.945 266.984 465.483C268.236 466.185 269.375 467.304 269.66 468.768C269.984 470.432 269.525 470.884 268.566 472.114C264.384 474.314 258.755 473.537 254.177 473.45C241.456 473.31 228.698 473.584 215.976 473.797C215.08 472.529 214.145 471.233 213.453 469.839Q213.171 469.281 212.946 468.698Q212.721 468.115 212.556 467.513Q212.391 466.91 212.287 466.294Q212.183 465.677 212.141 465.054Q212.1 464.43 212.121 463.806Q212.142 463.181 212.226 462.562Q212.31 461.943 212.456 461.335Q212.601 460.727 212.807 460.137C215.223 453.179 222.471 449.408 228.658 446.386Z"/>
	<path fill="#F3EDD6" d="M397.186 170.775C401.035 170.602 404.45 171.021 407.99 172.627C417.288 176.845 422.847 186.156 426.259 195.395Q426.903 197.153 427.46 198.941Q428.018 200.729 428.487 202.542Q428.956 204.354 429.336 206.188Q429.716 208.021 430.005 209.871Q430.295 211.721 430.494 213.583Q430.693 215.445 430.801 217.315Q430.908 219.184 430.924 221.057Q430.94 222.929 430.865 224.8Q430.789 226.671 430.622 228.536Q430.455 230.401 430.197 232.256Q429.939 234.111 429.59 235.95Q429.242 237.79 428.804 239.611Q428.366 241.431 427.839 243.228Q427.313 245.025 426.699 246.794Q426.085 248.564 425.385 250.3Q424.686 252.037 423.902 253.738Q416.291 253.66 408.681 253.496C408.032 249.147 414.518 243.269 416.559 239.49C417.703 237.373 418.293 234.755 418.827 232.413C421.801 219.366 420.326 205.664 413.096 194.205C406.117 183.143 398.012 179.341 385.694 176.508C389.139 173.808 393.135 172.286 397.186 170.775Z"/>
	<path fill="#F3EDD6" d="M635.632 170.783C640.084 170.664 643.946 171.347 647.851 173.574C654.932 177.613 658.86 185.039 660.844 192.704C664.069 205.167 661.313 215.037 654.998 225.846C655.656 223.01 656.187 220.129 656.406 217.222C656.956 209.93 655.171 200.348 650.154 194.737C648.611 193.012 646.637 191.74 644.251 191.7C640.12 191.631 636.501 194.655 633.713 197.359C630.769 202.306 628.889 208.483 628.931 214.254C629 223.724 634.142 228.585 640.416 234.78C632.353 232.307 626.344 228.154 622.238 220.561C617.306 211.44 617.142 199.48 620.174 189.688C622.794 181.229 627.794 174.91 635.632 170.783Z"/>
	<path fill="#F3EDD6" d="M971.018 395.128C983.202 394.074 996.507 394.932 1008.65 396.583C1008.36 397.152 1008.09 397.588 1007.61 398.011C1003.26 401.798 966.375 416.32 959.757 417.432C950.97 418.909 941.6 418.149 932.722 418.112Q918.552 418.163 904.392 418.681Q885.353 419.164 866.338 420.239C858.554 420.677 850.475 421.669 842.698 421.463L842.714 420.788C848.15 420.07 854.404 417.62 859.603 415.84C871.125 411.894 882.523 407.534 893.956 403.339C901.953 400.404 910.088 396.919 918.551 395.626C922.082 395.086 925.745 395.298 929.305 395.397C927.039 398.083 921.222 399.106 917.976 400.642C915.473 401.827 912.636 403.213 911.652 405.983C911.951 407.708 912.647 408.798 914.059 409.88C921.657 415.7 939.538 414.113 948.572 412.848C954.361 412.037 966.302 409.671 969.565 404.536C971.529 401.444 968.341 399.375 967.498 396.547L968.129 395.605L971.018 395.128Z"/>
	<path fill="#F3EDD6" d="M711.162 440.053C711.97 439.921 712.738 439.847 713.558 439.827C718.546 439.704 724.247 440.561 727.956 444.184C732.596 448.717 732.251 454.448 733.594 460.244C734.15 462.643 735.498 464.828 735.502 467.324C739.958 468.247 744.591 468.947 748.549 471.324C750.603 472.558 752.263 474.005 752.88 476.406C752.629 477.659 752.64 478.225 751.611 479.093C748.02 482.119 740.556 480.672 736.335 480.323C736.251 479.994 736.258 479.928 736.042 479.6C733.144 475.181 724.456 470.732 719.351 469.871C711.125 468.484 705.698 474.132 699.569 478.474L698.974 479.494C692.757 482.372 664.25 480.13 657.289 478.226C656.838 473.531 655.953 468.681 658.997 464.613C660.498 462.607 662.697 461.544 665.142 461.189C673.012 460.048 680.183 464.863 686.118 469.377C689.438 467.634 693.746 465.949 696.357 463.24C698.11 461.956 699.64 453.995 700.934 451.53C703.288 447.049 708.088 444.332 710.998 440.29C711.054 440.212 711.107 440.132 711.162 440.053Z"/>
	<path fill="#F3EDD6" d="M422.937 314.147C430.59 316.47 439.502 324.759 446.817 328.779C471.565 342.381 500.593 349.593 528.57 352.49Q540.146 353.718 551.785 353.882C556.783 353.909 562.356 353.163 567.288 353.824C568.875 354.036 570.478 354.493 571.672 355.616C574.386 358.168 573.611 364.165 573.581 367.588C521.591 373.401 472.36 355.802 428.299 329.611C426.332 324.493 424.482 319.408 422.937 314.147Z"/>
	<path fill="#F3EDD6" d="M416.554 70.3502C417.218 70.5096 417.87 70.6931 418.513 70.9239C433.197 76.1943 458.607 105.767 465.217 120.014C455.537 115.983 448.453 108.156 438.753 104.041C445.606 111.738 453.431 118.529 460.413 126.122C452.476 122.344 436.536 109.674 428.907 109.113C432.058 112.076 445.617 122.196 446.139 124.659C441.295 126.705 433.731 120.248 428.431 120.652L428.416 121.421C431.253 124.837 435.531 127.515 439.027 130.302Q433.179 128.191 427.292 126.19C428.198 127.689 429.301 128.794 430.367 130.145C431.152 131.138 431.306 131.329 431.166 132.607C429.778 132.644 428.396 132.625 427.009 132.598L426.5 133.3C426.708 134.123 426.889 134.925 427.017 135.766C427.211 137.036 414.207 148.058 412.001 151.054C409.113 123.103 408.618 97.5958 416.554 70.3502Z"/>
	<path fill="#F3EDD6" d="M531.393 174.597C538.351 174.073 544.781 176.334 550.243 180.619C561.939 189.796 564.894 202.841 566.522 216.735C562.87 209.793 559.958 202.342 554.239 196.813C550.95 195.939 548.055 195.189 544.657 195.833C540.45 196.63 536.983 198.997 534.605 202.547C530.397 208.827 530.087 217.276 531.55 224.456C532.809 229.715 537.449 234.431 540.082 239.212C539.501 239.784 539.419 239.892 538.605 240.033C530.94 241.357 520.826 236.944 514.808 232.499C507.82 227.337 502.733 220.226 501.487 211.505Q501.376 210.729 501.304 209.949Q501.232 209.169 501.198 208.386Q501.165 207.604 501.17 206.82Q501.175 206.037 501.219 205.255Q501.263 204.472 501.345 203.693Q501.427 202.914 501.548 202.14Q501.669 201.366 501.828 200.599Q501.987 199.832 502.184 199.073Q502.38 198.315 502.614 197.567Q502.848 196.819 503.119 196.084Q503.39 195.349 503.696 194.628Q504.003 193.907 504.345 193.202Q504.687 192.497 505.063 191.81Q505.439 191.123 505.849 190.455Q506.259 189.787 506.701 189.141Q507.143 188.494 507.617 187.87C513.51 180.064 521.899 175.995 531.393 174.597Z"/>
	<path fill="#F3EDD6" d="M668.47 301.149C669.341 301.825 669.673 302.426 669.991 303.474C673.88 316.313 668.93 349.886 665.113 363.387Q663.368 369.587 660.968 375.564Q658.567 381.542 655.538 387.226C648.44 387.681 641.854 388.772 634.758 387.393C633.67 385.223 632.91 382.861 632.076 380.581C628.863 373.095 624.703 365.794 622.256 358.03C625.637 351.228 624.707 345.008 624.139 337.677C630.398 330.888 640.008 326.825 647.628 321.73C655.964 316.157 662.266 308.928 668.47 301.149Z"/>
	<path fill="#F3EDD6" d="M383.712 182.288C385.941 182.413 388.164 182.567 390.333 183.132C398.036 185.139 404.419 190.946 408.304 197.746C414.085 207.867 415.367 220.995 412.285 232.212C409.551 242.161 403.666 248.553 394.867 253.517L377.135 253.544C373.91 249.267 371.198 244.878 369.085 239.943C363.673 227.299 361.732 211.227 367.036 198.235C370.415 189.958 375.746 185.677 383.712 182.288Z"/>
	<path d="M391.23 197.458C392.06 198.097 392.829 198.97 393.318 199.9C397.263 207.402 397.309 225.112 394.674 232.964C393.659 231.673 392.759 230.189 392.111 228.68C388.414 220.076 387.704 206.072 391.23 197.458Z"/>
	<path fill="#F3EDD6" d="M534.476 61.9565C553.319 59.8936 586.932 66.2038 604.9 71.7686C600.86 74.597 596.837 77.4299 593.259 80.8396C589.196 84.7106 585.585 89.0335 581.018 92.3426C574.538 91.5525 568.123 89.9787 561.657 89.0192C552.791 87.7039 544.034 87.3504 535.093 87.2904C521.31 87.3963 503.33 91.1667 489.787 94.3345C480.892 89.6203 473.167 82.4131 465.095 76.4276C487.892 67.4512 510.178 63.5292 534.476 61.9565Z"/>
	<path fill="#F3EDD6" d="M702.504 486.178C714.253 485.201 726.799 486.798 738.683 486.771C763.389 486.715 788.02 486.607 812.724 487.171C820.743 487.354 830.066 486.571 837.9 487.838C838.062 488.238 838.173 488.506 838.197 488.942C838.569 495.664 833.066 510.581 832.395 518.95C832.11 522.503 832.647 527.57 830.349 530.494C830.234 530.641 830.112 530.784 829.981 530.917C827.964 532.957 824.486 532.45 821.844 532.414Q773.504 531.517 725.176 530.093C712.625 529.761 700.052 529.803 687.51 529.272C689.595 519.52 691.652 508.969 695.561 499.771C697.436 495.36 701.453 490.767 702.504 486.178Z"/>
	<path fill="#F3EDD6" d="M1019.41 398.723C1020.77 398.562 1021.96 398.681 1023.32 398.847C1024.43 399.623 1024.96 399.835 1025.48 401.135C1028.04 407.55 1029.42 452.168 1026.6 457.642C1024.08 462.535 987.566 478.66 980.512 481.538C977.528 482.755 973.022 484.408 969.881 482.895C968.03 482.004 967.144 480.096 966.691 478.19C963.66 465.446 969.385 443.326 964.373 431.097C963.924 430.003 963.878 429.91 962.808 429.456C953.924 437.464 967.148 475.12 958.579 485.291Q920.87 484.892 883.172 483.905C884.645 483.315 886.073 482.672 887.454 481.888C889.589 480.677 892.109 479.118 892.783 476.611C894.073 475.643 894.822 474.638 895.349 473.095C895.708 472.042 895.661 471.269 895.128 470.281C894.027 468.242 891.341 467.082 889.206 466.514C879.474 463.928 860.639 468.727 852.167 474.064C848.539 476.349 845.826 479.927 842.074 482.072C841.941 482.148 841.806 482.221 841.672 482.296C838.132 481.335 833.857 481.576 830.188 481.407C830.417 480.879 830.627 480.349 830.801 479.801C833.374 471.675 833.632 434.007 829.815 426.713C837.741 426.485 845.677 425.663 853.601 425.269Q870.977 424.533 888.367 424.385C907.413 424.125 926.804 425.14 945.792 423.967C952.687 423.541 959.583 422.663 966.241 420.776C978.028 417.435 988.861 411.435 1000.13 406.737C1004.87 404.761 1009.97 403.706 1014.68 401.642C1016.37 400.902 1018.17 400.132 1019.41 398.723Z"/>
	<path d="M990.283 422.689C995.567 421.995 1000.87 421.533 1005.78 424.075C1009.47 425.984 1012.02 429.238 1013.19 433.202C1014.96 439.202 1013.4 446.178 1010.43 451.535C1007.57 456.707 1002.82 461.458 997.029 463.089C994.701 464.681 990.768 466.389 987.909 466.229C985.595 466.099 983.796 464.806 982.337 463.103C978.205 458.278 976.863 451.114 977.337 444.936C978.17 434.087 982.475 429.35 990.283 422.689Z"/>
	<path fill="#F3EDD6" d="M995.738 431.074C996.407 431.077 996.813 431.053 997.414 431.397C998.064 431.768 998.277 433.053 998.423 433.784C999.179 437.555 1000.44 450.348 997.967 453.411C997.371 454.147 996.248 453.96 995.335 454.034C990.698 445.498 993.81 439.679 995.738 431.074Z"/>
	<path d="M911.569 435.87C919.57 435.657 934.835 433.879 941.996 436.95C944.515 438.031 946.261 439.953 947.273 442.487C949.586 448.282 948.643 457.769 946.229 463.38C944.56 463.927 888.739 461.337 881.756 461.266C872.797 460.998 858.424 462.003 850.191 459.85C842.255 457.775 847.561 443.931 844.184 438.178C844.107 438.047 844.024 437.92 843.945 437.792C866.61 435.25 888.981 437.431 911.569 435.87Z"/>
	<path fill="#F3EDD6" d="M887.978 441.86C891.489 441.412 895.282 441.119 898.822 441.236C900.682 441.298 902.767 441.875 904.029 443.319C905.478 444.976 905.531 447.066 905.343 449.133C905.095 451.874 904.544 453.696 902.388 455.531C898.567 457.639 891.062 456.485 886.805 456.347C889.283 451.813 889.158 446.783 887.978 441.86Z"/>
	<path fill="#F3EDD6" d="M915.44 441.861C920.539 441.555 936.104 440.871 940.156 442.905C941.546 444.43 942.425 445.824 942.441 447.975C942.459 450.479 940.984 453.637 939.189 455.366C937.787 456.715 935.695 456.539 933.879 456.55C925.758 457.327 917.242 456.608 909.093 456.385C911.914 451.238 909.018 447.849 910.581 443.431C912.186 441.942 913.303 442.13 915.44 441.861Z"/>
	<path fill="#F3EDD6" d="M855.338 440.663C863.679 440.088 872.398 440.938 880.753 441.266C882.42 442.947 883.406 446.124 883.575 448.452C883.731 450.595 882.864 452.901 881.408 454.466C879.769 456.229 877.65 456.236 875.409 456.4C866.366 456.1 857.306 456.327 848.26 456.437C851.599 452.502 848.208 446.051 851.224 442.244C852.142 441.085 853.97 440.915 855.338 440.663Z"/>
	<path fill="#F3EDD6" d="M659.553 393.156C707.926 396.53 756.515 396.388 804.979 397.156C818.13 397.364 831.359 396.745 844.489 397.357C849.207 397.576 855.082 397.633 859.458 399.534C859.789 400.057 859.925 400.451 859.962 401.074C860.681 413.17 836.542 414.673 829.863 421.793C821.071 431.164 830.116 446.715 822.797 455.528C822.726 455.646 822.666 455.772 822.583 455.883C819.876 459.49 811.388 461.269 807.102 461.891C791.527 464.838 758.685 460.612 741.606 459.091C741.417 455.281 737.917 447.511 735.754 444.435C730.637 437.156 722.001 434.881 713.695 433.488C711.651 436.029 703.766 438.453 700.563 441.805C695.789 446.802 695.623 455.115 689.877 459.155C685.358 462.333 676.733 456.449 671.593 455.651C664.671 454.576 659.589 457.315 654.176 461.19C649.855 446.432 644.591 431.969 639.976 417.302C647.175 409.747 653.33 401.507 659.553 393.156Z"/>
	<path fill="#F3EDD6" d="M691.092 534.065C707.295 533.357 723.561 534.97 739.757 535.438L829.805 537.342C829.876 537.407 829.953 537.465 830.018 537.536C836.068 544.191 833.918 585.38 832.938 595.482C831.054 614.907 824.165 636.981 808.652 649.753C808.499 651.049 808.239 651.473 807.482 652.485C800.915 661.261 786.121 667.667 775.395 669.091C758.82 671.291 741.158 666.315 728.007 656.183C704.426 638.017 690.715 605.126 687.043 576.295C686.348 570.835 684.64 538.463 687.586 535.053C688.452 534.051 689.847 534.197 691.092 534.065Z"/>
</svg>
