<?xml version="1.0" encoding="utf-8" ?>
<svg xmlns="http://www.w3.org/2000/svg" xmlns:xlink="http://www.w3.org/1999/xlink" width="1227" height="692">
	<path fill="#F3EED8" d="M0 0L1225.95 0C1227.39 2.26316 1226.99 5.54227 1227 8.14407L1227 502.045L1227 637.999L1227 673.985C1227 678.964 1227.67 685.068 1226.83 689.91C1226.7 690.664 1226.36 691.359 1225.95 692L0 692L0 0Z"/>
	<path d="M266.82 388.301C269.011 388.185 271.296 388.006 273.485 388.162C277.852 388.472 282.426 390.867 285.266 394.184C287.371 396.643 288.626 399.837 288.331 403.097C287.855 408.358 284.231 411.861 280.366 415.03C279.39 415.294 278.399 415.545 277.393 415.669C273.166 416.194 268.255 415.584 264.863 412.824C262.24 410.689 260.605 407.422 260.305 404.065C259.737 397.716 262.989 392.95 266.82 388.301Z"/>
	<path fill="#F3EED8" d="M273.589 392.552C274.735 392.696 275.951 392.812 277.056 393.162C278.924 393.754 280.667 395.416 281.516 397.155C282.577 399.327 282.473 401.691 281.707 403.923C280.46 407.558 277.91 409.31 274.574 410.896C273.498 410.524 272.418 410.147 271.375 409.688C268.698 408.509 266.847 406.712 265.822 403.946C265.123 402.06 265.134 400.117 266.037 398.298C267.525 395.302 270.585 393.663 273.589 392.552Z"/>
	<path d="M291.844 66.2334C298.152 66.9311 304.508 67.1077 310.802 67.8582C312.504 68.0612 315.563 68.3849 316.608 69.9071C320.123 75.0288 314.304 98.4806 312.882 104.362C311.796 105.566 310.661 106.903 309.256 107.737C307.471 108.797 305.278 109.304 303.247 108.706C301.764 108.27 300.552 107.299 299.942 105.862C299.386 104.55 299.521 103.112 300.041 101.813C301.776 97.4778 306.284 95.7278 310.244 93.9862L311.144 86.3908L312.165 79.5486Q303.98 79.6155 295.796 79.8014C293.674 85.9909 294.494 94.0384 292.073 99.1962C291.057 101.362 289.333 103.122 287.019 103.861C284.909 104.535 282.339 104.296 280.37 103.247C278.769 102.394 277.198 101.004 276.754 99.1684C276.463 97.9629 276.714 96.7603 277.354 95.7125C279.794 91.7116 284.976 90.7432 289.195 89.8845C290.374 82.0353 291.715 74.1839 291.844 66.2334Z"/>
	<path d="M163.713 302.606C165.658 302.489 168.001 303.175 169.734 304.034C175.233 306.76 177.348 313.163 179.12 318.6C178.293 321.547 177.472 324.793 175.766 327.364C172.497 332.29 167.883 334.227 162.257 335.388C159.26 334.929 156.372 334.322 153.708 332.806C150.447 330.95 148.015 328.053 147.094 324.385C145.449 317.838 148.37 311.894 151.652 306.447C155.621 304.938 159.63 303.757 163.713 302.606Z"/>
	<path fill="#F3EED8" d="M164.034 306.103C164.926 306.349 165.797 306.744 166.632 307.14C169.426 308.467 171.703 310.812 172.72 313.763C173.799 316.896 173.364 320.426 171.871 323.344C169.704 327.581 166.71 329.078 162.342 330.49Q160.984 329.995 159.643 329.457C156.633 328.234 154.154 326.119 152.908 323.061C151.876 320.527 152.042 317.698 153.102 315.204C155.191 310.285 159.301 307.994 164.034 306.103Z"/>
	<path d="M848.933 324.429L850.705 324.275C852.676 324.797 853.981 326.549 855.091 328.158C858.455 333.032 866.682 351.731 865.729 356.819C865.998 357.655 866.042 358.263 865.891 359.14C865.502 361.403 864.245 363.252 862.319 364.487C860.566 365.613 858.061 366.19 856.052 365.574C854.861 365.209 853.891 364.424 853.359 363.29C850.98 358.217 856.001 353.926 857.273 349.476C857.301 349.38 857.324 349.282 857.349 349.185C857.392 348.971 857.47 348.664 857.468 348.431C857.45 345.626 853.951 338.166 851.884 336.175C848.479 340.433 841.414 340.852 838.688 345.995C840.59 348.09 842.472 353.201 843.721 355.882C845.268 359.204 846.492 363.325 845.075 366.899C844.193 369.124 842.361 370.846 840.155 371.737C838.044 372.588 835.438 372.785 833.344 371.786Q833.099 371.672 832.868 371.531Q832.637 371.391 832.422 371.226Q832.208 371.062 832.013 370.875Q831.817 370.688 831.644 370.48Q831.47 370.273 831.32 370.048Q831.17 369.823 831.045 369.583Q830.92 369.343 830.823 369.091Q830.725 368.839 830.655 368.578C829.09 362.852 834.903 360.366 837.024 356.163C837.068 355.933 837.158 355.545 837.155 355.288C837.1 351.119 830.32 336.971 827.501 334.007C834.815 332.144 842.249 327.928 848.933 324.429Z"/>
	<path d="M256.541 275.656C257.067 275.611 257.484 275.624 257.969 275.866C264.693 279.229 272.379 284.991 274.645 292.428C275.742 296.031 275.434 299.85 273.574 303.146C270.136 309.238 263.613 311.525 257.282 313.293C254.195 313.499 249.561 311.975 246.852 310.474C243.054 308.37 240.436 304.684 239.26 300.548Q239.131 300.098 239.025 299.642Q238.918 299.185 238.835 298.724Q238.752 298.263 238.692 297.799Q238.632 297.334 238.595 296.867Q238.558 296.4 238.545 295.932Q238.532 295.464 238.542 294.995Q238.553 294.527 238.587 294.06Q238.62 293.593 238.678 293.128Q238.735 292.663 238.816 292.201Q238.896 291.74 239 291.283Q239.103 290.826 239.23 290.375Q239.356 289.924 239.505 289.48Q239.654 289.036 239.825 288.6Q239.996 288.164 240.189 287.737Q240.382 287.31 240.596 286.893Q240.809 286.476 241.044 286.071C244.614 279.829 249.955 277.487 256.541 275.656Z"/>
	<path fill="#F3EED8" d="M256.951 279.119C259.859 281.187 267.46 287.665 269.069 290.562C270.275 292.734 270.766 295.191 270.042 297.614C268.51 302.739 263.249 305.361 258.88 307.689Q255.912 307.455 253.032 306.703C249.793 305.856 246.75 303.874 245.094 300.906C243.552 298.143 243.475 294.761 244.385 291.777C246.375 285.246 251.262 282.071 256.951 279.119Z"/>
	<path d="M654.132 45.525C654.867 45.4854 655.148 45.6598 655.806 45.953C659.005 50.8481 660.965 57.3327 662.364 62.9916C666.253 78.7297 666.276 95.6913 665.52 111.821C664.723 128.825 662.544 145.183 667.897 161.72C676.881 166.087 683.592 172.937 688.206 181.733C697.175 198.83 697.607 217.247 691.907 235.361Q703.793 231.741 716.061 229.768C728.209 227.854 765.277 224.487 775.833 229.037C770.662 232.375 746.294 231.022 738.665 231.286Q730.113 231.6 721.606 232.531C709.788 233.827 699.042 235.98 688.143 240.751C687.718 243.078 686.68 246.885 687.737 249.131C688.515 250.785 692.05 250.669 693.62 250.688C699.162 250.755 704.72 250.206 710.275 250.237C725.648 250.322 748.72 251.588 763.066 256.369C765.991 257.344 769.314 258.544 770.764 261.457C762.08 260.4 753.587 258.118 744.975 256.608C731.451 254.237 705.15 251.043 692.211 254.881C690.059 255.519 687.069 256.676 686.057 258.852C685.575 259.888 685.627 260.756 686.164 261.787C687.19 263.753 690.285 265.3 692.236 266.112C698.305 268.64 705.197 269.741 711.495 271.674C724.108 275.545 736.903 280.113 749.068 285.225C751.595 286.287 756.133 287.956 757.214 290.616L756.433 291.265C747.747 292.216 724.848 281.535 715.464 278.373Q700.471 273.358 685.267 269.025C682.503 276.95 679.052 284.167 675.134 291.569C677.156 327.539 677.486 354.051 662.444 387.815C673.173 388.773 684.227 388.54 695.011 389.035Q748.519 391.557 802.085 391.751C819.368 391.924 850.108 390.253 865.869 393.79C877.865 389.062 896.647 356.497 906.34 345.585C911.027 340.309 917.85 338.12 922.775 332.943C936.179 318.854 948.416 303.59 961.578 289.26C971.442 278.522 982.763 268.706 991.658 257.143C995.106 252.66 996.187 247.295 999.372 242.92C1000.65 241.168 1002.7 239.3 1004.96 239.145C1006.65 239.03 1007.31 239.634 1008.57 240.589C1008.96 241.313 1009.28 242.03 1009.29 242.869C1009.36 250.195 995.729 258.137 990.933 262.73C984.839 268.568 979.271 275.093 973.614 281.357C955.933 300.933 939.471 321.572 921.845 341.141C922.285 342.828 922.565 344.347 922.19 346.087C920.81 352.493 878.721 399.268 872.582 403.003C886.147 401.301 898.64 394.538 912.045 391.846C921.847 389.877 932.531 389.996 942.502 389.675C965.022 388.951 988.454 388.28 1010.88 390.582C1019.89 391.506 1028.84 395.202 1037.73 395.463C1060.66 396.136 1182.44 393.621 1196.16 402.786C1175.67 406.871 1148 402.614 1126.96 401.673C1113.3 401.062 1099.6 401.635 1085.93 401.19C1067.25 400.582 1048.71 399.047 1029.99 398.846C1030.86 399.639 1031.28 400.484 1031.66 401.575C1035.76 413.419 1036.29 447.505 1030.94 458.293C1025.36 469.538 994.898 481.695 983.103 485.752C1005.12 485.935 1027.21 483.823 1049.24 483.336C1075.25 482.761 1101.18 483.867 1127.17 484.36C1142.75 484.655 1158.76 483.77 1174.25 485.435C1178.24 485.864 1181.45 486.459 1185 488.469C1176.18 490.219 1164.37 489.534 1155.34 489.295C1136.7 488.802 1118.04 487.448 1099.39 487.514Q1064.77 487.672 1030.17 488.946C1011.25 489.757 992.427 491.198 973.476 491.377C930.814 491.781 888.33 489.211 845.711 488.156C845.718 488.277 845.73 488.397 845.733 488.518C845.849 492.771 842.496 499.069 841.443 503.455C839.685 510.782 840.117 527.425 835.381 532.672Q930.514 536.274 1025.7 537.928C1051.99 538.316 1078.32 537.324 1104.6 537.954C1107.35 538.02 1111.78 537.766 1114 539.478L1113.63 540.239C1108.77 543.019 1102.82 543.558 1097.31 543.825C1074.74 544.922 1051.87 542.529 1029.26 542.258Q932.363 541.286 835.54 537.394C840.765 544.298 840.569 577.525 840.228 587.621C839.364 613.163 829.348 640.904 810.332 658.538C797.711 670.242 782.83 675.699 765.615 675.009C745.256 674.194 726.947 665.283 713.199 650.343C693.242 628.654 681.174 597.292 679.715 567.992C679.14 556.456 680.366 544.791 680.826 533.254C650.977 532.452 621.104 531.406 591.247 531.06L494.527 530.893C468.848 530.611 443.15 529.402 417.484 528.519Q375.799 527.439 334.161 525.183C285.26 521.792 235.6 522.649 186.597 523.126C168.743 523.3 150.934 524.515 133.065 524.387C124.321 524.325 115.657 523.031 106.943 522.944C89.7365 522.772 71.6285 524.928 54.9831 519.755C77.8102 515.103 102.204 518.714 125.207 519.964C133.428 520.41 141.808 520.244 150.039 520.144C161.077 520.01 172.105 519.391 183.141 519.215Q230.316 518.599 277.489 519.291C301.022 519.731 324.56 521.164 348.093 521.875C373.862 522.654 399.649 522.724 425.414 523.684C441.496 524.283 457.552 525.601 473.642 526.008C501.145 526.703 528.761 525.846 556.284 526.124C598.078 526.546 639.732 528.029 681.501 529.2C682.95 521.133 684.889 512.854 687.357 505.04C688.588 501.143 694.604 488.568 694.356 486.016C639.142 484.041 583.949 483.416 528.724 482.106C480.687 480.966 432.659 479.07 384.614 478.329L191.393 477.054C156.778 476.884 122.304 476.917 87.6989 476C80.67 475.814 71.437 477.452 64.9115 474.769C63.7778 474.303 63.413 474.197 62.9426 473.048C69.174 468.048 108.925 471.534 119.258 472.075C116.251 467.568 112.964 463.161 112.811 457.503C112.679 452.611 114.724 448.108 118.035 444.59C140.276 420.961 225.231 409.881 258.824 409.186C245.506 412.895 232.107 414.409 218.499 416.516C192.65 420.52 166.6 425.243 142.298 435.195C135.414 438.014 127.133 441.384 122.057 447.008C119.523 449.815 117.887 453.26 118.141 457.105C118.577 463.685 123.77 468.171 128.421 472.156C141.775 472.143 155.179 471.921 168.526 472.32C180.891 472.689 194.318 474.674 206.542 472.676C207.372 465.946 208.285 458.921 211.846 453.004C215.497 446.939 221.429 443.596 228.187 441.996C238.333 439.593 244.885 439.459 250.844 448.756C252.32 451.059 253.733 453.55 255.952 455.222C260.599 458.725 267.17 459.511 272.289 462.719C275.541 460.29 278.744 457.902 282.254 455.852C285.138 455.845 288.07 456.111 290.954 456.251C298.174 453.127 302.459 443.292 310.279 442.223C316.941 441.312 325.754 447.076 330.931 450.901C338.721 428.879 346.784 407.362 357.234 386.444C299.827 389.174 242.305 385.337 184.868 385.895Q145.885 386.507 106.916 387.738C89.4666 388.287 71.4844 390.321 54.1661 387.531C69.3509 383.632 92.7913 384.083 108.914 383.394C138.606 382.125 168.438 380.544 198.157 380.51C227.43 380.476 256.677 381.966 285.943 382.238C310.478 382.466 334.739 380.26 359.291 381.877C363.419 374.881 367.761 367.895 371.367 360.615C379.569 344.057 385.491 327.879 398.319 314.092L399.741 302.434C380.945 311.303 364.006 325.279 344.086 331.729C362.632 317.211 382.151 306.093 403.204 295.646C399.504 290.729 396.075 285.61 392.598 280.534C378.186 283.622 363.624 287.425 349.732 292.375C337.769 296.639 326.332 301.962 313.972 305.077C323.307 298.979 332.459 294.13 342.952 290.316C349.465 287.948 387.876 277.377 388.826 276.64C390.089 275.662 390.135 275.197 390.275 273.721C387.53 268.204 379.187 263.246 374.462 259.179C359.296 261.111 344.067 263.089 329.058 266.021C319.11 267.964 309.351 270.704 299.381 272.574C319.882 259.802 347.54 258.256 371.01 255.66C363.094 242.349 357.325 229.069 358.307 213.26C359.409 195.521 368.297 184.909 381.024 173.646C380.589 171.424 380.277 169.152 379.991 166.907C377.438 146.803 383.683 125.102 396.031 109.108C397.913 93.8905 397.12 71.6222 406.503 58.8669C408.804 55.7388 411.932 53.5252 415.826 52.9573C429.905 50.9041 449.312 65.0782 459.994 73.0825C462.86 71.6951 465.737 70.308 468.673 69.0734C512.139 50.7932 567.555 50.2204 611.192 67.9887C616.717 65.3476 621.998 61.7455 627.309 58.6738C636.016 53.6384 644.793 49.267 654.132 45.525Z"/>
	<path fill="#F3EED8" d="M635.796 392.751L651.626 393.06L644.648 402.842L639.008 409.527C638.223 403.866 637.023 398.327 635.796 392.751Z"/>
	<path fill="#F3EED8" d="M407.295 301.198C408.211 301.738 409.121 302.287 409.997 302.891C414.587 306.057 417.345 312.536 418.142 317.914C418.374 319.476 418.418 320.53 417.448 321.806C413.692 319.464 408.33 316.703 406.351 312.595C404.479 308.707 405.929 304.981 407.295 301.198Z"/>
	<path fill="#F3EED8" d="M395.639 258.493C401.607 258.253 410.345 256.945 416.028 258.617C417.359 259.009 417.624 259.151 418.248 260.356C418.107 260.736 417.953 261.105 417.732 261.448C415.644 264.679 410.124 265.596 406.655 266.4C396.792 268.623 389.431 263.891 381.407 258.866L395.639 258.493Z"/>
	<path fill="#F3EED8" d="M672.129 170.098C674.766 171.33 676.892 173.911 678.605 176.188C688.864 189.821 690.684 209.369 688.404 225.743L687.511 226.204C687.371 226.101 687.226 226.003 687.092 225.893C686.854 225.697 686.735 225.544 686.576 225.264C684.194 221.074 684.057 212.852 682.85 207.971C679.697 195.22 674.878 182.96 672.129 170.098Z"/>
	<path fill="#F3EED8" d="M393.304 123.873C393.575 124.085 393.621 124.09 393.829 124.431C395.515 127.198 395.472 161.227 394.057 165.09C393.211 167.399 388.751 168.543 386.607 169.304C386.395 168.906 386.197 168.507 386.026 168.089C380.833 155.384 388.425 135.734 393.304 123.873Z"/>
	<path fill="#F3EED8" d="M601.965 245.257C608.178 244.912 614.343 244.802 620.564 244.806C617.725 249.679 614.56 254.359 611.458 259.067C611.814 264.711 611.834 269.959 610.626 275.516C614.045 278.008 619.136 281.443 621.209 285.187C621.855 286.353 622.277 286.981 621.88 288.298C617.72 288.228 611.364 282.797 607.839 280.417C602.434 285.533 596.637 289.712 589.966 292.978C595.159 285.839 600.924 280.247 607.446 274.361C607.447 269.492 607.746 264.633 608.006 259.772C605.391 257.559 602.525 255.376 600.185 252.874C598.551 251.129 597.773 249.843 597.887 247.424C599.237 246.009 600.144 245.837 601.965 245.257Z"/>
	<path fill="#F3EED8" d="M615.594 341.439L616.286 341.631C617.357 342.631 618.097 343.539 618.455 344.995C618.934 346.947 618.493 348.972 617.482 350.672C611.895 360.066 592.538 363.531 582.602 365.976L581.565 365.811C579.172 362.72 579.449 356.498 579.23 352.69C591.847 350.958 604.103 346.867 615.594 341.439Z"/>
	<path fill="#F3EED8" d="M572.051 376.543C575.364 377.579 577.737 381.636 580.057 384.172C580.489 382.052 580.682 378.517 582.271 377.041C583.496 376.921 583.91 376.776 584.996 377.46C588.063 379.39 591.497 384.886 592.081 388.422C592.845 393.054 590.923 397.262 588.489 401.026C585.931 403.181 582.022 404.639 578.702 404.857C575.648 405.058 572.664 403.944 570.382 401.927C567.444 399.33 565.727 395.472 565.485 391.583C565.089 385.212 568.009 381.029 572.051 376.543Z"/>
	<path fill="#F3EED8" d="M414.507 167.315C416.883 167.272 419.101 167.306 421.348 168.165C429.959 171.458 435.664 180.207 439.347 188.28C449.236 209.959 448.592 232.379 440.449 254.379C439.056 255.146 436.435 255.038 434.91 254.855C433.324 253.718 432.623 252.926 432.606 250.812C432.578 247.27 434.358 242.77 435.185 239.229C436.889 231.931 437.715 224.539 437.26 217.047C436.397 202.827 431.787 190.341 422.792 179.3C419.957 175.82 416.154 171.947 414.63 167.692C414.586 167.567 414.548 167.44 414.507 167.315Z"/>
	<path fill="#F3EED8" d="M305.693 448.977C309.369 448.628 313.849 448.739 317.462 449.511C320.7 450.203 323.695 451.731 325.498 454.599C329.013 460.189 326.796 467.729 325.442 473.655C315.405 473.349 305.34 473.423 295.297 473.371C291.238 473.74 286.049 474.339 282.095 473.323C280.254 472.85 277.888 472.089 276.953 470.294C276.387 469.208 276.342 468.227 276.768 467.057C277.286 465.639 278.835 464.549 280.132 463.873C285.303 461.178 291.138 462.598 296.365 464.229C298.629 458.29 301.144 453.5 305.693 448.977Z"/>
	<path fill="#F3EED8" d="M820.482 462.828L822.953 462.874C824.334 463.995 824.827 464.953 825.251 466.693C826.335 471.137 826.073 477.746 823.705 481.763Q809.514 480.632 795.278 480.607C787.475 480.635 779.565 481.139 771.776 480.798C766.07 480.548 762.389 480.35 758.428 476.024C758.834 474.812 759.241 474.151 758.931 472.88C757.965 468.912 754.301 466.119 750.948 464.147C769.391 464.8 787.502 470.25 806.075 468.217C810.453 467.738 817.59 466.452 820.482 462.828Z"/>
	<path fill="#F3EED8" d="M228.631 446.403C253.432 444.869 241.31 452.43 252.148 460.496C256.269 463.562 261.644 462.828 266.105 465.053C267.833 465.914 269.116 466.941 269.74 468.835C269.621 470.457 269.54 470.769 268.624 472.107C265.149 474.483 257.383 473.514 253.32 473.441C240.872 473.325 228.395 473.61 215.947 473.799C215.063 472.525 214.146 471.227 213.457 469.836Q213.176 469.279 212.953 468.696Q212.729 468.114 212.565 467.512Q212.4 466.91 212.297 466.294Q212.194 465.679 212.153 465.056Q212.112 464.433 212.133 463.81Q212.154 463.186 212.238 462.568Q212.322 461.949 212.467 461.342Q212.612 460.735 212.817 460.146C215.211 453.18 222.444 449.415 228.631 446.403Z"/>
	<path fill="#F3EED8" d="M397.111 170.826C400.907 170.519 404.503 171.045 407.987 172.608C417.279 176.778 422.852 186.192 426.252 195.402Q426.896 197.16 427.453 198.948Q428.01 200.736 428.479 202.549Q428.948 204.362 429.327 206.195Q429.707 208.029 429.997 209.879Q430.286 211.729 430.485 213.591Q430.683 215.453 430.791 217.323Q430.898 219.192 430.914 221.065Q430.93 222.937 430.854 224.808Q430.778 226.679 430.611 228.544Q430.443 230.409 430.185 232.264Q429.927 234.119 429.578 235.958Q429.229 237.798 428.791 239.619Q428.352 241.439 427.825 243.236Q427.298 245.033 426.684 246.802Q426.07 248.571 425.37 250.308Q424.67 252.045 423.886 253.745Q416.284 253.655 408.684 253.487C408.063 249.14 414.514 243.263 416.554 239.482C417.697 237.365 418.291 234.756 418.828 232.416C421.822 219.368 420.301 205.667 413.091 194.203C406.131 183.136 398.037 179.355 385.73 176.514C389.109 173.791 393.09 172.299 397.111 170.826Z"/>
	<path fill="#F3EED8" d="M635.633 170.795C640.074 170.665 643.945 171.365 647.841 173.578C654.827 177.545 658.744 184.82 660.756 192.365C664.12 204.98 661.309 214.911 654.988 225.881C655.653 223.031 656.202 220.166 656.407 217.241C656.93 209.782 655.134 200.265 649.956 194.558C648.463 192.912 646.461 191.612 644.168 191.595C640.115 191.565 636.311 194.798 633.656 197.512C631.283 201.465 629.801 206.043 629.255 210.611C627.922 221.742 631.262 224.589 637.545 232.545L636.582 232.818C631.199 231.323 625.676 227.27 622.955 222.338C617.624 212.678 616.954 200.436 620.126 189.966C622.744 181.325 627.666 175.029 635.633 170.795Z"/>
	<path fill="#F3EED8" d="M971.073 395.128C983.046 393.988 996.675 394.813 1008.61 396.617C1008.39 397.078 1008.14 397.452 1007.77 397.807C1003.98 401.432 966.409 416.397 960.424 417.444C947.399 419.724 930.188 417.879 916.513 418.297Q893.244 418.962 869.991 420.046C860.997 420.503 851.779 421.525 842.785 421.485L842.742 420.79C857.376 418.31 882.924 407.38 897.386 402.086C904.468 399.494 911.627 396.571 919.144 395.541C922.476 395.084 925.96 395.301 929.315 395.396C924.903 400.121 916.249 399.148 911.911 405.145C911.815 405.737 911.519 406.598 911.764 407.141C912.834 409.513 915.153 410.811 917.491 411.693C929.045 416.05 952.755 413.948 964.021 408.763C974.657 403.867 966.568 399.888 968.083 395.659L971.073 395.128Z"/>
	<path fill="#F3EED8" d="M711.263 440.054C712.166 439.899 713.036 439.826 713.954 439.826C719.051 439.829 724.572 440.639 728.246 444.492C732.591 449.048 732.259 454.581 733.594 460.235C734.15 462.59 735.548 464.841 735.467 467.276C739.871 468.211 744.495 468.941 748.417 471.257C750.58 472.534 752.209 473.88 752.879 476.407C752.611 477.669 752.613 478.222 751.57 479.091C747.949 482.108 740.59 480.691 736.324 480.348C736.244 480.017 736.253 479.963 736.042 479.63C733.189 475.132 724.327 470.67 719.176 469.856C711.043 468.572 705.627 474.149 699.567 478.472L699.09 479.366C693.337 482.465 663.918 479.984 657.283 478.232C656.839 473.61 655.986 468.902 658.843 464.834C660.372 462.657 662.657 461.545 665.236 461.18C673.051 460.076 680.235 464.928 686.127 469.404C689.45 467.643 693.713 465.947 696.355 463.256C698.203 461.843 699.87 453.393 701.399 450.774C703.727 446.785 708.065 443.851 711.046 440.315L711.263 440.054Z"/>
	<path fill="#F3EED8" d="M422.866 313.952C432.229 317.959 440.114 325.489 449.331 330.033Q452.582 331.614 455.879 333.094Q459.176 334.575 462.517 335.954Q465.858 337.334 469.24 338.61Q472.622 339.887 476.041 341.06Q479.46 342.232 482.913 343.3Q486.367 344.367 489.851 345.329Q493.335 346.291 496.847 347.145Q500.359 348 503.896 348.747Q507.432 349.494 510.99 350.133Q514.548 350.771 518.124 351.301Q521.699 351.831 525.289 352.251Q528.879 352.671 532.48 352.981Q536.082 353.291 539.691 353.491Q543.3 353.691 546.913 353.781Q550.527 353.871 554.141 353.85Q557.756 353.829 561.368 353.698C564.598 353.587 569.091 353.129 571.543 355.687C574.36 358.626 573.642 363.82 573.596 367.585C521.184 373.198 472.818 355.82 428.352 329.663C426.322 324.468 424.48 319.292 422.866 313.952Z"/>
	<path fill="#F3EED8" d="M416.554 70.3402C417.221 70.5058 417.877 70.6932 418.524 70.9254C433.184 76.1844 458.58 105.751 465.167 119.972C455.527 115.951 448.464 108.165 438.807 104.061C445.635 111.797 453.491 118.569 460.448 126.201C452.662 122.371 436.406 109.667 428.904 109.121C433.867 114.008 440.775 117.508 445.155 122.694C445.987 123.678 446.394 124.011 446.266 125.345C440.348 126.596 434.088 119.976 428.125 120.391C428.558 123.263 436.442 128.279 439.029 130.347C435.178 128.83 431.243 127.543 427.322 126.219C428.589 128.345 430.841 129.984 431.282 132.34C430.05 133.255 428.333 132.124 426.792 133.157Q426.846 133.656 426.891 134.156C426.964 134.991 427.214 136.501 426.708 137.218C425.176 139.392 415.581 146.563 412.042 150.749C408.398 123.385 408.886 96.9683 416.554 70.3402Z"/>
	<path fill="#F3EED8" d="M531.674 174.577C538.486 174.052 544.917 176.446 550.238 180.625C561.91 189.791 564.917 202.82 566.51 216.697C562.537 209.663 560.071 202.224 553.955 196.637C551.076 195.924 548.332 195.272 545.356 195.714C541.046 196.353 537.392 198.599 534.87 202.147C530.398 208.44 530.149 216.993 531.472 224.311C532.793 229.521 537.274 234.253 539.955 238.951L539.677 239.69C539.309 239.817 538.928 239.935 538.543 239.998C530.839 241.267 521.632 237.269 515.562 232.982C508.299 227.85 502.92 220.737 501.514 211.819Q501.393 211.044 501.31 210.265Q501.227 209.485 501.184 208.702Q501.14 207.919 501.136 207.135Q501.131 206.351 501.166 205.567Q501.2 204.784 501.274 204.003Q501.347 203.223 501.46 202.447Q501.572 201.671 501.723 200.901Q501.874 200.132 502.063 199.371Q502.253 198.61 502.479 197.859Q502.706 197.109 502.97 196.37Q503.234 195.632 503.535 194.908Q503.835 194.183 504.171 193.475Q504.508 192.767 504.879 192.076Q505.25 191.385 505.655 190.714Q506.06 190.042 506.498 189.392Q506.936 188.742 507.406 188.114C513.369 180.145 521.99 175.932 531.674 174.577Z"/>
	<path fill="#F3EED8" d="M668.476 301.151C669.327 301.823 669.671 302.428 669.988 303.458C674.062 316.697 668.962 349.881 665.049 363.623Q663.304 369.752 660.924 375.663Q658.543 381.575 655.555 387.203C648.547 387.834 641.817 388.69 634.827 387.437C633.704 385.258 632.924 382.878 632.071 380.582C628.894 373.093 624.723 365.821 622.251 358.078C625.347 350.864 624.742 345.128 624.155 337.492C630.356 331.194 639.376 327.061 646.76 322.283C655.496 316.63 662.041 309.222 668.476 301.151Z"/>
	<path fill="#F3EED8" d="M383.755 182.259C386.069 182.419 388.383 182.587 390.626 183.211C398.342 185.355 404.64 191.253 408.492 198.123C414.148 208.21 415.359 221.337 412.228 232.455C409.461 242.281 403.566 248.656 394.831 253.519L377.189 253.558C374.199 249.591 371.62 245.594 369.575 241.055C363.848 228.35 361.653 212.07 366.806 198.817C370.147 190.226 375.555 185.784 383.755 182.259Z"/>
	<path d="M391.23 197.451Q391.925 197.986 392.482 198.663Q393.038 199.341 393.429 200.126C397.237 207.96 397.358 224.878 394.66 232.996C393.669 231.676 392.764 230.192 392.113 228.675C388.41 220.035 387.709 206.107 391.23 197.451Z"/>
	<path fill="#F3EED8" d="M534.784 61.9606C552.309 59.7108 588.124 66.5951 604.889 71.77C600.979 74.5036 597.057 77.2356 593.59 80.5292C589.424 84.486 585.699 89.0003 580.995 92.3373C574.323 91.4764 567.73 89.8937 561.063 88.9322C552.42 87.6859 543.882 87.3517 535.17 87.2944C521.759 87.3755 502.943 91.1453 489.814 94.3632C480.976 89.6746 473.12 82.4488 465.138 76.4342C488.003 67.4344 510.39 63.4518 534.784 61.9606Z"/>
	<path fill="#F3EED8" d="M702.497 486.178C709.608 485.204 722.553 486.618 730.254 486.695C744.004 486.831 832.738 485.761 837.805 488.335C838.016 488.938 838.14 489.514 838.183 490.155C838.492 494.759 835.736 500.522 834.806 505.168C833.713 510.627 832.983 516.1 832.272 521.617C831.981 523.875 831.837 529.423 830.309 530.957C828.452 532.821 824.312 532.409 821.844 532.417C777.111 531.437 732.208 531.108 687.513 529.277C689.6 519.519 691.656 508.978 695.566 499.77C697.437 495.363 701.452 490.763 702.497 486.178Z"/>
	<path fill="#F3EED8" d="M1019.41 398.723C1021.82 398.432 1023.04 398.653 1024.97 400.054C1028.78 407.7 1028.97 446.659 1027.12 455.658C1026.51 458.656 1024.43 460.128 1021.97 461.681C1014.64 466.306 985.104 480.391 976.865 483.01C975.068 483.582 972.918 484.025 971.068 483.484C961.615 480.719 969.528 439.274 963.509 429.182L962.618 429.086C953.815 440.437 967.337 475.003 958.59 485.276Q920.864 484.899 883.149 483.912Q885.233 483.081 887.203 482.006C889.199 480.941 891.707 479.506 892.397 477.21C893.806 476.022 894.694 474.969 895.157 473.157C895.532 471.693 895.688 470.513 894.836 469.22C893.666 467.448 890.856 466.76 888.887 466.385C877.372 464.198 862.081 468.244 852.23 474.434C848.678 476.666 845.777 479.633 842.296 481.926L841.867 482.205C838.115 481.471 833.848 481.634 830.01 481.473C830.51 480.543 830.921 479.589 831.145 478.553C832.864 470.6 833.509 432.659 829.732 426.68C837.061 426.564 844.436 425.756 851.762 425.374Q868.577 424.582 885.409 424.42C905.594 424.119 926.207 425.266 946.319 423.932C953.192 423.476 960.038 422.585 966.664 420.657C978.291 417.274 988.995 411.377 1000.13 406.734C1004.87 404.758 1009.98 403.702 1014.68 401.641C1016.37 400.902 1018.17 400.134 1019.41 398.723Z"/>
	<path d="M990.56 422.689C995.895 421.931 1001.3 421.561 1006.18 424.263C1009.67 426.189 1012.13 429.429 1013.2 433.248C1014.94 439.483 1013.33 446.448 1010.17 451.956C1007.13 457.237 1002.41 461.67 996.448 463.274C996.382 463.348 996.324 463.43 996.25 463.498C994.61 464.997 990.638 466.119 988.398 465.891C985.451 465.591 982.968 463.83 981.175 461.546C977.277 456.58 976.482 449.305 977.36 443.236C978.666 434.203 983.459 427.977 990.56 422.689Z"/>
	<path fill="#F3EED8" d="M995.705 431.074L997.167 431.189C998.09 432.036 998.249 432.847 998.472 434.059C999.171 437.869 1000.44 450.355 997.962 453.409C997.37 454.141 996.246 453.952 995.338 454.023C990.69 445.411 993.911 440.121 995.628 431.48L995.705 431.074Z"/>
	<path d="M911.908 435.877C919.847 435.656 934.896 433.899 941.996 436.948C944.516 438.03 946.264 439.956 947.272 442.494C949.576 448.301 948.649 457.698 946.234 463.38C941.211 464.993 918.837 462.268 912.392 462.001Q897.08 461.37 881.756 461.272C873.002 461.066 858.235 461.998 850.217 459.84C842.198 457.682 847.584 444.034 844.211 438.196C844.137 438.069 844.057 437.945 843.981 437.82C866.746 435.189 889.166 437.203 911.908 435.877Z"/>
	<path fill="#F3EED8" d="M887.972 441.86C892.862 440.981 898.265 441.546 903.198 441.776C903.281 441.863 903.371 441.943 903.447 442.035C904.989 443.907 905.574 446.989 905.374 449.374C905.162 451.893 904.349 453.887 902.385 455.513C898.636 457.648 891.012 456.477 886.806 456.341C889.327 451.842 889.144 446.759 887.972 441.86Z"/>
	<path fill="#F3EED8" d="M915.615 441.861C923.208 441.492 932.513 441.07 939.949 442.527C941.134 443.634 941.599 444.762 941.719 446.378C941.914 449.013 941.794 453.037 939.935 455.077C938.476 456.676 935.257 456.519 933.28 456.592C925.25 457.152 917.038 456.599 908.993 456.399C909.407 455.722 909.69 454.998 909.952 454.252C911.381 450.186 910.888 446.253 909.082 442.416C911.272 442.308 913.436 442.098 915.615 441.861Z"/>
	<path fill="#F3EED8" d="M855.482 440.663C863.651 439.925 872.611 440.91 880.828 441.305C882.382 442.989 883.189 445.776 883.488 448.013Q883.541 448.413 883.553 448.816Q883.565 449.219 883.536 449.622Q883.507 450.024 883.438 450.421Q883.369 450.819 883.261 451.207Q883.152 451.596 883.005 451.971Q882.858 452.347 882.673 452.706Q882.489 453.064 882.27 453.403Q882.05 453.741 881.798 454.056C880.076 456.177 877.944 456.215 875.432 456.375C866.378 456.139 857.314 456.327 848.259 456.421C851.438 452.63 848.562 447.009 850.693 443.052C851.729 441.128 853.586 441.092 855.482 440.663Z"/>
	<path fill="#F3EED8" d="M659.543 393.185C707.524 396.212 755.515 396.337 803.564 397.137C817.179 397.364 830.887 396.722 844.476 397.361C849.216 397.584 855.084 397.652 859.491 399.533C859.828 400.061 859.966 400.457 859.998 401.089C860.591 412.785 836.219 415.186 829.373 422.347C821.287 430.803 829.784 448.268 822.656 455.704C818.704 459.652 812.434 461.104 807.093 461.899C791.468 464.797 758.541 460.586 741.575 459.146C741.592 455.666 738.338 448.198 736.372 445.262C731.149 437.462 722.589 435.11 713.884 433.466C710.691 436.855 704.271 437.73 700.795 441.501C696.27 446.408 695.523 455.457 690.041 459.113C685.625 462.057 676.757 456.578 671.77 455.748C664.719 454.575 659.687 457.255 654.169 461.193C649.895 446.441 644.642 431.963 639.969 417.331C647.165 409.791 653.307 401.513 659.543 393.185Z"/>
	<path fill="#F3EED8" d="M689.899 534.153C706.555 533.407 723.162 534.953 739.802 535.438L829.68 537.331C830.039 537.661 829.994 537.596 830.347 538.065C835.967 545.526 833.898 587.525 832.66 598.028C830.543 615.974 823.692 637.793 809.004 649.375C808.891 650.112 808.768 650.671 808.357 651.308C802.847 659.849 788.787 666.534 778.974 668.408Q777.437 668.692 775.888 668.901Q774.338 669.11 772.781 669.244Q771.223 669.377 769.661 669.435Q768.099 669.493 766.536 669.476Q764.972 669.458 763.412 669.365Q761.852 669.271 760.297 669.103Q758.743 668.934 757.199 668.69Q755.655 668.446 754.125 668.128Q752.594 667.809 751.081 667.417Q749.567 667.025 748.075 666.56Q746.582 666.095 745.114 665.558Q743.646 665.021 742.206 664.414Q740.765 663.807 739.356 663.13Q737.946 662.454 736.571 661.71Q735.196 660.966 733.859 660.157Q732.521 659.347 731.225 658.474C707.527 642.204 693.322 611.496 688.252 583.963C686.684 575.449 683.508 540.907 687.915 534.505L689.899 534.153Z"/>
</svg>
