<?xml version="1.0" encoding="utf-8" ?>
<svg xmlns="http://www.w3.org/2000/svg" xmlns:xlink="http://www.w3.org/1999/xlink" width="1227" height="692">
	<path fill="#F3EFD9" d="M0 0L1225.95 0C1227.39 2.26316 1226.99 5.54227 1227 8.14407L1227 502.045L1227 637.999L1227 673.985C1227 678.964 1227.67 685.068 1226.83 689.91C1226.7 690.664 1226.36 691.359 1225.95 692L0 692L0 0Z"/>
	<path d="M772.33 354.385C775.361 353.998 779.322 355.407 781.887 356.989C785.724 359.356 789.208 363.252 790.145 367.762C790.746 370.654 790.265 373.787 788.644 376.279C788.544 376.469 788.45 376.662 788.343 376.848C786.427 380.185 782.297 382.211 778.734 383.15C778.435 383.291 778.342 383.362 777.967 383.382C774.647 383.56 769.269 381.313 766.781 379.129C763.976 376.667 762.048 373.253 761.911 369.475C761.64 362.008 767.783 359.315 772.115 354.625C772.187 354.546 772.258 354.465 772.33 354.385Z"/>
	<path fill="#F3EFD9" d="M775.396 360.377C777.857 360.372 779.986 360.506 782.014 362.069C783.504 363.218 784.438 364.867 784.711 366.723C785.091 369.306 784.244 371.943 782.632 373.969C780.546 376.593 778.156 377.388 774.926 377.735L774.389 377.771C771.97 376.61 769.806 375.597 768.609 373.025C767.581 370.819 767.667 367.793 768.652 365.559C770.013 362.471 772.48 361.55 775.396 360.377Z"/>
	<path d="M220.352 302.128C222.588 302.063 224.973 301.892 227.196 302.152C231.482 302.652 236.038 305.378 238.694 308.734C240.71 311.281 241.765 314.537 241.291 317.779C240.559 322.791 236.847 326.28 233.024 329.207C231.07 329.609 228.789 329.872 226.797 329.761C222.72 329.533 218.651 327.842 215.987 324.677C213.7 321.961 212.767 318.517 213.084 315.008C213.529 310.082 216.644 305.277 220.352 302.128Z"/>
	<path fill="#F3EFD9" d="M225.358 306.756C226.568 306.709 227.86 306.702 229.056 306.907C231.089 307.253 233.147 308.773 234.207 310.495C235.428 312.476 235.486 314.86 234.928 317.057C233.939 320.948 231.512 322.832 228.192 324.801C224.983 324.056 221.7 322.92 219.717 320.128C218.512 318.433 218.059 316.453 218.498 314.412C219.322 310.588 222.238 308.655 225.358 306.756Z"/>
	<path d="M266.058 34.135C272.792 35.0434 284.003 34.4017 289.846 37.0512C293.178 41.9571 290.92 52.9955 289.99 58.5671C289.063 64.1248 288.062 72.754 282.887 76.1012C281.444 77.0349 279.812 77.3127 278.139 76.928C275.985 76.4325 273.961 75.0821 272.853 73.1681C272.751 72.116 272.597 71.5488 273.025 70.5512C274.849 66.3062 280.204 63.7813 284.215 62.0928L285.355 53.2598L286.006 47.4509Q277.807 47.4519 269.621 47.9292C267.55 54.1184 268.501 60.9524 266.16 66.8824C265.263 69.155 263.751 70.936 261.454 71.8573C259.323 72.7119 256.869 72.4795 254.834 71.4785C253.17 70.6594 251.676 69.2671 251.15 67.4393Q251.018 66.9696 250.981 66.4833Q250.943 65.997 251 65.5126Q251.057 65.0282 251.207 64.5641Q251.357 64.0999 251.594 63.6737C253.906 59.5388 259.169 58.7613 263.346 57.7764C264.15 49.8727 265.408 42.0731 266.058 34.135Z"/>
	<path d="M152.256 236.767Q152.808 236.73 153.361 236.718C159.861 236.547 164.762 240.671 169.174 244.911C170.532 250.375 171.312 255.407 168.796 260.703C166.603 265.32 162.596 267.899 157.917 269.528C155.305 269.668 152.657 269.601 150.041 269.618C148.074 268.551 146.167 267.488 144.571 265.894C139.584 260.914 139.159 254.677 139.072 248.037C142.902 243.403 146.276 238.609 152.256 236.767Z"/>
	<path fill="#F3EFD9" d="M150.59 240.923C152.449 240.802 154.376 240.78 156.196 241.239C159.385 242.044 162.248 244.821 163.796 247.649C165.38 250.543 166.103 253.859 165.065 257.065C164.289 259.462 162.087 262.198 159.825 263.32C158.61 263.652 157.391 263.959 156.129 264.024C153.206 264.175 150.162 263.244 148.007 261.219C145.861 259.202 144.797 256.256 144.771 253.346C144.724 248.11 147.006 244.511 150.59 240.923Z"/>
	<path d="M894.991 212.99C896.053 212.861 896.867 212.964 897.907 213.215C901.337 214.041 918.47 218.66 919.648 221.089C920.892 223.655 919.349 228.763 918.588 231.304C916.722 237.53 911.894 254.173 906.101 257.014C903.905 258.09 901.206 258.228 898.928 257.318C897.471 256.736 896.032 255.626 895.433 254.137C894.95 252.937 895.058 251.74 895.61 250.584C897.732 246.134 902.996 244.92 907.258 243.537C907.739 243.017 908.241 242.465 908.59 241.846C909.361 240.477 909.634 239.107 909.313 237.58C909.47 237.4 909.625 237.219 909.77 237.031C911.246 235.12 912.183 232.817 911.884 230.381C906.681 229.222 901.532 228.181 896.248 227.466C896.084 229.81 891.425 242.877 890.06 244.989C888.704 247.088 886.615 248.863 884.087 249.27C881.915 249.62 879.673 248.989 877.905 247.707C876.219 246.484 874.878 244.578 874.646 242.476C874.463 240.815 875.014 239.346 876.143 238.129C878.994 235.053 883.681 235.419 887.506 235.413C887.708 235.213 888.058 234.891 888.239 234.642C890.378 231.711 895.595 216.535 894.991 212.99Z"/>
	<path d="M265.974 220.064C267.721 220.099 269.345 220.284 271.041 220.728C278.367 222.642 282.025 227.783 285.643 233.97C284.124 238.367 282.767 243.272 280.549 247.353C277.643 252.699 274.056 255.409 268.273 257.066C263.846 257.182 260.454 256.252 256.819 253.657Q256.022 253.076 255.285 252.421Q254.548 251.765 253.878 251.041Q253.209 250.317 252.612 249.531Q252.016 248.746 251.499 247.906Q250.982 247.066 250.549 246.18Q250.116 245.294 249.771 244.37Q249.426 243.446 249.172 242.492Q248.919 241.539 248.759 240.566C248.03 235.872 249.096 231.05 251.941 227.218C255.537 222.373 260.239 220.86 265.974 220.064Z"/>
	<path fill="#F3EFD9" d="M264.331 225.403L264.864 225.414C272.919 225.601 276.778 228.939 282.053 234.52C276.71 241.069 279.181 245.377 270.663 251.825C269.828 251.988 268.956 252.15 268.101 252.146C262.499 252.118 258.265 247.338 254.737 243.594C254.25 239.42 253.698 235.03 255.8 231.182C257.641 227.812 260.814 226.43 264.331 225.403Z"/>
	<path d="M654.134 45.5251C654.869 45.4835 655.15 45.6586 655.809 45.9522C659.067 50.9851 661.063 57.6145 662.471 63.4225C666.255 79.0296 666.268 95.8392 665.52 111.821C664.725 128.819 662.541 145.186 667.891 161.716C676.873 166.084 683.583 172.921 688.203 181.729C697.164 198.815 697.611 217.265 691.9 235.366Q703.641 231.792 715.753 229.816C728.066 227.851 765.264 224.472 775.836 229.037C770.721 232.359 746.312 231.029 738.719 231.283Q729.99 231.598 721.308 232.562C709.595 233.864 698.939 236.006 688.148 240.762C687.716 243.087 686.673 246.89 687.732 249.134C688.491 250.745 691.713 250.634 693.25 250.679C698.99 250.846 704.799 250.208 710.56 250.243C725.824 250.335 748.825 251.623 763.065 256.372C765.992 257.348 769.319 258.542 770.765 261.461C762.407 260.43 754.204 258.29 745.919 256.8C729.821 253.905 711.192 252.06 694.961 254.148C692.133 254.512 687.774 255.865 686.132 258.397C685.656 259.13 685.429 259.919 685.614 260.767C686.156 263.256 689.315 264.84 691.45 265.779C696.887 268.17 703.186 269.305 708.901 270.974C720.332 274.312 747.237 282.65 756.26 288.918C757.399 289.709 757.827 290.081 758.076 291.469C752.854 293.452 721.315 280.354 713.891 277.873Q699.684 273.108 685.269 269.013C682.506 276.946 679.05 284.164 675.128 291.571C677.179 327.934 677.608 353.636 662.452 387.818C672.97 388.702 683.733 388.521 694.295 389.004Q747.774 391.541 801.312 391.745C818.822 391.923 849.914 390.223 865.909 393.796C878.002 388.944 896.929 356.016 906.63 345.268C910.863 340.577 917.144 338.552 921.639 334.085C935.234 320.575 947.215 305.009 960.146 290.821C971.27 278.614 983.933 267.529 993.849 254.286C995.983 251.436 996.914 247.565 998.456 244.365C999.533 242.132 1001.07 239.887 1003.58 239.139C1005.52 238.558 1007 239.105 1008.7 240.038C1009.29 240.846 1009.85 241.335 1009.9 242.363C1010.27 248.996 995.864 257.926 991.215 262.361C984.536 268.733 978.43 275.95 972.261 282.823Q955.037 301.983 938.392 321.649C932.881 328.173 927.549 335.009 921.717 341.242C922.253 342.883 922.575 344.347 922.208 346.071C920.85 352.453 878.686 399.288 872.556 403.017C886.136 401.303 898.643 394.538 912.065 391.842C921.801 389.887 932.413 390.003 942.316 389.683C964.901 388.953 988.379 388.276 1010.87 390.583C1019.88 391.508 1028.84 395.201 1037.74 395.46C1060.76 396.132 1182.32 393.63 1196.01 402.764C1176.64 406.953 1147.31 402.542 1127.02 401.671C1113.3 401.082 1099.54 401.638 1085.82 401.19C1067.17 400.581 1048.68 399.046 1030 398.853C1030.76 399.588 1031.23 400.337 1031.59 401.327C1035.81 412.981 1036.28 447.506 1030.94 458.292C1025.37 469.524 994.848 481.749 983.041 485.761C1005.39 485.926 1027.81 483.786 1050.18 483.315C1075.9 482.773 1101.55 483.88 1127.25 484.363C1142.81 484.655 1158.8 483.769 1174.27 485.437C1178.25 485.866 1181.45 486.463 1184.99 488.472C1176.17 490.224 1164.37 489.536 1155.34 489.297C1136.8 488.805 1118.24 487.454 1099.69 487.514Q1064.9 487.661 1030.13 488.95C1011.29 489.76 992.54 491.198 973.665 491.378C930.937 491.785 888.391 489.213 845.706 488.155C845.714 488.275 845.727 488.395 845.73 488.516C845.852 492.757 842.492 499.077 841.443 503.456C839.686 510.793 840.124 527.407 835.383 532.672Q930.499 536.287 1025.67 537.925Q1052.94 538.132 1080.2 537.862C1089.72 537.807 1099.92 537.044 1109.34 538.265C1110.91 538.469 1112.82 538.617 1113.8 539.908C1113.65 540.049 1113.5 540.194 1113.35 540.33C1109.54 543.644 1099.71 543.716 1094.86 543.91C1073.6 544.758 1052.1 542.539 1030.82 542.3Q933.114 541.338 835.483 537.407C841.238 545.052 840.614 577.626 840.209 588.252C839.247 613.551 829.169 641.089 810.332 658.54C797.706 670.237 782.831 675.692 765.616 675.004C745.266 674.191 726.94 665.282 713.199 650.345C693.223 628.632 681.184 597.313 679.717 567.98C679.14 556.451 680.346 544.781 680.838 533.252C650.986 532.446 621.108 531.416 591.249 531.061C558.796 530.674 526.332 531.245 493.878 530.883C467.985 530.595 442.074 529.397 416.194 528.498Q375.205 527.42 334.264 525.178C285.346 521.933 235.849 522.688 186.838 523.116C169.189 523.27 151.582 524.472 133.92 524.388C125.087 524.346 116.344 523.128 107.54 523.019C90.2606 522.805 71.6507 524.959 54.9777 519.755C77.6275 515.101 102.081 518.631 124.924 519.944C133.251 520.423 141.754 520.247 150.095 520.144C161.1 520.009 172.096 519.394 183.1 519.214Q230.513 518.595 277.924 519.301C301.477 519.754 325.037 521.178 348.59 521.89C374.178 522.664 399.784 522.739 425.368 523.681C441.488 524.275 457.58 525.606 473.708 526.011C501.289 526.703 528.982 525.838 556.584 526.124C598.272 526.557 639.831 528.049 681.496 529.201C682.984 520.97 684.954 512.524 687.51 504.56C688.762 500.658 694.604 488.683 694.384 486.014C638.964 484.048 583.564 483.41 528.134 482.088Q455.609 479.835 383.065 478.309L188.712 477.04C154.51 476.893 120.467 476.952 86.276 475.937C79.759 475.744 70.5827 477.425 64.4952 475.037C63.5516 474.666 63.6074 474.655 63.189 473.743C63.4475 473.365 63.5507 473.166 63.8608 472.863C68.8527 467.981 110.012 471.586 119.249 472.072C116.266 467.707 113.005 463.155 112.823 457.668C112.654 452.568 114.754 448.003 118.241 444.372C140.75 420.937 225.104 409.894 258.608 409.202C245.787 413.031 232.569 414.362 219.397 416.377C193.273 420.372 166.84 425.132 142.297 435.196C135.294 438.067 126.765 441.537 121.722 447.387C119.259 450.244 117.768 453.709 118.155 457.529C118.801 463.9 123.87 468.297 128.452 472.156C141.656 472.159 154.903 471.925 168.1 472.308C180.612 472.672 194.167 474.679 206.537 472.691C207.38 465.956 208.282 458.937 211.847 453.013C215.499 446.943 221.414 443.578 228.188 441.996C238.357 439.622 244.865 439.433 250.843 448.758C252.32 451.061 253.735 453.548 255.955 455.22C260.596 458.714 267.181 459.544 272.306 462.707C275.547 460.284 278.739 457.902 282.236 455.852C285.127 455.849 288.064 456.113 290.954 456.255C298.165 453.111 302.459 443.3 310.28 442.226C316.945 441.31 325.748 447.064 330.909 450.912C338.741 428.902 346.749 407.347 357.247 386.447C300.047 389.165 242.731 385.346 185.502 385.889Q146.2 386.496 106.913 387.736C89.378 388.288 71.5448 390.207 54.117 387.536C69.3967 383.623 93.1817 384.067 109.399 383.375C138.894 382.117 168.518 380.57 198.037 380.521C227.041 380.472 256.055 381.932 285.065 382.22C309.887 382.465 334.461 380.238 359.294 381.883C363.407 374.873 367.76 367.902 371.368 360.618C379.576 344.044 385.513 327.888 398.326 314.066L399.736 302.438C380.945 311.33 363.988 325.281 344.068 331.737C362.611 317.217 382.158 306.094 403.207 295.641C399.504 290.725 396.073 285.612 392.601 280.533C378.173 283.642 363.589 287.421 349.682 292.389C337.732 296.658 326.303 301.959 313.958 305.088C323.066 299.176 331.969 294.355 342.168 290.587Q350.932 287.355 359.888 284.705C366.122 282.918 384.355 280.014 388.639 276.579C389.768 275.673 389.981 275.095 390.173 273.719C387.635 268.213 379.099 263.204 374.466 259.177C359.329 261.13 344.14 263.084 329.154 266.004C319.175 267.948 309.38 270.667 299.385 272.569C319.934 259.818 347.48 258.265 370.981 255.662C363.006 242.532 357.339 228.887 358.308 213.251C359.405 195.532 368.291 184.896 381.02 173.659Q380.464 170.453 380.034 167.228C377.379 146.953 383.636 125.269 396.026 109.099C397.941 93.8729 397.11 71.6399 406.505 58.8697C408.805 55.7434 411.932 53.5258 415.824 52.956C429.889 50.8975 449.32 65.0871 459.994 73.0829C462.964 71.6495 465.945 70.2105 468.988 68.9389C512.323 50.8333 567.732 50.1979 611.184 68.0042C616.704 65.3075 621.98 61.7567 627.307 58.6774C636.016 53.6435 644.796 49.2745 654.134 45.5251Z"/>
	<path fill="#F3EFD9" d="M635.792 392.749L651.631 393.055L644.652 402.843L639.009 409.53C638.221 403.868 637.02 398.327 635.792 392.749Z"/>
	<path fill="#F3EFD9" d="M407.3 301.181Q408.783 302.062 410.201 303.044C414.643 306.173 417.385 312.696 418.141 317.916C418.368 319.478 418.418 320.531 417.446 321.808C413.705 319.477 408.328 316.708 406.348 312.596C404.473 308.701 405.932 304.971 407.3 301.181Z"/>
	<path fill="#F3EFD9" d="M395.372 258.496C401.331 258.243 410.817 256.773 416.36 258.721C417.577 259.149 417.671 259.231 418.261 260.362C418.116 260.745 417.958 261.118 417.733 261.463C415.638 264.681 410.121 265.601 406.655 266.402L406.271 266.489C396.663 268.573 389.215 263.782 381.417 258.868L395.372 258.496Z"/>
	<path fill="#F3EFD9" d="M672.133 170.085C674.766 171.332 676.89 173.909 678.606 176.19C688.861 189.824 690.697 209.37 688.395 225.743L687.513 226.207C684.841 224.202 683.2 209.286 682.201 205.42C679.132 193.545 674.683 182.109 672.133 170.085Z"/>
	<path fill="#F3EFD9" d="M393.322 123.886L393.833 124.427C395.268 128.697 395.875 162.099 393.891 165.436C392.616 167.583 388.849 168.506 386.598 169.298C386.356 168.823 386.134 168.349 385.93 167.856C380.807 155.517 388.498 135.35 393.322 123.886Z"/>
	<path fill="#F3EFD9" d="M601.969 245.255C608.18 244.908 614.338 244.803 620.556 244.816C617.725 249.689 614.546 254.371 611.463 259.088C611.872 264.747 611.715 270.039 610.678 275.621C612.731 276.995 614.801 278.62 616.618 280.3C618.418 281.965 622.09 285.821 622.192 288.291C618.342 288.522 610.947 282.523 607.819 280.422C602.297 285.553 596.675 289.659 589.93 292.995C595.125 285.847 600.929 280.236 607.451 274.35C607.461 269.486 607.738 264.649 608.022 259.795C605.4 257.575 602.528 255.386 600.18 252.878C598.54 251.124 597.767 249.845 597.882 247.415C599.237 246.005 600.147 245.832 601.969 245.255Z"/>
	<path fill="#F3EFD9" d="M615.601 341.44C615.879 341.475 616.027 341.47 616.293 341.635C617.585 342.437 618.629 343.845 619.059 345.272C619.04 346.898 618.819 348.201 617.946 349.604C611.275 360.332 594.079 363.2 582.598 365.974L581.565 365.808C579.165 362.72 579.446 356.501 579.231 352.692C591.817 351.018 604.149 346.84 615.601 341.44Z"/>
	<path fill="#F3EFD9" d="M572.051 376.544C575.362 377.57 577.748 381.649 580.053 384.188C580.469 382.079 580.684 378.86 582.234 377.326C583.805 377.027 584.524 376.838 585.959 377.801C588.894 379.769 590.85 384.406 591.506 387.733C592.532 392.941 591.358 396.667 588.497 401.008C585.911 403.178 582.058 404.644 578.703 404.866C575.646 405.069 572.661 403.948 570.379 401.928C567.444 399.329 565.727 395.473 565.485 391.583C565.089 385.207 568.005 381.033 572.051 376.544Z"/>
	<path fill="#F3EFD9" d="M414.562 167.321C416.814 167.292 419.01 167.269 421.145 168.078C429.873 171.386 435.556 180.002 439.294 188.168C449.21 209.831 448.654 232.382 440.444 254.381C440.345 254.438 440.255 254.511 440.149 254.551C438.349 255.223 435.68 255.426 433.937 254.804C432.802 253.198 432.611 251.984 432.78 250.015C433.111 246.185 434.487 242.526 435.365 238.804Q436.151 235.505 436.633 232.148Q437.115 228.791 437.29 225.404Q437.464 222.018 437.33 218.629Q437.195 215.24 436.752 211.878C435.451 202.298 432.195 191.578 426.348 183.748C422.699 178.862 416.242 173.134 414.562 167.321Z"/>
	<path fill="#F3EFD9" d="M305.701 448.958C309.359 448.65 313.926 448.674 317.509 449.492C322.147 450.55 324.487 452.657 326.988 456.586C327.713 462.697 326.794 467.725 325.462 473.647C315.42 473.357 305.356 473.422 295.31 473.369C291.247 473.741 286.052 474.346 282.095 473.328C280.251 472.854 277.884 472.091 276.948 470.294C276.383 469.208 276.337 468.225 276.763 467.056C277.28 465.636 278.831 464.545 280.129 463.869C285.301 461.178 291.133 462.594 296.36 464.229C298.637 458.284 301.151 453.496 305.701 448.958Z"/>
	<path fill="#F3EFD9" d="M820.484 462.828L822.956 462.874C824.456 464.086 824.952 465.24 825.353 467.127C826.237 471.297 826.026 478.119 823.707 481.773Q809.515 480.633 795.278 480.607C787.475 480.634 779.565 481.139 771.776 480.797C766.073 480.546 762.388 480.35 758.432 476.025C758.832 474.813 759.235 474.149 758.927 472.88C757.96 468.899 754.296 466.11 750.927 464.143C768.733 464.779 786.18 469.852 804.114 468.408C809.214 467.997 817.029 466.911 820.484 462.828Z"/>
	<path fill="#F3EFD9" d="M228.607 446.409C254.06 444.531 241.42 454.645 253.162 461.197C257.548 463.643 263.767 462.863 267.791 465.992C268.809 466.783 269.762 468.296 269.83 469.604C269.881 470.592 269.594 471.34 268.803 471.974C265.687 474.47 257.838 473.516 254.076 473.451C241.378 473.304 228.645 473.598 215.947 473.8C215.062 472.527 214.142 471.23 213.453 469.839Q213.172 469.282 212.947 468.699Q212.723 468.116 212.559 467.514Q212.394 466.911 212.291 466.296Q212.188 465.68 212.147 465.057Q212.105 464.434 212.127 463.81Q212.149 463.186 212.233 462.567Q212.317 461.949 212.462 461.342Q212.608 460.734 212.814 460.145C215.212 453.185 222.424 449.423 228.607 446.409Z"/>
	<path fill="#F3EFD9" d="M397.118 170.819C400.912 170.519 404.506 171.044 407.987 172.608C417.164 176.729 422.699 185.938 426.114 195.022Q426.771 196.789 427.34 198.586Q427.908 200.383 428.388 202.206Q428.868 204.029 429.258 205.873Q429.648 207.717 429.946 209.579Q430.245 211.44 430.452 213.313Q430.658 215.187 430.773 217.069Q430.887 218.95 430.909 220.835Q430.93 222.72 430.859 224.603Q430.789 226.487 430.625 228.365Q430.462 230.243 430.206 232.11Q429.95 233.978 429.603 235.831Q429.256 237.684 428.819 239.517Q428.381 241.35 427.853 243.16Q427.326 244.97 426.71 246.751Q426.095 248.533 425.392 250.282Q424.69 252.031 423.902 253.744L408.681 253.501C408.164 249.693 416.896 240.457 418.49 233.978C421.799 220.52 420.493 206.304 413.173 194.345C406.114 182.811 398.36 179.558 385.746 176.508C389.113 173.78 393.104 172.291 397.118 170.819Z"/>
	<path fill="#F3EFD9" d="M635.648 170.793C640.078 170.656 643.958 171.365 647.844 173.573C654.827 177.541 658.742 184.823 660.756 192.365C664.118 204.951 661.343 214.915 654.995 225.866C655.656 223.02 656.202 220.16 656.407 217.242C656.933 209.772 655.132 200.273 649.951 194.559C648.463 192.918 646.457 191.615 644.173 191.595C640.119 191.561 636.307 194.809 633.656 197.525C630.764 202.175 629.002 208.187 628.921 213.653C628.775 223.355 633.99 228.263 640.221 234.729C632.369 232.315 626.411 228.141 622.364 220.809C617.346 211.718 617.115 199.767 620.099 189.945C622.713 181.339 627.705 175.002 635.648 170.793Z"/>
	<path fill="#F3EFD9" d="M970.933 395.128C982.97 393.979 996.62 394.83 1008.62 396.61C1008.31 397.25 1007.93 397.694 1007.39 398.151C1002.72 402.135 965.619 416.595 958.803 417.675C950.645 418.968 941.866 418.091 933.627 418.03C924.666 417.964 915.688 418.342 906.733 418.626Q887.118 419.141 867.526 420.215C859.487 420.671 850.702 421.881 842.716 421.425L842.753 420.79C858.067 418.1 882.409 407.567 897.434 402.066C904.499 399.48 911.639 396.573 919.137 395.542C922.476 395.083 925.966 395.294 929.328 395.383C924.673 400.101 915.761 399.134 911.696 405.365C911.639 405.985 911.412 406.805 911.702 407.358C913.094 410.006 916.063 411.211 918.787 412.039C930.78 415.687 953.835 414.151 964.989 408.124C966.987 407.044 969.405 405.427 969.978 403.085C970.556 400.727 968.541 398.352 967.272 396.495L967.6 395.7L970.933 395.128Z"/>
	<path fill="#F3EFD9" d="M711.435 440.053C712.333 439.916 713.206 439.859 714.112 439.861C719.138 439.87 724.621 440.682 728.248 444.475C732.563 448.985 732.247 454.456 733.558 460.063C734.117 462.457 735.526 464.784 735.46 467.26C739.859 468.193 744.505 468.946 748.419 471.259C750.583 472.537 752.211 473.881 752.881 476.409C752.612 477.675 752.613 478.226 751.567 479.096C747.943 482.113 740.592 480.696 736.324 480.352C736.208 479.957 736.213 479.883 735.944 479.49C732.957 475.139 724.622 470.829 719.535 469.911C711.021 468.376 705.675 474.254 699.353 478.714L698.923 479.435C692.901 482.453 664.106 480.024 657.276 478.23C656.83 473.607 655.978 468.897 658.84 464.831C660.372 462.654 662.661 461.545 665.241 461.181C673.051 460.078 680.232 464.925 686.122 469.397C689.449 467.634 693.698 465.942 696.356 463.261C698.453 461.645 699.247 454.193 700.874 451.459C703.422 447.177 708.113 443.746 711.435 440.053Z"/>
	<path fill="#F3EFD9" d="M422.876 313.945C431.277 317.511 438.576 324.226 446.618 328.598C470.595 341.632 498.644 349.407 525.756 352.215C532.731 352.938 539.787 353.514 546.796 353.727C552.346 353.895 565.231 352.743 569.875 354.273C570.439 354.459 571.479 355.277 571.927 355.699C574.235 357.873 573.603 364.553 573.611 367.583C521.495 373.427 472.589 355.749 428.358 329.664C426.322 324.465 424.463 319.298 422.876 313.945Z"/>
	<path fill="#F3EFD9" d="M416.56 70.3415C418.309 70.8229 419.932 71.4134 421.532 72.2803C432.594 78.2745 460.021 105.633 463.47 117.443L462.778 118.009C455.891 116.945 446.423 107.28 438.767 104.039C445.672 111.764 453.488 118.635 460.525 126.25C452.785 122.432 436.344 109.644 428.903 109.124C433.779 114.005 443.566 119.025 446.525 124.67L446.287 125.369C440.372 126.581 434.076 119.966 428.131 120.397C428.552 123.248 436.451 128.285 439.022 130.346C435.174 128.827 431.249 127.546 427.326 126.239C428.608 128.373 430.838 129.98 431.301 132.354C430.316 133.19 428.094 132.235 426.559 132.999Q426.886 134.767 427.136 136.547C422.86 141.78 416.554 145.405 412.054 150.742C408.293 123.512 408.871 96.835 416.56 70.3415Z"/>
	<path fill="#F3EFD9" d="M531.694 174.571C538.572 174.149 544.844 176.386 550.24 180.622C561.923 189.792 564.928 202.837 566.516 216.725C562.849 209.792 559.952 202.306 554.207 196.805C551.099 195.971 548.317 195.234 545.094 195.747C540.872 196.42 537.335 198.675 534.873 202.159C530.406 208.482 530.155 216.996 531.478 224.339C531.612 224.758 531.766 225.164 531.905 225.58C533.593 230.623 538.479 233.923 539.843 238.996C539.261 239.774 539.291 239.764 538.317 239.942C530.948 241.288 521.439 237.148 515.56 233.002C508.29 227.875 502.914 220.737 501.512 211.819Q501.391 211.044 501.308 210.264Q501.225 209.484 501.182 208.701Q501.138 207.918 501.134 207.134Q501.129 206.349 501.164 205.566Q501.199 204.782 501.273 204.002Q501.346 203.221 501.459 202.445Q501.572 201.668 501.723 200.899Q501.874 200.129 502.063 199.368Q502.253 198.607 502.48 197.856Q502.707 197.106 502.971 196.367Q503.236 195.629 503.536 194.904Q503.837 194.18 504.174 193.472Q504.51 192.763 504.882 192.073Q505.254 191.382 505.659 190.71Q506.065 190.039 506.503 189.389Q506.942 188.739 507.412 188.111C513.387 180.13 522.004 175.94 531.694 174.571Z"/>
	<path fill="#F3EFD9" d="M668.479 301.154C669.335 301.833 669.67 302.441 669.989 303.477C674.054 316.674 668.961 349.863 665.053 363.61Q663.304 369.737 660.929 375.65Q658.554 381.562 655.578 387.196C648.55 387.837 641.812 388.696 634.8 387.43C633.699 385.245 632.92 382.873 632.07 380.58C628.755 373.219 624.717 365.751 622.245 358.081C625.617 351.213 624.701 344.985 624.151 337.589C630.321 330.966 639.92 326.837 647.414 321.866C655.853 316.268 662.203 309.005 668.479 301.154Z"/>
	<path fill="#F3EFD9" d="M384.065 182.246C386.179 182.407 388.28 182.615 390.338 183.145C397.974 185.113 404.424 191.043 408.287 197.754C414.092 207.836 415.382 221.023 412.304 232.222C409.576 242.146 403.608 248.621 394.807 253.535L377.194 253.575C373.646 248.823 370.723 244.063 368.514 238.541C363.5 226.004 361.839 210.072 367.359 197.424C370.827 189.475 376.194 185.304 384.065 182.246Z"/>
	<path d="M391.231 197.451C392.077 198.189 392.887 198.994 393.385 200.017C397.246 207.954 397.338 224.786 394.659 233.005C393.682 231.672 392.769 230.192 392.116 228.672C388.409 220.033 387.706 206.105 391.231 197.451Z"/>
	<path fill="#F3EFD9" d="M534.799 61.9618C552.123 59.6635 588.327 66.6559 604.916 71.7762C601.055 74.4662 597.187 77.1515 593.748 80.3779C589.487 84.3753 585.755 88.9129 580.995 92.351C574.424 91.503 567.925 89.9356 561.36 88.9774C552.626 87.7027 544.012 87.3601 535.207 87.2934C521.783 87.3774 502.947 91.1376 489.811 94.3721C480.999 89.7126 473.062 82.4571 465.131 76.4213C488.014 67.4342 510.379 63.4533 534.799 61.9618Z"/>
	<path fill="#F3EFD9" d="M702.489 486.178C709.973 485.151 727.286 486.755 735.85 486.772C769.699 486.841 803.403 486.809 837.248 487.819C838.027 488.486 838.105 488.439 838.206 489.463C838.68 494.266 834.381 505.723 833.551 511.753C833.044 515.439 832.589 528.685 830.297 530.978C828.477 532.798 824.282 532.407 821.844 532.42C777.108 531.412 732.21 531.084 687.509 529.282C689.574 519.565 691.68 509.272 695.448 500.053C697.307 495.507 701.438 490.877 702.489 486.178Z"/>
	<path fill="#F3EFD9" d="M1019.4 398.723C1021.27 398.57 1022.55 398.44 1024.27 399.394C1025.18 400.285 1025.57 401.254 1025.88 402.455C1027.89 410.136 1029.66 452.244 1026.37 457.923C1025.76 459.196 1024.24 460.134 1023.08 460.895C1014.83 466.312 977.7 484.974 969.478 483.334C963.434 478.866 967.67 442.085 964.796 432.332C964.387 430.942 964.096 429.97 962.775 429.288C954.372 435.33 966.608 475.289 958.876 484.94C958.784 485.055 958.685 485.163 958.59 485.275Q920.86 484.892 883.141 483.914Q885.493 482.964 887.709 481.729C889.557 480.715 891.762 479.332 892.394 477.21C893.878 476.154 895.317 474.058 895.786 472.288C895.978 471.565 895.893 470.861 895.547 470.199C894.423 468.054 890.909 467.019 888.735 466.532C878.225 464.177 860.673 468.59 851.738 474.354C848.35 476.539 845.75 479.793 842.295 481.947L841.874 482.204C838.11 481.477 833.842 481.642 829.994 481.485C830.497 480.551 830.914 479.592 831.141 478.551C832.87 470.608 833.506 432.657 829.731 426.68C837.256 426.559 844.826 425.73 852.349 425.343Q869.266 424.569 886.199 424.412C906.276 424.121 926.841 425.314 946.837 423.895C953.534 423.42 960.19 422.544 966.649 420.664C978.292 417.275 988.987 411.354 1000.15 406.726C1004.89 404.761 1009.98 403.693 1014.68 401.636C1016.37 400.899 1018.17 400.137 1019.4 398.723Z"/>
	<path d="M990.567 422.689C995.933 421.837 1001.55 421.61 1006.41 424.4C1009.88 426.388 1012.22 429.673 1013.27 433.505C1014.93 439.616 1013.25 446.573 1010.16 451.95C1007.12 457.238 1002.41 461.648 996.449 463.275C996.384 463.349 996.325 463.431 996.252 463.499C994.525 465.08 990.412 466.176 988.066 465.909C985.238 465.588 982.838 463.716 981.148 461.521C977.271 456.484 976.489 449.06 977.421 442.952C978.785 434.023 983.53 427.915 990.567 422.689Z"/>
	<path fill="#F3EFD9" d="M995.687 431.074L997.167 431.185C998.092 432.035 998.255 432.842 998.478 434.057C999.178 437.856 1000.43 450.364 997.959 453.406C997.365 454.136 996.248 453.948 995.34 454.019C990.628 445.476 993.968 440.066 995.614 431.48L995.687 431.074Z"/>
	<path d="M912.015 435.869C919.935 435.652 934.916 433.91 941.996 436.949C944.517 438.032 946.264 439.957 947.271 442.497C949.575 448.307 948.648 457.697 946.23 463.381C940.681 464.88 919.808 462.307 912.249 461.991Q896.709 461.365 881.157 461.261C872.431 461.012 858.184 462 850.197 459.84C842.233 457.687 847.556 443.992 844.222 438.213C844.149 438.087 844.07 437.965 843.994 437.84C866.774 435.093 889.262 437.297 912.015 435.869Z"/>
	<path fill="#F3EFD9" d="M887.966 441.86C892.859 440.973 898.272 441.542 903.208 441.774C903.292 441.86 903.383 441.94 903.459 442.033C904.995 443.893 905.568 447.002 905.369 449.373C905.158 451.892 904.356 453.886 902.383 455.506C898.683 457.659 890.964 456.478 886.791 456.344C889.353 451.907 889.146 446.709 887.966 441.86Z"/>
	<path fill="#F3EFD9" d="M915.627 441.861C921.538 441.731 935.716 439.959 940.466 443.777C941.706 444.773 942.346 446.316 942.383 447.887C942.445 450.46 941.13 453.547 939.441 455.443C937.64 456.667 935.379 456.501 933.28 456.59C925.247 457.15 917.033 456.599 908.985 456.4C909.402 455.723 909.687 454.999 909.951 454.252C911.391 450.175 910.888 446.246 909.066 442.403C911.266 442.305 913.438 442.098 915.627 441.861Z"/>
	<path fill="#F3EFD9" d="M855.509 440.663C863.676 439.945 872.618 440.897 880.824 441.302C882.39 442.99 883.195 445.765 883.495 448.012Q883.547 448.412 883.559 448.816Q883.571 449.22 883.542 449.623Q883.513 450.026 883.444 450.424Q883.374 450.821 883.265 451.21Q883.156 451.599 883.009 451.975Q882.861 452.351 882.676 452.71Q882.492 453.069 882.272 453.408Q882.052 453.747 881.799 454.062C880.078 456.175 877.94 456.213 875.433 456.373Q861.85 456.153 848.268 456.418C851.516 452.581 848.26 446.22 850.962 442.614C852.128 441.056 853.742 441.054 855.509 440.663Z"/>
	<path fill="#F3EFD9" d="M659.547 393.182C707.49 396.214 755.449 396.343 803.462 397.137C817.166 397.363 830.959 396.716 844.639 397.359C849.325 397.58 855.175 397.667 859.516 399.549C859.831 400.186 859.967 400.637 859.981 401.361C860.213 413.436 836.21 414.619 829.452 422.117C821.578 430.853 829.636 448.462 822.638 455.699C818.632 459.669 812.488 461.097 807.088 461.903C791.502 464.794 758.478 460.58 741.572 459.148C741.596 455.678 738.334 448.191 736.373 445.263C731.151 437.467 722.589 435.107 713.886 433.468C710.687 436.859 704.299 437.724 700.806 441.499C696.266 446.405 695.527 455.439 690.033 459.106C685.61 462.058 676.76 456.58 671.769 455.748C664.713 454.571 659.68 457.262 654.159 461.201C649.916 446.443 644.647 431.965 639.97 417.337C647.169 409.807 653.314 401.505 659.547 393.182Z"/>
	<path fill="#F3EFD9" d="M689.893 534.156C706.369 533.407 722.795 534.921 739.255 535.422C769.352 536.336 799.563 537.047 829.671 537.312C829.95 537.578 829.884 537.5 830.176 537.87C835.989 545.246 833.906 587.166 832.694 597.73C830.621 615.795 823.755 637.687 809.008 649.366C808.898 650.209 808.718 650.773 808.238 651.475C802.428 659.978 788.885 666.545 778.905 668.423Q777.374 668.704 775.83 668.91Q774.287 669.117 772.736 669.249Q771.184 669.381 769.629 669.438Q768.073 669.495 766.516 669.477Q764.959 669.458 763.405 669.365Q761.851 669.272 760.303 669.104Q758.755 668.936 757.217 668.693Q755.679 668.451 754.154 668.134Q752.63 667.818 751.122 667.428Q749.615 667.039 748.128 666.577Q746.641 666.115 745.178 665.582Q743.715 665.049 742.28 664.446Q740.844 663.843 739.44 663.172Q738.035 662.5 736.664 661.762Q735.293 661.024 733.96 660.22Q732.626 659.416 731.333 658.549C707.496 642.234 693.252 611.38 688.207 583.713C686.667 575.272 683.536 540.858 687.915 534.503L689.893 534.156Z"/>
</svg>
