<?xml version="1.0" encoding="utf-8" ?>
<svg xmlns="http://www.w3.org/2000/svg" xmlns:xlink="http://www.w3.org/1999/xlink" width="1227" height="692">
	<path fill="#F3EFD9" d="M0 0L1225.95 0C1227.39 2.26316 1226.99 5.54227 1227 8.14407L1227 502.045L1227 637.999L1227 673.985C1227 678.964 1227.67 685.068 1226.83 689.91C1226.7 690.664 1226.36 691.359 1225.95 692L0 692L0 0Z"/>
	<path d="M814.052 313.644C814.143 313.629 814.233 313.611 814.325 313.599C814.476 313.581 814.629 313.57 814.781 313.554C817.773 313.236 821.41 314.33 824 315.828Q824.693 316.235 825.345 316.707Q825.996 317.178 826.599 317.711Q827.201 318.243 827.75 318.83Q828.299 319.418 828.789 320.055Q829.279 320.693 829.705 321.375Q830.131 322.057 830.49 322.776Q830.849 323.496 831.137 324.246Q831.425 324.997 831.639 325.772C832.528 329.106 832.253 332.613 830.467 335.606C828.234 339.348 824.429 341.229 820.334 342.27L819.914 342.427C815.763 341.973 811.24 340.397 808.196 337.475C805.701 335.078 803.735 331.785 803.698 328.242C803.631 321.718 809.762 317.925 813.816 313.882L814.052 313.644Z"/>
	<path fill="#F3EFD9" d="M816.241 319.636C818.662 319.319 820.625 319.124 822.878 320.341Q823.203 320.518 823.51 320.726Q823.816 320.935 824.099 321.173Q824.383 321.411 824.642 321.676Q824.9 321.942 825.131 322.231Q825.362 322.521 825.562 322.833Q825.763 323.144 825.931 323.474Q826.099 323.804 826.234 324.149Q826.369 324.494 826.468 324.851C827.148 327.221 826.703 329.835 825.417 331.923C823.723 334.675 821.558 335.786 818.502 336.511C817.967 336.641 817.469 336.78 816.911 336.698C814.683 336.367 811.999 334.611 810.906 332.71C809.723 330.652 809.567 327.802 810.25 325.535C811.214 322.332 813.496 321.105 816.241 319.636Z"/>
	<path d="M212.202 235.133C214.338 235.082 216.637 234.946 218.751 235.271C223.037 235.929 227.455 238.622 229.976 242.149C231.893 244.83 232.815 248.1 232.188 251.369C231.263 256.189 227.584 259.621 223.721 262.302C219.391 263.003 215.216 263.066 211.222 260.976C207.984 259.281 205.566 256.51 204.563 252.973C203.476 249.137 204.08 244.592 206.123 241.174C207.354 239.115 209.807 235.704 212.202 235.133Z"/>
	<path fill="#F3EFD9" d="M216.423 239.706C217.553 239.683 218.746 239.638 219.866 239.815C221.859 240.131 223.957 241.579 225.049 243.25C226.361 245.257 226.512 247.667 225.95 249.942C224.978 253.87 222.536 255.878 219.178 257.829C215.893 256.987 212.54 255.886 210.559 252.927C209.423 251.231 209.06 249.303 209.524 247.314C210.406 243.523 213.321 241.615 216.423 239.706Z"/>
	<path d="M299.079 405.155C301.194 405.069 303.396 404.927 305.505 405.115C309.965 405.513 314.695 408.007 317.514 411.489C319.601 414.067 320.711 417.211 320.315 420.536C319.709 425.626 315.868 429.227 312.046 432.198C310.888 432.405 309.721 432.606 308.547 432.704C304.356 433.052 299.75 432.167 296.478 429.392C293.853 427.166 292.393 423.987 292.184 420.576C291.805 414.39 295.151 409.553 299.079 405.155Z"/>
	<path fill="#F3EFD9" d="M304.407 409.759C305.751 409.763 307.279 409.688 308.589 410.024C310.493 410.513 312.51 412.093 313.438 413.829C314.478 415.774 314.455 418.085 313.881 420.164C312.822 424.001 310.5 425.833 307.19 427.777C303.706 426.98 300.324 425.751 298.379 422.549C297.303 420.778 297.016 418.815 297.594 416.816C298.601 413.337 301.465 411.498 304.407 409.759Z"/>
	<path d="M234.177 0.523253C234.909 0.479459 235.752 0.438036 236.432 0.759816C242.643 3.69813 248.271 25.9002 250.266 32.832C249.996 34.4135 249.584 36.2271 248.812 37.6475C247.827 39.4586 246.051 40.9809 244.017 41.4429C242.579 41.7696 240.991 41.5734 239.761 40.7247C238.488 39.8464 237.804 38.4013 237.646 36.8911C237.19 32.5119 240.347 28.7089 242.891 25.5245C241.261 20.9522 239.5 16.4194 237.795 11.8738C232.903 13.9463 228.117 16.9596 223.665 19.8567C223.574 26.7629 229.221 32.1827 229.692 38.8236C229.847 41.0041 229.181 43.0633 227.696 44.6804C225.954 46.5772 223.26 47.5785 220.717 47.611C218.638 47.6375 217.094 47.0486 215.619 45.5873C215.081 44.5784 214.718 43.7184 214.823 42.5489C215.238 37.9593 219.371 34.464 222.559 31.5824C219.732 24.1641 216.996 16.7136 213.572 9.54415Q224.136 5.63 234.177 0.523253Z"/>
	<path d="M188.505 175.653C195.239 176.08 199.361 179.389 204.091 183.804C205.54 189.351 206.349 194.573 203.677 199.927C201.398 204.496 197.498 206.928 192.819 208.533L190.093 208.635C186.014 208.752 182.401 207.786 179.398 204.876C174.528 200.158 174.209 193.252 174.183 186.923C178.415 181.802 181.651 177.051 188.505 175.653Z"/>
	<path fill="#F3EFD9" d="M185.979 179.79C187.68 179.705 189.281 179.804 190.944 180.176C194.192 180.902 196.955 183.363 198.629 186.178C200.261 188.924 200.933 192.294 200.093 195.406C199.192 198.746 196.933 201.167 193.973 202.822C192.614 203.001 191.252 203.106 189.881 203.029Q189.331 203.002 188.786 202.92Q188.242 202.837 187.709 202.699Q187.175 202.561 186.659 202.37Q186.143 202.178 185.649 201.935Q185.155 201.691 184.688 201.399Q184.221 201.106 183.787 200.768Q183.353 200.429 182.955 200.048Q182.558 199.667 182.201 199.247C180.238 196.931 179.466 193.884 179.706 190.891C180.082 186.2 182.541 182.795 185.979 179.79Z"/>
	<path d="M965.828 162.064C966.609 161.975 967.441 161.852 968.225 161.978C971.978 162.579 988.352 167.758 990.169 170.581C991.629 172.849 991.173 175.645 990.488 178.089C988.931 183.642 982.329 203.22 977.42 205.862Q977.019 206.074 976.599 206.245Q976.178 206.416 975.742 206.543Q975.307 206.67 974.861 206.753Q974.414 206.835 973.962 206.872Q973.51 206.909 973.056 206.9Q972.602 206.891 972.152 206.836Q971.701 206.781 971.259 206.681Q970.816 206.581 970.386 206.436C968.306 205.739 967.15 204.563 966.211 202.614C966.066 201.522 965.981 200.527 966.48 199.506C968.647 195.073 974.425 193.746 978.696 192.382C979.007 192.101 979.111 192.041 979.348 191.626Q979.629 191.13 979.818 190.593Q980.007 190.055 980.097 189.493Q980.188 188.93 980.178 188.361Q980.168 187.791 980.057 187.232C980.359 186.893 980.446 186.814 980.696 186.474C982.003 184.69 983.337 181.619 983.051 179.396C977.943 178.043 972.364 176.909 967.086 176.606C967.135 178.022 962.267 192.199 961.38 193.684C960.073 195.874 958.225 197.637 955.652 198.19C953.323 198.69 950.873 198.015 948.971 196.629C947.215 195.349 945.892 193.521 945.648 191.311C945.467 189.675 945.991 188.311 947.096 187.105C949.901 184.046 954.721 184.453 958.502 184.437Q958.936 183.928 959.307 183.371C961.739 179.759 966.752 166.319 965.828 162.064Z"/>
	<path d="M309.664 129.022C311.314 129.192 312.923 129.415 314.519 129.885C321.613 131.976 325.189 136.87 328.604 143.042C327.086 147.457 325.728 152.381 323.484 156.467C320.428 162.033 316.675 164.5 310.694 166.242C306.416 166.094 302.99 164.958 299.526 162.383C295.359 159.284 292.36 154.397 291.678 149.23C291.054 144.505 292.227 139.673 295.185 135.903C298.983 131.061 303.811 129.73 309.664 129.022Z"/>
	<path fill="#F3EFD9" d="M307.96 134.399C315.952 134.763 319.801 137.874 325.055 143.507C319.765 149.893 322.122 154.531 313.405 160.96C312.591 161.07 311.762 161.166 310.938 161.134C305.415 160.913 301.285 156.477 297.87 152.633C297.095 148.049 296.593 143.374 299.352 139.311C301.389 136.313 304.553 135.11 307.96 134.399Z"/>
	<path d="M654.134 45.5261C654.873 45.4799 655.149 45.6559 655.811 45.9514C659.061 50.996 661.06 57.6095 662.471 63.4229C666.257 79.0263 666.259 95.8222 665.52 111.8C664.732 128.855 662.575 145.118 667.892 161.716C676.871 166.091 683.585 172.919 688.202 181.729C697.159 198.821 697.616 217.27 691.896 235.375Q703.637 231.791 715.753 229.816C727.622 227.922 765.888 224.447 775.836 229.036C770.565 232.49 743.485 231.035 735.723 231.417C723.176 232.036 705.258 233.066 693.738 238.2C690.961 239.438 688.623 241.082 687.553 244.058C686.987 245.631 686.904 247.609 687.676 249.102C688.307 250.325 690.195 250.78 691.441 250.847C696.981 251.141 702.863 250.221 708.452 250.203C724.093 250.155 746.781 251.475 761.589 255.903C764.483 256.768 769.174 258.235 770.622 261.143C770.674 261.247 770.716 261.354 770.764 261.46C762.147 260.412 753.722 258.132 745.176 256.643C731.873 254.326 703.672 251.262 691.533 254.815C689.527 255.402 687.393 256.31 686.457 258.321C685.93 259.452 685.868 260.841 686.338 262.003C687.086 263.849 689.142 265.034 690.898 265.779C696.818 268.288 704.155 269.489 710.4 271.401C723.79 275.502 737.255 280.238 750.146 285.712C752.561 286.737 756.365 288.428 757.391 290.966C755.078 292.067 751.341 290.812 748.891 290.159C739.275 287.595 730.177 283.603 720.831 280.248Q703.211 274.111 685.263 269.01C682.523 276.948 679.039 284.169 675.128 291.576C677.189 327.518 677.473 354.083 662.437 387.841C671.321 388.431 680.268 388.37 689.166 388.77Q743.35 391.457 797.6 391.706C816.163 391.942 849.675 390.189 865.91 393.795C878.366 388.802 895.052 358.237 904.829 347.352C910.255 341.311 917.696 338.004 923.376 332.184C935.838 319.414 947.105 305.266 959.107 292.036C968.741 281.416 979.245 271.59 988.582 260.703C990.617 258.331 993.225 255.657 994.772 252.954C996.896 249.239 997.616 244.239 1000.6 241.082C1002.18 239.414 1003.72 239.072 1005.93 239.016C1007.78 238.97 1009.15 239.171 1010.52 240.468C1011.49 242.747 1008.49 246.401 1007.12 248.039C1002.03 254.079 995.397 258.118 989.909 263.667C980.96 272.716 926.61 332.881 923.159 340.159C922.306 341.959 922.459 344.441 922.036 346.396C920.678 352.677 878.721 399.185 872.525 403.03C886.948 401.196 900.11 393.769 914.501 391.396C923.791 389.864 933.824 389.951 943.221 389.653C965.396 388.949 988.364 388.377 1010.46 390.541C1019.62 391.438 1028.7 395.197 1037.74 395.461C1060.87 396.134 1183.49 393.817 1196.01 402.768C1176.68 406.903 1147.66 402.578 1127.37 401.686C1113.51 401.076 1099.61 401.641 1085.74 401.187C1067.13 400.578 1048.68 399.026 1030.04 398.861C1030.89 399.686 1031.29 400.559 1031.67 401.664C1035.57 413.063 1036.09 447.875 1030.93 458.292C1025.36 469.543 994.838 481.72 983.04 485.766C1005.22 485.92 1027.47 483.809 1049.67 483.327C1075.74 482.761 1101.74 483.867 1127.79 484.345C1143.4 484.632 1159.46 483.738 1174.97 485.508C1178.61 485.923 1181.66 486.446 1184.77 488.494C1181.28 489.231 1176.95 489.057 1173.35 489.231C1148.87 490.412 1124.2 487.429 1099.68 487.512Q1064.89 487.659 1030.12 488.95C1011.27 489.762 992.511 491.198 973.625 491.378C930.909 491.783 888.376 489.201 845.701 488.156C845.71 488.276 845.722 488.396 845.726 488.516C845.857 492.747 842.49 499.084 841.443 503.456C839.687 510.787 840.116 527.408 835.388 532.67Q930.537 536.276 1025.74 537.932C1051.69 538.293 1077.66 537.444 1103.6 537.933C1106.58 537.99 1111.12 537.621 1113.68 539.338L1113.53 540.155C1109.48 543.016 1103.22 543.538 1098.36 543.804C1075.44 545.054 1052.11 542.559 1029.15 542.282Q932.28 541.283 835.482 537.407C835.542 537.492 835.605 537.574 835.662 537.66C835.757 537.803 835.844 537.951 835.938 538.095C840.845 545.577 840.54 577.601 840.223 587.413C839.4 612.936 829.48 640.687 810.523 658.365C797.84 670.192 782.873 675.703 765.534 675C745.023 674.167 726.705 665.111 712.907 650.03C693.096 628.375 681.188 597.13 679.717 567.96C679.136 556.444 680.331 544.77 680.844 533.253C650.544 532.632 620.244 531.358 589.937 531.045L493.817 530.884C467.762 530.59 441.689 529.386 415.647 528.477Q374.932 527.409 334.264 525.178C285.276 521.955 235.727 522.684 186.65 523.117C169.064 523.272 151.52 524.472 133.92 524.388C125.087 524.346 116.344 523.127 107.54 523.018C90.2642 522.805 71.6498 524.962 54.9819 519.754C77.7842 515.069 102.22 518.721 125.208 519.964C133.252 520.398 141.447 520.24 149.503 520.151C160.706 520.027 171.898 519.397 183.099 519.214Q230.331 518.602 277.563 519.289C301.062 519.736 324.565 521.179 348.065 521.886C374.254 522.674 400.456 522.75 426.643 523.733C442.302 524.32 457.935 525.609 473.603 526.007C501.119 526.706 528.748 525.839 556.284 526.123C598.074 526.554 639.733 528.046 681.499 529.204C682.98 520.972 684.952 512.523 687.51 504.561C688.765 500.652 694.606 488.69 694.386 486.009Q384.201 476.693 73.8761 476.074C70.8913 476.085 64.6266 476.07 62.5305 473.988C62.7791 473.654 62.9124 473.428 63.2167 473.165C69.639 467.607 108.872 471.525 119.255 472.08C116.269 467.713 113.003 463.157 112.822 457.668C112.654 452.569 114.757 448.004 118.242 444.374C140.72 420.966 225.099 409.876 258.578 409.206C245.67 413.083 232.308 414.395 219.04 416.432C193.023 420.427 166.746 425.173 142.298 435.194C135.41 438.017 127.146 441.391 122.058 447.007C119.513 449.816 117.861 453.26 118.122 457.115C118.564 463.666 123.765 468.212 128.431 472.155C141.642 472.158 154.896 471.925 168.101 472.308C180.606 472.67 194.173 474.689 206.534 472.688C207.391 465.956 208.282 458.942 211.847 453.018C215.501 446.946 221.413 443.582 228.188 441.997C238.36 439.618 244.858 439.447 250.846 448.758C252.324 451.056 253.743 453.545 255.955 455.219C260.576 458.714 267.19 459.569 272.313 462.706C275.55 460.286 278.752 457.942 282.218 455.854C285.118 455.853 288.062 456.114 290.962 456.255C298.159 453.1 302.47 443.296 310.281 442.225C316.95 441.311 325.753 447.068 330.917 450.919C338.721 428.903 346.735 407.324 357.257 386.443C300.053 389.18 242.726 385.349 185.491 385.889Q146.195 386.495 106.913 387.737C89.3722 388.289 71.5528 390.193 54.117 387.537C69.3524 383.631 93.0462 384.072 109.225 383.381C138.701 382.123 168.319 380.562 197.823 380.518C227.075 380.475 256.332 381.946 285.59 382.21C310.236 382.433 334.639 380.228 359.295 381.892C363.398 374.872 367.756 367.907 371.366 360.619C379.574 344.046 385.514 327.893 398.326 314.07L399.734 302.434C380.962 311.344 363.98 325.287 344.071 331.735C362.621 317.235 382.15 306.051 403.22 295.644C399.506 290.736 396.079 285.619 392.61 280.536C378.177 283.629 363.586 287.421 349.677 292.388C337.726 296.656 326.301 301.963 313.954 305.089C324.846 297.947 335.52 292.816 347.85 288.6C354.636 286.279 386.259 278.576 388.827 276.661C389.998 275.788 390.14 275.296 390.335 273.903C387.89 268.414 379.084 263.143 374.463 259.173C359.326 261.138 344.142 263.087 329.153 266.003C319.175 267.945 309.379 270.662 299.386 272.57C319.95 259.816 347.472 258.269 370.985 255.663C362.985 242.598 357.341 228.833 358.307 213.25C359.405 195.528 368.297 184.899 381.02 173.655Q380.592 171.187 380.237 168.708Q380.105 167.728 379.997 166.744Q379.89 165.761 379.806 164.775Q379.722 163.789 379.663 162.802Q379.604 161.814 379.569 160.826Q379.533 159.837 379.523 158.848Q379.512 157.858 379.525 156.869Q379.539 155.88 379.576 154.892Q379.614 153.903 379.676 152.916Q379.738 151.928 379.824 150.943Q379.91 149.957 380.02 148.974Q380.131 147.991 380.265 147.011Q380.4 146.031 380.558 145.054Q380.716 144.078 380.899 143.105Q381.081 142.133 381.287 141.165Q381.493 140.198 381.723 139.236Q381.953 138.273 382.206 137.317Q382.46 136.361 382.736 135.411Q383.013 134.461 383.313 133.519Q383.613 132.576 383.936 131.641Q384.259 130.706 384.605 129.779Q384.951 128.852 385.319 127.934Q385.688 127.016 386.079 126.107Q386.469 125.198 386.883 124.299Q387.296 123.401 387.731 122.512Q388.166 121.624 388.622 120.746Q389.079 119.868 389.557 119.002Q390.035 118.136 390.534 117.282Q391.034 116.428 391.554 115.586Q392.074 114.745 392.614 113.916Q393.155 113.088 393.715 112.273Q394.276 111.458 394.857 110.657Q395.437 109.856 396.037 109.069C397.939 93.8534 397.117 71.6307 406.506 58.8692C408.806 55.7424 411.934 53.5258 415.827 52.9579C429.897 50.9058 449.315 65.09 459.996 73.0847C462.966 71.6507 465.947 70.2109 468.99 68.94C512.351 50.8343 567.71 50.202 611.188 68.0056C616.704 65.2953 621.976 61.7612 627.305 58.6822C636.016 53.6497 644.797 49.2792 654.134 45.5261Z"/>
	<path fill="#F3EFD9" d="M635.79 392.753L651.63 393.055L644.654 402.844L639.008 409.53C638.202 403.869 637.026 398.331 635.79 392.753Z"/>
	<path fill="#F3EFD9" d="M407.303 301.173Q408.784 302.057 410.201 303.042C414.65 306.183 417.377 312.689 418.137 317.921C418.364 319.486 418.419 320.531 417.445 321.81C413.702 319.481 408.327 316.71 406.348 312.596C404.473 308.696 405.933 304.967 407.303 301.173Z"/>
	<path fill="#F3EFD9" d="M395.431 258.496C401.369 258.254 411.3 256.811 416.843 258.791C418.016 259.211 418.083 259.259 418.594 260.381C418.49 260.578 418.394 260.78 418.282 260.973C416.271 264.41 410.242 265.6 406.656 266.405L406.275 266.492C396.676 268.586 389.214 263.79 381.43 258.87L395.431 258.496Z"/>
	<path fill="#F3EFD9" d="M672.136 170.077C674.767 171.341 676.885 173.903 678.604 176.191C688.846 189.823 690.72 209.373 688.391 225.743C688.092 225.957 687.537 226.069 687.182 226.185C685.807 223.811 685.215 220.862 684.737 218.181C684.031 214.226 683.545 210.146 682.568 206.252C679.51 194.064 674.704 182.436 672.136 170.077Z"/>
	<path fill="#F3EFD9" d="M393.322 123.884L393.909 124.531C395.391 129.454 395.766 160.421 394.059 165.097C393.215 167.406 388.736 168.543 386.593 169.298C386.352 168.823 386.132 168.348 385.928 167.856C380.821 155.48 388.481 135.375 393.322 123.884Z"/>
	<path fill="#F3EFD9" d="M601.975 245.255C608.187 244.907 614.348 244.801 620.568 244.812C617.717 249.679 614.547 254.37 611.468 259.096C611.87 264.745 611.703 270.045 610.692 275.62C615.079 278.556 620.209 282.411 622.187 287.429L621.818 288.277C617.417 287.95 611.52 282.919 607.805 280.421Q605.847 282.35 603.736 284.112Q601.626 285.873 599.377 287.454Q597.129 289.035 594.757 290.425Q592.386 291.815 589.908 293.005C595.119 285.87 600.918 280.245 607.438 274.356C607.464 269.495 607.74 264.658 608.023 259.806C605.399 257.584 602.521 255.393 600.175 252.881C598.533 251.123 597.766 249.843 597.884 247.41C599.238 246.004 600.157 245.831 601.975 245.255Z"/>
	<path fill="#F3EFD9" d="M615.598 341.438C615.878 341.473 616.026 341.468 616.295 341.634C617.591 342.436 618.633 343.846 619.063 345.277C619.042 346.901 618.819 348.202 617.947 349.604C611.269 360.331 594.09 363.202 582.604 365.976L581.565 365.811C579.157 362.726 579.441 356.496 579.227 352.687C591.806 351.025 604.157 346.844 615.598 341.438Z"/>
	<path fill="#F3EFD9" d="M572.05 376.545C575.345 377.54 577.756 381.663 580.06 384.175C580.475 381.862 580.693 378.994 582.384 377.313C584.059 377.055 584.829 376.871 586.327 377.904C588.941 379.706 590.737 384.331 591.357 387.306C592.478 392.679 591.514 396.509 588.496 401.003C585.913 403.175 582.058 404.646 578.704 404.868C575.646 405.071 572.661 403.949 570.379 401.929C567.443 399.33 565.725 395.474 565.483 391.583C565.086 385.206 568.003 381.034 572.05 376.545Z"/>
	<path fill="#F3EFD9" d="M414.584 167.327C416.846 167.254 418.968 167.295 421.128 168.056C429.623 171.049 435.51 180.09 439.163 187.931C449.361 209.822 448.636 232.121 440.447 254.385C439.201 255.1 436.408 255.316 434.972 255.27C433.468 254.372 432.939 253.773 432.791 251.925C432.378 246.778 434.886 241.113 435.946 236.104Q436.907 231.452 437.245 226.715Q437.583 221.977 437.291 217.236C436.408 202.857 431.686 190.177 422.586 179.036C419.8 175.626 415.77 171.604 414.584 167.327Z"/>
	<path fill="#F3EFD9" d="M305.719 448.957C309.402 448.637 313.85 448.739 317.466 449.517C320.694 450.212 323.695 451.729 325.502 454.586C329.034 460.168 326.786 467.727 325.461 473.649C315.432 473.356 305.379 473.421 295.345 473.367C291.066 473.745 285.894 474.329 281.725 473.24C279.981 472.784 277.776 472.001 276.904 470.305C276.341 469.211 276.318 468.224 276.757 467.055C277.283 465.655 278.827 464.545 280.118 463.873C285.336 461.159 291.134 462.56 296.396 464.256C298.535 458.297 301.177 453.447 305.719 448.957Z"/>
	<path fill="#F3EFD9" d="M820.482 462.828L822.95 462.874C824.457 464.084 824.955 465.234 825.356 467.127C826.241 471.293 826.024 478.118 823.713 481.771Q809.518 480.641 795.278 480.61C787.476 480.637 779.566 481.143 771.777 480.799C766.081 480.548 762.384 480.351 758.438 476.024C758.832 474.812 759.229 474.146 758.92 472.879C757.949 468.9 754.296 466.112 750.926 464.143C768.866 464.78 786.45 469.93 804.517 468.372C809.502 467.942 817.108 466.823 820.482 462.828Z"/>
	<path fill="#F3EFD9" d="M228.619 446.406C254.06 444.533 241.418 454.639 253.166 461.195C257.551 463.642 263.769 462.863 267.793 465.99C268.812 466.781 269.767 468.296 269.836 469.603C269.888 470.595 269.602 471.341 268.808 471.978C265.7 474.473 257.829 473.518 254.073 473.451C241.372 473.304 228.637 473.598 215.936 473.8C215.055 472.526 214.141 471.229 213.452 469.84Q213.17 469.282 212.945 468.698Q212.721 468.114 212.556 467.511Q212.391 466.907 212.288 466.29Q212.184 465.673 212.143 465.049Q212.102 464.425 212.124 463.8Q212.145 463.175 212.23 462.555Q212.314 461.935 212.46 461.327Q212.607 460.719 212.813 460.128C215.212 453.173 222.438 449.414 228.619 446.406Z"/>
	<path fill="#F3EFD9" d="M397.126 170.816C400.939 170.534 404.488 171.043 407.984 172.607C417.101 176.687 422.567 185.761 426.014 194.749Q426.68 196.522 427.257 198.326Q427.834 200.129 428.322 201.959Q428.81 203.789 429.207 205.641Q429.604 207.493 429.909 209.362Q430.214 211.231 430.426 213.113Q430.639 214.994 430.758 216.884Q430.878 218.775 430.904 220.668Q430.93 222.562 430.862 224.454Q430.795 226.347 430.635 228.234Q430.474 230.121 430.22 231.998Q429.967 233.875 429.621 235.736Q429.276 237.598 428.838 239.441Q428.401 241.284 427.874 243.103Q427.346 244.922 426.73 246.712Q426.113 248.503 425.409 250.261Q424.705 252.019 423.915 253.74L408.677 253.51C408.095 249.09 414.469 243.306 416.537 239.474C417.679 237.358 418.291 234.756 418.83 232.418C421.832 219.384 420.288 205.651 413.088 194.202C406.129 183.136 398.028 179.358 385.725 176.514C389.101 173.783 393.103 172.291 397.126 170.816Z"/>
	<path fill="#F3EFD9" d="M635.662 170.789C640.033 170.6 644.028 171.405 647.846 173.572C654.829 177.537 658.744 184.826 660.759 192.365C664.126 204.967 661.344 214.917 654.985 225.878C655.653 223.029 656.202 220.166 656.407 217.241C656.932 209.761 655.133 200.286 649.948 194.562C648.462 192.921 646.456 191.616 644.173 191.595C640.12 191.559 636.306 194.813 633.657 197.528C630.762 202.169 629.005 208.194 628.921 213.652C628.774 223.355 633.995 228.302 640.258 234.746C632.395 232.336 626.414 228.149 622.363 220.81C617.348 211.722 617.114 199.764 620.094 189.944C622.705 181.342 627.711 174.979 635.662 170.789Z"/>
	<path fill="#F3EFD9" d="M970.867 395.128C982.927 393.977 996.601 394.826 1008.62 396.606C1008.43 396.981 1008.22 397.353 1007.94 397.673C1004.79 401.302 965.396 416.729 958.592 417.72C947.418 419.347 929.702 417.97 917.564 418.303C892.669 418.988 867.782 420.896 842.919 421.504L842.768 420.797C858.547 417.91 881.526 407.887 896.918 402.253C904.145 399.608 911.461 396.598 919.131 395.543C922.47 395.083 925.958 395.291 929.32 395.379C925.071 399.726 916.494 399.166 912.518 404.198C911.507 405.478 911.539 405.938 911.758 407.437C913.33 409.704 915.062 410.868 917.665 411.776C928.986 415.728 953.271 414.133 964.076 408.679C966.844 407.282 968.997 405.645 970.007 402.596C970.099 400.268 968.482 398.412 967.25 396.56L967.636 395.68L970.867 395.128Z"/>
	<path fill="#F3EFD9" d="M711.444 440.053C712.339 439.915 713.21 439.858 714.114 439.86C719.141 439.869 724.62 440.684 728.248 444.475C732.566 448.989 732.245 454.456 733.556 460.067C734.115 462.461 735.521 464.781 735.467 467.257C739.876 468.226 744.483 468.931 748.417 471.256C750.583 472.536 752.209 473.883 752.884 476.412C752.618 477.678 752.621 478.233 751.576 479.105C747.954 482.13 740.589 480.698 736.322 480.347C736.206 479.957 736.21 479.882 735.943 479.495C732.936 475.139 724.64 470.833 719.535 469.912C711.024 468.378 705.675 474.254 699.354 478.712L698.925 479.436C692.93 482.47 664.061 480.006 657.272 478.231C656.826 473.605 655.979 468.901 658.842 464.833C660.374 462.656 662.66 461.544 665.24 461.179C673.047 460.074 680.233 464.923 686.12 469.393C689.448 467.631 693.702 465.937 696.358 463.253C698.453 461.638 699.247 454.19 700.874 451.458C703.42 447.183 708.11 443.727 711.444 440.053Z"/>
	<path fill="#F3EFD9" d="M422.876 313.927C430.947 317.343 437.884 323.856 445.606 328.04C470.108 341.318 498.192 349.384 525.897 352.229C532.727 352.93 539.628 353.496 546.491 353.716C551.815 353.887 565.446 352.806 569.88 354.267C570.441 354.451 571.482 355.278 571.927 355.698C574.232 357.875 573.602 364.547 573.612 367.579C521.605 373.463 472.475 355.768 428.354 329.655C426.324 324.453 424.438 319.29 422.876 313.927Z"/>
	<path fill="#F3EFD9" d="M416.562 70.3362C418.271 70.8157 419.88 71.3838 421.448 72.2264C432.752 78.3006 459.779 105.431 463.465 117.446L462.774 118.012C455.896 116.944 446.391 107.278 438.749 104.026C445.655 111.703 453.512 118.457 460.375 126.174C450.562 121.267 439.111 111.146 428.699 108.906C433.063 113.194 438.047 116.451 442.639 120.435C444.032 121.643 445.378 122.852 445.504 124.734C440.822 127.156 433.191 119.74 427.913 120.298L427.868 120.961C430.765 124.543 435.433 127.458 439.043 130.368C435.192 128.835 431.26 127.551 427.33 126.24C428.62 128.376 430.844 129.972 431.307 132.357C430.338 133.189 428.074 132.272 426.555 132.998Q426.893 134.764 427.134 136.545C422.91 141.783 416.555 145.42 412.056 150.726C408.245 123.55 408.874 96.7739 416.562 70.3362Z"/>
	<path fill="#F3EFD9" d="M531.73 174.561C538.594 174.158 544.858 176.389 550.243 180.617C561.937 189.798 564.935 202.87 566.529 216.77C562.678 209.757 560.045 202.297 554.074 196.728C551.027 195.94 548.249 195.235 545.095 195.741C540.874 196.419 537.336 198.68 534.875 202.165C530.422 208.472 530.156 216.98 531.467 224.307C531.605 224.737 531.761 225.154 531.905 225.581C533.6 230.614 538.477 233.926 539.843 238.996C539.295 239.723 539.315 239.772 538.405 239.937C530.983 241.283 521.454 237.164 515.548 232.997C508.28 227.867 502.913 220.737 501.511 211.82Q501.389 211.045 501.307 210.265Q501.224 209.485 501.18 208.702Q501.136 207.918 501.132 207.134Q501.127 206.349 501.162 205.566Q501.197 204.782 501.27 204.001Q501.344 203.22 501.457 202.444Q501.569 201.667 501.72 200.897Q501.872 200.128 502.061 199.366Q502.251 198.605 502.478 197.854Q502.705 197.104 502.97 196.365Q503.234 195.626 503.535 194.902Q503.836 194.178 504.173 193.469Q504.51 192.76 504.881 192.07Q505.253 191.379 505.659 190.708Q506.065 190.036 506.504 189.386Q506.942 188.736 507.413 188.108C513.4 180.114 522.027 175.939 531.73 174.561Z"/>
	<path fill="#F3EFD9" d="M668.477 301.153C669.336 301.831 669.672 302.438 669.993 303.476C674.06 316.63 668.957 349.897 665.054 363.61Q663.302 369.734 660.93 375.645Q658.558 381.556 655.592 387.192C648.585 387.821 641.797 388.735 634.806 387.429C633.7 385.256 632.926 382.889 632.079 380.603C628.865 373.12 624.745 365.825 622.243 358.081C625.624 351.22 624.702 344.981 624.153 337.588C630.309 330.965 639.925 326.829 647.411 321.864C655.853 316.266 662.202 309.007 668.477 301.153Z"/>
	<path fill="#F3EFD9" d="M384.052 182.248C386.339 182.42 388.607 182.648 390.823 183.272C398.395 185.405 404.699 191.385 408.489 198.117C414.158 208.187 415.373 221.366 412.236 232.477C409.476 242.25 403.531 248.718 394.808 253.532L377.201 253.583C373.648 248.828 370.723 244.067 368.514 238.541C363.5 225.997 361.837 210.078 367.358 197.423C370.824 189.48 376.187 185.308 384.052 182.248Z"/>
	<path d="M391.232 197.45C392.078 198.19 392.886 199.001 393.383 200.024C397.242 207.965 397.343 224.785 394.653 233.006C393.699 231.661 392.783 230.177 392.119 228.668C388.364 220.136 387.741 206.004 391.232 197.45Z"/>
	<path fill="#F3EFD9" d="M534.765 61.959C552.414 59.7257 588.038 66.5735 604.924 71.7807C601.057 74.4674 597.188 77.1492 593.748 80.3795C589.487 84.3815 585.759 88.9297 580.986 92.3573C574.311 91.4818 567.713 89.8939 561.04 88.9309C552.417 87.6865 543.896 87.3512 535.204 87.2933C521.812 87.3767 502.909 91.1389 489.808 94.3767C480.986 89.6823 473.077 82.476 465.132 76.4172C488.008 67.4481 510.376 63.4461 534.765 61.959Z"/>
	<path fill="#F3EFD9" d="M702.488 486.177C710.764 485.099 723.16 486.734 732.121 486.745C757.121 486.775 782.076 486.573 807.078 487.038C816.818 487.219 827.64 486.504 837.228 488.056C837.847 488.78 837.946 488.848 838.032 489.801C838.507 495.067 835.526 500.726 834.514 505.841C833.518 510.871 832.994 516.022 832.368 521.11C832.078 523.47 831.928 529.343 830.3 530.979C828.468 532.819 824.283 532.412 821.844 532.424C777.107 531.42 732.214 531.061 687.509 529.282C689.576 519.565 691.679 509.273 695.449 500.053C697.31 495.501 701.424 490.882 702.488 486.177Z"/>
	<path fill="#F3EFD9" d="M1019.39 398.723C1021.27 398.573 1022.55 398.448 1024.27 399.395C1025.18 400.285 1025.57 401.253 1025.88 402.453C1027.89 410.136 1029.66 452.231 1026.37 457.919C1026.28 458.107 1026.21 458.311 1026.1 458.484C1023.62 462.231 978.372 483.592 973.356 483.86C971.838 483.942 970.316 483.6 969.189 482.521C964.262 477.803 966.185 459.953 966.235 453.541C966.279 447.877 967.132 432.935 963.207 428.949C954.703 430.872 965.97 476.095 958.877 484.94C958.785 485.055 958.686 485.163 958.591 485.275Q920.86 484.908 883.141 483.913Q885.494 482.964 887.711 481.729C889.561 480.715 891.762 479.333 892.394 477.21C893.532 476.362 894.651 475.17 895.055 473.785C895.435 472.482 895.251 471.203 894.521 470.057C893.194 467.971 890.427 466.605 888.095 466.011C878.653 463.602 861.385 468.839 853.247 473.791C849.256 476.219 846.053 479.672 842.094 482.023C841.964 482.1 841.831 482.173 841.7 482.248C838.043 481.382 833.754 481.626 829.986 481.486C830.459 480.661 830.839 479.805 831.057 478.878C832.899 471.045 833.494 432.636 829.734 426.679C845.119 426.433 860.54 424.876 875.974 424.583C898.039 424.163 920.238 424.957 942.267 424.135C949.877 423.851 957.6 423.087 964.977 421.127C977.259 417.864 988.463 411.569 1000.14 406.725C1005.09 404.675 1010.41 403.581 1015.29 401.365C1016.85 400.657 1018.21 399.99 1019.39 398.723Z"/>
	<path d="M990.571 422.689C995.775 421.862 1001.24 421.616 1006.02 424.184C1009.69 426.158 1012.17 429.505 1013.26 433.506C1014.93 439.614 1013.25 446.571 1010.16 451.945C1007.12 457.23 1002.4 461.64 996.449 463.275C996.384 463.349 996.325 463.431 996.252 463.499C994.525 465.081 990.407 466.173 988.061 465.902C985.244 465.575 982.849 463.708 981.163 461.523C977.275 456.486 976.486 449.067 977.418 442.952C978.78 434.024 983.533 427.911 990.571 422.689Z"/>
	<path fill="#F3EFD9" d="M995.68 431.074L997.166 431.185C998.09 432.033 998.257 432.842 998.482 434.056C999.184 437.849 1000.43 450.371 997.962 453.408C997.368 454.14 996.247 453.951 995.339 454.022C990.626 445.382 994.004 440.143 995.609 431.481C995.634 431.345 995.656 431.209 995.68 431.074Z"/>
	<path d="M912.016 435.869C919.972 435.656 934.868 433.889 941.996 436.953C944.516 438.036 946.261 439.96 947.27 442.498C949.583 448.317 948.643 457.687 946.229 463.382C940.392 464.915 920.597 462.349 912.876 462.016Q897.023 461.366 881.157 461.259C872.259 460.978 858.437 462.065 850.216 459.837C842.216 457.669 847.559 444.017 844.223 438.213C844.15 438.086 844.071 437.963 843.995 437.839C866.777 435.084 889.262 437.298 912.016 435.869Z"/>
	<path fill="#F3EFD9" d="M887.959 441.86C891.474 441.398 895.283 441.105 898.83 441.225C900.692 441.289 902.775 441.876 904.032 443.33C905.465 444.987 905.52 447.077 905.338 449.138C905.097 451.872 904.55 453.687 902.382 455.5C898.749 457.677 890.943 456.481 886.767 456.348C889.362 451.915 889.152 446.716 887.959 441.86Z"/>
	<path fill="#F3EFD9" d="M915.627 441.861C922.736 441.451 933.138 440.895 940.054 442.589C940.975 443.578 941.444 444.443 941.654 445.793C942.007 448.064 941.804 453.028 940.241 454.829C938.602 456.717 935.552 456.495 933.28 456.591C925.255 457.173 917.035 456.605 908.993 456.402C909.407 455.724 909.69 455 909.952 454.252C911.382 450.172 910.89 446.244 909.069 442.398C911.268 442.303 913.439 442.097 915.627 441.861Z"/>
	<path fill="#F3EFD9" d="M855.531 440.663C863.69 439.942 872.628 440.895 880.827 441.304C882.463 443.078 883.357 446.076 883.547 448.452Q883.576 448.862 883.563 449.274Q883.551 449.685 883.496 450.093Q883.441 450.5 883.344 450.9Q883.248 451.3 883.11 451.688Q882.973 452.076 882.797 452.448Q882.621 452.82 882.408 453.171Q882.194 453.523 881.946 453.851Q881.698 454.179 881.417 454.48C879.758 456.231 877.685 456.229 875.438 456.369Q861.848 456.156 848.258 456.416C851.523 452.585 848.24 446.16 850.953 442.609C852.162 441.028 853.726 441.041 855.531 440.663Z"/>
	<path fill="#F3EFD9" d="M659.556 393.18Q687.986 395.074 716.471 395.742L803.752 397.144C816.565 397.355 848.601 395.231 859.439 399.476C859.818 400.047 859.946 400.368 859.973 401.075C860.447 413.457 836.523 414.524 829.592 421.968C821.563 430.591 829.559 448.679 822.763 455.708C818.576 459.586 812.581 461.09 807.086 461.905C791.557 464.804 758.411 460.574 741.567 459.152C741.595 455.68 738.336 448.192 736.373 445.263C731.15 437.471 722.589 435.107 713.888 433.467C710.618 436.928 704.275 437.745 700.71 441.603C696.156 446.53 695.586 455.648 689.91 459.193C685.418 461.999 676.872 456.639 671.997 455.777C664.86 454.516 659.75 457.225 654.154 461.207C649.932 446.443 644.647 431.964 639.97 417.337C647.178 409.822 653.314 401.49 659.556 393.18Z"/>
	<path fill="#F3EFD9" d="M689.928 534.155C706.244 533.411 722.515 534.89 738.814 535.408C768.996 536.368 799.354 537.152 829.547 537.295C829.85 537.593 829.879 537.602 830.121 537.901C836.047 545.237 833.894 587.673 832.637 598.22C830.51 616.07 823.652 637.882 809.002 649.377C808.866 650.283 808.569 650.944 808.069 651.718C802.917 659.682 788.104 666.693 778.894 668.427Q777.36 668.708 775.814 668.914Q774.268 669.12 772.714 669.252Q771.16 669.383 769.602 669.439Q768.043 669.496 766.484 669.476Q764.924 669.457 763.368 669.363Q761.811 669.269 760.261 669.099Q758.71 668.93 757.17 668.686Q755.63 668.442 754.103 668.123Q752.576 667.805 751.067 667.414Q749.557 667.022 748.068 666.558Q746.579 666.094 745.115 665.559Q743.65 665.023 742.213 664.418Q740.776 663.812 739.369 663.138Q737.963 662.464 736.591 661.723Q735.219 660.982 733.884 660.175Q732.549 659.368 731.255 658.498C707.516 642.199 693.314 611.5 688.246 583.916C686.688 575.435 683.52 540.854 687.913 534.506L689.928 534.155Z"/>
</svg>
