<?xml version="1.0" encoding="utf-8" ?>
<svg xmlns="http://www.w3.org/2000/svg" xmlns:xlink="http://www.w3.org/1999/xlink" width="1227" height="692">
	<path fill="#F3EFD9" d="M0 0L1225.95 0C1227.39 2.26316 1226.99 5.54227 1227 8.14407L1227 502.045L1227 637.999L1227 673.985C1227 678.964 1227.67 685.068 1226.83 689.91C1226.7 690.664 1226.36 691.359 1225.95 692L0 692L0 0Z"/>
	<path d="M782.937 274.698C786.014 274.11 789.503 275.012 792.268 276.426C796.139 278.405 799.226 282.123 800.495 286.275C801.518 289.623 801.369 293.208 799.653 296.309C797.569 300.076 793.765 302.04 789.765 303.175L789.249 303.451C784.958 303.203 780.464 301.313 777.287 298.43C774.674 296.06 772.843 293.381 772.719 289.777C772.473 282.612 778.436 279.499 782.734 274.919C782.803 274.846 782.869 274.772 782.937 274.698Z"/>
	<path fill="#F3EFD9" d="M785.08 280.691C787.65 280.371 789.69 280.08 792.05 281.451Q792.375 281.64 792.679 281.861Q792.983 282.081 793.263 282.332Q793.543 282.582 793.796 282.86Q794.049 283.137 794.273 283.439Q794.497 283.741 794.689 284.064Q794.881 284.387 795.039 284.728Q795.198 285.068 795.321 285.423Q795.444 285.778 795.53 286.144C796.125 288.557 795.561 291.237 794.182 293.282C792.454 295.846 790.32 296.953 787.357 297.548C786.761 297.698 786.372 297.795 785.757 297.709C783.766 297.429 781.128 295.641 780.084 294.004C778.711 291.851 778.579 288.853 779.275 286.434C780.157 283.373 782.501 282.131 785.08 280.691Z"/>
	<path d="M242.792 195.371C244.867 195.241 247.012 195.061 249.09 195.16C253.54 195.371 258.214 197.664 261.133 201.027C263.361 203.594 264.641 206.838 264.306 210.259C263.804 215.376 260.18 218.942 256.369 221.975C255.301 222.25 254.219 222.519 253.124 222.665C249.026 223.211 244.273 222.448 240.966 219.847C238.232 217.698 236.581 214.471 236.262 211.024C235.683 204.776 238.932 199.909 242.792 195.371Z"/>
	<path fill="#F3EFD9" d="M249.24 199.532C250.058 199.576 250.877 199.629 251.685 199.77C253.837 200.144 255.997 201.55 257.163 203.394C258.53 205.554 258.474 207.995 257.8 210.361C256.714 214.181 254.265 216.004 250.947 217.898Q250.39 217.726 249.835 217.546C246.552 216.476 243.686 215.148 242.103 211.885C241.223 210.072 241.046 208.113 241.755 206.204C243.035 202.76 246.108 201.02 249.24 199.532Z"/>
	<path d="M227.62 341.137C229.747 341.068 232 340.924 234.113 341.169C238.53 341.682 243.177 344.387 245.842 347.938C247.786 350.529 248.78 353.78 248.229 357.007C247.374 362.01 243.703 365.464 239.785 368.325C237.078 368.669 234.467 369.042 231.756 368.496C227.957 367.729 224.21 365.547 222.065 362.263Q221.692 361.682 221.378 361.067Q221.065 360.451 220.813 359.808Q220.562 359.165 220.376 358.5Q220.189 357.835 220.069 357.155Q219.949 356.475 219.897 355.786Q219.845 355.097 219.861 354.407Q219.877 353.717 219.962 353.031Q220.046 352.346 220.198 351.672C220.998 348.137 224.533 343.047 227.62 341.137Z"/>
	<path fill="#F3EFD9" d="M232.562 345.697C233.905 345.661 235.404 345.677 236.704 346.052C238.628 346.606 240.439 348.079 241.368 349.832C242.51 351.986 242.468 354.362 241.774 356.636C240.657 360.298 238.209 362.083 234.956 363.789C231.7 362.915 228.48 361.761 226.542 358.819C225.469 357.189 224.991 355.191 225.463 353.274C226.395 349.483 229.398 347.538 232.562 345.697Z"/>
	<path d="M231.33 112.171C232.616 112.038 233.908 111.916 235.201 111.876C241.226 111.692 245.981 115.932 250.081 119.802C251.522 124.941 252.269 129.929 250.121 135.001C248.146 139.667 244.337 142.383 239.81 144.287Q237.661 144.583 235.493 144.672C231.788 144.791 228.141 143.506 225.459 140.903C220.603 136.19 220.207 129.351 220.131 123.018C223.48 118.878 226.661 114.908 231.33 112.171Z"/>
	<path fill="#F3EFD9" d="M232.725 115.646C234.73 115.707 236.903 115.945 238.764 116.748C241.748 118.037 244.277 120.998 245.473 123.979C246.646 126.904 246.886 130.151 245.558 133.064C244.263 135.909 242.119 137.858 239.23 138.972C237.302 139.087 235.327 139.169 233.45 138.629C230.735 137.847 228.438 135.869 227.08 133.41C225.511 130.567 225.185 126.98 226.124 123.88Q226.314 123.23 226.567 122.602Q226.82 121.974 227.133 121.373Q227.446 120.772 227.816 120.205Q228.186 119.638 228.61 119.11Q229.033 118.581 229.506 118.097Q229.979 117.612 230.498 117.176Q231.016 116.74 231.574 116.357Q232.132 115.973 232.725 115.646Z"/>
	<path d="M907.814 93.7553C910.522 93.4499 913.172 93.0473 915.884 93.515C917.978 94.8244 918.579 97.5295 919.086 99.8094C920.29 105.221 922.1 125.804 919.599 129.689C919.565 129.878 919.542 130.069 919.496 130.255C919.048 132.079 917.17 133.893 915.493 134.641C913.43 135.562 910.782 135.608 908.692 134.759C907.171 134.142 906.441 133.261 905.782 131.801C905.062 125.699 910.976 123.831 913.808 119.739C913.929 119.565 914.043 119.387 914.16 119.211C914.325 118.83 914.465 118.453 914.555 118.046C915.22 115.066 914.626 107.897 913.108 105.26C909.93 106.692 905.823 107.054 902.397 107.722C901.394 107.998 899.908 108.288 899.181 109.044C896.137 112.208 899.252 121.508 899.255 125.596C899.256 128.22 898.503 130.951 896.528 132.793C894.787 134.416 892.299 135.116 889.956 134.977C887.747 134.847 885.445 133.997 884.014 132.248C883.014 131.024 882.648 129.616 882.926 128.06C883.863 122.83 889.026 122.129 892.704 119.515C892.922 118.824 893.121 118.108 893.204 117.386C893.738 112.744 893.378 99.01 890.409 95.3416C896.217 95.1278 902.098 94.8602 907.814 93.7553Z"/>
	<path d="M353.759 35.4472C356.827 35.0998 359.696 35.0766 362.695 35.9262C369.619 37.8878 373.304 43.0744 376.62 49.0419C373.474 58.4068 371.351 66.6937 361.925 71.3836C357.732 72.3622 354.391 72.242 350.485 70.3105C345.724 67.9559 342.09 63.4135 340.468 58.3913Q340.324 57.9558 340.202 57.5135Q340.079 57.0713 339.98 56.6234Q339.88 56.1756 339.803 55.7233Q339.726 55.271 339.672 54.8154Q339.618 54.3598 339.587 53.9021Q339.556 53.4443 339.548 52.9856Q339.54 52.5269 339.555 52.0683Q339.57 51.6098 339.609 51.1526Q339.647 50.6954 339.708 50.2407Q339.77 49.786 339.854 49.335Q339.938 48.8839 340.045 48.4377Q340.151 47.9915 340.28 47.5513Q340.41 47.111 340.561 46.6778Q340.712 46.2446 340.885 45.8196Q341.057 45.3946 341.251 44.9788Q341.445 44.5631 341.66 44.1576C344.313 39.1853 348.549 36.9791 353.759 35.4472Z"/>
	<path fill="#F3EFD9" d="M352.995 40.8607C354.731 40.6399 356.563 40.5263 358.311 40.6005C364.771 40.8746 368.856 45.013 372.999 49.4136C369.029 55.053 368.86 60.5803 363.415 65.6444C361.836 66.6007 360.406 67.1934 358.52 67.0764C353.134 66.7423 349.121 62.3188 345.8 58.5194C345.334 55.4776 344.859 52.1497 345.635 49.1242C346.693 44.9984 349.481 42.9366 352.995 40.8607Z"/>
	<path d="M654.113 45.5273C654.807 45.4778 655.078 45.6012 655.716 45.8412C658.706 50.1396 660.593 56.2701 661.941 61.3222C666.299 77.6645 666.305 95.4107 665.502 112.222C664.693 129.144 662.617 145.259 667.893 161.723C676.677 166.012 683.3 172.635 687.915 181.209C697.225 198.502 697.497 216.891 691.985 235.331Q703.835 231.757 716.051 229.77C727.87 227.906 765.902 224.454 775.836 229.036C770.784 232.335 746.947 231.031 739.436 231.249C729.076 231.55 696.075 233.317 689.066 241.395C687.277 243.457 687.072 245.686 687.267 248.259C688.159 249.796 688.567 250.329 690.466 250.638C696.204 251.57 703.289 250.239 709.21 250.229C724.54 250.203 747.234 251.479 761.66 255.891C764.525 256.767 769.178 258.273 770.621 261.141C770.673 261.244 770.716 261.351 770.764 261.457C764.195 260.646 757.739 259.149 751.261 257.821C739.038 255.315 697.17 249.737 687.911 256.504Q687.722 256.64 687.549 256.795Q687.375 256.95 687.218 257.122Q687.062 257.294 686.924 257.482Q686.786 257.669 686.668 257.87Q686.551 258.071 686.454 258.283Q686.358 258.495 686.285 258.716Q686.211 258.936 686.161 259.164Q686.11 259.391 686.084 259.622C685.877 261.508 686.649 262.961 688.167 264.021C694.25 268.275 704.264 269.63 711.365 271.715C720.269 274.329 752.9 284.533 757.628 290.695L757.087 291.373C745.578 291.565 727.239 282.397 716.112 278.585Q700.789 273.455 685.255 269.008C682.527 276.953 679.036 284.174 675.128 291.584C677.213 327.476 677.445 354.19 662.429 387.845Q729.241 391.043 796.126 391.685Q814.502 391.886 832.879 391.893C843.654 391.929 855.351 391.464 865.914 393.796C878.194 388.906 896.318 356.759 906.334 345.685C910.859 340.683 917.1 338.756 921.728 334.056C934.617 320.968 946.211 306.288 958.517 292.625C967.729 282.399 977.889 273.029 986.947 262.679C989.496 259.767 992.51 256.589 994.53 253.283C996.94 249.339 998.139 241.251 1002.89 239.44C1004.94 238.656 1007.62 238.904 1009.59 239.781C1009.89 240.212 1010.34 240.616 1010.36 241.152C1010.6 248.131 996.469 257.93 991.735 262.115C985.235 267.86 979.7 274.647 973.89 281.086Q958.093 298.498 942.809 316.361C935.822 324.609 929.131 333.376 921.719 341.231C922.25 342.873 922.577 344.349 922.21 346.073C920.842 352.503 878.599 399.344 872.495 403.038C886.931 401.201 900.092 393.754 914.493 391.398C923.901 389.858 934.034 389.943 943.551 389.643C965.616 388.947 988.472 388.388 1010.46 390.542C1019.62 391.441 1028.7 395.198 1037.74 395.46C1060.84 396.131 1183.52 393.824 1196.01 402.77C1176.45 406.921 1147.45 402.548 1127.01 401.671C1113.31 401.083 1099.55 401.638 1085.83 401.191C1067.18 400.584 1048.67 399.039 1029.99 398.853C1030.75 399.589 1031.23 400.342 1031.59 401.334C1035.82 412.963 1036.27 447.524 1030.93 458.29C1025.35 469.561 994.851 481.701 983.039 485.773C1005.23 485.909 1027.47 483.809 1049.67 483.327C1075.64 482.763 1101.55 483.863 1127.51 484.339C1143.21 484.627 1159.37 483.728 1174.97 485.508C1178.61 485.923 1181.66 486.446 1184.77 488.494C1181.28 489.231 1176.95 489.057 1173.35 489.231C1149.08 490.401 1124.63 487.458 1100.32 487.51Q1065.21 487.649 1030.12 488.95C1011.39 489.756 992.748 491.19 973.982 491.374C931.145 491.794 888.496 489.2 845.702 488.154C845.711 488.274 845.723 488.394 845.727 488.514C845.856 492.749 842.489 499.082 841.442 503.456C839.686 510.79 840.113 527.414 835.378 532.676C904.472 535.155 973.796 538.039 1042.94 538.025C1053.6 538.023 1107.61 536.236 1113.73 539.257L1113.68 540.039C1109.17 543.375 1101.66 543.611 1096.2 543.876C1074.13 544.946 1051.67 542.558 1029.56 542.28Q932.486 541.297 835.484 537.409C841.294 545.283 840.605 577.698 840.207 588.334C839.262 613.575 829.116 641.134 810.332 658.537C797.701 670.238 782.827 675.697 765.605 675.002C745.125 674.176 726.804 665.192 713.01 650.133C693.298 628.613 681.181 597.319 679.697 568.284C679.103 556.66 680.335 544.876 680.855 533.253C650.55 532.638 620.247 531.358 589.938 531.045L494.445 530.89C468.885 530.616 443.309 529.427 417.762 528.559Q376.239 527.464 334.761 525.232C307.014 522.846 278.731 523.043 250.894 523.03C227.723 523.019 204.495 522.731 181.332 523.202C165.346 523.526 149.409 524.472 133.407 524.387C124.95 524.343 116.607 523.197 108.178 522.97C90.4887 522.493 72.135 525.09 54.9823 519.754C77.5963 515.062 102.103 518.638 124.921 519.949C133.17 520.423 141.593 520.251 149.855 520.148C160.861 520.01 171.857 519.39 182.862 519.213Q230.468 518.596 278.072 519.307C301.79 519.765 325.516 521.199 349.235 521.912C374.617 522.675 400.017 522.742 425.397 523.682C441.547 524.279 457.67 525.609 473.828 526.016C501.369 526.709 529.023 525.838 556.584 526.124C598.271 526.557 639.828 528.048 681.493 529.204C683.504 519.111 685.551 508.405 689.302 498.799C690.662 495.315 694.737 489.52 694.39 486.008L388.822 478.38L182.886 477.02C150.786 476.943 118.838 476.96 86.7505 475.949C81.1205 475.772 75.502 476.295 69.8766 475.962C67.728 475.834 65.272 475.852 63.5294 474.453L63.4307 473.395C63.7227 472.993 63.7841 472.863 64.1151 472.548C68.7657 468.122 110.307 471.604 119.253 472.08C116.271 467.71 113.002 463.157 112.821 457.667C112.652 452.572 114.763 448.006 118.244 444.379C140.719 420.965 225.097 409.877 258.577 409.206C245.676 413.082 232.322 414.392 219.061 416.428C193.039 420.425 166.753 425.172 142.298 435.192C135.295 438.062 126.761 441.535 121.72 447.387C119.26 450.244 117.771 453.709 118.157 457.527C118.801 463.894 123.854 468.292 128.429 472.155C141.641 472.158 154.896 471.924 168.101 472.308C180.607 472.672 194.175 474.69 206.537 472.687C207.394 465.956 208.282 458.943 211.849 453.021C215.507 446.949 221.408 443.581 228.188 441.999C238.367 439.624 244.855 439.441 250.84 448.766C252.318 451.069 253.735 453.548 255.958 455.218C260.6 458.706 267.183 459.566 272.312 462.706C275.55 460.286 278.754 457.942 282.222 455.855C285.12 455.856 288.06 456.117 290.957 456.259C298.167 453.083 302.497 443.217 310.366 442.219C317.018 441.375 325.78 447.044 330.92 450.933C338.7 428.908 346.729 407.315 357.268 386.442C300.06 389.184 242.729 385.349 185.491 385.889Q146.195 386.494 106.913 387.737C89.3622 388.289 71.5591 390.178 54.1105 387.536C69.3238 383.653 92.8462 384.082 108.979 383.393C138.544 382.129 168.251 380.558 197.843 380.518C227.32 380.479 256.801 381.953 286.285 382.225C310.704 382.45 334.858 380.24 359.293 381.895C363.396 374.872 367.758 367.908 371.368 360.617C379.576 344.04 385.524 327.904 398.321 314.067L399.735 302.422C380.997 311.382 363.963 325.291 344.07 331.736C362.623 317.236 382.154 306.047 403.229 295.644C399.505 290.739 396.078 285.619 392.607 280.534C378.173 283.633 363.588 287.421 349.677 292.388C337.727 296.655 326.302 301.967 313.956 305.087C325.519 297.509 336.893 292.242 350.009 287.877C356.594 285.686 386.014 278.731 388.827 276.66C390.004 275.794 390.147 275.294 390.338 273.902C387.886 268.412 379.086 263.141 374.46 259.173C359.225 261.137 343.936 263.114 328.855 266.062C318.979 267.992 309.289 270.703 299.392 272.566C319.947 259.817 347.485 258.263 370.991 255.668C362.976 242.629 357.344 228.808 358.307 213.246C359.403 195.528 368.306 184.9 381.017 173.652Q380.591 171.185 380.237 168.707Q380.105 167.726 379.998 166.743Q379.89 165.759 379.807 164.773Q379.723 163.787 379.664 162.799Q379.605 161.811 379.57 160.822Q379.535 159.833 379.524 158.844Q379.513 157.854 379.527 156.865Q379.541 155.875 379.578 154.887Q379.616 153.898 379.678 152.91Q379.74 151.923 379.827 150.937Q379.913 149.951 380.023 148.968Q380.134 147.984 380.268 147.004Q380.403 146.024 380.561 145.047Q380.72 144.07 380.902 143.097Q381.085 142.125 381.291 141.157Q381.497 140.189 381.727 139.227Q381.957 138.264 382.211 137.308Q382.464 136.351 382.741 135.401Q383.018 134.451 383.318 133.508Q383.618 132.565 383.941 131.63Q384.265 130.695 384.611 129.768Q384.957 128.84 385.325 127.922Q385.694 127.004 386.085 126.095Q386.476 125.186 386.889 124.287Q387.302 123.388 387.737 122.499Q388.173 121.61 388.629 120.732Q389.086 119.854 389.565 118.988Q390.043 118.122 390.542 117.268Q391.041 116.413 391.562 115.571Q392.082 114.73 392.622 113.901Q393.163 113.072 393.724 112.257Q394.285 111.441 394.865 110.64Q395.446 109.839 396.046 109.052C397.93 93.848 397.129 71.618 406.509 58.8694C408.808 55.7438 411.935 53.5271 415.827 52.9587C429.87 50.9079 449.357 65.104 459.995 73.089C462.965 71.6529 465.946 70.2107 468.991 68.9392C512.326 50.8398 567.737 50.1925 611.187 68.0092C616.571 65.3653 621.723 61.9055 626.929 58.9053C635.763 53.814 644.654 49.3542 654.113 45.5273Z"/>
	<path fill="#F3EFD9" d="M635.79 392.757L651.629 393.051L644.656 402.845L639.007 409.538C638.2 403.876 637.026 398.337 635.79 392.757Z"/>
	<path fill="#F3EFD9" d="M407.298 301.173Q408.782 302.057 410.201 303.041C414.646 306.176 417.381 312.694 418.141 317.918C418.369 319.49 418.422 320.532 417.442 321.816C413.703 319.479 408.327 316.708 406.347 312.596C404.47 308.698 405.931 304.966 407.298 301.173Z"/>
	<path fill="#F3EFD9" d="M395.501 258.498C401.506 258.255 410.304 256.937 416.027 258.618C417.362 259.011 417.624 259.153 418.254 260.361C418.114 260.74 417.96 261.108 417.739 261.45C415.646 264.685 410.132 265.603 406.659 266.405L406.278 266.493C396.678 268.589 389.21 263.785 381.424 258.869L395.501 258.498Z"/>
	<path fill="#F3EFD9" d="M672.134 170.074C674.768 171.34 676.885 173.898 678.604 176.189C688.84 189.823 690.729 209.373 688.392 225.743L687.477 226.261C684.558 223.621 683.733 211.659 682.788 207.393C679.994 194.779 674.776 182.797 672.134 170.074Z"/>
	<path fill="#F3EFD9" d="M393.328 123.888L393.834 124.414C395.395 128.741 395.669 160.685 394.061 165.099C393.222 167.404 388.735 168.546 386.596 169.3C386.355 168.824 386.133 168.349 385.929 167.855C380.823 155.505 388.461 135.35 393.328 123.888Z"/>
	<path fill="#F3EFD9" d="M601.975 245.253C608.19 244.9 614.362 244.805 620.583 244.8C617.726 249.669 614.548 254.365 611.469 259.095C611.868 264.74 611.701 270.044 610.699 275.617C614.867 278.532 619.244 281.902 621.826 286.373C622.339 287.261 622.461 287.359 622.194 288.384C617.678 288.162 611.491 282.915 607.794 280.421Q605.839 282.353 603.731 284.116Q601.622 285.878 599.374 287.46Q597.126 289.041 594.755 290.43Q592.383 291.818 589.904 293.005C595.114 285.874 600.924 280.241 607.434 274.346C607.474 269.499 607.728 264.689 608.037 259.852C605.408 257.612 602.53 255.404 600.174 252.879C598.529 251.117 597.767 249.844 597.884 247.406C598.889 245.897 600.334 245.689 601.975 245.253Z"/>
	<path fill="#F3EFD9" d="M615.594 341.433L616.294 341.631C617.378 342.603 618.315 343.462 618.637 344.939C619.089 347.014 618.272 348.966 617.192 350.696C611.18 360.333 592.927 363.45 582.614 365.975L581.565 365.817C579.149 362.986 579.43 356.303 579.229 352.687C591.8 351.026 604.165 346.846 615.594 341.433Z"/>
	<path fill="#F3EFD9" d="M572.05 376.543C575.336 377.514 577.765 381.675 580.055 384.178C580.44 382.131 580.655 378.891 582.146 377.401C583.794 377.096 584.593 376.882 586.111 377.855C588.872 379.624 590.726 384.216 591.392 387.274C592.561 392.64 591.456 396.513 588.499 401.015C585.946 403.179 582.025 404.645 578.703 404.866C575.647 405.069 572.66 403.949 570.379 401.931C567.441 399.332 565.722 395.474 565.48 391.583C565.085 385.206 568.003 381.032 572.05 376.543Z"/>
	<path fill="#F3EFD9" d="M414.567 167.322C416.823 167.287 419.012 167.261 421.151 168.073C429.892 171.395 435.551 179.987 439.295 188.168C449.216 209.843 448.651 232.373 440.452 254.388C440.353 254.444 440.261 254.518 440.154 254.558C438.334 255.23 435.697 255.423 433.929 254.818C430.725 249.968 435.257 240.435 436.155 234.986C439.149 216.818 436.43 196.27 424.645 181.489C421.412 177.434 416.004 172.412 414.567 167.322Z"/>
	<path fill="#F3EFD9" d="M305.725 448.957C309.407 448.637 313.853 448.74 317.468 449.516C320.696 450.209 323.697 451.726 325.504 454.582C329.035 460.165 326.786 467.727 325.461 473.649C315.432 473.356 305.378 473.421 295.344 473.367C291.26 473.739 286.076 474.352 282.102 473.332C280.256 472.858 277.881 472.098 276.943 470.297C276.377 469.21 276.333 468.227 276.76 467.055C277.279 465.635 278.831 464.544 280.13 463.867C285.304 461.17 291.133 462.588 296.36 464.229C298.649 458.271 301.138 453.487 305.725 448.957Z"/>
	<path fill="#F3EFD9" d="M820.482 462.828L822.951 462.874C824.343 463.99 824.842 464.948 825.26 466.698C826.315 471.111 826.07 477.804 823.714 481.776Q809.671 480.649 795.583 480.61C787.681 480.636 779.662 481.155 771.776 480.806C766.075 480.553 762.386 480.345 758.43 476.025C758.829 474.811 759.23 474.149 758.919 472.879C757.947 468.913 754.311 466.118 750.954 464.144C768.754 464.777 786.187 469.847 804.114 468.407C809.218 467.997 817.023 466.913 820.482 462.828Z"/>
	<path fill="#F3EFD9" d="M228.626 446.404C253.936 444.527 241.435 454.611 253.171 461.195C257.543 463.648 263.776 462.854 267.782 465.986C268.809 466.788 269.764 468.314 269.832 469.634C269.875 470.483 269.759 471.05 269.165 471.691C266.605 474.454 257.54 473.495 254.064 473.451C241.365 473.303 228.632 473.595 215.933 473.801C215.053 472.527 214.141 471.229 213.452 469.839Q213.17 469.28 212.945 468.696Q212.72 468.111 212.555 467.507Q212.39 466.903 212.287 466.285Q212.183 465.668 212.142 465.043Q212.101 464.418 212.123 463.792Q212.145 463.167 212.23 462.546Q212.314 461.926 212.461 461.317Q212.607 460.708 212.814 460.117C215.213 453.168 222.449 449.408 228.626 446.404Z"/>
	<path fill="#F3EFD9" d="M397.131 170.816C400.941 170.533 404.49 171.044 407.984 172.606C417.004 176.638 422.464 185.574 425.906 194.467C433.354 213.707 432.233 235.023 423.925 253.739L408.676 253.512C408.174 249.668 416.848 240.558 418.507 233.926C421.86 220.532 420.424 206.311 413.205 194.4C406.196 182.836 398.325 179.554 385.731 176.514C389.101 173.777 393.109 172.289 397.131 170.816Z"/>
	<path fill="#F3EFD9" d="M635.666 170.787C640.033 170.598 644.033 171.406 647.848 173.571C654.831 177.535 658.743 184.827 660.759 192.364C664.127 204.961 661.354 214.919 654.988 225.873C655.652 223.025 656.2 220.163 656.407 217.241C656.935 209.761 655.129 200.293 649.949 194.567C648.467 192.928 646.462 191.613 644.181 191.59C640.132 191.548 636.308 194.813 633.667 197.528C630.758 202.16 629.002 208.196 628.92 213.652C628.776 223.356 634.002 228.303 640.264 234.75C632.404 232.346 626.409 228.151 622.362 220.816C617.349 211.73 617.114 199.762 620.092 189.945C622.702 181.343 627.716 174.974 635.666 170.787Z"/>
	<path fill="#F3EFD9" d="M970.867 395.128C982.962 393.983 996.568 394.868 1008.63 396.596C1008.43 397.009 1008.25 397.346 1007.94 397.688C1004.8 401.11 965.988 416.517 959.919 417.549C948.348 419.518 929.958 417.986 917.401 418.307C892.548 418.944 867.753 420.817 842.934 421.508L842.763 420.795C858.631 417.863 881.447 407.913 896.917 402.252C904.145 399.607 911.46 396.599 919.132 395.541C922.474 395.081 925.967 395.287 929.333 395.373C925.073 399.723 916.501 399.169 912.519 404.202C911.509 405.479 911.542 405.939 911.757 407.436C913.328 409.707 915.06 410.872 917.666 411.777C929.001 415.715 953.258 414.139 964.074 408.678C966.84 407.282 968.997 405.645 970.003 402.597C970.093 400.271 968.481 398.416 967.251 396.563L967.634 395.68L970.867 395.128Z"/>
	<path fill="#F3EFD9" d="M711.449 440.053C712.343 439.916 713.212 439.859 714.116 439.86C719.14 439.868 724.621 440.686 728.249 444.475C732.571 448.989 732.243 454.456 733.554 460.068C734.114 462.462 735.522 464.781 735.466 467.257C739.875 468.226 744.482 468.929 748.416 471.254C750.584 472.534 752.21 473.881 752.887 476.412C752.62 477.68 752.624 478.235 751.578 479.109C747.953 482.133 740.592 480.7 736.325 480.348C736.208 479.956 736.212 479.881 735.943 479.492C732.931 475.135 724.638 470.833 719.53 469.913C711.027 468.382 705.67 474.257 699.354 478.711L698.921 479.433C692.964 482.476 664.041 479.994 657.269 478.232C656.823 473.606 655.977 468.901 658.842 464.833C660.374 462.657 662.661 461.544 665.241 461.178C673.048 460.071 680.236 464.924 686.121 469.397C689.448 467.632 693.698 465.936 696.356 463.254C698.263 461.762 699.28 454.613 700.559 452.048C702.781 447.591 708.096 443.734 711.449 440.053Z"/>
	<path fill="#F3EFD9" d="M422.88 313.927C431.307 317.434 438.789 324.367 446.894 328.728C471.833 342.146 500.63 349.866 528.788 352.506C536.053 353.187 543.363 353.753 550.661 353.799C556.317 353.835 562.34 353.31 567.954 353.957C569.344 354.117 570.715 354.421 571.739 355.441C574.264 357.958 573.585 364.207 573.606 367.575C521.606 373.524 472.476 355.72 428.355 329.658C426.321 324.454 424.437 319.294 422.88 313.927Z"/>
	<path fill="#F3EFD9" d="M416.567 70.3367C421.933 71.8277 426.343 75.1556 430.525 78.7143C437.06 84.2757 462.672 109.433 463.3 117.172L462.49 117.808C456.034 116.997 446.116 107.164 438.753 104.03C445.71 111.759 453.564 118.618 460.556 126.321C450.754 121.33 439.123 111.152 428.698 108.905C432.606 112.888 444.016 119.83 445.73 124.282L445.194 125.122C440.653 125.713 431.351 120.62 426.156 119.264C429.585 123.619 434.467 126.124 438.282 130.085C434.684 128.657 431 127.467 427.331 126.237C428.618 128.372 430.85 129.97 431.309 132.351C430.114 133.38 428.067 131.985 426.475 133.083Q426.728 134.809 426.928 136.541C423.235 141.856 416.406 145.571 412.055 150.724C408.236 123.612 408.833 96.7039 416.567 70.3367Z"/>
	<path fill="#F3EFD9" d="M531.732 174.552C538.593 174.15 544.86 176.393 550.243 180.618C561.941 189.8 564.938 202.872 566.533 216.776C562.634 209.762 560.068 202.325 554.075 196.729C551.026 195.937 548.251 195.233 545.096 195.741C540.875 196.42 537.338 198.682 534.876 202.166C530.425 208.463 530.151 216.97 531.465 224.289C532.879 229.619 537.35 234.332 540.051 239.176C539.455 239.865 539.148 239.858 538.255 240.011C531.101 241.237 521.197 237.142 515.488 233.081C508.262 227.941 502.903 220.671 501.551 211.78Q501.433 211.004 501.353 210.223Q501.274 209.441 501.233 208.657Q501.192 207.873 501.19 207.088Q501.189 206.303 501.226 205.518Q501.263 204.734 501.339 203.952Q501.415 203.171 501.53 202.394Q501.645 201.617 501.798 200.847Q501.952 200.077 502.143 199.316Q502.334 198.554 502.563 197.803Q502.792 197.052 503.058 196.313Q503.324 195.574 503.626 194.849Q503.928 194.125 504.266 193.416Q504.604 192.707 504.976 192.016Q505.349 191.325 505.755 190.653Q506.161 189.981 506.601 189.33Q507.04 188.679 507.511 188.051C513.519 180.02 521.979 175.911 531.732 174.552Z"/>
	<path fill="#F3EFD9" d="M668.475 301.152C669.3 301.775 669.581 302.288 669.928 303.268C674.224 315.435 668.798 350.334 665.133 363.336C662.793 371.64 659.513 379.514 655.6 387.192C648.605 387.828 641.765 388.763 634.793 387.428C633.698 385.241 632.917 382.872 632.065 380.579C628.87 373.089 624.754 365.825 622.236 358.085C625.623 351.232 624.705 345.022 624.149 337.636C630.291 330.984 639.78 326.896 647.286 321.947C655.791 316.339 662.169 309.05 668.475 301.152Z"/>
	<path fill="#F3EFD9" d="M384.08 182.236C386.357 182.413 388.616 182.648 390.821 183.27C398.391 185.403 404.699 191.389 408.49 198.117C414.163 208.187 415.375 221.368 412.237 232.478C409.478 242.25 403.529 248.72 394.81 253.537L377.204 253.58C373.645 248.828 370.723 244.069 368.513 238.542C363.499 226.002 361.837 210.074 367.359 197.423C370.833 189.465 376.203 185.303 384.08 182.236Z"/>
	<path d="M391.232 197.449C392.078 198.189 392.885 199.003 393.382 200.027C397.246 207.983 397.337 224.769 394.654 233.007C393.703 231.657 392.787 230.176 392.12 228.666C388.356 220.132 387.746 205.996 391.232 197.449Z"/>
	<path fill="#F3EFD9" d="M534.765 61.9593C552.383 59.7232 588.077 66.5781 604.931 71.7835C600.998 74.5062 597.065 77.2266 593.592 80.5323C589.422 84.5007 585.693 89.0284 580.972 92.3634C574.296 91.4874 567.695 89.8925 561.02 88.9283C552.398 87.6828 543.874 87.3509 535.183 87.2938C521.827 87.3761 502.881 91.1447 489.812 94.3775C480.996 89.7271 473.048 82.4538 465.122 76.4141C488.006 67.4639 510.35 63.4459 534.765 61.9593Z"/>
	<path fill="#F3EFD9" d="M702.483 486.177C709.796 485.163 724.863 486.679 732.971 486.746C760.557 486.977 788.088 486.589 815.681 487.208C821.86 487.347 832.175 486.501 837.891 488.204C838.039 488.71 838.135 489.077 838.152 489.606C838.387 496.757 832.801 511.319 832.257 520.302C832.062 523.516 832.457 528.445 830 530.926C827.985 532.96 824.484 532.462 821.844 532.426C777.117 531.411 732.199 531.149 687.51 529.276C689.594 519.556 691.72 509.506 695.373 500.235C697.2 495.6 701.424 490.947 702.483 486.177Z"/>
	<path fill="#F3EFD9" d="M1019.39 398.723C1021.27 398.567 1022.55 398.435 1024.28 399.391C1025.18 400.283 1025.57 401.252 1025.89 402.452C1027.9 410.141 1029.66 452.217 1026.37 457.923C1025.78 459.425 1023.35 460.751 1022.03 461.58C1014.16 466.51 985.587 480.287 976.878 482.993C975.015 483.571 972.929 483.979 971.013 483.423C961.684 480.716 969.375 439.06 963.532 428.869L962.766 428.739C953.712 439.878 967.33 475.174 958.858 484.978C958.768 485.082 958.67 485.178 958.576 485.279Q920.844 484.895 883.122 483.916Q885.483 482.966 887.707 481.728C889.557 480.716 891.76 479.333 892.392 477.21C893.018 476.749 893.501 476.281 893.971 475.657C895.259 473.949 895.922 472.35 895.59 470.266C894.157 468.093 891.558 467.199 889.136 466.609C877.521 463.78 861.695 468.461 851.804 474.753C848.367 476.94 845.56 479.949 842.095 482.026C841.965 482.104 841.833 482.178 841.702 482.254C838.031 481.402 833.756 481.635 829.979 481.492C830.452 480.665 830.834 479.807 831.053 478.877C832.899 471.045 833.492 432.641 829.736 426.678C837.991 426.452 846.222 425.635 854.471 425.24Q872.034 424.515 889.612 424.365C908.561 424.121 927.947 425.229 946.824 423.894C953.526 423.42 960.185 422.541 966.649 420.661C978.288 417.275 988.983 411.35 1000.14 406.726C1004.88 404.762 1009.97 403.688 1014.68 401.632C1016.36 400.896 1018.17 400.136 1019.39 398.723Z"/>
	<path d="M990.568 422.689C995.939 421.837 1001.54 421.613 1006.41 424.405C1009.88 426.393 1012.22 429.676 1013.26 433.507C1014.93 439.612 1013.25 446.57 1010.16 451.942C1007.12 457.226 1002.4 461.635 996.449 463.272C996.223 463.528 996.202 463.579 995.875 463.799C993.777 465.216 990.256 466.267 987.715 465.854C984.905 465.398 982.544 463.428 980.911 461.185C977.247 456.15 976.506 448.955 977.423 442.952C978.787 434.025 983.535 427.917 990.568 422.689Z"/>
	<path fill="#F3EFD9" d="M995.675 431.074L997.167 431.183C998.092 432.032 998.259 432.839 998.484 434.055C999.185 437.846 1000.43 450.376 997.967 453.411C997.373 454.143 996.248 453.952 995.34 454.022C990.607 445.387 994.021 440.14 995.606 431.481C995.63 431.345 995.652 431.209 995.675 431.074Z"/>
	<path d="M912.031 435.869C919.952 435.652 934.915 433.911 941.996 436.952C944.517 438.035 946.264 439.958 947.272 442.497C949.581 448.317 948.642 457.689 946.228 463.383C940.723 464.932 919.977 462.314 912.53 462.002Q896.85 461.364 881.157 461.26C872.343 460.977 858.314 462.034 850.216 459.837C842.214 457.666 847.559 444.02 844.225 438.215C844.153 438.089 844.074 437.966 843.999 437.842C866.783 435.097 889.273 437.293 912.031 435.869Z"/>
	<path fill="#F3EFD9" d="M887.959 441.86C891.475 441.398 895.284 441.104 898.831 441.224C900.695 441.287 902.777 441.875 904.034 443.33C905.466 444.988 905.523 447.077 905.341 449.139C905.099 451.873 904.552 453.687 902.382 455.499C898.757 457.679 890.934 456.482 886.761 456.349C889.363 451.921 889.154 446.715 887.959 441.86Z"/>
	<path fill="#F3EFD9" d="M915.635 441.861C918.848 441.678 938.37 441.349 940.049 442.847C941.43 444.079 942.41 445.838 942.509 447.695C942.648 450.299 941.062 453.493 939.197 455.268C937.547 456.837 935.397 456.616 933.28 456.595C925.252 457.181 917.027 456.608 908.983 456.402C909.4 455.724 909.683 454.999 909.946 454.251C911.38 450.171 910.891 446.245 909.068 442.399C911.27 442.303 913.444 442.097 915.635 441.861Z"/>
	<path fill="#F3EFD9" d="M855.579 440.663C863.715 439.939 872.647 440.897 880.824 441.304C882.463 443.076 883.362 446.073 883.551 448.452Q883.58 448.862 883.567 449.274Q883.554 449.685 883.499 450.093Q883.443 450.501 883.347 450.901Q883.25 451.301 883.112 451.688Q882.975 452.076 882.799 452.448Q882.622 452.82 882.409 453.172Q882.195 453.523 881.946 453.851Q881.698 454.179 881.417 454.48C879.754 456.232 877.681 456.231 875.431 456.374Q861.844 456.155 848.257 456.416C851.524 452.584 848.236 446.151 850.952 442.61C852.171 441.021 853.761 441.039 855.579 440.663Z"/>
	<path fill="#F3EFD9" d="M659.551 393.19C707.025 396.077 754.444 396.301 801.979 397.115C816.284 397.359 830.718 396.658 844.995 397.373C848.515 397.549 857.321 397.562 859.858 399.957C859.902 400.513 859.942 401.066 859.948 401.623C860.08 413.332 836.324 414.723 829.593 421.97C821.568 430.612 829.569 448.718 822.731 455.732C818.595 459.606 812.532 461.1 807.083 461.907C792.561 464.762 757.119 460.491 741.566 459.156C741.594 455.681 738.337 448.194 736.372 445.263C731.149 437.47 722.593 435.108 713.89 433.473C710.623 436.935 704.274 437.745 700.712 441.606C696.166 446.534 695.573 455.658 689.91 459.204C685.452 461.996 676.849 456.637 671.997 455.78C664.855 454.518 659.75 457.229 654.151 461.212C649.941 446.445 644.646 431.967 639.971 417.339C647.173 409.825 653.308 401.494 659.551 393.19Z"/>
	<path fill="#F3EFD9" d="M689.893 534.156C706.231 533.423 722.519 534.879 738.84 535.412C768.992 536.397 799.377 537.234 829.54 537.286C829.894 537.637 829.77 537.497 830.156 537.983C836.041 545.402 833.917 587.509 832.64 598.221C830.513 616.068 823.648 637.883 809.002 649.377C808.88 650.174 808.626 650.835 808.202 651.528C803.616 659.016 790.212 665.699 781.826 667.788C766.425 671.625 748.144 668.833 734.578 660.658C711.197 646.57 696.335 618.079 690.045 592.302C686.314 577.016 685.686 562.152 686.13 546.495C686.227 543.073 685.868 537.604 687.722 534.74C688.013 534.292 689.341 534.253 689.893 534.156Z"/>
</svg>
