<?xml version="1.0" encoding="utf-8" ?>
<svg xmlns="http://www.w3.org/2000/svg" xmlns:xlink="http://www.w3.org/1999/xlink" width="1227" height="692">
	<path fill="#F3EFD9" d="M0 0L1225.95 0C1227.39 2.26316 1226.99 5.54227 1227 8.14407L1227 502.045L1227 637.999L1227 673.985C1227 678.964 1227.67 685.068 1226.83 689.91C1226.7 690.664 1226.36 691.359 1225.95 692L0 692L0 0Z"/>
	<path d="M823.099 222.576C826.129 222.159 829.433 223.049 832.156 224.384C836.046 226.293 839.137 229.932 840.436 234.061C841.514 237.49 841.365 241.147 839.596 244.32C837.405 248.248 833.511 250.172 829.335 251.339C829.17 251.357 829.006 251.381 828.841 251.394C825.398 251.661 818.775 248.028 816.258 245.945C814.162 244.21 812.704 242.091 812.56 239.297C812.173 231.813 818.423 227.523 822.893 222.799C822.962 222.725 823.03 222.65 823.099 222.576Z"/>
	<path fill="#F3EFD9" d="M825.476 228.568C827.785 228.287 829.689 228.169 831.841 229.3Q832.168 229.475 832.476 229.682Q832.784 229.888 833.07 230.125Q833.355 230.362 833.616 230.626Q833.876 230.89 834.109 231.179Q834.341 231.468 834.544 231.779Q834.746 232.09 834.916 232.42Q835.086 232.75 835.222 233.095Q835.358 233.44 835.459 233.797C836.161 236.255 835.63 238.998 834.269 241.133C832.598 243.754 830.436 244.855 827.489 245.526C826.8 245.694 826.277 245.801 825.575 245.612C823.274 244.994 821.023 243.76 819.857 241.611C818.725 239.522 818.645 236.513 819.368 234.254C820.365 231.136 822.752 229.932 825.476 228.568Z"/>
	<path d="M224.811 165.374C227.119 165.228 229.569 164.981 231.873 165.2C236.164 165.609 240.631 167.982 243.375 171.303C245.457 173.823 246.612 177.032 246.264 180.312C245.717 185.465 242.163 188.923 238.344 192.023C237.097 192.307 235.827 192.588 234.555 192.728C230.537 193.168 225.968 192.269 222.787 189.688C220.075 187.487 218.507 184.276 218.237 180.811C217.756 174.656 220.964 169.815 224.811 165.374Z"/>
	<path fill="#F3EFD9" d="M231.334 169.534C232.4 169.604 233.535 169.664 234.56 169.982C236.624 170.621 238.517 172.065 239.494 174.01C240.514 176.042 240.45 178.413 239.779 180.537C238.59 184.298 236.185 186.121 232.809 187.88C229.382 186.775 226.099 185.604 224.292 182.243C223.284 180.367 222.993 178.287 223.737 176.252C225.021 172.746 228.149 171.019 231.334 169.534Z"/>
	<path d="M260.049 285.265C261.965 285.168 263.908 285.048 265.826 285.125C270.222 285.303 274.91 287.447 277.878 290.711C280.17 293.231 281.56 296.398 281.324 299.841C280.962 305.111 277.321 308.653 273.564 311.921C272.212 312.33 270.718 312.622 269.309 312.746C265.144 313.115 260.511 312.114 257.332 309.284Q256.854 308.851 256.422 308.372Q255.99 307.893 255.609 307.372Q255.229 306.852 254.902 306.295Q254.576 305.738 254.309 305.152Q254.041 304.565 253.834 303.954Q253.627 303.343 253.483 302.714Q253.339 302.085 253.26 301.445Q253.181 300.805 253.167 300.16C252.997 294.196 256.15 289.462 260.049 285.265Z"/>
	<path fill="#F3EFD9" d="M264.983 289.914C266.361 289.767 267.922 289.729 269.291 290C271.19 290.377 273.062 291.659 274.088 293.296C275.365 295.332 275.475 297.694 274.927 299.975C273.993 303.868 271.662 305.774 268.354 307.743C265.107 307.2 261.635 305.906 259.671 303.125C258.415 301.347 258.062 299.313 258.56 297.199C259.394 293.663 262.095 291.767 264.983 289.914Z"/>
	<path d="M262.731 75.639C269.302 76.0455 273.631 79.5911 278.201 83.9069C279.55 89.7502 280.361 95.0976 277.302 100.637C274.951 104.895 271.197 107.143 266.669 108.508L263.946 108.631C259.89 108.776 256.399 107.735 253.427 104.872C248.641 100.261 248.152 93.364 248.074 87.1306C252.169 81.8055 255.791 76.9233 262.731 75.639Z"/>
	<path fill="#F3EFD9" d="M260.264 79.6925Q262.678 79.6811 265.035 80.1986C268.189 80.9028 270.929 83.3686 272.589 86.0666C274.265 88.7914 274.868 92.0767 274.099 95.1931C273.268 98.5559 271.065 101.034 268.183 102.823C266.518 102.998 264.856 103.168 263.187 102.954Q262.647 102.89 262.117 102.772Q261.587 102.654 261.071 102.483Q260.556 102.311 260.06 102.088Q259.565 101.865 259.095 101.593Q258.625 101.321 258.184 101.002Q257.744 100.684 257.339 100.322Q256.933 99.9607 256.567 99.5598Q256.2 99.1589 255.876 98.7228C253.951 96.182 253.268 92.8704 253.753 89.739C254.4 85.5674 256.932 82.14 260.264 79.6925Z"/>
	<path d="M851.61 45.8323C852.079 45.7862 852.491 45.7454 852.959 45.8073C854.443 46.0037 855.708 47.4819 856.61 48.5761C860.862 53.7362 868.779 72.9681 868.073 79.5819C867.802 82.1191 866.721 84.5061 864.65 86.0762C863.168 87.1997 861.163 87.6958 859.335 87.2882C857.864 86.9601 856.551 86.0534 855.799 84.7363C853.059 79.9407 858.619 74.9693 859.657 70.5551C859.701 70.3485 859.781 70.044 859.781 69.8176C859.776 66.856 856.128 59.8126 854.072 57.6345C852.139 60.6005 844.118 63.8128 840.99 66.8018C842.541 70.3886 844.326 73.8681 845.859 77.4594C847.437 81.1531 848.682 85.6359 847.05 89.5308C846.238 91.4684 844.803 92.9442 842.797 93.6257C840.726 94.329 838.304 94.0753 836.364 93.0962C834.813 92.3136 833.343 90.9647 832.917 89.2192C831.73 84.3427 837.431 81.1611 839.532 77.6036C839.568 77.4182 839.647 77.0833 839.642 76.8731C839.569 73.2611 832.5 58.0294 829.554 55.5817C837.143 53.5427 844.571 49.2577 851.61 45.8323Z"/>
	<path d="M130.004 304.823C134.926 308.897 140.367 312.082 145.334 316.006C147.061 317.37 148.864 319.187 149.033 321.505C149.361 326.019 145.117 330.831 142.413 334.081C138.604 338.658 130.834 350.05 124.723 350.487C122.353 350.657 120.099 349.904 118.316 348.325C116.987 347.148 115.988 345.5 115.955 343.687C115.931 342.38 116.464 341.322 117.418 340.446C120.985 337.174 127.045 337.959 131.474 338.151L136.571 331.689L140.036 327.365Q133.151 323.256 126.056 319.522C121.438 323.668 118.701 330.126 114.031 333.791C112.001 335.385 109.527 336.37 106.908 335.876C104.559 335.433 102.423 333.837 101.137 331.843C100.024 330.118 99.3153 327.866 99.8815 325.829C100.285 324.376 101.332 323.297 102.695 322.695C106.794 320.885 111.566 322.785 115.495 324.161C120.311 317.633 125.542 311.633 130.004 304.823Z"/>
	<path d="M322.377 1.96873L322.78 1.94033C331.174 1.36932 336.194 3.36262 342.545 8.90196C342.849 16.4154 344.105 25.7281 339.639 32.2612C337.076 36.0118 333.284 37.7689 328.932 38.5596C325.733 38.1498 322.692 37.7472 319.735 36.3642C314.97 34.1353 310.971 30.2918 309.187 25.2738C307.658 20.9731 307.699 16.2636 309.684 12.1105C312.23 6.78436 317 3.87862 322.377 1.96873Z"/>
	<path fill="#F3EFD9" d="M323.701 7.30071C327.25 6.91696 331.435 6.60951 334.722 8.31806C337.03 9.5177 338.387 11.2202 339.038 13.7488C340.257 18.4869 339.04 24.4399 336.515 28.5697C334.746 31.4625 332.856 32.2328 329.671 32.9594C325.052 32.3798 321.52 31.2519 317.438 28.9959C316.41 27.3357 315.468 25.6726 314.761 23.847C313.587 20.8175 313.273 17.2007 314.659 14.1789C316.449 10.2772 319.86 8.64793 323.701 7.30071Z"/>
	<path d="M654.113 45.5276C654.807 45.478 655.077 45.6013 655.715 45.8413C658.705 50.1417 660.59 56.2711 661.938 61.3241C666.296 77.6695 666.305 95.408 665.502 112.222C664.693 129.146 662.624 145.254 667.889 161.723C676.677 166.018 683.3 172.629 687.918 181.21C697.229 198.513 697.48 216.892 691.985 235.343Q703.831 231.749 716.05 229.77C727.871 227.906 765.901 224.455 775.837 229.036C768.929 233.546 711.158 228.222 692.136 238.999C689.799 240.324 687.947 242.134 687.336 244.857C686.918 246.714 687.152 248.09 688.068 249.701C689.599 250.437 691.074 250.675 692.757 250.746C698.457 250.987 704.287 250.227 710.019 250.243C726.068 250.287 744.92 251.448 760.404 255.568C763.721 256.451 768.834 257.874 770.59 261.104C770.652 261.219 770.706 261.339 770.764 261.456C760.49 260.231 750.509 257.28 740.256 255.854C730.793 254.538 694.206 250.873 687.588 256.315C686.776 256.983 686.466 258.462 686.38 259.503C686.244 261.152 686.524 262.723 687.876 263.797C693.195 268.018 703.46 269.413 709.975 271.301C720.184 274.258 752.101 284.04 758.054 290.87L757.965 291.607C756.053 292.158 753.522 291.468 751.64 290.96C741.026 288.093 730.951 283.866 720.621 280.181Q703.095 274.093 685.254 269.001C682.53 276.951 679.035 284.174 675.129 291.588C676.51 317.447 677.588 343.025 670.22 368.216C668.245 374.967 664.953 381.228 662.746 387.896Q729.195 391.033 795.714 391.661Q814.243 391.907 832.774 391.889C843.645 391.934 855.25 391.483 865.908 393.799C878.291 388.828 896.521 356.464 906.487 345.43C910.739 340.723 916.813 338.859 921.276 334.479C934.936 321.071 946.929 305.361 959.834 291.169C970.232 279.733 982.135 269.323 991.643 257.14C994.453 253.539 995.954 250.067 997.759 245.932C998.958 243.189 1000.3 240.347 1003.34 239.305C1005.19 238.672 1006.6 238.937 1008.33 239.745C1009.21 240.829 1009.7 241.232 1009.81 242.675C1009.97 244.913 1008.6 246.552 1007.19 248.087C999.631 256.294 990.571 262.898 982.915 271.175Q963.378 292.299 944.715 314.197C937.076 323.143 929.7 332.375 921.852 341.134C922.282 342.818 922.566 344.355 922.192 346.091C920.805 352.519 878.66 399.315 872.47 403.045C886.416 401.266 899.19 394.228 913.021 391.655C922.56 389.881 932.922 389.985 942.602 389.673C964.863 388.957 988.21 388.214 1010.36 390.466C1014.51 390.887 1018.88 391.455 1022.92 392.54C1025.48 393.229 1028 394.32 1030.61 394.809C1033.47 395.347 1036.82 395.269 1039.75 395.367C1064.23 396.188 1182.79 393.753 1196.01 402.77C1176.46 406.922 1147.44 402.548 1127.01 401.671C1113.3 401.082 1099.54 401.637 1085.82 401.19C1067.16 400.582 1048.66 399.046 1029.98 398.851C1030.84 399.637 1031.27 400.481 1031.65 401.566C1035.78 413.363 1036.29 447.467 1030.93 458.286C1025.37 469.499 995.153 481.578 983.42 485.63C991.956 486.061 1000.64 485.361 1009.17 484.939Q1028.3 483.893 1047.45 483.377C1074.28 482.742 1101.03 483.86 1127.85 484.343C1143.43 484.625 1159.49 483.728 1174.97 485.502C1178.61 485.918 1181.66 486.449 1184.77 488.494C1181.28 489.23 1176.95 489.057 1173.35 489.231C1149.08 490.401 1124.63 487.455 1100.33 487.51Q1065.22 487.648 1030.13 488.95C1011.39 489.756 992.738 491.191 973.963 491.374C931.132 491.792 888.495 489.193 845.707 488.154C845.714 488.274 845.727 488.394 845.73 488.514C845.85 492.759 842.491 499.074 841.442 503.456C839.685 510.792 840.112 527.413 835.377 532.677C875.907 534.098 916.475 535.71 957.02 536.58C981.163 537.098 1005.34 537.753 1029.49 537.971C1042.85 538.092 1104.92 536.182 1112.9 539.32L1113.24 540.199C1109.3 543.243 1101.89 543.599 1096.99 543.839C1074.5 544.938 1051.68 542.553 1029.16 542.282Q932.286 541.281 835.483 537.409C841.292 545.273 840.606 577.706 840.206 588.334C839.256 613.574 829.119 641.132 810.332 658.537C797.697 670.242 782.831 675.692 765.605 675.001C745.127 674.179 726.801 665.189 713.01 650.133C693.298 628.612 681.182 597.32 679.697 568.285C679.103 556.664 680.322 544.873 680.861 533.253C650.761 532.643 620.662 531.386 590.556 531.051L493.798 530.882C468.826 530.6 443.84 529.441 418.88 528.593Q376.964 527.462 335.09 525.271C312.801 523.091 288.205 523.088 265.715 523.044C238.299 522.989 210.837 522.747 183.425 523.165C166.972 523.416 150.567 524.442 134.099 524.391C125.403 524.364 116.841 523.204 108.179 522.97C90.4841 522.493 72.1367 525.085 54.9772 519.754C77.5964 515.064 102.099 518.638 124.922 519.949C133.17 520.423 141.593 520.251 149.855 520.148C160.86 520.011 171.857 519.39 182.862 519.213Q230.468 518.596 278.072 519.307C301.79 519.764 325.516 521.199 349.235 521.912C374.623 522.676 400.028 522.745 425.413 523.683C441.518 524.278 457.595 525.601 473.708 526.011C501.288 526.714 528.983 525.838 556.584 526.124C598.272 526.557 639.83 528.047 681.495 529.205C683.472 519.225 685.574 508.816 689.128 499.263C690.412 495.808 694.729 489.45 694.392 486.008C638.656 484.093 582.939 483.393 527.194 482.037Q455.653 479.81 384.094 478.308L192.106 477.055C156.627 476.878 121.3 477.003 85.8347 475.904C79.9901 475.723 71.3038 477.492 65.9025 475.458C64.4243 474.902 63.9491 474.538 63.2475 473.166L64.0201 472.212C74.0292 468.004 106.789 471.414 119.253 472.079C116.27 467.711 113.002 463.156 112.821 457.667C112.652 452.572 114.763 448.006 118.244 444.379C140.72 420.965 225.097 409.877 258.578 409.206C245.789 413.047 232.565 414.362 219.418 416.372C193.284 420.368 166.854 425.13 142.298 435.192C135.295 438.062 126.761 441.535 121.721 447.387C119.26 450.244 117.771 453.709 118.157 457.527C118.8 463.895 123.853 468.292 128.429 472.155C141.744 472.158 155.108 471.913 168.416 472.318C180.817 472.694 194.277 474.681 206.537 472.687C207.39 466.066 208.242 459.163 211.686 453.303C215.285 447.179 221.073 443.705 227.874 442.071C238.126 439.608 244.8 439.348 250.835 448.771C252.313 451.078 253.728 453.552 255.957 455.219C260.615 458.703 267.178 459.563 272.312 462.706C275.552 460.284 278.759 457.939 282.231 455.854C285.128 455.854 288.067 456.114 290.963 456.256C298.169 453.081 302.501 443.215 310.366 442.218C317.02 441.374 325.785 447.049 330.924 450.941C338.681 428.906 346.747 407.325 357.268 386.442C300.06 389.182 242.729 385.348 185.491 385.89Q146.195 386.496 106.913 387.737C89.3637 388.289 71.5594 390.178 54.1125 387.536C69.2671 383.663 92.6594 384.09 108.748 383.403C138.389 382.135 168.174 380.557 197.843 380.518C227.32 380.48 256.801 381.953 286.285 382.225C310.705 382.45 334.858 380.244 359.294 381.893C363.4 374.864 367.768 367.897 371.379 360.599C379.607 343.971 385.53 327.955 398.318 314.065L399.735 302.422C380.999 311.383 363.962 325.294 344.07 331.735C362.629 317.254 382.138 306.006 403.234 295.653C399.511 290.743 396.08 285.62 392.607 280.533C378.173 283.635 363.59 287.422 349.677 292.389C337.726 296.655 326.301 301.968 313.952 305.087C325.053 297.797 335.978 292.625 348.56 288.359C355.281 286.081 386.216 278.605 388.827 276.662C390.002 275.787 390.145 275.3 390.338 273.902C387.899 268.434 379.071 263.105 374.455 259.173C359.222 261.14 343.936 263.115 328.855 266.06C318.979 267.989 309.291 270.703 299.394 272.564C319.947 259.82 347.499 258.256 371.002 255.667C363.054 242.478 357.336 228.944 358.306 213.247C359.401 195.524 368.312 184.904 381.018 173.646Q380.591 171.182 380.237 168.706Q380.105 167.725 379.998 166.742Q379.89 165.758 379.807 164.772Q379.723 163.786 379.664 162.798Q379.605 161.81 379.57 160.821Q379.535 159.833 379.524 158.843Q379.514 157.854 379.527 156.864Q379.541 155.875 379.579 154.886Q379.616 153.897 379.679 152.909Q379.741 151.922 379.827 150.936Q379.913 149.95 380.024 148.967Q380.134 147.984 380.269 147.003Q380.403 146.023 380.562 145.046Q380.72 144.069 380.903 143.097Q381.085 142.124 381.292 141.157Q381.498 140.189 381.728 139.226Q381.958 138.264 382.211 137.307Q382.465 136.351 382.742 135.401Q383.018 134.451 383.319 133.508Q383.619 132.565 383.942 131.63Q384.265 130.694 384.611 129.767Q384.957 128.84 385.325 127.922Q385.694 127.004 386.085 126.095Q386.476 125.186 386.889 124.286Q387.303 123.387 387.738 122.499Q388.173 121.61 388.63 120.732Q389.086 119.854 389.565 118.988Q390.043 118.122 390.542 117.267Q391.042 116.413 391.562 115.571Q392.082 114.73 392.622 113.901Q393.163 113.072 393.724 112.257Q394.285 111.441 394.865 110.64Q395.446 109.839 396.046 109.052C397.904 93.9479 397.157 71.1695 406.691 58.6286C409.045 55.5319 412.217 53.4109 416.123 52.9176C430.652 51.0824 449.107 64.8934 459.994 73.0933C462.957 71.661 465.931 70.2214 468.966 68.9477C512.249 50.7838 567.777 50.2385 611.187 68.0076C616.572 65.3672 621.725 61.9054 626.93 58.9056C635.764 53.8142 644.653 49.3543 654.113 45.5276Z"/>
	<path fill="#F3EFD9" d="M635.79 392.758L651.631 393.046L644.656 402.844L639.008 409.54C638.2 403.878 637.026 398.339 635.79 392.758Z"/>
	<path fill="#F3EFD9" d="M407.299 301.158Q408.782 302.048 410.201 303.038C414.638 306.184 417.386 312.685 418.146 317.914C418.376 319.492 418.423 320.533 417.438 321.82C413.685 319.471 408.325 316.705 406.347 312.596C404.471 308.695 405.936 304.955 407.299 301.158Z"/>
	<path fill="#F3EFD9" d="M395.5 258.498C401.667 258.199 409.293 257.344 415.334 258.442C416.856 258.719 417.588 258.936 418.482 260.238C418.312 260.68 418.262 260.891 418.021 261.268C415.935 264.525 410.173 265.616 406.657 266.406L406.277 266.493C396.676 268.59 389.208 263.783 381.42 258.868L395.5 258.498Z"/>
	<path fill="#F3EFD9" d="M672.133 170.075C674.866 171.42 676.981 173.999 678.762 176.401C688.842 190.001 690.746 209.472 688.39 225.743L687.511 226.219C685.256 224.505 684.915 218.87 684.489 216.079C682.09 200.37 675.364 185.623 672.133 170.075Z"/>
	<path fill="#F3EFD9" d="M393.324 123.884L393.834 124.412C395.393 128.717 395.668 160.704 394.065 165.101C393.225 167.404 388.733 168.55 386.595 169.306C386.354 168.829 386.133 168.352 385.929 167.857C380.827 155.481 388.455 135.371 393.324 123.884Z"/>
	<path fill="#F3EFD9" d="M601.978 245.251C608.19 244.889 614.365 244.812 620.584 244.801C617.73 249.671 614.549 254.366 611.469 259.096C611.887 264.745 611.668 270.039 610.705 275.617C614.574 278.412 620.006 282.001 621.854 286.507C622.24 287.448 622.224 287.419 621.827 288.328C617.632 288.157 611.356 282.815 607.791 280.42C602.278 285.585 596.654 289.678 589.895 293.021C595.106 285.879 600.914 280.247 607.432 274.348C607.477 269.499 607.728 264.684 608.033 259.845C605.404 257.608 602.526 255.403 600.171 252.88C598.532 251.123 597.766 249.837 597.881 247.402C598.889 245.895 600.337 245.687 601.978 245.251Z"/>
	<path fill="#F3EFD9" d="M615.588 341.432L616.431 341.703C617.412 342.697 618.077 343.632 618.461 344.997C618.997 346.898 618.668 348.653 617.675 350.329C611.891 360.091 592.923 363.457 582.614 365.976L581.565 365.817C579.149 362.985 579.43 356.305 579.229 352.689C591.799 351.02 604.161 346.851 615.588 341.432Z"/>
	<path fill="#F3EFD9" d="M572.051 376.544C575.33 377.511 577.767 381.672 580.063 384.164C580.502 382.041 580.647 379.169 582.029 377.463C583.704 377.115 584.554 376.842 586.118 377.823C588.89 379.562 590.726 384.235 591.382 387.279C592.54 392.652 591.455 396.507 588.5 401.022C585.948 403.186 582.016 404.648 578.696 404.866C575.637 405.067 572.652 403.953 570.367 401.928C567.439 399.331 565.721 395.464 565.479 391.582C565.082 385.205 568.004 381.032 572.051 376.544Z"/>
	<path fill="#F3EFD9" d="M414.575 167.324C416.874 167.23 419.084 167.295 421.269 168.105C429.767 171.255 435.557 180.144 439.22 188.058C449.369 209.984 448.599 232.105 440.454 254.389C439.191 255.108 436.425 255.294 434.98 255.263C433.471 254.375 432.938 253.772 432.788 251.926C432.36 246.676 434.965 240.867 436.021 235.745Q436.938 231.179 437.257 226.532Q437.575 221.885 437.289 217.236C436.408 202.855 431.681 190.181 422.585 179.037C419.799 175.623 415.767 171.601 414.575 167.324Z"/>
	<path fill="#F3EFD9" d="M305.725 448.956C309.407 448.637 313.853 448.74 317.469 449.515C320.698 450.208 323.698 451.725 325.505 454.583C329.034 460.165 326.786 467.728 325.461 473.649C315.431 473.355 305.377 473.421 295.343 473.367C291.063 473.744 285.897 474.328 281.727 473.242C279.982 472.787 277.775 472.004 276.902 470.308C276.339 469.213 276.316 468.225 276.756 467.055C277.283 465.655 278.827 464.544 280.119 463.871C285.341 461.153 291.132 462.554 296.396 464.258C298.583 458.263 301.15 453.477 305.725 448.956Z"/>
	<path fill="#F3EFD9" d="M820.475 462.828L822.959 462.873C824.343 463.989 824.845 464.954 825.262 466.697C826.317 471.11 826.069 477.805 823.714 481.776Q809.671 480.649 795.583 480.61C787.681 480.636 779.662 481.156 771.776 480.805C766.074 480.552 762.386 480.343 758.427 476.025C758.825 474.812 759.224 474.148 758.915 472.879C757.95 468.913 754.313 466.118 750.96 464.144C768.885 464.794 786.462 469.927 804.516 468.372C809.475 467.944 817.11 466.827 820.475 462.828Z"/>
	<path fill="#F3EFD9" d="M228.626 446.401C232.645 446.107 238.683 445.634 242.422 447.163C246.676 448.901 246.741 452.568 248.379 456.253C251.303 462.831 259.445 462.528 265.233 464.709C267.165 465.437 268.527 466.365 269.422 468.295C269.473 469.951 269.604 470.753 268.828 472.26C264.597 474.139 258.559 473.526 254.018 473.45C241.332 473.307 228.613 473.599 215.928 473.8C215.05 472.526 214.14 471.228 213.452 469.839Q213.17 469.28 212.945 468.696Q212.72 468.111 212.555 467.507Q212.39 466.903 212.287 466.286Q212.183 465.668 212.142 465.044Q212.101 464.419 212.123 463.793Q212.145 463.167 212.229 462.547Q212.314 461.927 212.46 461.318Q212.606 460.709 212.813 460.118C215.213 453.167 222.45 449.408 228.626 446.401Z"/>
	<path fill="#F3EFD9" d="M397.131 170.818C400.939 170.532 404.492 171.043 407.984 172.604C417.105 176.681 422.569 185.759 426.015 194.749Q426.68 196.522 427.257 198.325Q427.835 200.128 428.322 201.957Q428.81 203.787 429.206 205.638Q429.603 207.489 429.908 209.358Q430.213 211.227 430.426 213.108Q430.639 214.989 430.758 216.879Q430.878 218.768 430.904 220.661Q430.931 222.554 430.864 224.447Q430.797 226.339 430.636 228.225Q430.476 230.112 430.223 231.988Q429.971 233.864 429.626 235.726Q429.28 237.588 428.844 239.43Q428.408 241.272 427.881 243.091Q427.354 244.909 426.739 246.7Q426.123 248.49 425.42 250.248Q424.717 252.006 423.928 253.727Q415.995 253.649 408.063 253.486C409.77 246.459 416.403 242.523 418.746 232.6C421.825 219.56 420.289 205.687 413.096 194.226C406.131 183.128 398.059 179.371 385.728 176.512C389.101 173.777 393.107 172.289 397.131 170.818Z"/>
	<path fill="#F3EFD9" d="M635.669 170.787C640.034 170.598 644.037 171.405 647.849 173.57C654.83 177.535 658.744 184.829 660.76 192.364C664.133 204.972 661.356 214.915 654.987 225.879C655.683 222.933 656.225 219.946 656.426 216.922C656.914 209.55 655.041 200.206 649.951 194.572C648.469 192.933 646.465 191.612 644.184 191.587C640.134 191.544 636.304 194.822 633.665 197.538C630.813 202.101 629.029 208.043 628.925 213.416C628.735 223.259 633.902 228.205 640.285 234.753C632.415 232.362 626.411 228.155 622.362 220.816C617.349 211.73 617.114 199.763 620.092 189.945C622.701 181.345 627.716 174.966 635.669 170.787Z"/>
	<path fill="#F3EFD9" d="M970.867 395.128C982.952 393.984 996.578 394.855 1008.63 396.602C1008.42 397.046 1008.45 397.02 1008.09 397.479C1005.21 401.068 965.45 416.794 959.453 417.6C946.277 419.372 932.178 417.886 918.843 418.234C893.5 418.896 868.251 420.44 842.933 421.517L842.76 420.791C858.571 417.894 881.497 407.895 896.917 402.253C904.145 399.608 911.459 396.599 919.13 395.541C922.473 395.08 925.966 395.287 929.333 395.374C925.375 400.1 916.269 398.764 912.486 404.33C911.533 405.733 911.505 406.571 911.756 408.137C913.288 410.169 915.145 410.915 917.497 411.646C930.248 415.609 952.475 414.82 964.378 408.446C966.566 407.275 968.994 405.518 969.605 402.969C970.228 400.368 968.64 398.451 967.286 396.406L967.559 395.643L970.867 395.128Z"/>
	<path fill="#F3EFD9" d="M711.457 440.053C712.349 439.915 713.216 439.859 714.117 439.861C719.143 439.87 724.622 440.685 728.25 444.475C732.572 448.99 732.243 454.457 733.554 460.071C734.113 462.463 735.521 464.78 735.467 467.255C739.876 468.224 744.483 468.927 748.417 471.25C750.586 472.531 752.216 473.878 752.889 476.412C752.62 477.681 752.622 478.236 751.573 479.109C747.945 482.131 740.596 480.701 736.326 480.35C736.208 479.957 736.212 479.882 735.943 479.493C732.933 475.137 724.632 470.829 719.527 469.912C711.031 468.385 705.667 474.259 699.355 478.71L698.919 479.432C692.965 482.481 664.041 479.991 657.264 478.233C656.82 473.607 655.976 468.899 658.841 464.832C660.374 462.656 662.661 461.543 665.241 461.178C673.049 460.073 680.235 464.924 686.121 469.397C689.447 467.631 693.698 465.934 696.354 463.251C698.26 461.772 699.278 454.604 700.558 452.047C702.783 447.601 708.092 443.713 711.457 440.053Z"/>
	<path fill="#F3EFD9" d="M422.876 313.913C431.137 317.393 438.328 324.084 446.201 328.433C470.508 341.86 498.855 349.179 526.333 352.245C535.035 353.215 543.871 353.89 552.628 353.923C557.336 353.941 562.505 353.177 567.154 353.742C568.626 353.921 570.17 354.372 571.266 355.414C574.393 358.385 573.639 363.637 573.607 367.576C521.572 373.516 472.517 355.713 428.358 329.667C426.326 324.455 424.424 319.29 422.876 313.913Z"/>
	<path fill="#F3EFD9" d="M416.569 70.3367C421.935 71.8316 426.343 75.1524 430.526 78.713C437.06 84.2751 462.673 109.435 463.3 117.172L462.49 117.808C456.03 116.996 446.122 107.166 438.756 104.032C445.725 111.78 453.592 118.661 460.616 126.366C452.997 122.507 436.276 109.633 428.903 109.125C433.716 113.928 443.403 119.121 446.421 124.652L445.849 125.226C439.726 125.547 432.21 120.87 426.158 119.264C429.583 123.647 434.52 126.102 438.307 130.107C434.677 128.651 430.975 127.459 427.256 126.257L431.62 132.073C430.104 133.093 428.412 131.822 426.909 133.07L427.38 136.058C422.719 141.352 416.58 145.197 412.055 150.723C408.236 123.617 408.826 96.6965 416.569 70.3367Z"/>
	<path fill="#F3EFD9" d="M531.755 174.551C538.595 174.047 545.153 176.525 550.449 180.784C561.998 190.072 564.951 202.887 566.537 216.785C562.682 209.786 560.048 202.28 554.075 196.729C551.028 195.938 548.25 195.231 545.096 195.74C540.877 196.421 537.339 198.684 534.877 202.167C530.424 208.464 530.151 216.971 531.465 224.29C532.888 229.65 537.369 234.308 540.043 239.202C539.453 239.792 539.384 239.906 538.552 240.043C531.019 241.281 520.946 237.016 514.996 232.671C507.99 227.555 502.851 220.49 501.528 211.795Q501.409 211.018 501.329 210.235Q501.249 209.453 501.208 208.668Q501.167 207.882 501.165 207.096Q501.163 206.31 501.2 205.524Q501.238 204.739 501.314 203.956Q501.39 203.173 501.506 202.396Q501.621 201.618 501.775 200.846Q501.929 200.075 502.121 199.313Q502.313 198.55 502.543 197.798Q502.773 197.046 503.04 196.307Q503.307 195.567 503.611 194.841Q503.914 194.116 504.254 193.407Q504.593 192.697 504.967 192.006Q505.342 191.314 505.75 190.642Q506.158 189.97 506.6 189.319Q507.041 188.668 507.514 188.04C513.535 180.03 522.007 175.908 531.755 174.551Z"/>
	<path fill="#F3EFD9" d="M668.469 301.148C669.3 301.77 669.581 302.282 669.929 303.266C674.225 315.443 668.8 350.327 665.133 363.336C662.793 371.638 659.512 379.51 655.604 387.187C648.606 387.827 641.769 388.761 634.793 387.433C633.702 385.241 632.917 382.873 632.064 380.578C628.855 373.099 624.753 365.819 622.237 358.084C625.614 351.219 624.706 345.031 624.148 337.636C630.29 330.982 639.78 326.896 647.286 321.946C655.79 316.338 662.168 309.05 668.469 301.148Z"/>
	<path fill="#F3EFD9" d="M383.741 182.258C386.061 182.413 388.38 182.576 390.628 183.203C398.332 185.353 404.642 191.262 408.494 198.122C414.151 208.2 415.364 221.363 412.234 232.475C409.48 242.251 403.552 248.725 394.818 253.528L377.217 253.58C374.205 249.61 371.624 245.611 369.572 241.057C363.842 228.344 361.654 212.08 366.803 198.818C370.138 190.229 375.55 185.789 383.741 182.258Z"/>
	<path d="M391.232 197.451C392.078 198.193 392.884 199.01 393.382 200.034C397.248 207.987 397.335 224.772 394.654 233.007C393.703 231.657 392.786 230.176 392.12 228.666C388.365 220.138 387.739 206.001 391.232 197.451Z"/>
	<path fill="#F3EFD9" d="M534.765 61.9592C552.402 59.722 588.072 66.5822 604.948 71.784C601.15 74.4045 597.34 77.0226 593.963 80.1815C589.633 84.232 585.839 88.934 580.969 92.3609C574.494 91.5151 568.085 89.9763 561.616 89.0159C552.798 87.7068 544.081 87.3522 535.188 87.2938C521.837 87.3753 502.88 91.1447 489.814 94.3771C480.999 89.7594 473.038 82.4468 465.125 76.4129C488.006 67.4631 510.353 63.4428 534.765 61.9592Z"/>
	<path fill="#F3EFD9" d="M702.477 486.177C711.374 485.15 721.605 486.614 730.646 486.694C743.344 486.807 832.952 485.855 837.803 488.336C837.939 488.733 838.053 489.125 838.113 489.542C838.21 490.221 832.968 516.228 832.364 520.963C832.054 523.391 831.85 529.212 830.331 530.908C828.583 532.857 824.275 532.429 821.844 532.426C777.117 531.412 732.197 531.151 687.508 529.275C689.578 519.564 691.672 509.264 695.445 500.052C697.302 495.519 701.444 490.867 702.477 486.177Z"/>
	<path fill="#F3EFD9" d="M1019.39 398.723C1020.99 398.626 1022.61 398.355 1024.04 399.227C1025.11 399.88 1025.59 401.305 1025.89 402.453C1027.9 410.154 1029.66 452.207 1026.37 457.932C1026.32 458.042 1026.29 458.159 1026.24 458.263C1023.99 462.319 982.707 481.178 976.586 482.978C974.09 483.712 970.986 484.315 968.593 482.99C963.786 475.053 966.819 448.037 965.749 436.948C965.514 434.513 964.843 430.861 962.936 429.268C954.236 435.248 966.68 475.614 958.868 484.95C958.775 485.062 958.674 485.169 958.577 485.278Q920.844 484.893 883.121 483.916Q885.482 482.967 887.706 481.728C889.553 480.716 891.759 479.33 892.388 477.21C893.657 476.11 894.476 475.353 895.048 473.702C895.485 472.445 894.814 470.574 894.2 469.474C893.185 467.658 891.357 466.701 889.405 466.203C880.044 463.813 860.012 469.033 851.882 474.232C848.368 476.478 845.765 479.989 842.094 482.049C841.962 482.124 841.828 482.195 841.694 482.268C837.976 481.43 833.786 481.629 829.977 481.492C830.468 480.564 830.897 479.607 831.13 478.579C832.903 470.738 833.458 432.582 829.735 426.678C845.523 426.247 861.249 424.855 877.075 424.562C898.571 424.164 920.165 424.876 941.633 424.158C949.453 423.896 957.397 423.139 964.977 421.125C977.256 417.863 988.462 411.566 1000.14 406.725C1005.09 404.676 1010.41 403.581 1015.29 401.363C1016.84 400.656 1018.21 399.987 1019.39 398.723Z"/>
	<path d="M990.567 422.689C995.937 421.837 1001.55 421.618 1006.41 424.407C1009.88 426.393 1012.22 429.676 1013.27 433.507C1014.93 439.612 1013.25 446.569 1010.16 451.94C1007.11 457.228 1002.4 461.626 996.449 463.272C996.223 463.528 996.201 463.579 995.875 463.799C993.777 465.215 990.255 466.267 987.714 465.853C984.905 465.396 982.545 463.427 980.913 461.185C977.247 456.149 976.507 448.956 977.423 442.952C978.786 434.021 983.535 427.922 990.567 422.689Z"/>
	<path fill="#F3EFD9" d="M995.665 431.074L997.166 431.181C998.092 432.032 998.26 432.837 998.485 434.055C999.185 437.846 1000.43 450.374 997.964 453.409C997.37 454.141 996.248 453.951 995.34 454.022C990.622 445.406 994.052 440.117 995.597 431.481C995.621 431.345 995.642 431.209 995.665 431.074Z"/>
	<path d="M912.047 435.869C920.093 435.648 934.29 433.971 941.617 436.797C944.322 437.841 946.195 439.808 947.271 442.486C949.63 448.354 948.609 457.68 946.226 463.383C940.59 464.947 920.126 462.317 912.529 461.999Q896.849 461.365 881.157 461.261C872.344 460.979 858.314 462.033 850.215 459.837C842.215 457.669 847.559 444.017 844.225 438.215C844.153 438.089 844.074 437.966 843.998 437.841C866.788 435.098 889.283 437.289 912.047 435.869Z"/>
	<path fill="#F3EFD9" d="M887.959 441.86C891.475 441.398 895.283 441.104 898.83 441.224C900.694 441.288 902.777 441.876 904.035 443.329C905.472 444.988 905.527 447.079 905.344 449.143C905.101 451.879 904.555 453.686 902.382 455.497C898.806 457.648 890.97 456.476 886.759 456.351C889.364 451.922 889.155 446.717 887.959 441.86Z"/>
	<path fill="#F3EFD9" d="M915.643 441.861C921.588 441.722 935.713 439.947 940.467 443.777C941.704 444.773 942.34 446.318 942.38 447.886C942.445 450.454 941.138 453.559 939.443 455.446C937.581 456.652 935.423 456.519 933.28 456.595C925.251 457.181 917.024 456.607 908.978 456.401C909.397 455.723 909.679 454.998 909.942 454.249C911.375 450.16 910.885 446.242 909.061 442.386C911.269 442.299 913.446 442.096 915.643 441.861Z"/>
	<path fill="#F3EFD9" d="M855.579 440.663C863.715 439.939 872.647 440.897 880.824 441.304C882.464 443.077 883.361 446.073 883.551 448.451Q883.58 448.862 883.567 449.273Q883.554 449.684 883.499 450.092Q883.443 450.5 883.347 450.9Q883.25 451.3 883.113 451.688Q882.975 452.076 882.799 452.448Q882.622 452.82 882.409 453.172Q882.195 453.524 881.947 453.852Q881.698 454.18 881.417 454.481C879.754 456.234 877.681 456.231 875.43 456.373Q861.843 456.157 848.257 456.416C851.524 452.584 848.236 446.151 850.952 442.61C852.171 441.021 853.761 441.039 855.579 440.663Z"/>
	<path fill="#F3EFD9" d="M659.551 393.193C707.806 396.116 756.124 396.341 804.449 397.154C817.589 397.376 830.786 396.781 843.912 397.329C847.163 397.465 857.18 397.521 859.548 399.589C860.13 400.097 859.988 400.525 860.003 401.235C860.259 413.507 836.552 414.519 829.603 421.967C821.556 430.59 829.574 448.718 822.731 455.731C818.608 459.613 812.525 461.1 807.083 461.907C792.43 464.79 757.354 460.499 741.563 459.162C741.597 455.686 738.339 448.195 736.373 445.264C731.149 437.475 722.599 435.111 713.897 433.479C710.612 436.942 704.281 437.737 700.713 441.61C696.211 446.497 695.612 455.388 690.155 459.051C685.603 462.107 676.978 456.661 671.997 455.782C664.853 454.522 659.75 457.231 654.149 461.214C649.945 446.447 644.647 431.969 639.972 417.342C647.164 409.816 653.305 401.497 659.551 393.193Z"/>
	<path d="M725.212 403.512C729.058 403.065 732.948 402.639 736.645 404.058C740.953 405.712 744.679 408.753 746.515 413.066C747.703 415.857 747.951 419.012 746.761 421.844C745.45 424.962 741.944 428.454 738.823 429.671C738.503 429.955 738.254 430.192 737.839 430.333C733.511 431.809 729.034 430.323 725.193 428.299C722.439 426.847 720.032 424.92 719.124 421.816C717.206 415.262 722.333 409.105 725.079 403.778C725.124 403.69 725.168 403.601 725.212 403.512Z"/>
	<path fill="#F3EFD9" d="M729.841 408.305C732.088 407.867 734.154 407.392 736.352 408.346C738.4 409.235 739.871 410.817 740.693 412.873C741.577 415.083 741.467 417.555 740.529 419.728C739.354 422.449 737.386 423.993 734.711 425.094C734.276 425.261 733.994 425.377 733.521 425.378C731.243 425.382 727.798 424.271 726.362 422.513C724.901 420.724 724.611 418.521 724.763 416.295C725.021 412.519 727.179 410.691 729.841 408.305Z"/>
	<path fill="#F3EFD9" d="M689.893 534.156C706.378 533.417 722.808 534.911 739.277 535.427C769.296 536.366 799.521 537.225 829.549 537.289C829.852 537.588 829.882 537.599 830.123 537.898C836.038 545.241 833.91 587.587 832.642 598.222C830.515 616.073 823.648 637.878 809.002 649.377C808.923 650.304 808.689 650.803 808.147 651.577C802.172 660.127 788.672 666.674 778.527 668.499Q776.989 668.771 775.44 668.969Q773.891 669.166 772.334 669.288Q770.777 669.41 769.217 669.457Q767.656 669.504 766.094 669.475Q764.533 669.447 762.975 669.343Q761.417 669.239 759.866 669.059Q758.314 668.88 756.774 668.626Q755.233 668.372 753.706 668.043Q752.179 667.715 750.67 667.313Q749.161 666.911 747.673 666.437Q746.186 665.963 744.723 665.417Q743.259 664.872 741.824 664.256Q740.389 663.64 738.985 662.956Q737.582 662.272 736.213 661.52Q734.844 660.769 733.513 659.952Q732.182 659.135 730.892 658.255C707.125 641.757 692.951 610.67 688.068 582.925C686.596 574.566 683.6 540.678 687.916 534.496L689.893 534.156Z"/>
</svg>
