<?xml version="1.0" encoding="utf-8" ?>
<svg xmlns="http://www.w3.org/2000/svg" xmlns:xlink="http://www.w3.org/1999/xlink" width="1227" height="692">
	<path fill="#F3EFD9" d="M0 0L1225.95 0C1227.39 2.26316 1226.99 5.54227 1227 8.14407L1227 502.045L1227 637.999L1227 673.985C1227 678.964 1227.67 685.068 1226.83 689.91C1226.7 690.664 1226.36 691.359 1225.95 692L0 692L0 0Z"/>
	<path d="M876.976 150.68C880.178 150.083 883.994 151.181 886.804 152.728C890.577 154.805 893.462 158.532 894.609 162.678C895.514 165.953 895.226 169.487 893.53 172.462C891.346 176.294 887.403 178.242 883.288 179.328C883.121 179.371 882.959 179.454 882.786 179.458C879.468 179.532 874.035 177.142 871.59 174.919C868.886 172.459 866.937 169.05 866.852 165.33C866.692 158.347 872.592 155.302 876.774 150.897C876.842 150.825 876.909 150.752 876.976 150.68Z"/>
	<path fill="#F3EFD9" d="M879.104 156.672C881.697 156.361 883.761 156.089 886.11 157.491C887.846 158.526 889.037 160.185 889.521 162.141C890.121 164.563 889.567 167.182 888.201 169.247C886.512 171.801 884.342 172.928 881.415 173.531C880.887 173.647 880.367 173.783 879.819 173.707C877.623 173.403 875.068 171.618 873.961 169.737C872.771 167.716 872.579 164.905 873.21 162.651C874.109 159.439 876.379 158.172 879.104 156.672Z"/>
	<path d="M283.1 206.197C285.112 206.109 287.188 205.98 289.199 206.11C293.62 206.394 298.364 208.821 301.239 212.186C303.422 214.742 304.704 217.938 304.343 221.328C303.809 226.344 300.203 229.941 296.462 232.936C294.924 233.382 293.185 233.702 291.587 233.762C287.477 233.918 283.195 232.918 280.116 230.061Q279.657 229.629 279.244 229.153Q278.83 228.677 278.467 228.163Q278.103 227.648 277.792 227.1Q277.481 226.551 277.227 225.975Q276.972 225.398 276.777 224.799Q276.581 224.2 276.446 223.584Q276.311 222.968 276.238 222.342Q276.165 221.716 276.155 221.086C276.038 215.129 279.174 210.377 283.1 206.197Z"/>
	<path fill="#F3EFD9" d="M287.941 210.93C289.006 210.845 290.107 210.746 291.175 210.822C293.315 210.974 295.604 212.166 296.876 213.903C298.24 215.764 298.437 218.065 298.065 220.272C297.407 224.174 295.204 226.238 292.13 228.47C291.447 228.49 290.764 228.486 290.086 228.397C287.498 228.056 284.472 226.794 282.9 224.638C281.57 222.813 281.261 220.336 281.746 218.161C282.562 214.501 284.967 212.856 287.941 210.93Z"/>
	<path d="M785.179 334.614C788.583 333.914 792.771 333.675 796.083 334.85C800.452 336.4 804.314 339.401 806.272 343.684C807.523 346.419 808.039 349.933 806.834 352.775C805.493 355.937 801.975 359.548 798.756 360.714C798.191 361.166 798.364 361.117 797.731 361.319C793.502 362.668 787.954 361.177 784.185 359.098C781.833 357.8 780.167 355.941 779.488 353.3C777.657 346.178 781.727 340.345 785.179 334.614Z"/>
	<path fill="#F3EFD9" d="M791.387 338.808C793.802 338.55 795.967 338.722 797.985 340.177C799.82 341.501 800.877 343.613 801.155 345.824Q801.212 346.308 801.22 346.795Q801.229 347.283 801.189 347.768Q801.15 348.254 801.062 348.733Q800.975 349.213 800.84 349.681Q800.706 350.15 800.526 350.602Q800.345 351.055 800.121 351.488Q799.897 351.921 799.632 352.329Q799.366 352.738 799.061 353.118C797.307 355.305 795.401 356.166 792.672 356.503C789.749 355.43 787.111 354.358 785.403 351.603C784.367 349.931 783.947 347.927 784.509 346.018C785.561 342.442 788.349 340.618 791.387 338.808Z"/>
	<path d="M174.051 115.182C175.652 115.106 177.259 115.035 178.862 115.05C183.639 115.094 188.513 117.139 191.793 120.645C194.167 123.183 195.533 126.403 195.31 129.906C194.976 135.182 191.227 138.801 187.446 142.021C186.214 142.326 184.896 142.557 183.634 142.681C179.379 143.102 174.686 142.173 171.398 139.315Q170.937 138.908 170.518 138.458Q170.099 138.008 169.727 137.519Q169.354 137.03 169.031 136.507Q168.708 135.984 168.438 135.432Q168.168 134.88 167.953 134.304Q167.739 133.728 167.582 133.134Q167.424 132.539 167.326 131.932Q167.228 131.326 167.19 130.712C166.775 124.485 170.069 119.598 174.051 115.182Z"/>
	<path fill="#F3EFD9" d="M179.314 119.816C180.452 119.755 181.676 119.662 182.803 119.857C184.861 120.214 186.954 121.493 188.098 123.259C189.36 125.21 189.462 127.551 188.965 129.757C188.071 133.731 185.719 135.634 182.416 137.724C179.19 137.226 175.597 135.975 173.675 133.174C172.412 131.333 172.182 129.312 172.67 127.18C173.51 123.509 176.293 121.666 179.314 119.816Z"/>
	<path d="M296.598 48.055C297.896 47.9535 299.2 47.8627 300.503 47.8548C306.528 47.8185 311.256 52.1674 315.303 56.0971C316.401 61.0398 317.161 65.5225 315.342 70.4287C313.568 75.2111 309.744 78.1393 305.224 80.1419C303.677 80.4075 302.124 80.654 300.552 80.6999C296.838 80.8083 293.223 79.6053 290.526 76.9854C285.642 72.2423 285.148 65.3726 285.149 58.9868C288.591 54.7502 291.747 50.7753 296.598 48.055Z"/>
	<path fill="#F3EFD9" d="M296.194 52.1714Q298.199 51.8911 300.221 51.9799C303.331 52.1173 306.15 53.712 308.204 55.9997Q308.624 56.4676 308.993 56.9759Q309.363 57.4843 309.678 58.0277Q309.994 58.5711 310.252 59.144Q310.511 59.7168 310.709 60.3131Q310.908 60.9094 311.044 61.5228Q311.181 62.1362 311.254 62.7604Q311.327 63.3846 311.336 64.013Q311.345 64.6414 311.29 65.2674C310.955 69.225 308.929 71.972 306.019 74.5024C305.451 74.6209 304.909 74.7172 304.333 74.7877C300.768 75.2242 297.307 74.9592 294.436 72.5769C292.127 70.6617 290.95 67.8993 290.768 64.9362C290.449 59.7161 292.836 55.8942 296.194 52.1714Z"/>
	<path d="M883.933 3.29399C884.08 3.29513 884.226 3.29246 884.373 3.29743C886.561 3.37168 905.746 10.6224 907.08 12.1141C907.283 12.4818 907.319 12.5151 907.459 12.8676C909.878 18.9744 902.027 33.2509 899.405 38.9573C897.786 42.4779 895.998 46.8947 892.042 48.2692C889.67 49.0935 887.083 48.9546 884.853 47.765C883.08 46.8199 882.31 45.6649 881.682 43.8038C881.682 42.6082 881.77 41.6485 882.459 40.6305C885.129 36.6838 890.026 35.7721 894.35 34.8123C894.641 34.528 894.928 34.239 895.181 33.9197C896.255 32.5698 896.671 31.1561 896.441 29.4642C896.75 29.1718 896.721 29.2138 897.046 28.819C898.605 26.9226 899.65 24.2607 899.322 21.8093C895.444 19.6795 888.427 18.8163 884.016 18.2357C883.985 20.1117 877.849 34.3652 876.669 35.8249C875.183 37.6637 873.183 39.0169 870.767 39.1922C868.316 39.3702 865.831 38.3132 864.045 36.6704C862.536 35.2834 861.4 33.2523 861.459 31.1619C861.495 29.84 862.023 28.586 862.995 27.6812C866.077 24.8131 871.496 25.4442 875.387 25.5353C878.836 18.9166 882.927 10.7413 883.933 3.29399Z"/>
	<path d="M164.469 224.059C170.105 226.365 175.797 227.656 181.483 229.649C183.9 230.496 186.449 231.722 187.503 234.23C189.643 239.319 184.908 248.776 182.971 253.565C180.746 259.065 177.976 266.825 172.032 269.228C170.022 270.04 167.663 270.293 165.649 269.344C164.279 268.698 163.36 267.647 162.947 266.187C162.501 264.612 162.812 263.058 163.651 261.671C166.256 257.362 171.297 256.543 175.784 255.43L178.019 249.539L180.794 242.43C175.521 241.432 170.332 240.159 165.024 239.303C164.961 239.413 164.896 239.522 164.835 239.632C161.693 245.286 161.152 253.24 156.7 257.859C155.061 259.56 152.89 260.603 150.501 260.583C148.171 260.564 146.006 259.517 144.374 257.895C143.035 256.563 142.07 254.701 142.157 252.772C142.216 251.451 142.851 250.256 143.825 249.379C147.222 246.322 152.139 246.817 156.368 246.857C158.766 239.176 162.093 231.802 164.469 224.059Z"/>
	<path d="M654.113 45.5275C654.808 45.4779 655.077 45.6012 655.715 45.8413C658.705 50.1413 660.59 56.2719 661.937 61.3249C666.295 77.6714 666.305 95.4072 665.502 112.222C664.693 129.146 662.624 145.254 667.889 161.723C676.677 166.019 683.299 172.629 687.917 181.21C697.229 198.513 697.481 216.893 691.985 235.342Q703.831 231.75 716.05 229.77C727.871 227.906 765.901 224.455 775.837 229.036C770.782 232.336 746.949 231.031 739.436 231.249C729.078 231.55 696.073 233.317 689.067 241.396C687.279 243.457 687.074 245.686 687.268 248.258C688.178 249.832 688.569 250.321 690.512 250.625C696.362 251.54 703.294 250.234 709.298 250.229C724.594 250.219 747.277 251.476 761.663 255.888C764.523 256.765 769.178 258.28 770.621 261.139C770.673 261.243 770.716 261.35 770.764 261.455C762.839 260.509 755.112 258.46 747.271 257.02C734.735 254.717 721.235 253.342 708.48 253.405C703.759 253.428 690.362 253.354 686.915 256.845C686.416 258.688 686.101 260.037 686.445 261.973C687.529 263.984 688.852 264.702 690.871 265.552C697.823 268.481 705.615 269.917 712.835 272.141C724.27 275.664 735.644 279.843 746.766 284.256C749.948 285.518 755.78 287.5 757.201 290.784L756.561 291.496C754.007 292.015 750.95 290.974 748.484 290.255C739.166 287.538 730.172 283.565 721.037 280.286C709.29 276.07 697.251 272.436 685.253 269.001C682.531 276.954 679.032 284.179 675.125 291.596C676.513 317.42 677.631 343.11 670.206 368.25C668.215 374.992 664.959 381.25 662.732 387.904Q729.187 391.03 795.713 391.661Q814.243 391.907 832.774 391.889C843.654 391.934 855.239 391.498 865.909 393.797C878.008 388.996 895.872 357.455 905.752 346.426C910.928 340.646 917.869 337.932 923.226 332.373C935.337 319.803 946.404 306.094 958.113 293.132C967.899 282.297 978.397 272.147 988.144 261.273C990.124 259.063 992.449 256.684 993.975 254.132C996.48 249.945 998.15 241.409 1002.97 239.359C1004.96 238.512 1006.88 239.049 1008.8 239.798C1009.45 240.567 1009.98 240.908 1010.02 241.954C1010.3 248.835 996.103 257.932 991.187 262.377C984.627 268.308 978.827 275.559 972.91 282.134C955.503 301.479 939.188 321.77 921.851 341.133C922.282 342.818 922.566 344.353 922.191 346.09C920.791 352.577 878.594 399.352 872.453 403.056C886.381 401.367 899.204 394.225 913.021 391.655C922.56 389.881 932.922 389.985 942.602 389.673C964.862 388.957 988.213 388.212 1010.37 390.464C1014.51 390.885 1018.88 391.454 1022.92 392.54C1025.48 393.23 1028 394.322 1030.61 394.81C1033.47 395.347 1036.82 395.268 1039.75 395.367C1064.23 396.19 1182.79 393.752 1196.01 402.77C1176.45 406.92 1147.45 402.548 1127.01 401.671C1113.3 401.082 1099.54 401.637 1085.82 401.19C1067.16 400.582 1048.66 399.046 1029.98 398.85C1030.84 399.637 1031.27 400.481 1031.65 401.566C1035.78 413.363 1036.29 447.467 1030.93 458.286C1025.37 469.502 995.177 481.563 983.443 485.625C992.115 486.072 1000.95 485.346 1009.61 484.918Q1028.53 483.886 1047.47 483.376C1074.08 482.747 1100.61 483.845 1127.21 484.332C1142.87 484.618 1158.95 483.76 1174.51 485.45C1178.29 485.861 1181.53 486.366 1184.77 488.494C1181.28 489.23 1176.95 489.057 1173.35 489.231C1149.08 490.401 1124.63 487.458 1100.32 487.51Q1065.21 487.648 1030.12 488.95C1011.43 489.754 992.828 491.188 974.104 491.373C931.225 491.797 888.543 489.193 845.707 488.151C845.715 488.271 845.727 488.391 845.731 488.511C845.849 492.76 842.492 499.071 841.442 503.456C839.685 510.79 840.111 527.415 835.378 532.676C904.211 535.074 973.238 538 1042.11 538.025C1052.72 538.029 1107.1 536.166 1113.29 539.27L1113.27 540.125C1107.99 543.414 1101.68 543.586 1095.64 543.868C1073.63 544.893 1051.29 542.531 1029.23 542.269Q932.321 541.25 835.483 537.409C841.29 545.27 840.651 578.222 840.185 588.849C839.079 614.088 828.916 641.514 810.016 658.828C797.329 670.45 782.401 675.769 765.205 674.985C744.824 674.055 726.574 665.034 712.89 649.999C693.261 628.431 681.181 597.313 679.697 568.285C679.102 556.664 680.322 544.873 680.861 533.253C650.761 532.643 620.662 531.386 590.556 531.051L493.798 530.882C468.826 530.6 443.84 529.441 418.88 528.593Q376.964 527.462 335.09 525.271C312.801 523.091 288.205 523.088 265.715 523.044C238.299 522.989 210.837 522.747 183.425 523.165C166.972 523.416 150.567 524.441 134.099 524.391C125.403 524.364 116.841 523.204 108.179 522.97C90.4843 522.493 72.1366 525.085 54.9775 519.754C77.5968 515.065 102.098 518.637 124.921 519.949C133.163 520.423 141.58 520.252 149.835 520.149C160.944 520.011 172.044 519.386 183.152 519.207Q230.613 518.599 278.072 519.307C301.79 519.764 325.516 521.199 349.235 521.912C374.623 522.675 400.028 522.745 425.413 523.683C441.518 524.278 457.595 525.601 473.708 526.011C501.288 526.714 528.983 525.838 556.584 526.124C598.272 526.557 639.83 528.047 681.495 529.204C682.989 520.971 684.951 512.526 687.511 504.561C688.769 500.647 694.605 488.699 694.386 486.007Q384.357 476.698 74.1891 476.072C70.9245 476.077 64.9715 476.157 62.6153 473.806L63.453 472.779C74.0076 467.917 106.102 471.377 119.253 472.079C116.27 467.71 113.002 463.157 112.821 457.667C112.652 452.572 114.763 448.006 118.244 444.379C140.717 420.969 225.055 409.878 258.578 409.206C245.788 413.048 232.565 414.361 219.418 416.372C193.283 420.369 166.855 425.13 142.298 435.192C135.295 438.062 126.761 441.535 121.721 447.387C119.26 450.244 117.772 453.709 118.157 457.527C118.8 463.895 123.852 468.292 128.428 472.155C141.595 472.159 154.805 471.925 167.965 472.304C180.515 472.666 194.133 474.704 206.537 472.687C207.389 466.066 208.241 459.162 211.686 453.303C215.285 447.179 221.073 443.705 227.874 442.071C238.131 439.607 244.791 439.351 250.834 448.772C252.313 451.078 253.73 453.55 255.959 455.218C260.615 458.703 267.178 459.562 272.311 462.707C275.553 460.283 278.76 457.938 282.236 455.855C285.133 455.855 288.072 456.114 290.967 456.254C298.176 453.078 302.494 443.222 310.366 442.219C317.027 441.37 325.791 447.052 330.929 450.953C338.658 428.909 346.745 407.321 357.271 386.442C300.063 389.182 242.73 385.349 185.491 385.889Q146.195 386.495 106.913 387.737C89.3645 388.289 71.559 390.179 54.1132 387.536C69.2682 383.663 92.6591 384.09 108.748 383.402C138.389 382.135 168.174 380.557 197.843 380.518C227.32 380.48 256.801 381.952 286.285 382.224C310.705 382.449 334.86 380.248 359.297 381.891C363.399 374.861 367.767 367.896 371.378 360.6C379.608 343.971 385.532 327.958 398.317 314.064L399.735 302.421C381.002 311.389 363.96 325.291 344.07 331.736C362.621 317.25 382.15 306.005 403.243 295.648C399.509 290.747 396.081 285.622 392.607 280.534C378.171 283.634 363.591 287.422 349.677 292.389C337.726 296.655 326.301 301.967 313.953 305.087C324.994 297.839 335.889 292.666 348.392 288.413C355.202 286.097 386.165 278.633 388.825 276.646C390 275.769 390.136 275.3 390.337 273.901C387.912 268.454 379.053 263.073 374.45 259.174C359.218 261.141 343.934 263.116 328.855 266.06C318.973 267.988 309.278 270.701 299.377 272.571C319.955 259.82 347.476 258.264 371.002 255.667C363.054 242.478 357.335 228.943 358.306 213.247C359.398 195.573 368.392 184.866 381.015 173.642Q380.602 171.215 380.249 168.779C377.196 147.615 383.311 126.097 396.046 109.052C397.905 93.9479 397.157 71.1699 406.691 58.6288C409.045 55.532 412.217 53.4111 416.123 52.9177C430.652 51.0825 449.107 64.8933 459.995 73.0934C462.965 71.6555 465.946 70.2111 468.991 68.9388C512.372 50.8145 567.689 50.229 611.191 68.007C616.574 65.364 621.724 61.9044 626.929 58.9053C635.763 53.815 644.654 49.3539 654.113 45.5275Z"/>
	<path fill="#F3EFD9" d="M635.791 392.758L651.637 393.042L644.655 402.844L639.01 409.54C638.2 403.878 637.026 398.339 635.791 392.758Z"/>
	<path fill="#F3EFD9" d="M407.299 301.159Q408.782 302.049 410.201 303.038C414.636 306.182 417.388 312.686 418.148 317.912C418.378 319.492 418.423 320.534 417.437 321.821C413.685 319.471 408.322 316.704 406.345 312.596C404.47 308.698 405.937 304.953 407.299 301.159Z"/>
	<path fill="#F3EFD9" d="M395.5 258.497C401.61 258.233 410.205 256.948 416.026 258.616C417.371 259.001 417.629 259.152 418.268 260.362C418.125 260.742 417.97 261.112 417.748 261.454C415.649 264.683 410.131 265.602 406.657 266.406C406.56 266.428 406.462 266.451 406.365 266.473C396.667 268.584 389.284 263.812 381.412 258.867L395.5 258.497Z"/>
	<path fill="#F3EFD9" d="M672.133 170.075C674.865 171.418 676.982 173.999 678.762 176.401C688.842 190 690.747 209.474 688.39 225.743L687.51 226.222C687.368 226.114 687.221 226.013 687.085 225.899C686.842 225.696 686.724 225.539 686.562 225.252C684.195 221.057 684.059 212.873 682.85 207.994C679.688 195.235 674.811 182.96 672.133 170.075Z"/>
	<path fill="#F3EFD9" d="M393.318 123.88L393.833 124.412C395.393 128.695 395.664 160.715 394.065 165.101C393.225 167.405 388.734 168.55 386.594 169.306C386.353 168.828 386.132 168.352 385.928 167.857C380.825 155.476 388.46 135.376 393.318 123.88Z"/>
	<path fill="#F3EFD9" d="M601.98 245.25C608.193 244.881 614.379 244.814 620.599 244.788C617.737 249.659 614.55 254.359 611.469 259.095C611.887 264.746 611.669 270.038 610.701 275.618C616.232 279.539 620.254 283.157 623.397 289.23C617.573 287.431 612.855 283.818 607.886 280.405C602.167 285.45 596.753 289.669 589.895 293.021C595.106 285.878 600.914 280.247 607.433 274.348C607.476 269.501 607.728 264.69 608.034 259.853C605.404 257.613 602.527 255.405 600.171 252.879C598.531 251.121 597.767 249.839 597.88 247.403C598.889 245.894 600.337 245.686 601.98 245.25Z"/>
	<path fill="#F3EFD9" d="M615.589 341.431C615.749 341.469 615.916 341.486 616.07 341.545C617.315 342.017 618.187 343.91 618.497 345.094C618.919 346.708 618.872 348.519 617.99 349.962C611.769 360.138 593.394 363.33 582.614 365.976L581.565 365.817C579.149 362.986 579.43 356.305 579.229 352.689C591.803 351.007 604.156 346.854 615.589 341.431Z"/>
	<path fill="#F3EFD9" d="M572.05 376.544C575.33 377.51 577.767 381.671 580.062 384.163C580.502 382.041 580.647 379.17 582.029 377.464C583.703 377.114 584.555 376.841 586.119 377.821C588.891 379.558 590.725 384.237 591.381 387.279C592.538 392.654 591.454 396.508 588.5 401.025C585.99 403.129 582.329 404.513 579.09 404.835C576.036 405.139 573.033 404.148 570.678 402.193C567.561 399.607 565.727 395.593 565.476 391.582C565.077 385.206 568.004 381.032 572.05 376.544Z"/>
	<path fill="#F3EFD9" d="M414.571 167.324C416.872 167.23 419.083 167.295 421.269 168.105C429.765 171.254 435.557 180.145 439.22 188.058C449.369 209.984 448.599 232.105 440.454 254.39C438.647 254.987 436.922 255.165 435.03 255.277C429.709 252.177 435.739 238.618 436.479 233.753C437.306 228.311 437.608 222.568 437.267 217.072C436.434 203.632 431.98 190.389 423.383 179.923C420.448 176.349 415.835 171.874 414.571 167.324Z"/>
	<path fill="#F3EFD9" d="M305.725 448.957C309.407 448.637 313.853 448.74 317.469 449.515C320.697 450.207 323.698 451.724 325.505 454.581C329.035 460.164 326.786 467.727 325.461 473.649C315.431 473.355 305.377 473.421 295.342 473.367C291.063 473.744 285.896 474.328 281.727 473.241C279.982 472.787 277.776 472.003 276.903 470.308C276.339 469.212 276.316 468.225 276.756 467.055C277.283 465.653 278.827 464.541 280.12 463.868C285.341 461.149 291.133 462.555 296.396 464.258C298.582 458.263 301.15 453.477 305.725 448.957Z"/>
	<path fill="#F3EFD9" d="M820.475 462.828L822.958 462.873C824.343 463.99 824.845 464.954 825.262 466.698C826.317 471.11 826.069 477.805 823.714 481.776Q809.671 480.649 795.583 480.61C787.681 480.636 779.663 481.155 771.776 480.805C766.075 480.553 762.385 480.344 758.428 476.024C758.822 474.814 759.218 474.145 758.912 472.879C757.953 468.912 754.312 466.117 750.96 464.145C768.888 464.785 786.46 469.927 804.516 468.372C809.475 467.944 817.109 466.828 820.475 462.828Z"/>
	<path fill="#F3EFD9" d="M228.627 446.4C232.647 446.107 238.681 445.634 242.422 447.162C246.677 448.901 246.74 452.568 248.379 456.253C251.302 462.83 259.446 462.529 265.233 464.709C267.165 465.437 268.527 466.365 269.422 468.295C269.473 469.951 269.605 470.753 268.828 472.26C264.602 474.137 258.572 473.526 254.036 473.45C241.344 473.306 228.619 473.599 215.928 473.8C215.05 472.526 214.14 471.228 213.452 469.84Q213.17 469.281 212.945 468.697Q212.72 468.112 212.555 467.508Q212.39 466.904 212.287 466.286Q212.183 465.669 212.142 465.044Q212.101 464.419 212.123 463.793Q212.145 463.168 212.229 462.547Q212.314 461.927 212.46 461.318Q212.606 460.709 212.813 460.118C215.213 453.167 222.45 449.408 228.627 446.4Z"/>
	<path fill="#F3EFD9" d="M397.129 170.818C400.937 170.532 404.492 171.043 407.984 172.603C417.105 176.677 422.57 185.76 426.015 194.749Q426.68 196.522 427.257 198.325Q427.834 200.128 428.321 201.957Q428.808 203.787 429.205 205.638Q429.602 207.489 429.906 209.357Q430.211 211.226 430.424 213.107Q430.637 214.988 430.756 216.878Q430.876 218.767 430.903 220.66Q430.929 222.553 430.863 224.445Q430.796 226.337 430.636 228.223Q430.476 230.11 430.224 231.986Q429.971 233.862 429.627 235.724Q429.282 237.586 428.846 239.428Q428.411 241.27 427.885 243.089Q427.359 244.907 426.744 246.698Q426.129 248.489 425.426 250.247Q424.724 252.005 423.936 253.726Q415.998 253.649 408.062 253.486C409.787 246.4 416.433 242.668 418.831 232.234C421.803 219.304 420.215 205.57 413.096 194.226C406.131 183.128 398.06 179.372 385.729 176.512C389.101 173.777 393.106 172.289 397.129 170.818Z"/>
	<path fill="#F3EFD9" d="M635.671 170.787C640.035 170.598 644.038 171.405 647.849 173.569C654.83 177.534 658.743 184.829 660.76 192.364C664.135 204.978 661.359 214.909 654.987 225.879C655.683 222.933 656.226 219.945 656.426 216.922C656.915 209.553 655.039 200.204 649.95 194.572C648.469 192.933 646.464 191.612 644.184 191.588C640.134 191.545 636.304 194.821 633.665 197.538C630.801 202.239 628.977 208.137 628.923 213.649C628.828 223.362 633.95 228.33 640.31 234.758C632.428 232.381 626.413 228.159 622.361 220.816C617.349 211.73 617.114 199.762 620.093 189.945C622.701 181.348 627.715 174.961 635.671 170.787Z"/>
	<path fill="#F3EFD9" d="M970.867 395.128C982.962 393.983 996.572 394.867 1008.64 396.598C1008.42 397.044 1008.46 397.016 1008.09 397.477C1005.18 401.107 966.115 416.517 959.962 417.503C947.18 419.552 932.986 417.953 919.986 418.25C894.864 418.825 869.826 420.229 844.731 421.357L844.526 422.111L844.852 421.309L843.488 421.356L843.218 422.122C843.012 421.655 842.88 421.295 842.765 420.791C858.627 417.866 881.471 407.905 896.95 402.241C904.168 399.599 911.471 396.597 919.132 395.541C922.474 395.08 925.966 395.287 929.332 395.374C924.695 400.112 915.788 399.146 911.699 405.365C911.569 406.326 911.387 406.733 911.858 407.62C913.274 410.285 916.925 411.552 919.667 412.283C932.308 415.648 954.457 414.438 965.883 407.607C967.649 406.551 969.653 404.981 970.032 402.834C970.437 400.538 968.507 398.265 967.281 396.478L967.58 395.718L970.867 395.128Z"/>
	<path fill="#F3EFD9" d="M711.457 440.053C712.349 439.915 713.216 439.859 714.117 439.861C719.143 439.871 724.621 440.684 728.249 444.475C732.567 448.988 732.244 454.457 733.555 460.067C734.114 462.459 735.521 464.78 735.464 467.253C739.873 468.223 744.483 468.927 748.418 471.25C750.589 472.531 752.218 473.877 752.892 476.412C752.622 477.682 752.624 478.237 751.574 479.111C747.944 482.131 740.596 480.701 736.325 480.35C736.208 479.957 736.212 479.882 735.943 479.493C732.932 475.135 724.634 470.831 719.527 469.912C711.033 468.385 705.667 474.259 699.355 478.708L698.846 479.495C692.401 482.447 664.369 480.076 657.264 478.233C656.821 473.608 655.977 468.898 658.839 464.831C660.372 462.654 662.66 461.541 665.24 461.177C673.05 460.075 680.234 464.923 686.12 469.397C689.445 467.632 693.697 465.935 696.351 463.252C698.472 461.594 699.223 454.214 700.873 451.458C703.425 447.195 708.105 443.703 711.457 440.053Z"/>
	<path fill="#F3EFD9" d="M422.871 313.907C431.508 317.557 439.041 324.528 447.38 328.993C472.389 342.383 501.553 350.094 529.775 352.688C536.757 353.33 543.886 353.788 550.894 353.798C556.408 353.806 562.208 353.276 567.679 353.926C569.186 354.105 570.752 354.447 571.838 355.586C574.27 358.138 573.579 364.228 573.606 367.575C521.582 373.529 472.506 355.706 428.357 329.666C426.325 324.453 424.423 319.285 422.871 313.907Z"/>
	<path fill="#F3EFD9" d="M416.57 70.3367C421.936 71.832 426.343 75.153 430.526 78.713C437.057 84.2729 462.675 109.438 463.3 117.172L462.49 117.807C456.032 116.997 446.122 107.166 438.758 104.033C445.736 111.795 453.632 118.668 460.646 126.403C453.035 122.522 436.29 109.636 428.902 109.124C433.737 113.96 443.371 119.072 446.418 124.651L445.85 125.224C439.724 125.545 432.211 120.871 426.158 119.264C429.613 123.617 434.519 126.409 438.565 130.188C434.842 128.716 431.062 127.483 427.254 126.255L431.517 131.889L431.014 132.459L427.502 132.522L427 133.15L427.4 135.716C423.135 141.34 416.597 145.178 412.057 150.72C408.226 123.626 408.825 96.6843 416.57 70.3367Z"/>
	<path fill="#F3EFD9" d="M531.754 174.551C538.595 174.047 545.152 176.525 550.449 180.784C561.998 190.071 564.951 202.887 566.537 216.784C562.681 209.79 560.046 202.277 554.073 196.729C551.027 195.938 548.249 195.231 545.096 195.74C540.877 196.421 537.339 198.684 534.877 202.167C530.425 208.464 530.151 216.97 531.465 224.289C532.888 229.65 537.368 234.308 540.043 239.202C539.453 239.792 539.384 239.906 538.552 240.043C531.022 241.28 520.944 237.017 514.995 232.672C507.991 227.556 502.851 220.489 501.528 211.795Q501.409 211.018 501.329 210.235Q501.249 209.453 501.208 208.668Q501.167 207.882 501.165 207.096Q501.163 206.31 501.2 205.524Q501.238 204.739 501.314 203.956Q501.391 203.173 501.506 202.395Q501.621 201.618 501.775 200.846Q501.929 200.075 502.121 199.313Q502.313 198.55 502.543 197.798Q502.773 197.046 503.04 196.306Q503.307 195.567 503.611 194.841Q503.914 194.116 504.254 193.407Q504.593 192.697 504.967 192.006Q505.342 191.314 505.75 190.642Q506.158 189.97 506.6 189.319Q507.041 188.668 507.514 188.04C513.534 180.03 522.006 175.908 531.754 174.551Z"/>
	<path fill="#F3EFD9" d="M668.464 301.144C669.299 301.766 669.581 302.278 669.93 303.265C674.226 315.432 668.798 350.335 665.133 363.336C662.792 371.64 659.509 379.515 655.602 387.196C648.608 387.828 641.764 388.761 634.793 387.432C633.702 385.24 632.917 382.873 632.064 380.578C628.855 373.1 624.753 365.819 622.237 358.085C625.613 351.219 624.706 345.033 624.147 337.638C630.474 330.893 639.941 326.83 647.59 321.74C655.95 316.178 662.264 308.942 668.464 301.144Z"/>
	<path fill="#F3EFD9" d="M383.74 182.259C386.06 182.413 388.379 182.576 390.628 183.203C398.332 185.354 404.642 191.262 408.494 198.122C414.151 208.199 415.364 221.364 412.233 232.475C409.48 242.248 403.552 248.727 394.819 253.528L377.217 253.579C374.219 249.594 371.637 245.627 369.581 241.07C363.842 228.356 361.654 212.085 366.803 198.818C370.137 190.228 375.547 185.789 383.74 182.259Z"/>
	<path d="M391.23 197.452C392.076 198.194 392.882 199.013 393.381 200.037C397.433 208.369 397.456 224.404 394.654 233.008C393.703 231.657 392.786 230.176 392.12 228.665C388.365 220.137 387.74 206.003 391.23 197.452Z"/>
	<path fill="#F3EFD9" d="M534.765 61.9593C552.411 59.7198 588.07 66.5862 604.958 71.7832C601.155 74.4025 597.341 77.0191 593.962 80.1812C589.633 84.2328 585.84 88.9394 580.965 92.3602C574.291 91.4821 567.692 89.8922 561.02 88.9284C552.399 87.6833 543.878 87.3509 535.188 87.2938C521.838 87.3754 502.879 91.1443 489.815 94.3773C480.999 89.7592 473.038 82.4462 465.124 76.4134C488.005 67.4634 510.352 63.4427 534.765 61.9593Z"/>
	<path fill="#F3EFD9" d="M702.475 486.178C709.897 485.147 727.597 486.752 736.121 486.759C769.807 486.787 803.854 485.766 837.49 487.904C838.041 488.602 838.208 488.723 838.256 489.617C838.558 495.277 835.269 501.395 834.272 506.976C833.104 513.513 832.605 520.178 831.617 526.746C831.434 527.961 831.252 530.118 830.331 531.019C828.487 532.825 824.279 532.417 821.844 532.426C777.117 531.412 732.197 531.149 687.508 529.275C689.575 519.582 691.684 509.361 695.405 500.145C697.254 495.567 701.43 490.909 702.475 486.178Z"/>
	<path fill="#F3EFD9" d="M1019.39 398.723C1020.99 398.626 1022.61 398.355 1024.04 399.227C1025.11 399.879 1025.59 401.305 1025.89 402.452C1027.9 410.165 1029.66 452.195 1026.37 457.94C1026.05 458.857 1025.04 459.495 1024.27 460.047C1016.3 465.785 987.243 479.485 977.822 482.334C975.068 483.167 972.177 483.718 969.311 483.261C962.153 478.067 969.59 440.33 963.479 429.274L962.549 429.084C953.947 439.94 967.207 475.349 958.859 484.979C958.769 485.082 958.671 485.178 958.577 485.278Q920.845 484.897 883.123 483.915Q885.484 482.966 887.706 481.728C889.55 480.717 891.758 479.329 892.384 477.21C893.512 476.368 894.615 475.169 895.034 473.805C895.407 472.593 895.323 471.382 894.7 470.266C893.493 468.101 890.745 466.778 888.443 466.156C878.471 463.463 860.025 469.181 851.448 474.604C848.072 476.738 845.606 480.086 842.095 482.059C841.962 482.134 841.828 482.206 841.694 482.279C837.989 481.416 833.778 481.628 829.977 481.492C830.451 480.665 830.834 479.807 831.053 478.877C832.9 471.055 833.489 432.63 829.735 426.679C845.524 426.246 861.249 424.855 877.075 424.562C898.571 424.164 920.165 424.876 941.633 424.158C949.453 423.896 957.397 423.139 964.977 421.126C977.254 417.865 988.463 411.565 1000.14 406.725C1005.09 404.676 1010.41 403.582 1015.29 401.363C1016.84 400.656 1018.21 399.987 1019.39 398.723Z"/>
	<path d="M990.566 422.689C995.932 421.831 1001.55 421.618 1006.41 424.406C1009.88 426.393 1012.22 429.677 1013.27 433.507C1014.93 439.613 1013.25 446.569 1010.16 451.94C1007.11 457.228 1002.4 461.623 996.449 463.272C996.224 463.528 996.202 463.579 995.876 463.8C993.781 465.216 990.252 466.268 987.713 465.854C984.905 465.396 982.545 463.426 980.913 461.184C977.247 456.149 976.507 448.956 977.423 442.952C978.787 434.02 983.536 427.926 990.566 422.689Z"/>
	<path fill="#F3EFD9" d="M995.656 431.074L997.167 431.178C998.128 432.224 998.299 432.966 998.528 434.342C999.167 438.183 1000.43 450.367 997.964 453.409C997.37 454.141 996.248 453.951 995.34 454.021C990.478 445.268 994.27 440.138 995.605 431.436C995.624 431.316 995.639 431.195 995.656 431.074Z"/>
	<path d="M912.047 435.869C919.963 435.652 934.921 433.912 941.996 436.952C944.517 438.035 946.262 439.959 947.27 442.497C949.583 448.322 948.641 457.684 946.227 463.383C940.588 464.948 920.129 462.317 912.529 461.999Q896.849 461.364 881.157 461.261C872.343 460.978 858.315 462.033 850.215 459.837C842.216 457.669 847.558 444.017 844.225 438.215C844.153 438.089 844.074 437.966 843.999 437.841C866.788 435.098 889.284 437.29 912.047 435.869Z"/>
	<path fill="#F3EFD9" d="M887.959 441.86C891.474 441.398 895.283 441.104 898.83 441.224C900.694 441.288 902.777 441.876 904.036 443.33C905.474 444.99 905.528 447.083 905.346 449.148C905.104 451.887 904.558 453.686 902.382 455.497C898.808 457.648 890.97 456.476 886.76 456.351C889.362 451.921 889.155 446.717 887.959 441.86Z"/>
	<path fill="#F3EFD9" d="M915.642 441.861C921.927 441.459 934.091 440.967 940.104 442.6C940.932 443.622 941.376 444.531 941.587 445.84C941.991 448.34 941.951 452.764 940.235 454.822C938.639 456.736 935.531 456.508 933.28 456.595C925.248 457.181 917.019 456.607 908.971 456.401C909.392 455.724 909.675 454.999 909.939 454.249C911.374 450.163 910.883 446.24 909.064 442.386C911.271 442.299 913.447 442.096 915.642 441.861Z"/>
	<path fill="#F3EFD9" d="M855.579 440.663C863.715 439.939 872.647 440.897 880.824 441.304C882.464 443.076 883.362 446.073 883.551 448.451Q883.58 448.862 883.567 449.273Q883.554 449.684 883.499 450.092Q883.444 450.5 883.347 450.9Q883.25 451.3 883.113 451.688Q882.975 452.077 882.799 452.448Q882.622 452.82 882.409 453.172Q882.195 453.524 881.947 453.852Q881.698 454.18 881.417 454.481C879.754 456.234 877.681 456.231 875.43 456.373Q861.843 456.158 848.257 456.416C851.531 452.527 848.224 446.165 850.952 442.61C852.171 441.022 853.761 441.039 855.579 440.663Z"/>
	<path fill="#F3EFD9" d="M659.547 393.198C707.421 396.038 755.299 396.259 803.234 397.132C817.119 397.385 831.103 396.67 844.965 397.373C848.526 397.554 857.318 397.558 859.903 399.959C859.931 400.385 859.957 400.807 859.966 401.233C860.225 413.566 836.562 414.479 829.604 421.97C821.568 430.62 829.569 448.726 822.73 455.732C818.609 459.614 812.523 461.1 807.083 461.907C792.411 464.787 757.34 460.501 741.563 459.161C741.597 455.686 738.339 448.195 736.372 445.265C731.147 437.48 722.593 435.111 713.894 433.469C710.617 436.935 704.277 437.742 700.713 441.611C696.211 446.497 695.611 455.39 690.154 459.052C685.605 462.106 676.976 456.661 671.997 455.783C664.853 454.524 659.751 457.237 654.148 461.216C649.943 446.448 644.647 431.97 639.973 417.343C647.164 409.827 653.306 401.496 659.547 393.198Z"/>
	<path fill="#F3EFD9" d="M689.893 534.156C706.378 533.417 722.808 534.911 739.277 535.427C769.296 536.366 799.521 537.226 829.549 537.289C829.901 537.639 829.779 537.501 830.163 537.985C836.043 545.425 833.909 587.583 832.643 598.22C830.517 616.073 823.647 637.876 809.002 649.377C808.895 650.218 808.718 650.775 808.238 651.474C802.346 660.071 788.664 666.665 778.553 668.492Q777.01 668.766 775.455 668.965Q773.901 669.164 772.339 669.287Q770.776 669.41 769.21 669.457Q767.643 669.504 766.076 669.475Q764.509 669.446 762.946 669.341Q761.382 669.236 759.825 669.055Q758.269 668.875 756.723 668.618Q755.176 668.362 753.645 668.031Q752.113 667.7 750.599 667.295Q749.085 666.89 747.592 666.412Q746.1 665.934 744.632 665.384Q743.165 664.834 741.726 664.214Q740.286 663.593 738.879 662.904Q737.472 662.214 736.1 661.457Q734.728 660.699 733.394 659.877Q732.06 659.054 730.768 658.167C707.076 641.607 692.956 610.671 688.068 582.931C686.598 574.587 683.6 540.679 687.916 534.496L689.893 534.156Z"/>
</svg>
