<?xml version="1.0" encoding="utf-8" ?>
<svg xmlns="http://www.w3.org/2000/svg" xmlns:xlink="http://www.w3.org/1999/xlink" width="1227" height="692">
	<path fill="#F3EFD9" d="M0 0L1225.95 0C1227.39 2.26316 1226.99 5.54227 1227 8.14407L1227 502.045L1227 637.999L1227 673.985C1227 678.964 1227.67 685.068 1226.83 689.91C1226.7 690.664 1226.36 691.359 1225.95 692L0 692L0 0Z"/>
	<path d="M767.8 42.8323C770.991 42.1266 774.707 43.0669 777.57 44.5831C781.345 46.5824 784.32 50.2954 785.509 54.3903C786.484 57.75 786.305 61.2747 784.575 64.3623C782.461 68.1339 778.747 70.021 774.744 71.2158C774.372 71.3103 774.267 71.3582 773.831 71.3448C769.898 71.2235 764.733 69.0527 761.903 66.3343C759.488 64.0139 757.876 60.8914 757.845 57.4977C757.78 50.4287 763.085 47.8206 767.337 43.3285L767.8 42.8323Z"/>
	<path fill="#F3EFD9" d="M769.578 48.8265C772.086 48.3656 774.503 48.0611 776.829 49.3642C778.654 50.3865 779.922 51.9762 780.478 53.9966C781.142 56.4073 780.648 59.0482 779.291 61.1322C777.558 63.7922 775.432 64.8456 772.399 65.4524L771.4 65.7803C768.902 65.4129 767.09 64.392 765.608 62.364C764.093 60.2897 763.533 57.3806 764.081 54.8611C764.736 51.8485 767.158 50.3365 769.578 48.8265Z"/>
	<path d="M802.101 183.633C805.271 182.956 809.34 182.692 812.458 183.663C816.994 185.074 821.057 188.051 823.194 192.367C824.492 194.986 825.009 198.191 824.042 201.005C822.865 204.429 819.425 208.032 816.206 209.577C815.824 209.899 815.577 210.111 815.104 210.288C810.899 211.87 805.897 210.33 802.117 208.385C799.528 207.053 797.303 205.151 796.447 202.278C794.388 195.368 798.994 189.259 802.101 183.633Z"/>
	<path fill="#F3EFD9" d="M808.316 187.827C810.179 187.593 811.746 187.557 813.521 188.341Q813.905 188.509 814.268 188.718Q814.631 188.926 814.97 189.172Q815.309 189.418 815.62 189.698Q815.931 189.979 816.21 190.291Q816.489 190.604 816.733 190.944Q816.977 191.284 817.184 191.649Q817.39 192.013 817.556 192.398Q817.723 192.782 817.847 193.182C818.62 195.658 818.214 198.49 816.96 200.736C815.522 203.313 813.468 204.631 810.708 205.468C810.54 205.455 810.372 205.447 810.204 205.43C807.622 205.172 804.13 203.513 802.641 201.352C801.352 199.481 801.244 197.22 801.776 195.076C802.695 191.37 805.207 189.711 808.316 187.827Z"/>
	<path d="M129.391 51.1188C131.79 51.0395 134.374 50.8562 136.745 51.2657C141.133 52.0237 145.603 54.7421 148.152 58.4103C149.981 61.0426 150.837 64.2254 150.23 67.4005C149.319 72.1622 145.515 75.6884 141.69 78.3084C140.043 78.5374 138.331 78.8086 136.667 78.7926C132.492 78.7525 128.082 77.0131 125.222 73.9391C122.889 71.4319 121.799 68.108 121.976 64.704C122.25 59.4349 125.521 54.5186 129.391 51.1188Z"/>
	<path fill="#F3EFD9" d="M134.426 55.755C135.547 55.7035 136.757 55.6208 137.864 55.8333C139.887 56.2216 142.009 57.4973 143.131 59.2384C144.27 61.0048 144.427 63.1764 144.053 65.1954C143.266 69.4418 140.922 71.4692 137.476 73.7745C134.15 73.1723 130.473 71.971 128.539 68.986Q128.343 68.6775 128.178 68.3508Q128.013 68.0242 127.882 67.6827Q127.751 67.3412 127.655 66.9883Q127.559 66.6354 127.499 66.2746Q127.438 65.9138 127.414 65.5488Q127.39 65.1839 127.403 64.8183Q127.416 64.4527 127.465 64.0903Q127.515 63.7279 127.6 63.3722C128.479 59.5434 131.259 57.6774 134.426 55.755Z"/>
	<path d="M242.004 149.29C243.944 149.182 245.916 149.048 247.858 149.13C252.25 149.315 256.913 151.466 259.878 154.725C262.161 157.234 263.558 160.406 263.336 163.837C262.995 169.108 259.344 172.647 255.576 175.894C254.079 176.331 252.42 176.689 250.859 176.772C246.66 176.996 242.182 175.974 239.055 173.027Q238.605 172.597 238.199 172.126Q237.794 171.654 237.436 171.145Q237.079 170.636 236.773 170.094Q236.468 169.552 236.217 168.983Q235.966 168.414 235.772 167.823Q235.578 167.232 235.443 166.624Q235.308 166.017 235.233 165.4Q235.158 164.782 235.144 164.16C234.981 158.226 238.149 153.484 242.004 149.29Z"/>
	<path fill="#F3EFD9" d="M247.02 153.896C248.37 153.781 250.062 153.73 251.391 154.031C253.323 154.469 255.255 155.866 256.253 157.579C257.375 159.505 257.471 161.918 256.936 164.039C255.971 167.866 253.695 169.78 250.411 171.699C250.181 171.67 249.951 171.641 249.722 171.601C246.58 171.041 243.254 169.641 241.471 166.864C240.373 165.155 240.134 163.251 240.56 161.288C241.338 157.707 244.121 155.759 247.02 153.896Z"/>
	<path d="M304.271 1.88741Q305.016 1.83074 305.762 1.79882C312.641 1.51429 317.256 5.32274 322.045 9.72076C323.511 14.5879 324.236 19.6225 322.342 24.4811C320.42 29.4106 316.423 32.3373 311.717 34.3422C310.319 34.5396 308.921 34.6958 307.509 34.7176C303.752 34.7755 300.144 33.5864 297.438 30.8987C292.611 26.1053 292.211 19.3068 292.178 12.9316C295.531 8.49958 299.156 4.25203 304.271 1.88741Z"/>
	<path fill="#F3EFD9" d="M303.377 6.05876C304.947 5.92243 306.49 5.84153 308.058 6.05162C311.32 6.48859 314.059 8.51396 315.984 11.1177C317.895 13.7012 318.783 17.0209 318.279 20.2032C317.704 23.8397 315.578 26.4981 312.646 28.5825C311.541 28.7891 310.429 28.9769 309.303 29.008C306.197 29.0939 303.146 28.2139 300.87 26.0266C298.746 23.9864 297.729 21.1626 297.709 18.2479C297.674 13.2284 300.011 9.55045 303.377 6.05876Z"/>
	<path d="M192.569 157.699C193.43 157.84 194.108 158.228 194.887 158.603C199.499 164.006 201.2 180.706 201.518 187.798C201.668 191.158 201.137 195.053 198.672 197.571C197.089 199.189 195.101 200.135 192.809 200.034C191.305 199.968 189.839 199.355 188.855 198.188C187.948 197.113 187.626 195.708 187.739 194.328C188.111 189.768 192.016 186.587 195.203 183.763Q194.016 176.85 193.215 169.882Q185.585 172.184 178.07 174.838C177.201 181.623 181.186 188.318 180.209 194.68Q180.149 195.1 180.044 195.511Q179.939 195.923 179.792 196.32Q179.644 196.718 179.455 197.098Q179.266 197.478 179.037 197.836Q178.809 198.193 178.544 198.525Q178.278 198.856 177.98 199.157Q177.681 199.459 177.352 199.727Q177.023 199.995 176.667 200.226C174.428 201.665 171.484 201.99 168.925 201.341C167.164 200.894 165.261 199.826 164.374 198.179C163.782 197.081 163.724 195.874 164.082 194.693C165.383 190.408 170.38 187.744 174.063 185.919C172.604 177.9 171.572 169.95 169.677 161.997C177.382 161.115 184.976 159.25 192.569 157.699Z"/>
	<path d="M654.113 45.5276C654.807 45.478 655.077 45.6013 655.715 45.8413C658.705 50.1418 660.59 56.2711 661.937 61.3241C666.296 77.6697 666.305 95.4079 665.502 112.222C664.693 129.146 662.624 145.254 667.889 161.723C676.677 166.018 683.3 172.629 687.917 181.21C697.229 198.513 697.481 216.892 691.985 235.342Q703.831 231.749 716.05 229.77C727.868 227.906 765.904 224.455 775.836 229.036C770.568 232.488 743.482 231.035 735.723 231.417C723.177 232.036 705.259 233.066 693.74 238.2C690.969 239.435 688.628 241.08 687.556 244.056C686.987 245.633 686.912 247.611 687.671 249.113C688.255 250.268 689.894 250.63 691.051 250.766C696.53 251.413 703.137 250.236 708.737 250.216C724.216 250.161 747.044 251.462 761.629 255.901C764.504 256.776 769.175 258.256 770.622 261.14C770.673 261.243 770.716 261.35 770.764 261.456C760.965 260.285 751.375 257.601 741.619 256.062C731.516 254.468 695.911 250.725 687.609 256.198C687.065 256.557 686.926 256.792 686.762 257.411C686.143 259.747 685.788 261.798 687.625 263.704C691.022 267.228 706.48 270.208 711.727 271.801C719.197 274.069 754.153 285.057 757.508 290.793L756.649 291.324C743.58 290.894 729.325 283.21 717.019 278.938Q701.266 273.553 685.253 269.001C682.531 276.954 679.03 284.181 675.126 291.599C676.512 317.426 677.628 343.107 670.207 368.251C668.217 374.992 664.961 381.248 662.727 387.9Q728.977 391.018 795.296 391.667C814.076 391.968 848.841 390.153 865.913 393.795C878.263 388.847 896.545 356.464 906.483 345.424C910.67 340.774 916.726 338.998 921.069 334.695C935.378 320.52 948.014 304.152 961.614 289.237C971.553 278.336 983.242 268.465 992.008 256.585C995.35 252.055 996.837 247.444 999.36 242.579Q999.525 242.258 999.723 241.957Q999.921 241.656 1000.15 241.378Q1000.38 241.1 1000.64 240.848Q1000.9 240.596 1001.18 240.373Q1001.46 240.15 1001.77 239.958Q1002.07 239.767 1002.4 239.609Q1002.72 239.451 1003.06 239.329Q1003.4 239.207 1003.75 239.122C1005.12 238.786 1007 238.858 1008.16 239.777C1009.12 240.538 1009.51 241.418 1009.62 242.612C1009.88 245.475 1007.23 248.341 1005.36 250.179C1000.05 255.391 993.858 259.663 988.671 265.021C965.12 289.35 944.407 315.976 921.851 341.133C922.282 342.818 922.566 344.354 922.191 346.09C920.791 352.578 878.595 399.351 872.453 403.056C886.382 401.366 899.203 394.224 913.021 391.655C922.56 389.881 932.922 389.985 942.602 389.674C964.862 388.957 988.213 388.211 1010.37 390.464C1014.51 390.885 1018.88 391.454 1022.92 392.54C1025.48 393.23 1028 394.322 1030.61 394.81C1033.47 395.347 1036.82 395.268 1039.75 395.367C1064.23 396.19 1182.79 393.752 1196.01 402.77C1176.47 406.923 1147.43 402.547 1127.01 401.671C1113.3 401.082 1099.54 401.637 1085.82 401.19C1067.16 400.582 1048.66 399.046 1029.98 398.85C1030.84 399.636 1031.27 400.481 1031.65 401.566C1035.78 413.365 1036.29 447.463 1030.93 458.284C1025.36 469.505 995.184 481.561 983.445 485.625C991.969 486.066 1000.65 485.36 1009.17 484.94Q1028.3 483.893 1047.45 483.377C1074.07 482.747 1100.6 483.845 1127.21 484.332C1142.87 484.618 1158.95 483.759 1174.51 485.45C1178.29 485.861 1181.53 486.366 1184.77 488.494C1181.28 489.23 1176.95 489.057 1173.35 489.231C1149.08 490.401 1124.63 487.458 1100.32 487.51Q1065.21 487.648 1030.12 488.95C1011.31 489.76 992.595 491.197 973.752 491.377C930.991 491.786 888.426 489.188 845.708 488.151C845.715 488.271 845.727 488.391 845.731 488.511C845.849 492.76 842.492 499.07 841.442 503.456C839.685 510.789 840.111 527.415 835.378 532.676C904.537 535.244 973.935 537.934 1043.14 537.994C1053.45 538.003 1107.06 536.346 1112.67 539.251L1112.86 540.036C1112.79 540.106 1112.73 540.179 1112.66 540.246C1109.71 543.109 1103.46 543.51 1099.5 543.75C1076.24 545.164 1052.49 542.564 1029.18 542.283Q932.296 541.282 835.483 537.409C841.29 545.27 840.651 578.222 840.185 588.849C839.079 614.089 828.916 641.514 810.016 658.828C797.329 670.45 782.401 675.769 765.205 674.985C744.823 674.055 726.574 665.034 712.89 649.999C693.26 628.43 681.182 597.314 679.697 568.285C679.103 556.664 680.322 544.873 680.861 533.253C650.761 532.642 620.662 531.386 590.556 531.051L493.798 530.882C468.826 530.6 443.84 529.441 418.88 528.593Q376.964 527.462 335.09 525.271C312.801 523.091 288.205 523.088 265.715 523.043C238.299 522.989 210.837 522.747 183.425 523.165C166.972 523.416 150.567 524.442 134.099 524.391C125.403 524.364 116.841 523.204 108.179 522.97C90.4896 522.493 72.1346 525.091 54.9828 519.754C77.597 515.062 102.103 518.638 124.921 519.949C133.17 520.423 141.593 520.252 149.855 520.149C160.861 520.013 171.857 519.39 182.862 519.213Q230.468 518.596 278.072 519.307C301.621 519.761 325.177 521.185 348.726 521.897C374.283 522.669 399.859 522.738 425.413 523.683C441.518 524.278 457.595 525.601 473.708 526.011C501.288 526.714 528.983 525.838 556.584 526.124C598.272 526.557 639.83 528.048 681.495 529.204C682.989 520.971 684.951 512.526 687.511 504.561C688.769 500.647 694.605 488.699 694.386 486.007Q482.839 479.125 271.187 477.629Q204.893 476.964 138.596 476.999C120.811 476.985 103.241 476.355 85.4797 475.788C80.1565 475.618 74.7808 476.781 69.4799 475.999C67.5669 475.717 64.0455 475.236 62.8286 473.628L63.3554 472.801C72.6547 468.012 106.848 471.427 119.253 472.079C116.27 467.711 113.002 463.157 112.821 457.667C112.653 452.572 114.763 448.006 118.244 444.379C140.714 420.972 225.056 409.876 258.575 409.207C245.788 413.049 232.564 414.362 219.418 416.372C193.283 420.369 166.855 425.13 142.298 435.192C135.295 438.062 126.761 441.535 121.721 447.387C119.26 450.244 117.772 453.709 118.157 457.527C118.8 463.895 123.852 468.292 128.428 472.155C141.595 472.159 154.805 471.926 167.965 472.304C180.516 472.666 194.134 474.704 206.538 472.687C207.388 466.065 208.242 459.162 211.686 453.303C215.285 447.18 221.074 443.705 227.874 442.071C238.128 439.607 244.794 439.352 250.834 448.771C252.313 451.078 253.729 453.551 255.958 455.219C260.615 458.703 267.177 459.561 272.31 462.707C275.551 460.284 278.754 457.941 282.229 455.86C285.128 455.856 288.071 456.114 290.97 456.252C298.178 453.078 302.494 443.222 310.366 442.219C317.026 441.37 325.791 447.052 330.93 450.953C338.658 428.909 346.745 407.321 357.271 386.442C300.062 389.182 242.73 385.349 185.491 385.889Q146.195 386.494 106.913 387.737C89.3646 388.289 71.559 390.179 54.1133 387.536C69.2681 383.663 92.6593 384.09 108.748 383.403C138.389 382.135 168.174 380.557 197.843 380.518C227.32 380.48 256.801 381.952 286.285 382.224C310.705 382.449 334.86 380.248 359.297 381.891C363.399 374.861 367.767 367.897 371.378 360.6C379.608 343.971 385.532 327.957 398.317 314.064L399.735 302.422C380.998 311.383 363.962 325.291 344.07 331.736C362.621 317.25 382.151 306.005 403.243 295.648C399.509 290.746 396.081 285.622 392.608 280.534C378.172 283.635 363.592 287.423 349.678 292.389C337.727 296.654 326.302 301.968 313.954 305.086C324.886 297.911 335.667 292.758 348.043 288.534C354.611 286.292 386.581 278.322 388.825 276.646C390 275.769 390.136 275.3 390.337 273.901C387.912 268.454 379.054 263.073 374.45 259.174C359.218 261.141 343.934 263.116 328.855 266.06C318.974 267.988 309.28 270.701 299.38 272.57C319.95 259.818 347.482 258.264 371.002 255.666C363.054 242.477 357.336 228.944 358.306 213.247C359.398 195.573 368.392 184.866 381.015 173.642Q380.602 171.215 380.249 168.779C377.196 147.612 383.312 126.099 396.046 109.051C397.92 93.8539 397.135 71.6088 406.509 58.8701C408.809 55.7457 411.936 53.5289 415.826 52.9592C429.863 50.9039 449.364 65.1065 459.996 73.0928C462.965 71.6551 465.946 70.2111 468.991 68.9389C512.371 50.8153 567.689 50.2282 611.189 68.0064C616.573 65.3669 621.725 61.9043 626.929 58.9057C635.763 53.8162 644.654 49.3538 654.113 45.5276Z"/>
	<path fill="#F3EFD9" d="M635.79 392.758L651.638 393.041L644.655 402.844L639.01 409.54C638.2 403.878 637.026 398.339 635.79 392.758Z"/>
	<path fill="#F3EFD9" d="M407.299 301.158Q408.782 302.048 410.201 303.038C414.636 306.183 417.388 312.685 418.148 317.912C418.378 319.492 418.424 320.533 417.437 321.821C413.686 319.471 408.322 316.704 406.345 312.596C404.47 308.697 405.937 304.953 407.299 301.158Z"/>
	<path fill="#F3EFD9" d="M395.501 258.498C401.449 258.239 410.815 256.793 416.359 258.715C417.589 259.141 417.675 259.225 418.278 260.367C418.131 260.751 417.97 261.125 417.743 261.471C415.636 264.683 410.127 265.603 406.659 266.405C406.561 266.428 406.463 266.451 406.366 266.473C396.667 268.584 389.284 263.813 381.412 258.867L395.501 258.498Z"/>
	<path fill="#F3EFD9" d="M672.133 170.075C674.865 171.418 676.982 173.999 678.762 176.401C688.842 190 690.747 209.474 688.39 225.743L687.51 226.222C687.368 226.114 687.222 226.013 687.085 225.899C686.995 225.824 686.906 225.745 686.832 225.653C684.577 222.863 684.375 214.51 683.524 210.806C680.361 197.046 675.006 183.9 672.133 170.075Z"/>
	<path fill="#F3EFD9" d="M393.318 123.88L393.833 124.411C395.393 128.695 395.664 160.715 394.065 165.101C393.225 167.405 388.732 168.55 386.593 169.307C386.352 168.829 386.132 168.352 385.928 167.857C380.828 155.467 388.458 135.384 393.318 123.88Z"/>
	<path fill="#F3EFD9" d="M601.98 245.251C608.193 244.881 614.379 244.814 620.599 244.788C617.737 249.659 614.55 254.359 611.469 259.095C611.887 264.747 611.669 270.039 610.701 275.618C616.231 279.539 620.254 283.156 623.395 289.229C617.569 287.427 612.851 283.819 607.879 280.405C602.25 285.48 596.707 289.692 589.896 293.018C595.108 285.878 600.916 280.246 607.433 274.348C607.478 269.504 607.727 264.696 608.029 259.862C605.401 257.618 602.528 255.406 600.172 252.879C598.532 251.12 597.768 249.84 597.881 247.403C598.889 245.894 600.338 245.686 601.98 245.251Z"/>
	<path fill="#F3EFD9" d="M615.588 341.432C615.871 341.467 616.028 341.463 616.299 341.632C617.129 342.149 618.572 343.552 618.878 344.488C619.41 346.12 618.639 348.363 617.774 349.75C611.128 360.405 594.004 363.224 582.614 365.976L581.565 365.817C579.149 362.985 579.43 356.305 579.229 352.689C591.802 351.008 604.156 346.854 615.588 341.432Z"/>
	<path fill="#F3EFD9" d="M572.05 376.544C575.33 377.51 577.767 381.671 580.062 384.164C580.502 382.041 580.647 379.17 582.029 377.464C583.703 377.114 584.555 376.841 586.119 377.821C588.891 379.558 590.725 384.237 591.381 387.279C592.538 392.654 591.453 396.508 588.5 401.025C585.99 403.128 582.329 404.513 579.09 404.835C576.036 405.139 573.033 404.148 570.677 402.193C567.561 399.607 565.727 395.593 565.476 391.582C565.077 385.206 568.004 381.032 572.05 376.544Z"/>
	<path fill="#F3EFD9" d="M414.571 167.324C416.872 167.23 419.082 167.295 421.269 168.105C429.767 171.255 435.557 180.144 439.22 188.058C449.37 209.987 448.596 232.102 440.455 254.39C439.191 255.108 436.43 255.293 434.983 255.262C433.473 254.376 432.939 253.773 432.787 251.926C432.358 246.678 434.966 240.867 436.021 235.745Q436.938 231.179 437.257 226.532Q437.575 221.885 437.289 217.236C436.408 202.855 431.682 190.182 422.585 179.037C419.797 175.621 415.77 171.602 414.571 167.324Z"/>
	<path fill="#F3EFD9" d="M305.725 448.957C309.407 448.637 313.853 448.74 317.469 449.515C320.697 450.207 323.698 451.724 325.505 454.581C329.035 460.164 326.786 467.727 325.461 473.649C315.432 473.355 305.378 473.421 295.344 473.367C291.064 473.744 285.896 474.329 281.726 473.241C279.982 472.787 277.776 472.003 276.904 470.308C276.34 469.212 276.317 468.225 276.756 467.054C277.282 465.652 278.827 464.54 280.12 463.867C285.341 461.146 291.133 462.556 296.396 464.257C298.582 458.263 301.151 453.477 305.725 448.957Z"/>
	<path fill="#F3EFD9" d="M820.475 462.828L822.959 462.873C824.343 463.99 824.845 464.953 825.262 466.697C826.317 471.11 826.069 477.805 823.714 481.776Q809.671 480.649 795.583 480.61C787.681 480.636 779.662 481.156 771.776 480.805C766.072 480.552 762.385 480.341 758.422 476.025C758.816 474.815 759.213 474.145 758.909 472.879C757.954 468.912 754.312 466.117 750.961 464.145C768.886 464.794 786.463 469.927 804.516 468.372C809.475 467.944 817.11 466.828 820.475 462.828Z"/>
	<path fill="#F3EFD9" d="M228.627 446.4C232.647 446.108 238.68 445.634 242.422 447.162C246.677 448.901 246.74 452.568 248.379 456.253C251.302 462.83 259.446 462.529 265.233 464.709C267.165 465.437 268.527 466.365 269.422 468.295C269.473 469.951 269.605 470.753 268.828 472.26C264.602 474.137 258.575 473.526 254.038 473.45C241.346 473.305 228.62 473.599 215.929 473.8C215.05 472.526 214.14 471.228 213.452 469.84Q213.17 469.281 212.945 468.697Q212.72 468.112 212.555 467.508Q212.39 466.904 212.286 466.287Q212.183 465.669 212.142 465.044Q212.101 464.419 212.123 463.793Q212.144 463.168 212.229 462.547Q212.314 461.927 212.46 461.318Q212.606 460.709 212.813 460.118C215.213 453.167 222.45 449.408 228.627 446.4Z"/>
	<path fill="#F3EFD9" d="M397.129 170.818C400.937 170.532 404.493 171.043 407.984 172.603C417.104 176.678 422.57 185.761 426.015 194.749Q426.68 196.522 427.257 198.325Q427.834 200.128 428.321 201.957Q428.809 203.787 429.206 205.638Q429.602 207.489 429.907 209.357Q430.212 211.226 430.425 213.107Q430.638 214.988 430.757 216.878Q430.877 218.767 430.904 220.66Q430.93 222.553 430.863 224.445Q430.797 226.337 430.637 228.224Q430.477 230.11 430.224 231.987Q429.971 233.863 429.627 235.724Q429.282 237.586 428.846 239.428Q428.41 241.271 427.883 243.089Q427.357 244.908 426.742 246.698Q426.127 248.489 425.424 250.247Q424.721 252.005 423.933 253.726Q415.997 253.646 408.063 253.485C409.795 246.385 416.432 242.67 418.831 232.234C421.803 219.305 420.215 205.57 413.096 194.226C406.13 183.128 398.06 179.372 385.729 176.512C389.101 173.777 393.106 172.289 397.129 170.818Z"/>
	<path fill="#F3EFD9" d="M635.671 170.787C640.035 170.598 644.038 171.405 647.849 173.569C654.831 177.535 658.743 184.829 660.76 192.364C664.137 204.982 661.361 214.905 654.988 225.879C655.684 222.933 656.226 219.945 656.426 216.922C656.915 209.552 655.039 200.205 649.95 194.573C648.469 192.933 646.465 191.612 644.184 191.587C640.134 191.544 636.304 194.821 633.666 197.538C630.801 202.238 628.977 208.136 628.923 213.649C628.828 223.362 633.951 228.327 640.307 234.757C632.223 232.318 626.088 227.903 622.079 220.292C617.249 211.122 617.157 199.085 620.288 189.319C622.958 180.988 627.933 174.843 635.671 170.787Z"/>
	<path fill="#F3EFD9" d="M970.865 395.128C982.962 393.983 996.571 394.868 1008.64 396.598C1008.41 397.064 1008.16 397.442 1007.79 397.802C1004.29 401.156 966.093 416.48 960.195 417.466C947.436 419.6 929.837 417.973 916.307 418.344Q893.506 418.923 870.724 420.009C861.475 420.475 852.177 421.332 842.926 421.507L842.765 420.791C858.628 417.866 881.47 407.905 896.95 402.241C904.168 399.599 911.471 396.597 919.132 395.541C922.474 395.08 925.966 395.287 929.332 395.374C925.379 399.988 916.45 398.849 912.633 404.135C911.653 405.492 911.658 406.387 911.899 407.92C912.482 408.688 913.08 409.306 913.888 409.843C923.1 415.962 942.479 414.169 952.883 412.183C957.947 411.217 966.696 409.021 969.413 404.213C971.582 400.377 968.053 399.638 967.347 396.436C968.567 395.27 969.286 395.362 970.865 395.128Z"/>
	<path fill="#F3EFD9" d="M711.457 440.053C712.349 439.914 713.216 439.858 714.117 439.859C719.143 439.869 724.621 440.686 728.249 444.476C732.571 448.991 732.243 454.457 733.554 460.07C734.113 462.461 735.521 464.781 735.464 467.253C739.873 468.223 744.483 468.928 748.418 471.249C750.59 472.531 752.219 473.876 752.894 476.412C752.624 477.683 752.627 478.238 751.576 479.112C747.946 482.131 740.596 480.7 736.325 480.349C736.208 479.957 736.212 479.882 735.943 479.493C732.932 475.136 724.633 470.83 719.527 469.912C711.033 468.385 705.667 474.26 699.356 478.707L698.846 479.495C692.402 482.447 664.368 480.076 657.264 478.233C656.821 473.608 655.977 468.898 658.839 464.831C660.372 462.654 662.66 461.541 665.24 461.177C673.05 460.074 680.234 464.923 686.12 469.397C689.445 467.632 693.697 465.935 696.351 463.252C698.474 461.593 699.221 454.214 700.873 451.457C703.427 447.194 708.104 443.705 711.457 440.053Z"/>
	<path fill="#F3EFD9" d="M422.871 313.907C431.508 317.557 439.041 324.528 447.38 328.993C472.389 342.383 501.553 350.094 529.775 352.688C536.757 353.329 543.886 353.788 550.894 353.798C556.408 353.806 562.208 353.275 567.679 353.926C569.184 354.105 570.751 354.447 571.835 355.585C574.274 358.146 573.581 364.22 573.606 367.575C521.58 373.526 472.509 355.708 428.357 329.666C426.325 324.453 424.423 319.285 422.871 313.907Z"/>
	<path fill="#F3EFD9" d="M416.57 70.3367C422.009 71.9235 426.325 75.1684 430.579 78.7926C437.463 84.6572 462.354 108.732 463.044 117.153L462.274 117.865C458.103 117.517 445.004 106.661 438.757 104.032C445.735 111.793 453.63 118.665 460.642 126.401C453.032 122.521 436.289 109.635 428.902 109.124C433.737 113.96 443.371 119.072 446.418 124.651L445.85 125.224C439.724 125.544 432.212 120.871 426.158 119.264C429.613 123.617 434.518 126.409 438.564 130.187C434.841 128.716 431.061 127.483 427.254 126.254L431.517 131.889L431.014 132.459L427.503 132.522L427.001 133.149L427.401 135.716C423.131 141.339 416.598 145.177 412.057 150.721C408.174 123.68 408.84 96.6328 416.57 70.3367Z"/>
	<path fill="#F3EFD9" d="M531.762 174.55C538.6 174.048 545.155 176.527 550.448 180.784C561.998 190.071 564.951 202.887 566.537 216.784C562.682 209.79 560.046 202.277 554.074 196.729C551.027 195.938 548.25 195.231 545.096 195.74C540.877 196.421 537.339 198.684 534.877 202.167C530.425 208.464 530.151 216.97 531.465 224.289C532.879 229.619 537.349 234.334 540.053 239.176C539.453 239.852 539.144 239.859 538.259 240.017C531.168 241.283 521.146 237.109 515.488 233.085C508.26 227.945 502.905 220.672 501.551 211.781Q501.433 211.005 501.353 210.224Q501.273 209.442 501.232 208.658Q501.191 207.874 501.19 207.089Q501.188 206.303 501.225 205.519Q501.262 204.735 501.338 203.953Q501.414 203.172 501.529 202.395Q501.644 201.618 501.797 200.848Q501.95 200.078 502.141 199.316Q502.333 198.554 502.561 197.803Q502.79 197.052 503.056 196.313Q503.322 195.574 503.624 194.85Q503.926 194.125 504.264 193.416Q504.602 192.707 504.975 192.016Q505.347 191.325 505.754 190.653Q506.16 189.981 506.6 189.33Q507.039 188.679 507.51 188.051C513.528 180.006 521.998 175.907 531.762 174.55Z"/>
	<path fill="#F3EFD9" d="M668.464 301.144C669.298 301.766 669.581 302.278 669.93 303.265C674.225 315.434 668.798 350.333 665.133 363.336C662.793 371.637 659.51 379.509 655.61 387.189C648.613 387.827 641.768 388.761 634.793 387.432C633.702 385.24 632.917 382.873 632.064 380.578C628.855 373.1 624.753 365.819 622.237 358.085C625.613 351.219 624.706 345.033 624.147 337.637C630.477 330.894 639.94 326.831 647.591 321.741C655.951 316.178 662.264 308.942 668.464 301.144Z"/>
	<path fill="#F3EFD9" d="M383.739 182.259C386.06 182.413 388.379 182.576 390.628 183.203C398.332 185.354 404.642 191.262 408.494 198.122C414.151 208.199 415.364 221.363 412.234 232.475C409.48 242.249 403.552 248.727 394.819 253.528L377.216 253.579C374.219 249.594 371.637 245.626 369.581 241.07C363.842 228.356 361.654 212.085 366.803 198.818C370.137 190.228 375.547 185.789 383.739 182.259Z"/>
	<path d="M391.23 197.452C392.076 198.194 392.882 199.013 393.381 200.037C397.433 208.37 397.456 224.403 394.654 233.007C393.703 231.657 392.786 230.177 392.12 228.666C388.364 220.138 387.741 206.003 391.23 197.452Z"/>
	<path fill="#F3EFD9" d="M534.765 61.9593C552.409 59.7196 588.071 66.5865 604.958 71.7832C601.155 74.4025 597.341 77.0192 593.962 80.1812C589.633 84.2327 585.84 88.9387 580.965 92.3602C574.291 91.4826 567.692 89.8923 561.02 88.9285C552.395 87.6827 543.87 87.3508 535.177 87.2939C521.831 87.3761 502.874 91.1456 489.815 94.3773C480.999 89.7592 473.04 82.4471 465.125 76.4147C488.003 67.4599 510.354 63.4426 534.765 61.9593Z"/>
	<path fill="#F3EFD9" d="M702.475 486.178C709.898 485.147 727.597 486.752 736.121 486.759C769.806 486.787 803.854 485.765 837.49 487.904C838.041 488.602 838.208 488.723 838.256 489.617C838.559 495.276 835.268 501.395 834.272 506.975C833.105 513.513 832.605 520.178 831.617 526.745C831.434 527.961 831.252 530.118 830.331 531.02C828.487 532.825 824.279 532.417 821.844 532.426C777.117 531.412 732.197 531.151 687.508 529.275C689.578 519.565 691.671 509.264 695.446 500.052C697.303 495.519 701.44 490.868 702.475 486.178Z"/>
	<path fill="#F3EFD9" d="M1019.39 398.723C1020.99 398.626 1022.61 398.355 1024.04 399.227C1025.11 399.879 1025.59 401.306 1025.89 402.453C1027.9 410.17 1029.66 452.192 1026.37 457.943C1025.86 459.474 1022.75 461.157 1021.37 461.987C1013.28 466.86 985.453 480.412 976.913 482.904C975.03 483.454 972.788 483.82 970.873 483.236C961.583 480.401 969.449 440.438 963.838 430.448C963.339 429.56 963.293 429.62 962.33 429.346C954.706 437.932 966.542 475.982 958.861 484.97C958.77 485.076 958.672 485.175 958.577 485.278Q920.844 484.898 883.122 483.915Q885.484 482.968 887.706 481.728C889.548 480.718 891.757 479.327 892.381 477.21Q893.384 476.44 894.153 475.436C895.358 473.862 895.66 472.552 895.446 470.637C893.848 468.094 890.973 467.08 888.174 466.413C877.729 463.924 862.186 468.336 853.228 473.863C849.267 476.307 846.01 479.677 842.087 482.046L841.694 482.279C837.989 481.416 833.778 481.628 829.977 481.492C830.451 480.665 830.834 479.807 831.053 478.877C832.9 471.055 833.489 432.63 829.735 426.679C845.524 426.246 861.249 424.855 877.075 424.562C898.571 424.164 920.165 424.876 941.633 424.158C949.453 423.896 957.397 423.139 964.977 421.126C977.254 417.865 988.463 411.565 1000.14 406.725C1005.09 404.676 1010.41 403.582 1015.29 401.363C1016.84 400.656 1018.21 399.986 1019.39 398.723Z"/>
	<path d="M990.566 422.689C995.932 421.832 1001.55 421.618 1006.41 424.406C1009.88 426.393 1012.22 429.676 1013.27 433.507C1014.93 439.613 1013.25 446.569 1010.16 451.94C1007.11 457.228 1002.4 461.623 996.449 463.272C996.224 463.528 996.202 463.579 995.876 463.8C993.781 465.216 990.252 466.268 987.713 465.854C984.905 465.395 982.545 463.426 980.913 461.184C977.247 456.149 976.507 448.956 977.423 442.952C978.787 434.02 983.536 427.926 990.566 422.689Z"/>
	<path fill="#F3EFD9" d="M995.656 431.074L997.168 431.178C998.128 432.224 998.299 432.966 998.528 434.342C999.167 438.183 1000.43 450.367 997.964 453.409C997.37 454.141 996.248 453.951 995.34 454.021C990.477 445.268 994.27 440.138 995.605 431.436C995.624 431.316 995.639 431.195 995.656 431.074Z"/>
	<path d="M912.047 435.869C920.092 435.648 934.29 433.971 941.617 436.797C944.322 437.841 946.194 439.808 947.271 442.486C949.63 448.354 948.609 457.679 946.227 463.383C940.604 464.947 920.118 462.317 912.529 461.999Q896.849 461.365 881.157 461.261C872.343 460.98 858.316 462.032 850.216 459.837C842.216 457.669 847.558 444.018 844.225 438.215C844.153 438.089 844.074 437.966 843.999 437.841C866.788 435.098 889.284 437.29 912.047 435.869Z"/>
	<path fill="#F3EFD9" d="M887.959 441.86C891.475 441.398 895.283 441.104 898.83 441.224C900.694 441.288 902.777 441.876 904.036 443.329C905.474 444.99 905.528 447.083 905.346 449.149C905.104 451.889 904.558 453.685 902.382 455.497C898.807 457.648 890.97 456.476 886.76 456.351C889.362 451.92 889.155 446.718 887.959 441.86Z"/>
	<path fill="#F3EFD9" d="M915.642 441.861C921.926 441.459 934.093 440.967 940.104 442.6C940.932 443.622 941.376 444.53 941.587 445.84C941.99 448.34 941.951 452.764 940.235 454.822C938.639 456.736 935.531 456.508 933.28 456.595C925.248 457.181 917.019 456.607 908.971 456.401C909.392 455.724 909.675 454.999 909.939 454.249C911.374 450.163 910.883 446.24 909.064 442.386C911.271 442.299 913.447 442.096 915.642 441.861Z"/>
	<path fill="#F3EFD9" d="M855.579 440.663C863.715 439.936 872.646 440.896 880.824 441.304C882.464 443.077 883.362 446.073 883.551 448.451Q883.58 448.862 883.567 449.273Q883.554 449.684 883.499 450.092Q883.444 450.5 883.347 450.9Q883.25 451.3 883.113 451.688Q882.975 452.077 882.799 452.448Q882.623 452.82 882.409 453.172Q882.195 453.524 881.947 453.852Q881.698 454.18 881.417 454.481C879.754 456.233 877.681 456.231 875.43 456.374Q861.843 456.155 848.257 456.416C851.524 452.584 848.236 446.151 850.952 442.61C852.171 441.021 853.761 441.039 855.579 440.663Z"/>
	<path fill="#F3EFD9" d="M659.546 393.201C706.809 395.976 754.089 396.32 801.416 397.108C815.644 397.345 829.991 396.697 844.191 397.345C848.968 397.563 855.191 397.589 859.612 399.538C859.911 400.19 860.037 400.647 860.028 401.377C859.876 413.708 836.625 414.405 829.604 421.971C821.571 430.628 829.567 448.727 822.73 455.732C818.609 459.614 812.523 461.1 807.083 461.907C792.405 464.787 757.347 460.5 741.563 459.162C741.597 455.686 738.339 448.196 736.372 445.265C731.145 437.48 722.599 435.113 713.899 433.476C710.611 436.94 704.282 437.736 700.713 441.611C696.213 446.497 695.61 455.39 690.155 459.052C685.608 462.105 676.975 456.661 671.997 455.783C664.853 454.524 659.751 457.236 654.148 461.216C649.943 446.448 644.647 431.97 639.973 417.343C647.163 409.828 653.305 401.498 659.546 393.201Z"/>
	<path fill="#F3EFD9" d="M689.878 534.156C706.369 533.418 722.803 534.911 739.277 535.427C769.296 536.366 799.521 537.227 829.549 537.289C829.901 537.639 829.779 537.5 830.162 537.985C836.038 545.421 833.919 587.501 832.643 598.221C830.516 616.075 823.646 637.875 809.002 649.377C808.895 650.218 808.718 650.775 808.238 651.474C802.346 660.071 788.663 666.665 778.553 668.492Q777.01 668.766 775.455 668.965Q773.901 669.164 772.339 669.287Q770.776 669.41 769.21 669.457Q767.643 669.505 766.076 669.476Q764.509 669.447 762.946 669.342Q761.382 669.237 759.825 669.056Q758.269 668.875 756.722 668.619Q755.176 668.362 753.645 668.031Q752.113 667.701 750.599 667.296Q749.085 666.891 747.592 666.412Q746.1 665.934 744.632 665.385Q743.165 664.835 741.726 664.214Q740.286 663.594 738.879 662.904Q737.472 662.214 736.1 661.457Q734.728 660.7 733.394 659.877Q732.06 659.054 730.768 658.167C707.076 641.604 692.956 610.672 688.068 582.931C686.599 574.592 683.603 540.673 687.915 534.494L689.878 534.156Z"/>
</svg>
