<?xml version="1.0" encoding="utf-8" ?>
<svg xmlns="http://www.w3.org/2000/svg" xmlns:xlink="http://www.w3.org/1999/xlink" width="2559" height="1439">
	<path fill="#F4EDD6" d="M0 0L2557.25 0C2560.29 4.76968 2559 14.7394 2559 20.4763L2559 1067.36L2559.01 1339.08L2559 1407.13C2558.99 1415.87 2560.39 1427.55 2558.62 1436C2558.38 1437.16 2557.86 1438.01 2557.25 1439L0 1439L0 0Z"/>
	<path d="M1004.59 859.125C1007.53 858.997 1010.65 858.734 1013.58 858.975C1017.75 859.316 1022.02 862.806 1024.39 866.071C1026.23 868.61 1027.1 871.683 1026.46 874.791C1025.42 879.864 1022.08 883.512 1017.87 886.25Q1016.93 886.435 1015.98 886.581C1011.14 887.307 1005.92 886.599 1002.04 883.399C999.398 881.219 997.941 878.132 997.684 874.738C997.196 868.301 1000.69 863.737 1004.59 859.125Z"/>
	<path fill="#F4EDD6" d="M1010.54 863.647C1011.84 863.622 1013.22 863.572 1014.5 863.824C1016.45 864.209 1018.16 865.825 1019.15 867.472C1020.54 869.751 1020.54 872.513 1019.76 874.999C1018.63 878.629 1016.56 879.992 1013.33 881.716C1009.75 881.013 1006.3 880.086 1004.23 876.823C1003.1 875.053 1002.85 872.989 1003.44 870.984C1004.57 867.124 1007.28 865.526 1010.54 863.647Z"/>
	<path d="M877.725 786.21C880.08 786.129 882.466 786.917 884.552 787.985C889.814 790.68 891.886 797.558 893.531 802.768C892.666 805.512 891.786 808.657 890.398 811.189C887.368 816.718 882.458 818.124 876.814 819.676C873.468 819.555 870.134 818.721 867.212 817.032C863.811 815.065 861.506 812.064 860.659 808.212C859.098 801.117 861.902 795.943 865.457 790.176C869.434 788.643 873.655 787.496 877.725 786.21Z"/>
	<path fill="#F4EDD6" d="M878.125 790.185C878.988 790.336 879.727 790.467 880.516 790.87C883.451 792.367 885.84 794.787 886.868 797.948C887.991 801.404 887.037 805.706 885.262 808.784C883.127 812.488 880.037 813.303 876.217 814.442Q875.386 814.178 874.565 813.882C871.163 812.637 868.376 810.926 866.926 807.453C865.657 804.414 866.034 801.258 867.465 798.351C869.965 793.27 873.116 791.972 878.125 790.185Z"/>
	<path d="M1014.22 551.335C1016.65 550.869 1017.27 550.6 1019.66 551.481C1024.97 559.21 1024.54 576.85 1025.51 586.172C1024.39 588.576 1023.04 591.296 1020.63 592.655C1018.86 593.655 1016.33 593.76 1014.43 593.081C1012.02 592.219 1011.59 591.096 1010.76 588.843C1011.47 583.209 1015.13 580.373 1019.29 577.076C1018.46 572.421 1017.96 567.756 1017.47 563.055L1005.27 566.563L1002.71 567.457C1000.53 572.251 1004.21 580.687 1004.16 586.123C1004.14 588.676 1002.79 591.007 1000.82 592.611C999 594.099 996.344 594.701 994.034 594.395C991.375 594.042 989.97 593.014 988.304 591.011C987.95 589.169 987.535 588.226 988.231 586.43C989.815 582.342 992.934 580.89 996.674 579.172L997.831 578.646C997.033 570.569 996.514 562.445 994.188 554.632C1001.06 553.968 1007.5 553.026 1014.22 551.335Z"/>
	<path d="M968.011 748.962C971.728 749.256 974.96 751.019 978.593 751.916C983.555 753.142 988.171 756.031 990.778 760.574C992.704 763.931 993.351 767.949 992.324 771.703C990.444 778.578 984.698 782.774 978.811 786.007C975.555 786.415 972.419 786.79 969.163 786.079Q968.698 785.975 968.238 785.847Q967.779 785.719 967.327 785.567Q966.875 785.415 966.432 785.24Q965.989 785.064 965.555 784.866Q965.122 784.667 964.699 784.447Q964.277 784.226 963.866 783.983Q963.456 783.74 963.059 783.476Q962.662 783.212 962.279 782.928Q961.896 782.643 961.529 782.339Q961.162 782.035 960.812 781.712Q960.461 781.389 960.127 781.048Q959.794 780.707 959.479 780.349Q959.164 779.991 958.868 779.617Q958.573 779.243 958.297 778.854Q958.021 778.465 957.766 778.063Q957.511 777.66 957.278 777.244C954.806 772.884 954.332 767.567 955.706 762.771C957.708 755.784 961.938 752.273 968.011 748.962Z"/>
	<path fill="#F4EDD6" d="M969.209 752.682L972.067 754.848C977.178 755.239 981.823 757.202 985.325 761.123C986.797 762.771 987.544 764.639 987.357 766.862C986.946 771.731 982.913 776.292 979.486 779.427C977.591 779.929 975.484 780.319 973.519 780.427C969.945 780.625 966.197 779.398 963.732 776.747C961.32 774.152 960.531 770.672 960.686 767.21C960.988 760.465 964.422 756.807 969.209 752.682Z"/>
	<path d="M1339.25 523.761C1353.44 515.282 1367.83 506.231 1383.46 500.626C1394.71 518.844 1394.83 548.552 1393.8 569.543C1392.99 586.227 1390.31 601.338 1396.1 617.494C1408.4 623.314 1415.66 633.184 1420.11 645.949C1425.11 660.315 1426.09 676.754 1420.23 690.969C1441.98 684.086 1464.24 682.931 1486.87 683.104C1491.96 683.143 1499.3 682.315 1503.87 684.619L1503.84 685.795C1495.48 688.224 1485.48 687.089 1476.83 687.146C1459.85 687.258 1431.73 688.922 1416.86 696.715C1415.5 699.569 1415.64 701.916 1415.71 705.002C1416.3 705.417 1416.81 705.999 1417.49 706.246C1420.77 707.437 1429.33 705.661 1433.18 705.686C1443.45 705.751 1496.18 707.845 1499.75 717.324C1492.43 718.029 1482.85 714.513 1475.53 713.306C1462.39 711.141 1427.26 707.169 1415.51 712.566C1414.18 714.319 1414.5 716.128 1414.57 718.205C1417.73 722.394 1427.27 723.741 1432.43 725.299C1447.64 729.886 1463.71 735.129 1478.2 741.606C1479.87 742.353 1484.73 744.353 1485.77 745.74C1486.47 746.691 1486.17 748.109 1487.44 748.43C1473.95 747.383 1458.88 739.873 1446.08 735.463C1435.33 731.758 1424.39 728.489 1413.49 725.246C1410.89 733.166 1407.69 740.44 1403.34 747.554C1405.48 780.57 1406.54 813.504 1390.69 843.698C1419.62 843.896 1448.46 846.424 1477.37 846.661L1557.51 847.855C1569.49 848.141 1582.83 847.423 1594.63 849.401C1594.85 849.269 1595.07 849.144 1595.29 849.006C1607.14 841.433 1624.72 811.997 1635.34 799.984C1638.99 795.85 1644.7 794.883 1648.61 790.739C1662.09 776.467 1674.55 761.127 1687.86 746.666C1698.97 734.607 1712.47 722.375 1722.16 709.269C1724.66 705.886 1725.18 701.559 1727.36 698.081C1729.01 695.451 1731.96 693.806 1735.07 694.827C1736.08 695.158 1737.08 695.929 1737.95 696.538C1738.57 699.063 1738.44 699.99 1737.03 702.277C1732.88 708.989 1723.01 714.56 1717.43 720.528C1695.92 743.528 1675.07 767.977 1654.62 791.921C1647.5 800.252 1652.17 797.237 1650.32 803.35C1649.09 807.437 1607.07 855.485 1602.67 858.406C1615.75 855.905 1627.89 849.577 1640.83 847.384C1655.72 844.861 1746.64 842.992 1756.76 849.984C1757.28 850.341 1757.78 850.726 1758.28 851.11C1784.11 851.263 1911.43 850.099 1924.91 858.308C1921.93 859.964 1918.78 860.122 1915.44 860.264C1897.49 861.028 1879.17 858.94 1861.23 858.125C1846.18 857.441 1831.11 858.15 1816.06 857.565C1797.08 856.827 1777.97 854.925 1758.98 854.904C1764.31 864.969 1763.49 901.717 1760.34 912.559C1758.17 920.01 1750.73 923.68 1744.3 927.075C1734.31 932.351 1722.83 938.699 1711.85 941.533C1731.21 941.585 1750.45 939.694 1769.77 939.201C1801.42 938.393 1832.91 939.418 1864.52 940.261C1876.68 940.585 1889.11 939.713 1901.21 940.915C1904.83 941.274 1910.29 941.766 1913.15 944.113L1912.83 944.761C1882.87 947.384 1852.64 943.255 1822.69 943.865C1802.99 944.266 1783.18 944.262 1763.5 944.981C1746.72 945.594 1729.95 947.055 1713.16 947.395Q1657.65 948.803 1602.23 945.326C1592.99 944.827 1583.61 945.039 1574.4 944.22C1574.02 949.102 1570.5 953.98 1569.47 958.985C1567.84 966.877 1567.93 982.129 1564.58 988.596Q1661.86 992.456 1759.21 993.69C1784.49 994.048 1809.98 992.941 1835.21 993.755C1837.64 993.833 1840.83 993.905 1842.71 995.589C1841.2 997.706 1836.61 998.796 1834.01 999.252C1819.96 1001.71 1782.24 998.989 1765.66 998.73Q1665.15 997.842 1564.72 993.68C1568.28 1000.57 1569.18 1038.57 1568.46 1047.22Q1567.9 1054.33 1566.5 1061.32Q1565.1 1068.32 1562.89 1075.1C1556.37 1095.36 1543.36 1115.33 1524 1125.3C1508.64 1133.22 1488.64 1132.71 1472.48 1127.45C1449.67 1120.04 1433.02 1100.4 1422.55 1079.57C1413.62 1061.82 1407.28 1038.62 1407.23 1018.63C1407.21 1008.93 1408.43 999.256 1408.56 989.566Q1362.15 987.805 1315.72 987.222C1277.96 986.975 1240.11 987.619 1202.36 986.654L1079.72 982.415C1058.39 981.511 1036.97 979.816 1015.62 979.562C980.098 979.138 944.264 979.054 908.746 979.565C885.628 979.897 861.843 982.636 838.863 978.883C827.347 978.826 791.843 981.145 783.025 975.751C792.134 972.179 841.212 973.638 852.155 975.988C871.52 976.509 890.642 975.265 909.966 974.997Q955.003 974.619 1000.04 974.877C1021.95 975.015 1043.85 976.385 1065.73 977.2C1093.48 978.233 1121.24 978.377 1148.98 979.307C1166.26 979.887 1183.51 981.32 1200.79 981.721C1221.01 982.191 1241.27 981.662 1261.5 981.776Q1335.39 981.733 1409.21 985.124C1412.47 970.064 1415.19 955.922 1422.85 942.297C1362.7 940.068 1302.65 939.69 1242.5 938.102C1195.47 936.86 1148.24 934.386 1101.2 934.377L899.993 933.247C870.929 932.793 842.368 933.96 813.287 931.961C808.207 931.612 794.614 933.91 791.056 930.478L791.141 928.105C795.683 924.179 838.072 927.692 846.85 927.731C843.005 922.53 839.717 917.565 840.649 910.711C841.505 904.421 845.511 899.776 850.483 896.183C876.864 877.121 954.49 864.101 987.236 864.921L986.007 865.394C975.721 869.239 963.884 870.007 953.055 871.756C923.518 876.528 892.962 880.841 865.593 893.525C859.083 896.541 850.398 900.583 847.329 907.554C845.798 911.029 846.087 914.94 847.745 918.313C849.607 922.099 853.404 925.334 856.619 928.013C871.954 928.202 887.299 927.928 902.629 928.193C912.756 928.368 924.488 930.139 934.414 928.521C935.438 918.804 936.684 909.29 944.818 902.757C950.872 897.894 961.694 895.577 969.304 896.727C972.848 897.263 975.358 898.802 977.349 901.774C980.918 907.102 982.764 912.33 989.596 913.648C994.288 914.553 996.309 915.549 1000.07 918.373C1003.39 916.649 1006.23 913.052 1009.66 911.882C1013.27 910.648 1017.45 913.082 1020.95 911.067C1030.21 905.723 1029.94 894.533 1044.16 899.001C1049.54 900.692 1054.6 902.616 1058.85 906.439C1066.67 884.646 1073.93 863.242 1084.79 842.732C1035.23 845.305 986.088 842.57 936.541 841.997C902.194 841.6 867.833 843.286 833.497 843.99C826.118 844.142 789.129 846.583 784.635 844.039L784.712 842.935C790.859 839.882 912.126 836.336 926.698 836.344C957.772 836.359 988.821 838.057 1019.92 837.999C1040.63 837.961 1067.18 835.179 1086.99 837.75C1091.53 829.987 1096.32 822.217 1100.32 814.159C1108.14 798.416 1113.14 782.431 1126.15 769.745Q1126.78 764.267 1127.34 758.781C1117.16 764.324 1081.57 786.072 1072.72 787.786L1072.72 787.025C1090.23 772.53 1110.55 761.679 1130.81 751.54C1127.13 746.691 1123.61 741.887 1120.43 736.692C1105.06 740.346 1090.04 744.271 1075.13 749.519C1065.11 753.049 1054.99 758.279 1044.68 760.646C1043.46 760.925 1044.02 760.968 1042.85 760.353C1058.6 748.583 1079.78 742.689 1098.54 737.535C1103.92 736.057 1110.87 735.286 1115.85 732.963C1117.87 732.023 1117.86 731.844 1118.28 729.831C1114.28 723.544 1107.5 720.555 1102.35 715.406C1083.87 717.61 1065.51 720.126 1047.34 724.24C1043.34 725.146 1032.13 728.976 1028.69 727.797C1042.97 717.02 1080.57 713.384 1098.7 711.558C1088.65 696.289 1083.29 679.25 1087.14 660.939C1090.11 646.802 1098.08 638.604 1108.69 629.524C1104.41 608.549 1109.1 586.909 1120.83 569.078Q1122.34 566.757 1124.05 564.581C1124.87 551.169 1126.26 520.572 1136.94 511.459C1140.13 508.733 1144.39 508.31 1148.43 508.729C1162.52 510.188 1177.09 520.332 1188.08 528.739C1226.49 508.74 1284.91 505.955 1325.97 518.651C1330.48 520.048 1334.94 521.82 1339.25 523.761Z"/>
	<path fill="#F4EDD6" d="M1363.73 848.675L1379.66 848.984L1373.01 858.467L1367.01 865.508C1366.3 859.752 1365.17 854.29 1363.73 848.675Z"/>
	<path fill="#F4EDD6" d="M1135.18 757.219C1138.5 758.477 1140.67 761.165 1143.09 763.662C1143.94 768.314 1147.21 773.682 1146.22 778.285C1142.72 775.951 1135.86 772.451 1134.05 768.709C1132.18 764.831 1133.93 761.024 1135.18 757.219Z"/>
	<path fill="#F4EDD6" d="M1124.86 714.447C1130.85 714.302 1137.41 713.654 1143.33 714.434C1145.32 714.695 1145.79 714.513 1147 716.07C1146.75 716.381 1146.52 716.702 1146.27 717.003C1143.02 720.827 1138.1 722.084 1133.36 722.622C1133.17 722.679 1132.98 722.74 1132.79 722.793C1124.63 725.022 1116 718.811 1109.22 714.898Q1117.04 714.75 1124.86 714.447Z"/>
	<path fill="#F4EDD6" d="M1399.91 625.777C1402.96 627.295 1405.13 630.177 1407.08 632.907C1416.65 646.29 1419.13 666.252 1416.4 682.108L1414.87 682.431C1412.49 676.578 1412.33 668.961 1410.66 662.632C1407.43 650.395 1402.45 638.064 1399.91 625.777Z"/>
	<path fill="#F4EDD6" d="M1121.34 579.684L1122.15 580.434C1123.03 582.984 1123.33 618.905 1122.14 621.229C1120.94 623.584 1117.57 624.195 1115.2 625.095C1114.18 624.401 1113.76 623.826 1113.39 622.581C1109.89 610.729 1116.57 590.581 1121.34 579.684Z"/>
	<path fill="#F4EDD6" d="M1329.57 701.223C1335.94 700.701 1342.23 700.736 1348.61 700.804C1345.77 705.762 1342.51 710.517 1339.42 715.316C1340.2 721.182 1339.82 725.803 1338.73 731.57C1343.4 735.164 1349.02 738.586 1350.86 744.464C1347.57 745.698 1339.72 738.294 1336.29 736.824C1336.11 736.747 1335.92 736.678 1335.74 736.605C1330.49 741.075 1325.63 745.586 1319.27 748.405L1319.03 747.453C1323.56 740.717 1329.24 735.837 1335.3 730.529L1335.93 715.674C1333.07 712.997 1327.26 709.106 1325.78 705.629C1325.08 704.004 1325.52 703.962 1326.15 702.457L1329.57 701.223Z"/>
	<path fill="#F4EDD6" d="M1344.27 797.207C1345.64 798.362 1346.39 800.418 1346.8 802.172C1347.17 803.729 1346.68 804.893 1345.91 806.223C1340.45 815.633 1319.45 819.675 1309.44 822.278C1307.46 819.135 1307.59 812.584 1307.21 808.804C1320.42 806.804 1332.23 802.824 1344.27 797.207Z"/>
	<path fill="#F4EDD6" d="M1300.11 832.621L1302.82 833.649C1304.06 835.839 1305.01 837.605 1307.02 839.163L1308.67 838.575C1308.76 836.578 1308.62 834.711 1309.84 833.027C1311.91 833.287 1313.4 834.055 1315.09 835.292C1318.03 837.445 1319.37 840.66 1319.9 844.183C1320.82 850.196 1319.27 853.33 1315.8 857.93C1313.31 859.22 1310.93 860.368 1308.11 860.668C1304.41 861.061 1300.62 860.058 1297.82 857.566C1294.55 854.668 1293.08 850.356 1293.15 846.056C1293.26 840.073 1296.16 836.615 1300.11 832.621Z"/>
	<path fill="#F4EDD6" d="M1142.33 623.395C1144.91 623.322 1147.76 623.109 1150.14 624.275C1159.33 628.774 1165.36 639.018 1168.99 648.129C1177.12 668.579 1176.99 690.706 1168.26 710.835C1165.41 710.911 1163 711.141 1160.36 709.896C1160.16 704.487 1162.76 697.766 1163.93 692.424C1167.55 675.939 1164.73 656.706 1156.02 642.196C1153.33 637.7 1143.09 626.75 1142.33 623.395Z"/>
	<path fill="#F4EDD6" d="M1033.49 905.032C1037.24 904.758 1040.75 904.694 1044.47 905.3C1048 905.874 1051.41 906.922 1053.45 910.088C1057.27 915.996 1054.78 923.248 1053.5 929.609L1024.75 929.399C1019.73 929.54 1011.37 930.755 1006.86 928.469C1004.44 927.242 1003.97 926.715 1003.24 924.163C1004.3 921.842 1006.15 920.73 1008.45 919.709C1014.49 917.021 1018.53 918.159 1024.39 920.218C1026.66 914.162 1028.65 909.496 1033.49 905.032Z"/>
	<path fill="#F4EDD6" d="M1549.57 918.498C1551.18 918.584 1551.31 918.718 1552.61 919.689C1553.67 925.252 1554.46 932.442 1552.23 937.739C1540.61 936.716 1528.51 936.511 1516.84 936.576C1508.94 936.62 1499.39 937.574 1491.63 936.075C1488.89 935.545 1488.61 934.341 1487.09 932.225C1487.23 931.358 1487.39 930.791 1487.3 929.911C1486.85 925.743 1482.5 922.687 1479.53 920.152C1499.35 920.539 1533.08 931.312 1549.57 918.498Z"/>
	<path fill="#F4EDD6" d="M957.075 902.287C958.963 902.164 960.855 902.066 962.747 902.105C980.641 902.479 972.487 912.504 980.983 917.375C986.347 920.45 992.122 918.033 997.127 923.179C997.757 925.618 997.782 925.98 997.055 928.386C991.955 930.218 985.171 929.467 979.753 929.484L943.95 929.71C942.775 928.073 941.445 926.355 940.642 924.5C939.395 921.618 939.936 918.182 941.099 915.365C943.867 908.661 950.678 904.792 957.075 902.287Z"/>
	<path fill="#F4EDD6" d="M1125.35 626.817C1129.24 626.552 1132.58 626.796 1136.14 628.527C1145.31 632.987 1150.86 642.134 1154.25 651.408Q1154.9 653.164 1155.47 654.951Q1156.04 656.737 1156.51 658.549Q1156.99 660.361 1157.38 662.195Q1157.77 664.029 1158.06 665.879Q1158.36 667.73 1158.56 669.593Q1158.77 671.455 1158.88 673.326Q1158.99 675.197 1159.01 677.071Q1159.03 678.945 1158.96 680.817Q1158.89 682.69 1158.72 684.557Q1158.56 686.424 1158.3 688.28Q1158.04 690.136 1157.69 691.978Q1157.35 693.819 1156.91 695.641Q1156.47 697.463 1155.94 699.261Q1155.41 701.059 1154.79 702.828Q1154.18 704.598 1153.47 706.335Q1152.77 708.072 1151.98 709.772L1136.01 709.653C1136.75 704.446 1143.54 699.191 1145.34 693.733C1149.65 680.697 1149.52 666.18 1143.16 653.809C1139.84 647.361 1133.41 639.122 1126.65 636.055C1122.93 634.368 1118.25 633.946 1114.31 632.707L1114.46 631.879C1117.6 629.284 1121.57 628.161 1125.35 626.817Z"/>
	<path fill="#F4EDD6" d="M1362.74 627.011C1367.99 626.552 1371.19 626.655 1375.9 629.46C1383.53 634.002 1387.32 641.944 1389.29 650.311C1392.19 662.645 1389.59 671.286 1383.05 681.749C1383.69 678.252 1384.47 674.623 1384.67 671.071C1385.02 664.928 1382.1 654.482 1377.59 650.108C1376.09 648.659 1374.04 647.77 1371.97 647.835C1367.4 647.979 1364.24 650.607 1361.31 653.799C1358.16 659.69 1356.07 667.133 1357.22 673.84C1358.33 680.369 1360.24 684.19 1365.8 687.893C1366.1 688.095 1366.46 688.239 1366.7 688.51L1365.96 689.644C1365.24 689.533 1364.44 689.428 1363.74 689.237C1358.78 687.892 1353.02 681.836 1350.58 677.539C1345.34 668.309 1345.13 656.056 1348.08 646.07C1350.62 637.477 1354.8 631.326 1362.74 627.011Z"/>
	<path fill="#F4EDD6" d="M1645.27 851.497C1649.76 851.123 1653.97 850.884 1658.46 851.349C1656.28 853.12 1653.12 853.773 1650.49 854.708C1645.87 856.349 1641.53 857.627 1639.32 862.323L1640.19 864.48C1643.97 867.928 1648.31 868.819 1653.25 869.331C1664.11 870.458 1687.88 869.844 1696.33 861.757C1698.12 860.046 1698.22 858.897 1698.17 856.545C1696.75 854.997 1695.34 853.689 1694.68 851.635C1706.91 849.774 1725.1 851.283 1737.63 852.584C1732.32 857.91 1705.67 867.102 1697.14 869.932C1695 872.116 1690.78 873.299 1687.81 873.665C1677.31 874.959 1665.82 873.697 1655.17 874.006Q1611.28 874.918 1567.47 877.747C1584.1 873.874 1609.51 863.702 1626.41 857.79C1632.55 855.641 1638.89 852.772 1645.27 851.497Z"/>
	<path fill="#F4EDD6" d="M1439.68 895.973C1441.26 895.819 1442.9 895.686 1444.48 895.882C1467.16 898.7 1456.64 913.336 1464.76 923.547C1469.56 924.547 1477.27 925.979 1480.41 929.985C1481.86 931.826 1481.6 932.277 1481.3 934.448C1476.71 938.317 1470.6 936.75 1464.97 936.308C1459 930.839 1451.98 925.033 1443.31 925.72C1436.46 926.262 1432.04 930.337 1427.74 935.17C1426.61 935.987 1426.42 936.099 1425.03 936.234C1418.8 936.835 1388.78 936.888 1385.11 933.916C1385.5 931.25 1384.9 929.192 1384.66 926.599C1384.43 924.005 1385.29 922.076 1386.99 920.14C1388.74 918.149 1391.16 917.236 1393.76 917.037C1401.97 916.411 1408.24 920.495 1414.27 925.458C1417.45 922.759 1422.95 921.684 1425.27 918.566C1426.7 907.867 1432.1 902.928 1439.68 895.973Z"/>
	<path fill="#F4EDD6" d="M1150.64 769.604C1159.75 774.517 1167.82 781.219 1177.04 785.934C1207.12 801.313 1240.3 808.306 1273.86 809.814C1281.09 810.139 1288.32 809.509 1295.52 809.79C1298.09 809.89 1298.8 810.297 1300.59 812.105C1302.04 815.847 1301.7 819.623 1301.57 823.552C1251.24 830.41 1198.79 811.22 1156.36 785.699C1154.17 780.373 1152.17 775.157 1150.64 769.604Z"/>
	<path fill="#F4EDD6" d="M1144.57 526.343C1145.97 526.652 1147.28 527.051 1148.58 527.649C1158.89 532.368 1188.43 563.028 1192.21 574.203L1191.16 574.972C1182.61 571.985 1176.68 563.338 1167.87 560.651C1167.75 562.736 1185.63 578.195 1188.46 582.107C1176.98 576.977 1168.25 568.561 1155.98 564.212C1158.96 567.497 1162.31 570.137 1165.78 572.876C1168.85 574.933 1173.65 577.487 1174.92 581.091C1169.49 583.505 1160.91 575.197 1155.08 576.146C1156.66 579.254 1163.33 582.995 1166.26 585.326C1163.24 586.227 1160.36 582.736 1156.61 582.924C1156.17 586.065 1159.93 586.106 1159.9 588.927C1157.95 588.529 1156.25 588.185 1154.25 588.328L1155.52 592.645C1149.85 597.196 1144.97 600.959 1140.09 606.515C1136 583.648 1136.77 548.258 1144.57 526.343Z"/>
	<path fill="#F4EDD6" d="M1254.18 694.517C1248.08 692.697 1241.08 687.881 1236.81 683.155Q1236.3 682.604 1235.83 682.029Q1235.35 681.453 1234.9 680.854Q1234.46 680.255 1234.04 679.635Q1233.62 679.014 1233.24 678.374Q1232.85 677.733 1232.5 677.073Q1232.15 676.414 1231.83 675.738Q1231.51 675.062 1231.23 674.37Q1230.94 673.679 1230.7 672.974Q1230.45 672.27 1230.23 671.553Q1230.02 670.837 1229.84 670.111Q1229.67 669.384 1229.53 668.65Q1229.39 667.916 1229.28 667.176Q1229.18 666.435 1229.12 665.691Q1229.05 664.946 1229.02 664.199Q1228.99 663.453 1229 662.705Q1229.01 661.958 1229.06 661.212Q1229.12 660.393 1229.22 659.578Q1229.32 658.763 1229.47 657.954Q1229.61 657.146 1229.79 656.345Q1229.97 655.544 1230.2 654.754Q1230.42 653.963 1230.68 653.185Q1230.94 652.407 1231.24 651.643Q1231.54 650.878 1231.88 650.13Q1232.22 649.382 1232.6 648.652Q1232.97 647.922 1233.38 647.211Q1233.8 646.501 1234.24 645.812Q1234.69 645.123 1235.17 644.457Q1235.65 643.792 1236.17 643.151Q1236.68 642.51 1237.23 641.896Q1237.77 641.282 1238.35 640.696Q1238.92 640.11 1239.52 639.554Q1240.13 638.997 1240.76 638.472C1247.09 633.115 1255.64 629.679 1264.01 630.527C1273.84 631.523 1280.36 637.771 1286.29 645.052C1291.68 653.529 1293.74 662.271 1294.45 672.261C1289.67 665.646 1288.92 658.445 1282.4 652.929C1276.99 651.307 1273.28 650.425 1267.98 653.331C1263.13 655.995 1260.76 660.714 1259.51 665.892C1257.99 672.171 1258.52 677.845 1260.53 683.976C1262.32 686.723 1268.17 692.909 1268.38 695.592C1264.79 697.206 1257.96 695.353 1254.18 694.517Z"/>
	<path fill="#F4EDD6" d="M1396.73 756.83C1397.33 757.664 1397.41 757.618 1397.69 758.434C1401.72 770.463 1396.69 806.96 1393.1 819.881C1390.8 828.185 1387.52 835.541 1383.56 843.144C1377.01 843.241 1370.22 845.315 1363.77 843.676C1361.11 841.467 1361.24 840.481 1360.39 837.217C1357.65 829.298 1352.2 822.212 1350.34 814.081C1355.81 803.745 1350.58 797.04 1352.44 793.254C1353.98 790.096 1373.22 779.844 1377.3 776.763C1384.79 771.111 1391.14 764.34 1396.73 756.83Z"/>
	<path fill="#F4EDD6" d="M1111.77 638.32C1114.55 638.292 1117.57 638.561 1120.2 639.495C1127.72 642.169 1134.01 648.741 1137.51 655.772C1142.73 666.243 1143.49 679.479 1139.71 690.538C1136.67 699.425 1131.09 705.651 1122.67 709.665Q1113.97 709.851 1105.28 709.566C1100.82 704.281 1097.74 698.43 1095.47 691.918C1091.04 679.246 1090.07 663.762 1096.24 651.451C1099.78 644.408 1104.36 640.809 1111.77 638.32Z"/>
	<path d="M1119.24 653.572C1120.38 654.414 1121.31 655.143 1121.75 656.546C1123.79 663.19 1126.28 682.73 1122.7 688.687C1120.71 686.751 1119.91 685.226 1119.22 682.524C1117.31 675.039 1115.21 660.456 1119.24 653.572Z"/>
	<path fill="#F4EDD6" d="M1274.2 517.557C1296.97 520.307 1310.81 520.642 1333.12 527.757C1328.8 530.644 1324.26 533.657 1320.5 537.241C1317.21 540.382 1313.81 545.014 1310.18 547.587C1308.09 549.063 1300.75 546.892 1298.14 546.382C1282.5 543.319 1268.1 542.615 1252.23 543.608C1244.77 546.243 1227.29 547.674 1217.59 550.386C1209.14 545.709 1201.05 538.227 1193.25 532.403C1218.24 521.425 1247.13 517.924 1274.2 517.557Z"/>
	<path fill="#F4EDD6" d="M1431.23 941.9C1455.89 943.434 1481.08 942.585 1505.8 942.565C1525.93 942.549 1546.01 943.323 1566.13 943.762C1567.28 948.66 1563.92 955.182 1562.87 960.23C1561.04 969.052 1560.02 977.958 1559.03 986.905C1556.82 988.439 1555.4 988.228 1552.75 988.424C1506.99 987.988 1461.3 985.947 1415.56 985.376C1418.65 969.557 1421.95 955.448 1431.23 941.9Z"/>
	<path fill="#F4EDD6" d="M1748.5 854.498L1751.29 854.585C1752.68 855.645 1753.11 855.858 1753.72 857.505C1756.14 864.022 1756.95 909.061 1754.81 913.872C1750.22 919.39 1721.33 931.443 1713.54 935.196C1708.64 937.558 1702.25 941.046 1696.79 939.138C1692.37 934.336 1694.52 913.67 1694.23 906.476C1694.03 901.483 1694.43 887.527 1690.89 884.254C1683.1 894.005 1693.21 928.154 1687.55 940.672C1687.47 940.854 1687.37 941.03 1687.28 941.21C1661.7 940.885 1636.25 941.009 1610.67 939.91C1613.5 938.951 1617.75 937.372 1619.36 934.798C1620.7 933.86 1621.21 933.144 1622.2 931.86L1621.7 932.207L1623.36 929.24C1623.06 926.887 1623.06 926.279 1621.37 924.614C1618.82 922.095 1614.88 921.623 1611.47 921.534C1602.88 921.308 1586.87 926.097 1579.31 930.714C1576.25 932.589 1573.38 935.693 1570.75 938.159L1558.48 937.477C1561.53 928.029 1560.51 893.378 1558.55 882.766C1587.07 880.01 1616.46 880.535 1645.12 880.185C1659.72 880.006 1675.57 881.21 1689.82 878.001C1702.55 875.135 1715.66 868.096 1727.64 862.89C1734.07 860.099 1743.12 858.576 1748.5 854.498Z"/>
	<path d="M1719.29 878.496C1723.7 877.551 1729.79 877.988 1733.91 879.951C1737.36 881.595 1739.95 884.872 1741.15 888.452C1743.15 894.466 1741.58 901.529 1738.66 906.998C1735.23 913.422 1730.23 918.047 1723.18 920.095C1722.83 920.334 1722.52 920.638 1722.14 920.812C1720.29 921.662 1715.92 922.115 1714.05 921.532C1710.98 920.571 1708.77 917.671 1707.43 914.876C1704.35 908.457 1704.39 900.605 1706.53 893.919C1708.75 886.993 1712.75 881.824 1719.29 878.496Z"/>
	<path fill="#F4EDD6" d="M1724.46 886.493C1725.13 886.706 1725.74 887.266 1726.32 887.67C1726.63 894.416 1727.88 903.071 1726.54 909.658L1724.49 910.505C1722.8 909.232 1721.87 908.204 1721.24 906.134C1719.17 899.389 1721.58 892.553 1724.46 886.493Z"/>
	<path d="M1584.31 892.495C1599.08 891.493 1614.33 892.297 1629.16 892.204C1642.76 892.119 1657.76 890.697 1671.21 892.66C1673.79 894.564 1674.72 896.043 1675.48 899.247C1676.61 904.029 1676.81 915.273 1674.18 919.442L1663.67 919.5C1643.74 917.383 1623.1 917.61 1603.04 917.014C1594.2 916.751 1584.94 917.215 1576.23 915.568C1570.6 909.164 1575.78 901.669 1572.77 895.079C1572.59 894.677 1572.38 894.287 1572.18 893.891L1584.31 892.495Z"/>
	<path fill="#F4EDD6" d="M1616.33 897.497C1621.55 897.186 1626.48 897.368 1631.69 897.861C1632.24 898.818 1632.67 899.725 1632.92 900.807C1633.92 905.115 1633.44 908.167 1631.08 911.74C1626.7 913.251 1619.76 912.309 1615.05 912.272C1617.67 907.448 1616.8 902.747 1616.33 897.497Z"/>
	<path fill="#F4EDD6" d="M1637.57 898.495C1647.27 896.977 1658.53 898.145 1668.41 898.244C1668.61 898.637 1668.84 899.02 1669.03 899.424C1670.83 903.354 1669.92 907.657 1668.15 911.362C1665.1 914.09 1642.52 912.364 1637.27 912.317C1639.39 907.238 1639.27 903.683 1637.57 898.495Z"/>
	<path fill="#F4EDD6" d="M1587.52 896.503L1609.31 897.254C1610.32 898.896 1610.65 900.597 1611.03 902.452C1611.83 906.406 1611.7 907.642 1609.59 910.872C1606.49 912.934 1603.3 912.346 1599.75 912.179L1576.65 912.366C1579.53 907.376 1576.41 901.341 1579.46 897.524C1582.2 896.716 1584.66 896.587 1587.52 896.503Z"/>
	<path fill="#F4EDD6" d="M1387.54 849.156C1437.69 852.909 1488.05 852.029 1538.28 853.182C1551.55 853.487 1575.75 851.991 1587.67 855.151C1590.47 869.708 1565.25 869.771 1557.82 877.795C1549.91 886.332 1556.27 901.293 1551.65 911.103C1548.76 914.614 1542.5 916.317 1538.27 917.496C1538.03 917.54 1537.79 917.587 1537.55 917.627C1537.14 917.695 1536.74 917.75 1536.33 917.82C1523.6 920.048 1485.24 916.614 1470.61 915.166C1466.91 911.689 1466.97 904.71 1463.96 900.308C1459.16 893.286 1450.11 891.012 1442.29 889.53C1441.65 890.012 1441.98 889.826 1441.17 890.16C1419.47 899.094 1427.2 908.114 1417.79 915.496C1413.76 918.66 1404.46 911.914 1399.07 911.337C1392.07 910.585 1387.48 913.12 1382.16 917.177C1378.05 902.488 1372.53 887.999 1367.88 873.441C1375.2 865.962 1381.39 857.595 1387.54 849.156Z"/>
	<path fill="#F4EDD6" d="M1415.22 990.169C1432.68 989.098 1450.53 990.917 1468 991.482Q1513.14 992.877 1558.29 993.32C1563.84 1002.28 1562.24 1049.29 1559.64 1061.23C1556.85 1074.06 1549.61 1097.07 1537.98 1104.49C1537.31 1107.77 1532.5 1111.56 1529.93 1113.62C1515.95 1124.85 1502.55 1126.75 1485.1 1124.64C1466.69 1122.42 1451.72 1111.01 1440.72 1096.61C1417.48 1066.14 1410.16 1027.62 1415.22 990.169Z"/>
</svg>
