<?xml version="1.0" encoding="utf-8" ?>
<svg xmlns="http://www.w3.org/2000/svg" xmlns:xlink="http://www.w3.org/1999/xlink" width="3500" height="2000">
	<path fill="#F2EDDA" d="M0 0L3498.25 0C3499.35 1.94579 3499.78 3.27288 3499.88 5.50799C3500.63 22.1841 3500 39.1741 3500 55.8766L3500 155.531L3500.01 455.835L3500 1370.39L3500.01 1859.59C3500.01 1878.3 3501.8 1990.58 3499.38 1997.78C3499.1 1998.6 3498.67 1999.25 3498.25 2000L0 2000L0 0Z"/>
	<path fill="#010000" d="M1452.25 832.318L1456.08 831.655C1457.33 832.203 1458.12 832.232 1458.81 833.528C1460.92 837.492 1464.25 863.815 1462.63 868.225C1461.31 871.798 1459.07 873.547 1455.73 875.072C1452.92 874.923 1452.93 874.852 1450.83 872.961C1450.29 871.428 1449.75 870.028 1449.85 868.376C1450.15 863.643 1452.86 861.532 1456.35 858.808L1457.35 858.039C1456.5 853.33 1455.92 848.604 1455.33 843.858L1442.36 847.901C1436.98 849.486 1445.17 865.582 1439.09 873.276C1437.68 875.067 1435.94 876.399 1433.55 876.392C1431.28 876.385 1428.95 875.044 1427.64 873.233C1426.27 871.351 1425.96 869.007 1426.7 866.81C1428.03 862.878 1431.21 861.706 1434.73 860.242L1435.9 859.768C1435.07 851.671 1434.53 843.473 1432.15 835.654C1439.04 834.979 1445.53 834.005 1452.25 832.318Z"/>
	<path fill="#010000" d="M1818.1 782.877C1819.41 782.73 1820.29 782.327 1821.49 783.072C1836.83 792.594 1829.51 866.601 1830.61 884.381C1830.91 889.248 1832.53 893.83 1834.05 898.424C1844.46 903.195 1851.24 911.153 1855.93 921.507C1863.1 937.311 1864.43 955.712 1858.22 971.933C1880.45 964.396 1918.14 960.976 1941.8 965.398C1941.27 966.398 1940.5 966.335 1939.4 966.63C1928.41 969.584 1916.83 967.737 1905.59 968.338C1892.64 969.031 1880.21 971.326 1867.51 973.793C1863.84 974.505 1857.08 974.876 1854.68 977.983C1852.9 980.272 1853.09 981.475 1853.29 984.152C1854.83 985.955 1855.76 987.004 1858.27 987.205C1863.6 987.632 1869.74 986.712 1875.21 986.733C1891.85 986.798 1924.64 988.035 1938.23 998.134C1936.92 999.282 1925.45 996.497 1923.11 996.083C1906.85 993.208 1869.21 987.801 1853.78 993.343C1851.48 994.17 1851.85 994.495 1850.83 996.528C1857.55 1008.11 1914.02 1014.62 1926.49 1029.5L1925.17 1030.33C1919.51 1029.99 1914.43 1026.68 1909.12 1024.88Q1880.53 1014.94 1851.51 1006.34C1849.06 1014.28 1845.47 1021.38 1841.35 1028.57C1843.54 1062.55 1843.93 1093.43 1828.8 1124.67C1855.37 1124.85 1881.9 1127 1908.47 1127.47C1949.95 1128.21 1991.65 1127.57 2033.07 1130.3C2045.15 1122.29 2063.05 1093.14 2073.15 1081.13C2076.74 1076.88 2082.79 1076.15 2086.53 1071.88Q2106.64 1048.62 2127.37 1025.9C2137.93 1014.52 2149.46 1003.44 2159.22 991.409C2160.8 989.468 2161.96 987.903 2162.37 985.386C2162.69 983.36 2162.91 981.856 2164.15 980.095C2165.62 978.003 2168.15 976.778 2170.61 976.352C2173.09 975.924 2174.63 976.894 2176.54 978.25C2177.18 980.664 2177.32 982.207 2176.04 984.502C2174.67 986.943 2172.4 988.079 2169.81 988.846C2169.18 989.034 2168.52 989.154 2167.89 989.348C2165.52 990.073 2163.81 992.013 2162.16 993.756C2154.93 1001.4 2148.63 1009.95 2141.55 1017.75Q2123.44 1037.44 2105.85 1057.6C2100 1064.25 2092.55 1071.45 2088.13 1079.1C2088.29 1080.52 2088.71 1082.81 2088.3 1084.24C2086.9 1089.03 2045.7 1136.03 2040.45 1139.32C2054.11 1137.11 2066.41 1130.27 2079.94 1128.23C2098.4 1125.45 2171.74 1124.83 2189.19 1128.51C2192.06 1129.12 2193.95 1130.39 2196.29 1132.11C2221.97 1132.21 2345.72 1130.64 2362.91 1139.33C2359.89 1141.16 2355.99 1141.19 2352.54 1141.31C2334.03 1141.94 2315.34 1139.72 2296.84 1139.04C2283.83 1138.56 2270.79 1139.04 2257.78 1138.7C2237.43 1138.17 2217.03 1136.74 2196.7 1135.71C2197.15 1136.52 2197.46 1136.99 2197.79 1137.82C2201.81 1147.93 2201.9 1187.59 2197.12 1196.84C2192.57 1205.67 2159.98 1219.67 2149.58 1222.63C2164.23 1222.65 2178.88 1221.52 2193.5 1220.76C2229.83 1218.88 2266.33 1220.15 2302.64 1221.3C2315.02 1221.69 2327.87 1220.62 2340.16 1221.91C2343.69 1222.28 2348.38 1222.76 2351.11 1225.22C2347.24 1228.58 2273.18 1224.77 2262.5 1224.87C2204.22 1225.4 2146.22 1228.9 2087.9 1228.51C2062.78 1228.34 2037.56 1226.15 2012.42 1225.33C2012.49 1226.54 2012.56 1225.91 2011.98 1227.38C2008.39 1236.5 2006.22 1245.98 2004.87 1255.69C2004.2 1260.49 2004.47 1265.03 2002.56 1269.59C2020.68 1270.57 2038.86 1270.42 2056.99 1271C2103.94 1272.51 2150.74 1273.93 2197.73 1274.64Q2221.08 1275.07 2244.43 1274.87C2254.57 1274.81 2265.18 1274.13 2275.26 1275.13C2277.41 1275.34 2279.49 1275.19 2280.87 1276.91C2280.66 1277.11 2280.47 1277.35 2280.23 1277.53C2277.6 1279.49 2270.75 1280.47 2267.46 1280.64C2246.64 1281.7 2225.45 1279.99 2204.6 1279.83C2137.16 1279.29 2069.88 1276.4 2002.47 1274.69C2006.78 1281.59 2006.97 1314.8 2006.7 1323.78C2005.91 1349.72 1995.87 1377.93 1976.6 1395.91C1964.28 1407.4 1950.14 1412.72 1933.24 1412.14C1911.47 1411.4 1893.3 1403.26 1878.51 1387.14C1858.63 1365.47 1846.86 1332.87 1845.34 1303.74C1844.77 1292.81 1846.07 1281.5 1846.57 1270.56C1782.18 1267.21 1717.69 1268.85 1653.26 1267.92C1602.12 1267.17 1550.91 1263.84 1499.76 1262.58C1472.11 1260.32 1444.26 1260.64 1416.54 1260.62C1393.43 1260.6 1370.24 1260.16 1347.13 1260.53C1333.72 1260.75 1320.32 1261.86 1306.9 1261.74C1292.59 1261.61 1278.29 1260.11 1263.98 1259.72C1253.14 1259.42 1242.25 1259.81 1231.43 1259.19C1228.21 1259.01 1223.37 1259.05 1221.14 1256.56C1226.49 1252.35 1296.31 1257.21 1306.69 1257.3C1320.51 1257.43 1334.34 1256.21 1348.16 1256Q1396.36 1255.69 1444.57 1255.95C1467.92 1256.31 1491.29 1257.83 1514.63 1258.58C1539.37 1259.37 1564.14 1259.42 1588.87 1260.39C1605.34 1261.03 1621.8 1262.36 1638.28 1262.69C1708 1264.08 1777.54 1262.58 1847.26 1266.09C1850.85 1250.56 1853.46 1237.7 1860.78 1223.32Q1701.54 1217.2 1542.2 1215.44L1335.95 1214.24C1323.91 1214.11 1311.93 1215.08 1299.9 1215.12C1279.89 1215.18 1258.35 1214.22 1238.34 1213.02C1234.74 1212.8 1230.97 1212.74 1228.51 1209.96L1229.52 1208.85C1242.76 1204.84 1269.55 1208.63 1284.68 1208.64C1281.57 1204.48 1278.91 1200.24 1278.56 1194.91C1278.22 1189.77 1280.37 1184.91 1283.84 1181.21C1305.65 1157.96 1392.78 1146.09 1425.04 1145.65C1414.2 1150.2 1401.68 1151.03 1390.09 1152.88C1363.55 1157.13 1308.13 1165 1288.95 1183.46C1286.07 1186.23 1284.09 1189.64 1284.25 1193.73C1284.5 1200.69 1290.17 1205.06 1295.02 1209.19C1304.78 1209.12 1370.17 1210.72 1373.48 1209.3C1373.47 1208.59 1373.47 1207.86 1373.35 1207.16C1372.84 1204.24 1372.3 1202.29 1372.82 1199.27C1374.01 1192.38 1379.23 1186.71 1384.93 1183.03C1390.46 1179.46 1398.97 1176.19 1405.62 1177.78C1415.67 1180.19 1417.66 1184.91 1422.99 1193.08C1443.82 1203.13 1435.05 1196.96 1447 1193.11C1450.09 1192.12 1455.07 1193.73 1458.14 1192.45C1464.55 1189.77 1467.49 1179.22 1477.55 1178.87C1483.57 1178.65 1492.64 1183.74 1496.94 1187.62C1504.48 1165.98 1511.41 1143.79 1522.82 1123.81C1470.87 1126.52 1419.56 1122.41 1367.72 1122.88C1347.37 1123.07 1229.38 1128.4 1221.62 1124.48C1228.2 1120.64 1343.08 1117.45 1359.96 1117.39C1397.72 1117.26 1435.55 1118.92 1473.34 1119.02C1490.37 1119.06 1508.1 1116.53 1524.98 1118.78C1529.65 1110.76 1534.67 1102.72 1538.7 1094.36C1546.55 1078.09 1551.74 1064.29 1564.14 1050.66L1565.29 1039.9C1555.9 1044.88 1517.92 1068.41 1511.1 1068.58C1517.82 1057.42 1556.2 1038.99 1568.9 1032.58C1564.99 1027.75 1561.66 1022.88 1558.63 1017.46Q1531.02 1024.05 1504.24 1033.49C1496.67 1036.17 1489.29 1041.05 1481.58 1042.72L1480.67 1041.76C1487.16 1030.16 1543.52 1017.43 1557.47 1011.92C1557.13 1007.82 1543.92 999.624 1540.33 996.426C1528.08 997.892 1515.75 999.246 1503.6 1001.41C1492.14 1003.45 1477.29 1009.64 1465.88 1008.81C1484.59 997.094 1514.91 995.087 1536.65 992.632C1528.03 979.793 1522.92 964.966 1524.09 949.361C1525.42 931.494 1533.82 921.651 1546.71 910.482C1546.51 909.606 1546.29 908.73 1546.13 907.845C1541.93 885.331 1549.33 863.76 1562.04 845.411C1562.61 831.403 1564.23 806.547 1572.47 795.174C1574.7 792.107 1577.35 790.366 1581.12 789.837C1595.9 787.766 1614.96 801.374 1626.07 809.662Q1630.19 807.567 1634.44 805.73C1676.53 788.02 1734.99 787.21 1777.31 804.661C1790.29 796.966 1803.87 788.026 1818.1 782.877Z"/>
	<path fill="#F2EDDA" d="M1801.81 1129.71L1817.69 1129.99L1811.3 1139.11L1805.04 1146.52C1804.35 1140.79 1803.14 1135.32 1801.81 1129.71Z"/>
	<path fill="#F2EDDA" d="M1573.19 1038.21C1576.37 1039.36 1578.76 1042.33 1581.11 1044.69C1581.96 1049.3 1585.18 1054.74 1584.23 1059.31C1580.61 1056.91 1574.49 1053.83 1572.3 1050.12C1569.98 1046.22 1571.94 1042.14 1573.19 1038.21Z"/>
	<path fill="#F2EDDA" d="M1563.16 995.439C1568.85 995.186 1575.27 994.609 1580.9 995.373C1582.8 995.632 1583.74 995.615 1584.99 997.15C1584.84 997.409 1584.71 997.688 1584.52 997.927C1581.49 1001.78 1575.92 1003.04 1571.34 1003.63C1571.05 1003.73 1570.77 1003.87 1570.48 1003.95C1562.68 1006.03 1553.56 999.567 1547.15 995.922Q1555.16 995.794 1563.16 995.439Z"/>
	<path fill="#F2EDDA" d="M1837.85 906.746C1840.9 908.248 1843.16 911.138 1845.08 913.897C1854.52 927.491 1857.2 947.109 1854.39 963.167L1852.77 963.452C1852.16 961.837 1851.76 960.498 1851.6 958.768C1849.89 940.677 1841.67 924.235 1837.85 906.746Z"/>
	<path fill="#F2EDDA" d="M1559.33 860.682L1560.14 861.433C1560.78 863.538 1561.32 899.375 1560.56 901.276C1559.19 904.725 1556.39 904.887 1553.2 906.097C1552.19 905.414 1551.74 904.834 1551.39 903.599C1548.03 891.671 1554.51 871.619 1559.33 860.682Z"/>
	<path fill="#F2EDDA" d="M1767.42 982.299C1773.86 981.671 1780.25 981.744 1786.71 981.79C1783.74 986.757 1780.5 991.6 1777.4 996.487C1778.21 1002.28 1777.79 1006.82 1776.71 1012.51C1781.49 1016.21 1786.21 1019.49 1788.83 1025.13L1787.92 1025.52C1782.94 1023.83 1779.76 1020.43 1775.19 1018.26C1774.69 1018.02 1774.18 1017.8 1773.68 1017.57C1768.54 1022.04 1763.77 1026.4 1757.56 1029.36L1757.07 1028.53C1761.54 1021.7 1767.15 1016.91 1773.25 1011.62L1773.88 996.625C1771.04 993.935 1765.3 990.083 1763.78 986.628C1763.03 984.945 1763.21 985.67 1763.91 983.654L1767.42 982.299Z"/>
	<path fill="#F2EDDA" d="M1782.24 1078.1L1783.18 1079C1784.31 1082.16 1785.35 1084.36 1783.67 1087.58C1779.1 1096.37 1756.42 1100.96 1747.44 1103.27C1745.5 1100.25 1745.61 1093.56 1745.24 1089.91C1758.45 1087.59 1770.18 1083.98 1782.24 1078.1Z"/>
	<path fill="#F2EDDA" d="M1738.09 1113.58C1741.97 1115.14 1742.01 1117.55 1745.01 1120.19C1747.64 1119.18 1746.45 1116.61 1747.83 1114.08C1749.44 1114.26 1750.61 1114.67 1751.98 1115.51C1755.24 1117.5 1757.03 1120.48 1757.7 1124.21C1758.86 1130.65 1757.68 1133.59 1753.94 1138.75C1751.38 1140.19 1749.19 1141.24 1746.25 1141.62C1742.49 1142.12 1738.66 1141.14 1735.81 1138.58C1732.59 1135.68 1731.12 1131.33 1731.19 1127.06C1731.28 1121.09 1734.11 1117.68 1738.09 1113.58Z"/>
	<path fill="#F2EDDA" d="M1580.37 904.392C1583.06 904.306 1585.84 904.162 1588.33 905.389C1597.32 909.814 1603.3 919.905 1606.9 928.912C1615.14 949.553 1614.98 971.45 1606.27 991.795C1603.3 991.903 1600.96 992.117 1598.18 990.837C1597.72 986.79 1601.06 980.929 1601.95 976.761C1604.12 966.54 1603.8 953.023 1601.66 942.82Q1601.06 939.929 1600.2 937.106Q1599.34 934.283 1598.22 931.552Q1597.1 928.821 1595.73 926.206Q1594.37 923.591 1592.76 921.114C1589.95 916.744 1581.26 908.676 1580.37 904.392Z"/>
	<path fill="#F2EDDA" d="M1472 1185.85Q1474.76 1185.65 1477.52 1185.8Q1480.29 1185.95 1483.01 1186.44C1486.36 1187.05 1489.62 1188.25 1491.57 1191.24C1495.34 1197.01 1492.74 1204.41 1491.49 1210.63Q1476.12 1210.39 1460.75 1210.39C1455.87 1210.54 1449.43 1211.45 1444.88 1209.51C1442.64 1208.55 1441.93 1207.43 1441.21 1205.24C1442.29 1202.87 1444.12 1201.77 1446.43 1200.75C1452.54 1198.06 1456.39 1199.12 1462.48 1201.25C1464.8 1194.85 1466.62 1190.3 1472 1185.85Z"/>
	<path fill="#F2EDDA" d="M1989.28 1199.26C1989.37 1199.29 1989.48 1199.3 1989.55 1199.37C1992.12 1201.95 1991.61 1214.69 1991.83 1218.78C1983.08 1218.33 1931.95 1218.23 1927.56 1216.74L1927.2 1214.7C1925.28 1209.13 1922.21 1205.36 1918.41 1201C1942 1202.45 1967.27 1210.75 1989.28 1199.26Z"/>
	<path fill="#F2EDDA" d="M1395.17 1183.28C1398.67 1183.05 1402.33 1182.89 1405.79 1183.54C1414.28 1185.15 1412.92 1191.06 1417.22 1196.58C1419.8 1199.89 1424.39 1199.75 1428.22 1200.44C1431.29 1201 1433.39 1201.92 1435.21 1204.57C1435.52 1206.71 1436.09 1207.42 1434.98 1209.34C1429.34 1211.2 1422.06 1210.5 1416.1 1210.53L1381.9 1210.69C1380.11 1207.99 1378.15 1205.38 1376.26 1202.74C1380.74 1192.79 1384.73 1187.23 1395.17 1183.28Z"/>
	<path fill="#F2EDDA" d="M1561.11 908.386C1565.37 907.569 1569.25 907.455 1573.3 909.226C1583.01 913.471 1588.77 922.873 1592.27 932.481Q1592.92 934.235 1593.48 936.019Q1594.05 937.803 1594.52 939.612Q1595 941.422 1595.38 943.253Q1595.77 945.083 1596.06 946.931Q1596.36 948.778 1596.56 950.638Q1596.76 952.498 1596.87 954.365Q1596.98 956.233 1597 958.104Q1597.02 959.974 1596.95 961.844Q1596.87 963.713 1596.71 965.576Q1596.54 967.44 1596.28 969.293Q1596.02 971.146 1595.68 972.983Q1595.33 974.821 1594.89 976.64Q1594.45 978.459 1593.92 980.253Q1593.39 982.048 1592.78 983.815Q1592.16 985.581 1591.46 987.315Q1590.76 989.049 1589.97 990.746L1574.47 990.683C1574.43 988.184 1575.72 987.022 1577.06 985.026C1585.17 972.926 1588.07 959.533 1585.16 945.257C1583.03 934.822 1574.83 921.313 1564.44 917.296C1560.49 915.769 1555.83 915.861 1552.33 913.473C1554.55 910.928 1558.07 909.753 1561.11 908.386Z"/>
	<path fill="#F2EDDA" d="M1800.73 908.078C1806.81 907.442 1810.1 907.71 1815.1 911.379C1822.71 916.964 1827.21 926.908 1828.4 936.088C1829.44 944.147 1828.25 953.001 1823.19 959.539L1822.21 958.699C1820.77 954.844 1821.87 950.228 1822.05 946.187C1822.27 941.329 1821.31 936.764 1817.74 933.199C1815.42 930.883 1811.94 929.531 1808.68 929.573C1804.75 929.622 1802.44 931.355 1799.89 934.155C1799.68 934.383 1799.48 934.616 1799.28 934.847C1796.08 940.986 1794.44 948.056 1795.15 955.01C1795.76 960.934 1797.84 964.772 1802.54 968.357C1802.8 968.558 1803.07 968.751 1803.34 968.949L1802.99 969.578C1802.71 969.501 1802.43 969.428 1802.15 969.347C1795.9 967.535 1791.87 964.777 1788.84 959.024C1783.43 948.763 1782.9 936.766 1786.44 925.805C1789.09 917.594 1793.16 912.094 1800.73 908.078Z"/>
	<path fill="#F2EDDA" d="M2083.39 1132.49C2087.83 1132.12 2092.03 1131.96 2096.48 1132.26C2091.73 1136.33 2084.16 1136.32 2078.83 1140.49C2077.67 1142.93 2077.54 1142.82 2078.32 1145.38C2079.72 1146.91 2080.65 1147.87 2082.6 1148.72C2092.98 1153.24 2120.64 1150.12 2130.86 1145.19C2133.96 1143.7 2135.21 1142.25 2136.36 1139.06C2135.4 1136.67 2134.11 1134.95 2132.55 1132.94C2140.99 1130.26 2166.01 1132.57 2175.62 1133.58C2170.56 1138.72 2142.21 1148.62 2134.27 1151.45C2131.95 1153.39 2128.31 1154.55 2125.32 1154.8C2114.75 1155.7 2103.76 1154.7 2093.13 1155Q2049.25 1155.91 2005.46 1158.73C2022.22 1154.83 2047.17 1144.82 2064.39 1138.8C2070.59 1136.63 2076.96 1133.77 2083.39 1132.49Z"/>
	<path fill="#F2EDDA" d="M1879.59 1176.68C1882.57 1176.59 1885.03 1177.3 1887.84 1178.29C1901.61 1183.14 1897.21 1193.29 1902.14 1203.96C1904.67 1205.95 1906.11 1205.77 1909.27 1206.16C1912.77 1206.59 1914.82 1206.81 1917.73 1208.89C1919.46 1211.63 1919.64 1212.99 1919.78 1216.11L1918.86 1217.04C1913.85 1218.19 1908.29 1217.53 1903.18 1217.38C1902.62 1216.86 1902.06 1216.35 1901.48 1215.85C1895.7 1210.85 1888.88 1205.93 1880.81 1206.75C1874.32 1207.41 1869.84 1211.45 1865.77 1216.2C1864.68 1216.95 1864 1217.17 1862.67 1217.24C1856.44 1217.55 1826.47 1217.93 1822.99 1214.96C1821.73 1212.15 1822.17 1205.56 1823.13 1202.62C1826.8 1191.39 1851.19 1206.95 1860.97 1202.82C1863.14 1200.71 1863.36 1199.19 1864.06 1196.42C1866.52 1186.69 1871.06 1181.73 1879.59 1176.68Z"/>
	<path fill="#F2EDDA" d="M1588.56 1050.63C1596.32 1054.1 1603.24 1060.36 1610.69 1064.61C1629.51 1075.36 1651.99 1082.37 1673.12 1086.57C1685.67 1089.07 1698.97 1090.39 1711.76 1090.91C1717.71 1091.16 1731.55 1089.02 1736.38 1091.49C1737.23 1091.93 1737.83 1092.72 1738.55 1093.33C1740.09 1097.03 1739.71 1100.63 1739.57 1104.54C1689.27 1111.12 1636.71 1092.41 1594.39 1066.68C1592.15 1061.38 1590.26 1056.12 1588.56 1050.63Z"/>
	<path fill="#F2EDDA" d="M1582.61 807.355C1583.06 807.471 1583.53 807.575 1583.98 807.701C1595.93 811.023 1624.59 843.861 1630.75 854.985L1629.98 855.826C1622.76 853.453 1611.67 842.157 1605.72 841.86C1611.18 850.245 1620.41 854.821 1626.21 863.424C1615.08 857.112 1605.98 849.532 1593.76 845.09C1596.81 848.347 1600.31 851.063 1603.76 853.881C1607.02 855.969 1611.88 859.084 1613.72 862.535C1608.12 865.862 1600.03 856.421 1593.8 856.889L1594.42 858.971C1597.55 862.243 1600.45 863.242 1604.39 865.195L1604.3 866.358C1600.36 867.404 1598.71 863.197 1594.52 864L1594.16 865.44L1598.43 869.093L1597.96 870.248C1596.55 870.184 1595.48 869.997 1594.1 869.629C1593.62 869.499 1593.14 869.355 1592.65 869.217L1591.77 870.482C1592.79 871.777 1592.96 871.973 1593.21 873.678C1588.12 877.642 1583.28 881.476 1579.06 886.389L1578.12 887.499C1574.06 865.273 1574.84 828.512 1582.61 807.355Z"/>
	<path fill="#F2EDDA" d="M1696.7 911.421C1698.66 911.38 1700.66 911.337 1702.62 911.557C1711.37 912.546 1718.81 918.679 1723.93 925.501C1728.22 931.235 1732.21 941.144 1731.24 948.424L1729.88 948.954L1728.49 945.972C1726.71 942.159 1725.07 938.453 1721.85 935.604C1719.05 933.119 1715.53 931.709 1711.76 932.207C1707.33 932.793 1703.53 935.855 1701.04 939.425C1696.2 946.345 1696 953.682 1697.29 961.746C1699.29 966.023 1701.19 970.288 1705.02 973.229C1706.4 974.285 1707.27 974.946 1708.18 976.478C1700.38 978.849 1693.05 976.384 1686.21 972.629C1677.84 968.036 1670.51 960.594 1667.88 951.231C1665.75 943.66 1666.97 935.314 1670.91 928.538C1676.74 918.508 1686.11 914.477 1696.7 911.421Z"/>
	<path fill="#F2EDDA" d="M1834.72 1037.84C1834.99 1038.23 1835.33 1038.59 1835.53 1039.02C1837.47 1043.13 1836.74 1051.21 1836.64 1055.69C1836.09 1080.21 1832.91 1102.2 1821.61 1124.13L1800.58 1125.18C1799.55 1122.7 1798.87 1120.03 1798.08 1117.46C1795.34 1109.77 1790.37 1102.98 1788.36 1095.09C1793.94 1084.67 1788.55 1081.43 1790.58 1074.33C1791.06 1072.69 1806.84 1063.34 1809.12 1061.83C1818.6 1055.55 1827.31 1048.08 1834.01 1038.83L1834.72 1037.84Z"/>
	<path fill="#F2EDDA" d="M1550.01 919.319C1552.58 919.405 1555.27 919.52 1557.73 920.321C1565.37 922.811 1571.71 929.478 1575.33 936.46C1580.83 947.076 1581.55 961.142 1577.42 972.348C1574.3 980.835 1568.81 986.815 1560.67 990.648C1556.14 990.775 1548.74 991.939 1544.65 989.946C1538.5 986.946 1534.9 979.028 1533.02 972.864C1528.78 958.944 1528.41 943.402 1535.72 930.387C1539.34 923.928 1543.03 921.425 1550.01 919.319Z"/>
	<path fill="#F2EDDA" d="M1692.63 799.381C1719.59 797.438 1745.4 800.557 1771.11 808.768C1763.33 814.17 1752.54 825.085 1746.6 828.694C1744.92 829.719 1717.01 824.247 1711.25 824.057C1692.3 823.668 1673.7 826.47 1655.44 831.453C1647.03 826.204 1639.22 819.306 1631.22 813.399C1650.67 804.737 1671.66 801.725 1692.63 799.381Z"/>
	<path fill="#F2EDDA" d="M1869.26 1222.9C1892.53 1224.5 1916.5 1223.62 1939.82 1223.56C1961.27 1223.51 1982.67 1224.25 2004.11 1224.78C2004.39 1225.99 2004.61 1226.57 2004.45 1227.95C2003.97 1232.14 2001.82 1236.81 2000.95 1241.06C2000.07 1245.33 1998.33 1265.87 1996.56 1268.5C1995.86 1269.54 1994.4 1269.34 1993.25 1269.5L1853.66 1266.35C1856.48 1250.37 1860.02 1236.4 1869.26 1222.9Z"/>
	<path fill="#F2EDDA" d="M2186.5 1135.5L2189.27 1135.6C2190.76 1136.71 2190.97 1136.62 2191.72 1138.5C2193.75 1143.65 2195.01 1190 2192.81 1194.82C2186.47 1201.58 2148.87 1217.77 2139.02 1220.76C2136.9 1221.41 2134.87 1222.46 2132.87 1221.4C2132.36 1204.72 2133.17 1187.76 2131.12 1171.14C2130.85 1168.95 2130.76 1166.51 2128.97 1165.13C2121.28 1174.55 2130.98 1208.81 2125.89 1220.82C2125.7 1221.28 2125.47 1221.72 2125.26 1222.18C2099.51 1220.9 2073.58 1222 2047.71 1220.72C2051.35 1219.67 2055.38 1218.58 2057.62 1215.5C2059.29 1214.21 2060.56 1212.81 2060.76 1210.57C2060.96 1208.25 2059.88 1206.25 2058.23 1204.7C2056.03 1202.65 2053.09 1202 2050.18 1201.92C2042.47 1201.71 2023.55 1207.63 2017.03 1211.94C2014.06 1213.9 2011.36 1216.7 2008.77 1219.13L1997.64 1218.55C1998.08 1201.07 1995.78 1182.5 1997.9 1165.23C2005.27 1159.09 2103.38 1163.06 2122.6 1159.95C2137.41 1157.54 2152.44 1149.7 2166.17 1143.86C2172.3 1141.26 2181.43 1139.42 2186.5 1135.5Z"/>
	<path fill="#010000" d="M2157.03 1159.5C2161.25 1158.49 2167.16 1158.97 2171.19 1160.66C2174.87 1162.2 2177.63 1165.36 2178.99 1169.07C2181.03 1174.63 2179.9 1181.19 2177.46 1186.44C2174.32 1193.22 2169.36 1198.28 2162.28 1200.73C2160.24 1202.28 2155.76 1203.26 2153.21 1202.86C2150.36 1202.43 2147.7 1199.75 2146.28 1197.36C2142.41 1190.85 2142.2 1182.55 2144.33 1175.44C2146.47 1168.32 2150.55 1163.09 2157.03 1159.5Z"/>
	<path fill="#010000" d="M2022.25 1173.48C2037.22 1172.6 2052.58 1173.29 2067.6 1173.19C2080.97 1173.1 2096.01 1171.66 2109.18 1173.69C2112.09 1175.77 2113.21 1178.03 2113.76 1181.57C2114.52 1186.39 2114.88 1196.29 2111.98 1200.32L2102.17 1200.5C2082.06 1198.64 2061.37 1198.64 2041.18 1198.01C2032.26 1197.73 2023.06 1198.12 2014.25 1196.55C2008.68 1190.5 2013.43 1182.92 2010.78 1176.27C2010.59 1175.81 2010.38 1175.36 2010.19 1174.91C2014.22 1174.56 2018.23 1173.98 2022.25 1173.48Z"/>
	<path fill="#F2EDDA" d="M2054.39 1178.49C2059.66 1178.2 2064.45 1178.35 2069.7 1178.94C2070.47 1180.27 2070.79 1181.27 2071.11 1182.8C2071.91 1186.67 2071.21 1189.5 2069.11 1192.69C2064.76 1194.29 2057.77 1193.3 2053.07 1193.26C2055.7 1188.69 2054.77 1183.5 2054.39 1178.49Z"/>
	<path fill="#F2EDDA" d="M2075.66 1179.49C2085.31 1177.89 2096.55 1179.13 2106.39 1179.24C2106.59 1179.63 2106.84 1180.01 2107.01 1180.42C2108.73 1184.66 2107.98 1188.36 2106.15 1192.36C2103.12 1195.07 2080.61 1193.36 2075.39 1193.32C2077.61 1188.51 2077.14 1184.4 2075.66 1179.49Z"/>
	<path fill="#F2EDDA" d="M2025.72 1177.51L2047.29 1178.24C2048.19 1179.71 2048.51 1181.06 2048.87 1182.73C2049.73 1186.76 2049.89 1188.35 2047.59 1191.88C2044.49 1193.94 2041.29 1193.34 2037.75 1193.17L2014.65 1193.36C2017.58 1188.31 2014.67 1184.07 2016.42 1179.35C2019.12 1177.27 2022.46 1177.63 2025.72 1177.51Z"/>
	<path fill="#F2EDDA" d="M1825.53 1130.18C1871.75 1133.27 1917.98 1133.24 1964.26 1133.91C1978.73 1134.11 1993.17 1134.72 2007.64 1135.11C2013.56 1135.27 2019.58 1134.52 2025.42 1135.53C2025.5 1136.11 2025.65 1136.68 2025.66 1137.27C2025.68 1139.37 2024.07 1145 2022.5 1146.51C2019.71 1149.2 2004.09 1151.89 1997.64 1157.99C1989.33 1165.86 1991.2 1181.5 1991.1 1192.02C1986.69 1194.46 1982.48 1196.55 1977.75 1198.31C1954.91 1203.15 1930.97 1194.6 1907.7 1197.73C1907.55 1196.81 1907.39 1195.89 1907.25 1194.97C1906.64 1190.86 1905.79 1187.74 1903.65 1184.1C1898.62 1175.56 1890.55 1172.7 1881.45 1170.6C1858.59 1177.31 1866.29 1188.49 1855.51 1196.24C1850.97 1199.5 1842.57 1192.98 1837.04 1192.31C1830.22 1191.47 1825.49 1194.16 1820.18 1198.1C1815.94 1183.44 1810.51 1169.01 1805.95 1154.41C1813.21 1146.9 1819.4 1138.61 1825.53 1130.18Z"/>
	<path fill="#F2EDDA" d="M1853.23 1271.16C1870.93 1270.27 1888.82 1271.95 1906.5 1272.51Q1952.16 1273.82 1997.84 1274.29C1998.08 1319.84 2007.4 1343.55 1978.14 1384.48C1974.63 1388.26 1971.11 1391.97 1967.11 1395.24C1954.36 1405.66 1940.53 1407.59 1924.65 1405.83C1905.95 1403.75 1890.92 1393.24 1879.56 1378.66C1855.4 1347.67 1848.44 1309.49 1853.23 1271.16Z"/>
</svg>
