<?xml version="1.0" encoding="utf-8" ?>
<svg xmlns="http://www.w3.org/2000/svg" xmlns:xlink="http://www.w3.org/1999/xlink" width="600" height="400">
	<path d="M476.642 217.7C479.464 217.311 482.274 216.928 485.106 216.621L485.176 217.307C484.469 217.644 483.926 217.589 483.157 217.541C483.934 218.047 484.636 218.453 485.51 218.781L485.329 218.854C485.874 219.065 486.33 219.224 486.92 219.276L487.12 219.474C486.157 219.599 485.162 219.789 484.193 219.819L483.829 219.388C481.457 218.404 479.206 217.87 476.642 217.7Z"/>
	<path d="M489.017 216.516C492.582 215.831 496.4 215.57 500.029 215.665L500.022 216.368C499.047 216.883 494.7 217.621 493.589 217.511C491.918 217.499 490.389 217.627 489.017 216.516Z"/>
	<path d="M518.73 243.893C521.519 244.095 527.067 245.846 528.814 248.175C529.033 248.468 529.09 248.806 529.172 249.152C525.805 248.66 522.412 247.9 519.038 247.53C519.503 246.869 519.821 246.398 519.973 245.598C519.666 244.88 519.271 244.45 518.73 243.893Z"/>
	<path d="M485.106 216.621C486.285 216.561 487.882 216.285 489.017 216.516C490.389 217.627 491.918 217.499 493.589 217.511Q496.387 218 499.198 218.412L499.448 218.847C495.655 219.46 490.948 219.751 487.12 219.474L486.92 219.276C486.33 219.224 485.874 219.065 485.329 218.854L485.51 218.781C484.636 218.453 483.934 218.047 483.157 217.541C483.926 217.589 484.469 217.644 485.176 217.307L485.106 216.621Z"/>
	<defs>
		<linearGradient id="gradient_0" gradientUnits="userSpaceOnUse" x1="515.25616" y1="247.10487" x2="513.77832" y2="242.43217">
			<stop offset="0" stop-color="black" stop-opacity="0.93725491"/>
			<stop offset="1" stop-color="black" stop-opacity="0.97647059"/>
		</linearGradient>
	</defs>
	<path fill="url(#gradient_0)" d="M515.25 243.185C516.384 243.326 517.718 243.338 518.73 243.893C519.271 244.45 519.666 244.88 519.973 245.598C519.821 246.398 519.503 246.869 519.038 247.53C515.649 247.022 512.215 245.96 508.857 245.203C509.371 244.688 510.329 244.504 511.013 244.164L510.223 244.088C511.8 243.307 513.776 244.167 515.25 243.185Z"/>
	<path d="M500.029 215.665C506.561 215.266 513.125 215.391 519.665 215.473L519.512 215.998C515.26 216.647 508.709 215.024 504.919 216.47C504.943 216.952 505.166 217.294 505.393 217.704C504.371 218.272 502.539 218.042 501.469 217.74C501.396 217.719 501.326 217.694 501.254 217.671L500.617 218.01L500.705 218.142C501.886 218.249 503.782 217.919 504.691 218.581C502.948 218.663 501.185 218.694 499.448 218.847L499.198 218.412Q496.387 218 493.589 217.511C494.7 217.621 499.047 216.883 500.022 216.368L500.029 215.665Z"/>
	<defs>
		<linearGradient id="gradient_1" gradientUnits="userSpaceOnUse" x1="141.21785" y1="270.92126" x2="139.5047" y2="267.51019">
			<stop offset="0" stop-color="black" stop-opacity="0.95686275"/>
			<stop offset="1" stop-color="black"/>
		</linearGradient>
	</defs>
	<path fill="url(#gradient_1)" d="M145.419 266.033C145.094 266.832 145.052 267.151 144.218 267.505C143.955 267.617 143.647 267.673 143.37 267.738C144.168 268.133 144.786 268.526 145.706 268.408C146.939 267.723 147.241 267.14 148.694 267.185C149.886 267.879 150.31 268.04 151.695 268.058C147.711 269.563 142.93 270.567 138.736 271.345C137.654 270.344 136.071 270.628 135.27 269.766C136.038 269.5 136.687 269.464 137.49 269.482L137.779 269.491C138.516 269.054 138.439 268.816 138.671 268.017C140.382 267.077 143.47 266.629 145.419 266.033Z"/>
	<path d="M119.44 307.832C119.341 308.689 119.175 309.182 119.562 309.992C121.819 310.585 123.064 307.599 125.678 308.731C121.227 311.927 109.718 317.336 104.375 318.976C109.579 315.564 114.22 311.275 119.44 307.832Z"/>
	<path d="M461.683 220.625C466.657 219.61 471.573 218.207 476.642 217.7C479.206 217.87 481.457 218.404 483.829 219.388L484.193 219.819C482.014 220.786 478.4 220.426 475.987 220.804Q470.159 221.712 464.375 222.869C462.274 223.291 459.916 224.084 457.786 224.184C459.054 222.233 462.226 222.196 464.302 221.398L464.003 221.165C463.211 221.122 462.606 221.029 461.874 220.711C461.81 220.683 461.746 220.653 461.683 220.625Z"/>
	<path d="M519.665 215.473C522.022 215.417 530.991 215.017 532.618 216.662C532.672 216.717 532.71 216.786 532.756 216.848C532.624 217.32 532.716 217.423 532.256 217.676C529.62 219.127 509.027 218.87 504.691 218.581C503.782 217.919 501.886 218.249 500.705 218.142L500.617 218.01L501.254 217.671C501.326 217.694 501.396 217.719 501.469 217.74C502.539 218.042 504.371 218.272 505.393 217.704C505.166 217.294 504.943 216.952 504.919 216.47C508.709 215.024 515.26 216.647 519.512 215.998L519.665 215.473Z"/>
	<path d="M477.357 238.854C483.098 238.842 511.914 241.071 515.25 243.185C513.776 244.167 511.8 243.307 510.223 244.088L511.013 244.164C510.329 244.504 509.371 244.688 508.857 245.203C503.153 243.936 497.23 243.891 491.569 242.677C491.783 242.572 491.965 242.41 492.154 242.266C491.346 241.538 488.573 241.637 487.437 241.549C488.157 241.363 488.847 241.133 489.547 240.883C488.926 239.432 479.46 240.291 477.357 238.854Z"/>
	<path d="M74.5747 292.516C78.8267 289.433 83.3605 286.567 88.0726 284.235C101.611 277.536 123.807 270.653 138.671 268.017C138.439 268.816 138.516 269.054 137.779 269.491L137.49 269.482C136.687 269.464 136.038 269.5 135.27 269.766C136.071 270.628 137.654 270.344 138.736 271.345C128.013 274.502 117.325 277.211 106.753 280.921C95.75 284.781 85.9465 289.268 74.5747 292.516Z"/>
	<path d="M453.097 255.357C460.898 256.7 468.768 259.344 476.302 261.762C482.647 263.799 514.05 274.828 516.297 278.191C516.568 278.597 516.519 278.717 516.496 279.203C514.829 279.976 512.412 278.812 510.631 278.598C503.601 277.751 488.69 271.356 481.493 268.635C475.397 266.33 469.112 264.474 462.91 262.473C457.377 260.687 451.74 258.658 446.085 257.322C446.704 257.217 447.365 257.062 447.99 257.07C449.851 257.094 451.716 256.984 453.581 257.003L453.066 256.768L453.792 256.976C453.523 256.443 453.301 255.918 453.097 255.357Z"/>
	<path d="M370.247 56.2617C375.213 52.9812 409.684 32.8583 414.022 33.8159C414.523 33.9263 414.836 34.6313 415.085 35.0625C425.493 53.0863 424.84 84.7139 423.974 104.972C423.827 108.393 423.304 111.79 423.11 115.208C422.772 121.165 422.783 127.405 422.969 133.373C423.133 138.615 425.023 143.314 426.004 148.341C426.103 148.851 426.065 149.197 425.933 149.694C431.357 151.997 435.831 155.081 439.827 159.419C451.25 171.822 454.911 190.133 454.218 206.459C454.018 211.152 453.244 220.011 449.663 223.303C453.847 222.987 457.589 221.3 461.683 220.625C461.746 220.653 461.81 220.683 461.874 220.711C462.606 221.029 463.211 221.122 464.003 221.165L464.302 221.398C462.226 222.196 459.054 222.233 457.786 224.184C454.481 226.02 450.432 227.208 446.901 228.601C446.9 228.728 446.901 228.855 446.898 228.983C446.821 232.091 444.942 234.409 446.327 237.633C447.695 238.998 450.109 239.185 451.951 239.191C457.676 239.208 472.532 237.308 477.357 238.854C479.46 240.291 488.926 239.432 489.547 240.883C488.847 241.133 488.157 241.363 487.437 241.549C488.573 241.637 491.346 241.538 492.154 242.266C491.965 242.41 491.783 242.572 491.569 242.677C483.277 242.114 451.686 238.978 446.022 244.491C444.315 246.154 445.278 248.905 444.754 250.965C447.55 252.393 449.659 254.098 452.737 255.128C452.978 255.209 452.892 255.171 453.097 255.357C453.301 255.918 453.523 256.443 453.792 256.976L453.066 256.768L453.581 257.003C451.716 256.984 449.851 257.094 447.99 257.07C447.365 257.062 446.704 257.217 446.085 257.322C445.354 257.122 444.665 256.826 443.931 257.132C442.694 259.795 442.062 262.65 440.983 265.366C438.988 270.383 434.861 278.715 432.047 283.302C427.094 291.379 415.006 302.729 407.499 308.818C405.202 310.682 402.728 312.301 400.381 314.095C398.564 315.484 396.884 317.092 394.946 318.312C392.53 319.833 389.835 320.659 387.325 321.966C384.116 323.638 381.164 325.784 377.952 327.452C373.367 329.834 368.33 331.566 363.484 333.344C358.23 335.272 352.837 336.134 347.441 337.509C342.359 338.803 337.182 340.781 331.952 341.335C327.407 341.816 322.511 341.542 317.934 341.548C295.75 341.579 275.157 339.775 253.613 334.468C247.246 332.899 240.705 331.27 234.742 328.493C230.422 326.48 225.985 324.557 221.763 322.354C217.407 320.081 213.246 317.52 208.811 315.384C203.948 313.04 198.508 311.351 193.838 308.714C189.869 306.473 186.35 303.626 182.48 301.275C180.937 300.338 178.918 300.068 177.48 299.011C175.977 297.907 175.293 295.897 173.978 294.59C171.881 292.505 169.045 291.146 166.873 289.088C164.328 288.953 159.282 291.711 158.888 291.499L158.623 290.721C156.847 290.427 134.841 303.712 131.646 305.536C129.928 306.518 127.547 308.274 125.678 308.731C123.064 307.599 121.819 310.585 119.562 309.992C119.175 309.182 119.341 308.689 119.44 307.832C128.188 301.744 137.55 296.687 146.911 291.637C151.95 288.919 157.034 285.94 162.339 283.773C158.93 278.482 154.588 273.66 151.695 268.058C150.31 268.04 149.886 267.879 148.694 267.185C147.241 267.14 146.939 267.723 145.706 268.408C144.786 268.526 144.168 268.133 143.37 267.738C143.647 267.673 143.955 267.617 144.218 267.505C145.052 267.151 145.094 266.832 145.419 266.033C146.519 265.531 147.929 265.006 148.854 264.213C149.362 263.777 149.573 263.331 149.615 262.676C149.892 258.372 136.637 250.584 133.928 247.225C133.87 247.153 133.814 247.081 133.758 247.009C129.204 247.816 124.473 248.134 119.882 248.737Q106.04 250.605 92.2794 253.001C87.5186 253.874 82.7033 254.801 78.0023 255.955C72.2088 257.376 66.4649 259.158 60.5042 259.72C75.0804 249.956 100.569 247.119 118.023 245.169C120.229 244.923 128.447 244.49 129.946 243.7C129.934 242.338 126.093 236.797 125.23 235.192C118.702 223.065 115.892 208.961 118.166 195.31C120.005 184.267 125.117 175.92 133.031 168.124C135.257 165.931 137.602 163.679 140.151 161.865C139.597 159.008 139.203 156.058 138.901 153.163C136.903 134.027 143.047 112.008 155.221 97.0114C155.77 93.7884 155.755 90.2896 156.033 87.0167C157.042 75.1262 158.29 56.8537 165.451 46.9418C167.667 43.8744 170.52 41.7912 174.306 41.202C177.202 40.7514 180.075 41.243 182.906 41.8562C196.574 44.8159 208.001 53.3035 219.144 61.3019C222.665 59.0821 227.081 57.3393 230.966 55.8392C271.958 40.0105 329.744 38.3109 370.247 56.2617ZM142.437 139.437C142.29 142.38 141.4 150.337 142.664 152.633L143.157 152.05L143.207 152.916L143.048 152.852L143.377 152.343L143.319 152.1C143.065 151.006 142.83 149.854 142.786 148.73C142.701 146.565 143.835 141.088 142.437 139.437Z"/>
	<path d="M142.437 139.437C143.835 141.088 142.701 146.565 142.786 148.73C142.83 149.854 143.065 151.006 143.319 152.1L143.377 152.343L143.048 152.852L143.207 152.916L143.157 152.05L142.664 152.633C141.4 150.337 142.29 142.38 142.437 139.437Z"/>
	<path fill="#F4EED7" d="M159.744 246.298C163.137 246.216 175.006 245.313 177.458 247.441C177.937 247.857 177.891 248.008 177.936 248.604C177.727 248.99 177.532 249.3 177.198 249.593C172.997 253.269 163.822 255.633 158.243 255.144C151.495 253.639 146.096 250.437 140.276 246.83C146.758 246.762 153.271 246.649 159.744 246.298Z"/>
	<path fill="#F4EED7" d="M431.146 158.093C431.932 158.313 432.61 158.866 433.233 159.373C442.275 166.724 446.833 182.697 447.982 193.826C448.347 197.363 449.18 210.775 446.986 213.482C446.977 213.995 446.949 214.239 446.673 214.675L446.293 214.466C443.523 210.547 442.909 200.019 441.684 194.968C438.666 182.519 433.865 170.66 431.146 158.093Z"/>
	<path fill="#F4EED7" d="M152.388 111.751C152.438 111.785 152.491 111.816 152.538 111.854C153.085 112.304 153.179 112.819 153.284 113.486C154.052 118.401 154.547 151.565 152.681 153.814C151.204 155.593 147.875 156.853 145.625 156.963C145.216 156.277 144.81 155.574 144.551 154.815C140.598 143.229 147.415 122.258 152.388 111.751Z"/>
	<path fill="#F4EED7" d="M369.76 232.806C373.053 232.596 376.426 232.732 379.729 232.723C376.426 237.305 373.485 242.459 370.431 247.233C370.968 252.634 370.956 258.379 369.505 263.631C374.686 266.353 379.829 271.4 381.866 276.852C376.24 275.581 371.518 271.491 366.774 268.383C365.243 269.999 363.41 271.38 361.703 272.805C357.787 276.021 354.115 278.595 349.427 280.555C354.194 273.369 360.162 268.256 366.392 262.384C366.574 257.459 366.832 252.522 366.835 247.593C364.135 245.308 356.921 240.187 356.696 236.622C356.656 235.975 356.861 235.394 357.307 234.922C359.588 232.503 366.512 232.932 369.76 232.806Z"/>
	<path fill="#F4EED7" d="M173.348 155.434C175.802 155.303 178.069 155.32 180.414 156.14C188.334 158.911 194.447 168.152 197.951 175.426C205.475 191.048 207.754 210.064 204.201 227.016C203.101 232.264 201.297 237.284 199.531 242.334C199.399 242.516 199.368 242.6 199.159 242.71C197.569 243.548 193.113 242.477 191.403 242.05C191.87 235.431 193.891 229.665 195.12 223.225Q195.42 221.707 195.653 220.177Q195.886 218.647 196.052 217.108Q196.218 215.57 196.316 214.025Q196.414 212.481 196.444 210.933Q196.474 209.386 196.437 207.839Q196.399 206.292 196.294 204.748Q196.188 203.204 196.015 201.666Q195.842 200.128 195.601 198.599Q195.361 197.07 195.053 195.554Q194.746 194.037 194.372 192.535Q193.999 191.033 193.56 189.549Q193.121 188.065 192.617 186.602Q192.113 185.139 191.546 183.699Q190.978 182.259 190.348 180.846Q189.718 179.433 189.026 178.048Q188.335 176.664 187.583 175.311C183.746 168.564 176.169 162.286 173.418 155.612C173.393 155.553 173.371 155.493 173.348 155.434Z"/>
	<path fill="#F4EED7" d="M156.425 158.867C160.113 158.48 163.785 159.012 167.155 160.578C176.499 164.92 182.36 175.225 185.664 184.546Q186.274 186.278 186.8 188.037Q187.326 189.796 187.766 191.579Q188.206 193.361 188.559 195.163Q188.913 196.965 189.178 198.782Q189.444 200.599 189.621 202.427Q189.798 204.254 189.887 206.088Q189.976 207.922 189.975 209.758Q189.975 211.595 189.886 213.429Q189.797 215.263 189.619 217.09Q189.441 218.918 189.175 220.734Q188.908 222.551 188.555 224.353Q188.201 226.155 187.76 227.937Q187.319 229.72 186.793 231.479Q186.267 233.238 185.656 234.969Q185.045 236.701 184.351 238.401Q183.657 240.101 182.881 241.765C177.659 241.747 172.329 241.359 167.123 241.658C168.492 235.17 174.579 230.976 176.669 224.583C180.754 212.088 180.16 197.677 174.168 185.879C170.412 178.485 163.961 170.575 156.069 167.521C152.431 166.113 148.447 165.529 144.72 164.301C148.481 161.911 152.11 160.078 156.425 158.867Z"/>
	<path fill="#F4EED7" d="M394.978 158.866C396.734 158.751 398.565 158.817 400.304 159.084C406.138 159.982 410.96 163.95 414.353 168.618C419.878 176.223 422.487 187.793 420.956 197.053C420.187 201.703 417.291 210.635 413.449 213.361C415.647 210.632 415.746 203.946 415.583 200.481C415.308 194.609 413.094 186.402 408.607 182.355C406.809 180.733 404.552 179.76 402.103 179.919C398.311 180.167 395.076 182.76 392.681 185.517C390.466 188.972 388.969 193.426 388.395 197.489C387.525 203.649 388.163 211.125 392.406 215.997C393.707 217.49 395.745 218.549 396.86 220.158C397.211 220.665 397.275 220.732 397.181 221.332L396.623 221.549C395.327 221.485 394.101 220.952 392.945 220.395C386.47 217.273 381.443 210.631 379.181 203.938C375.767 193.835 376.88 181.187 381.631 171.675C384.327 166.277 389.118 160.829 394.978 158.866Z"/>
	<path fill="#F4EED7" d="M175.548 58.3824C178.766 59.2448 181.434 60.6011 184.151 62.5073C195.973 70.8033 211.286 87.4632 219.449 99.3828C220.589 101.048 222.674 103.751 222.908 105.738C222.969 106.25 222.888 106.195 222.601 106.568C219.409 107.447 208.368 97.8108 205.312 95.8362C202.989 94.3348 200.602 93.2588 198.025 92.2946C204.686 100.074 212.681 106.608 219.506 114.243C211.843 110.302 204.835 105.46 197.405 101.146C195.716 100.166 189.634 96.5004 187.862 96.9743L188.666 97.8235C190.719 99.8088 192.791 101.764 195.068 103.494C197.659 105.462 200.463 107.209 202.948 109.308C204.019 110.212 205.145 111.171 205.259 112.623L204.708 113.099C199.326 114.049 192.08 108.544 186.027 107.959C188.687 112.074 193.598 114.569 197.342 117.638C194.484 117.213 191.13 115.07 188.419 115.126C188.145 115.131 188.047 115.357 187.868 115.547C188.095 117.486 190.173 119.427 191.401 120.871C189.382 120.572 187.423 120.441 185.386 120.378C185.688 121.822 186.087 123.193 186.555 124.592C181.327 128.896 175.18 133.12 171.298 138.746C169.998 133.507 169.642 127.772 169.257 122.4C167.666 100.198 169.357 79.7945 175.548 58.3824Z"/>
	<path fill="#F4EED7" d="M288.891 162.742C296.535 162.27 302.42 163.494 308.652 168.241C321.037 177.676 323.612 190.007 325.593 204.599C321.874 198.595 319.339 189.521 313.52 185.207C311.406 183.64 306.461 183.266 303.928 183.659C299.926 184.281 296.306 186.734 293.972 190.004C290.155 195.352 289.014 203.303 290.04 209.709C290.472 211.947 290.873 214.399 291.944 216.433C293.468 219.328 299.265 224.407 299.099 227.486C298.744 227.772 298.625 227.886 298.179 227.975C291.617 229.279 281.525 225.629 276.102 222.051C268.49 217.027 262.477 210.239 260.678 201.029Q260.534 200.264 260.427 199.493Q260.32 198.723 260.251 197.947Q260.183 197.172 260.152 196.395Q260.121 195.617 260.129 194.839Q260.136 194.061 260.182 193.284Q260.228 192.507 260.312 191.733Q260.395 190.959 260.517 190.191Q260.639 189.422 260.798 188.66Q260.957 187.898 261.153 187.145Q261.35 186.392 261.583 185.65Q261.816 184.907 262.085 184.177Q262.354 183.447 262.659 182.731Q262.964 182.015 263.303 181.315Q263.643 180.614 264.016 179.932Q264.39 179.249 264.796 178.585Q265.202 177.922 265.641 177.279C271.161 169.167 279.4 164.577 288.891 162.742Z"/>
	<path fill="#F4EED7" d="M142.712 170.355C149.064 170.477 154.349 172.221 159.294 176.299C167.347 182.94 171.645 192.844 172.626 203.092C173.621 213.479 171.626 224.895 164.778 233.074C162.894 235.325 156.472 241.252 153.295 241.517C147.653 241.791 141.936 241.584 136.283 241.624C132.574 236.954 129.626 232.02 127.458 226.456C122.566 213.901 120.783 198.179 126.368 185.533C129.845 177.661 134.78 173.433 142.712 170.355Z"/>
	<path d="M150.335 185.409C150.445 185.494 150.554 185.579 150.658 185.671C154.235 188.81 154.934 199.902 155.304 204.586C155.605 208.41 155.97 217.907 153.516 220.78C152.345 219.184 151.396 217.532 150.717 215.67C147.733 207.481 146.62 193.359 150.335 185.409Z"/>
	<path fill="#F4EED7" d="M301.66 49.6692C307.528 49.6072 313.391 50.4642 319.213 51.1282C335.602 52.9975 348.359 55.0991 364.246 59.8209C359.407 62.1549 354.246 66.5705 350.478 70.377C347.117 73.7729 344.024 78.0973 339.631 80.2036C333.286 79.7126 326.969 77.8708 320.661 76.9562C308.83 75.2407 296.91 74.9942 284.986 75.5529C280.897 75.7425 276.291 77.2916 272.233 78.0419C264.48 79.4752 256.365 80.1508 248.797 82.3853C239.923 77.4059 232.257 70.5556 224.213 64.3787C230.302 62.3447 236.136 59.7913 242.322 57.9497C261.433 52.26 281.795 50.1505 301.66 49.6692Z"/>
</svg>
