<?xml version="1.0" encoding="utf-8" ?>
<svg xmlns="http://www.w3.org/2000/svg" xmlns:xlink="http://www.w3.org/1999/xlink" width="3500" height="2000">
	<path fill="#F4EED6" d="M0 0L3498.25 0C3499.35 1.94579 3499.78 3.27288 3499.88 5.50799C3500.63 22.1841 3500 39.1741 3500 55.8766L3500 155.531L3500.01 455.835L3500 1370.39L3500.01 1859.59C3500.01 1878.3 3501.8 1990.58 3499.38 1997.78C3499.1 1998.6 3498.67 1999.25 3498.25 2000L0 2000L0 0Z"/>
	<path fill="#010000" d="M2002.01 954.534L2004.15 956.007C2009.66 973.341 2020.78 966.774 2024.69 977.757C2024.96 978.157 2025.24 978.549 2025.5 978.957C2027.45 982.059 2027.61 985.537 2026.85 989.011C2026.85 991.519 2026.06 994.345 2024.87 996.563C2023.91 998.352 2022.42 999.795 2020.43 1000.29C2022.12 997.405 2023.38 994.34 2023.88 991.001C2024.54 986.63 2022.81 982.49 2020.05 979.151C2017.58 976.162 2014.04 973.103 2010 972.864C2008.23 972.758 2008.74 972.842 2007.28 974.174C2007.47 977.04 2007.55 979.817 2007.5 982.688C2009.94 988.066 2011.86 998.134 2011.62 1004.07C2011.45 1008.06 2010.18 1012.09 2007.02 1014.73C2004.79 1016.59 2001.79 1017.5 1998.91 1016.98C1996.34 1016.52 1995.32 1014.97 1994 1012.95C1993.88 1011.52 1993.8 1010.34 1994.37 1008.99C1996.84 1003.1 2002.99 1001.75 2008.31 999.318C2008.18 984.659 2003.57 969.207 2002.01 954.534Z"/>
	<path fill="#010000" d="M1457.6 1089.23C1460.37 1089.1 1463.33 1088.84 1466.1 1089.07C1470.16 1089.41 1473.93 1092.08 1476.5 1095.13C1478.92 1097.99 1479.88 1101.02 1479.28 1104.8C1478.52 1109.61 1474.72 1113.62 1470.82 1116.17C1470.2 1116.28 1469.58 1116.4 1468.95 1116.49C1464.3 1117.22 1458.99 1116.49 1455.23 1113.46C1452.59 1111.34 1451.28 1108.46 1450.92 1105.15C1450.2 1098.59 1453.69 1094.05 1457.6 1089.23Z"/>
	<path fill="#F4EED6" d="M1463.51 1093.64C1464.63 1093.61 1465.91 1093.53 1467.01 1093.72C1469.33 1094.12 1471.34 1095.84 1472.41 1097.89C1473.52 1100.02 1473.44 1102.43 1472.82 1104.67C1471.79 1108.46 1469.63 1109.91 1466.48 1111.78C1463.02 1111.05 1459.21 1110.09 1457.27 1106.81C1455.99 1104.66 1455.91 1102.41 1456.71 1100.1C1457.84 1096.85 1460.7 1095.26 1463.51 1093.64Z"/>
	<path fill="#010000" d="M1331.38 1035.11C1333.41 1035.48 1335.63 1036.27 1337.47 1037.2C1342.9 1039.94 1344.72 1046.55 1346.43 1051.88C1345.5 1054.79 1344.54 1057.96 1343.01 1060.61C1339.85 1066.04 1334.53 1067.31 1328.81 1068.66C1326.11 1068.21 1323.27 1067.48 1320.84 1066.17C1317.29 1064.26 1314.63 1061.17 1313.72 1057.19C1312.16 1050.29 1315.09 1044.91 1318.58 1039.24C1322.8 1037.74 1327.12 1036.47 1331.38 1035.11Z"/>
	<path fill="#F4EED6" d="M1331.17 1039.18C1332.24 1039.38 1332.36 1039.35 1333.51 1039.88C1336.63 1041.33 1339.36 1044.48 1340.11 1047.84C1340.83 1051.07 1339.91 1054.95 1338.27 1057.78C1336.13 1061.45 1333.08 1062.28 1329.2 1063.46C1328.65 1063.27 1328.1 1063.09 1327.55 1062.9C1324.35 1061.76 1321.13 1059.83 1319.91 1056.46C1318.75 1053.23 1318.96 1050.43 1320.48 1047.36C1322.99 1042.28 1326.05 1041.01 1331.17 1039.18Z"/>
	<path fill="#010000" d="M1449.42 758.333C1451.87 757.812 1452.36 757.611 1454.69 758.433C1459.82 765.981 1459.53 783.755 1460.51 793.226C1459.33 795.59 1458.11 798.22 1455.74 799.625C1453.85 800.749 1451.21 800.941 1449.2 799.996C1446.92 798.926 1446.71 797.768 1446.02 795.592C1446.97 789.762 1449.82 787.607 1454.34 784.018C1453.45 779.37 1452.97 774.733 1452.51 770.031L1440.28 773.614L1438.1 774.18C1436.03 777.29 1438.09 782.03 1438.34 785.778C1438.66 790.28 1438.11 797.544 1434.52 800.851C1432.35 802.842 1431.61 802.792 1428.82 802.93C1427.12 802.019 1425.81 801.382 1424.79 799.632C1423.57 797.531 1423.38 794.951 1424.09 792.642C1425.25 788.819 1428.34 787.674 1431.66 786.152L1432.83 785.628C1432.04 777.511 1431.41 769.491 1429.17 761.612C1436.1 760.965 1442.63 759.908 1449.42 758.333Z"/>
	<path fill="#010000" d="M1376.15 1004.06C1377.82 1004.16 1378.75 1004.42 1380.33 1005.06C1382.4 1005.91 1384.42 1006.5 1386.6 1007.04C1391.49 1008.24 1395.71 1010.79 1398.48 1015.14Q1398.85 1015.73 1399.16 1016.34Q1399.47 1016.96 1399.72 1017.61Q1399.97 1018.26 1400.16 1018.93Q1400.34 1019.59 1400.46 1020.28Q1400.57 1020.96 1400.62 1021.65Q1400.67 1022.34 1400.66 1023.04Q1400.64 1023.73 1400.55 1024.42Q1400.46 1025.1 1400.31 1025.78C1398.76 1032.59 1393.37 1037.07 1387.73 1040.57C1384.19 1041.11 1380.66 1041.75 1377.11 1040.95C1372.42 1039.89 1368.11 1036.81 1365.66 1032.65C1362.94 1028.05 1362.44 1022.65 1363.92 1017.55C1365.89 1010.73 1370.13 1007.3 1376.15 1004.06Z"/>
	<path fill="#F4EED6" d="M1377.1 1007.77L1380.07 1009.86C1385 1010.26 1387.67 1011.43 1391.6 1014.51C1393.67 1016.13 1395.29 1018.28 1395.35 1021.01C1395.45 1026.2 1391.02 1031.2 1387.44 1034.45C1385.4 1034.93 1383.32 1035.42 1381.2 1035.41C1377.35 1035.4 1373.9 1034.32 1371.35 1031.31C1369.07 1028.61 1368.43 1024.94 1368.73 1021.5C1369.29 1015.14 1372.5 1011.82 1377.1 1007.77Z"/>
	<path fill="#010000" d="M1818.49 782.868C1819.67 782.767 1820.37 782.464 1821.44 783.132C1831.19 789.173 1832.03 835.547 1831.82 847.468C1831.61 859.585 1829.66 871.899 1830.49 883.997C1830.84 889.057 1832.32 893.667 1833.86 898.458C1844.18 903.325 1851.07 911.185 1855.77 921.466C1863.01 937.328 1864.31 955.666 1858.09 971.974C1872.9 967.375 1926.13 959.732 1940.61 965.722C1937.32 968.818 1927.49 967.985 1922.91 967.985C1898.83 967.983 1877.06 970.964 1853.79 977.05L1853.41 987.591C1870.94 986.185 1923.63 986.926 1937.68 996.993L1937.62 998.369C1931.47 999.233 1921.43 995.536 1915.04 994.518C1901.64 992.382 1862.69 987.395 1852.46 994.835C1851.38 997.448 1851.42 997.282 1852.42 999.941C1858.16 1005.24 1875.82 1007.02 1883.94 1010.69C1894.23 1015.34 1919.46 1020.62 1925.68 1028.57L1925.27 1030.16L1923.95 1030.34C1923.48 1030.11 1921.02 1028.9 1920.57 1028.77C1897.49 1022.46 1874.57 1013.14 1851.55 1006.05C1848.95 1014.07 1845.45 1021.21 1841.17 1028.46C1844.59 1061.56 1843.35 1094.34 1828.65 1124.65C1853.45 1125.26 1878.2 1126.95 1903 1127.41C1946.36 1128.23 1989.73 1128.13 2033.06 1130.39C2045.93 1122.56 2060.43 1094.22 2071.79 1082.86C2074.37 1080.28 2077.9 1078.49 2080.9 1076.44C2091.82 1068.99 2120.38 1033.74 2132.04 1020.98C2141.05 1011.11 2151.33 1001.74 2159.62 991.301C2161.36 989.111 2162.45 987.301 2162.97 984.542C2163.55 981.434 2164.15 979.293 2166.95 977.46C2169.17 976.002 2172.04 976.217 2174.47 976.752C2176.64 978.649 2176.59 978.56 2176.96 981.418C2173.99 989.661 2168.48 987.081 2163.35 992.325C2154.1 1001.79 2145.65 1012.55 2136.85 1022.49C2122.02 1039.23 2106.72 1055.74 2092.25 1072.78C2088.67 1076.99 2087.99 1078.44 2088.45 1083.84C2085.07 1090.29 2053.67 1126.94 2046.99 1134.04C2045 1136.16 2042.57 1137.8 2040.15 1139.39C2054.53 1137.34 2067.54 1129.55 2081.78 1128.02C2100.16 1126.05 2119.19 1126.89 2137.68 1126.85C2151.62 1126.82 2166.17 1125.99 2180.06 1126.98C2187.13 1127.49 2193.3 1132.05 2200.58 1132.02C2228.49 1131.93 2345.05 1131.11 2362.78 1139.41C2360.04 1141.16 2355.74 1141.16 2352.53 1141.24C2334.01 1141.7 2315.42 1139.6 2296.93 1138.92L2196.36 1135.67C2197.93 1137.94 2198.36 1139.66 2198.78 1142.35C2200.67 1154.49 2202.94 1188.77 2195.78 1198.45C2195.65 1198.68 2195.55 1198.94 2195.4 1199.16C2190.5 1206.21 2159.42 1219.7 2150.13 1222.53C2168.3 1222.82 2186.4 1220.88 2204.55 1220.38C2227.3 1219.77 2337.66 1218.69 2351.73 1224.82C2344.48 1229.05 2276.04 1224.66 2261.77 1224.82C2203.65 1225.5 2145.74 1228.87 2087.6 1228.4C2062.64 1228.2 2037.26 1226.48 2012.3 1225.18C2012.36 1226.28 2012.43 1225.73 2011.94 1227.01C2008.58 1235.61 2006.63 1244.25 2005.1 1253.36C2004.19 1258.8 2004.62 1264.7 2002.3 1269.75Q2099.85 1273.48 2197.47 1274.89C2218.39 1275.21 2262.8 1272.65 2280.74 1276L2278.51 1278.16C2260.03 1283.86 2232.09 1279.99 2212.64 1279.81C2142.39 1279.15 2072.34 1276.33 2002.13 1274.54C2006.9 1283.79 2006.87 1313.16 2006.51 1324.14C2005.65 1349.97 1995.52 1378.23 1976.28 1396.09C1963.76 1407.7 1949.27 1412.77 1932.23 1411.99C1910.52 1410.99 1892.5 1402.51 1877.96 1386.27C1858.49 1364.52 1846.77 1332.24 1845.38 1303.27C1844.86 1292.56 1846.12 1281.39 1846.68 1270.66C1828.15 1268.84 1809.01 1269.15 1790.37 1268.72Q1723.71 1267.48 1657.04 1267.84C1633.67 1267.76 1610.31 1266.18 1586.97 1265.25L1499.77 1262.54C1471.98 1260.02 1443.88 1260.59 1416.01 1260.57C1393.21 1260.55 1370.31 1259.98 1347.52 1260.42C1333.94 1260.69 1320.31 1261.92 1306.73 1261.78C1293.74 1261.65 1280.76 1260.09 1267.77 1259.68C1254.97 1259.27 1241.65 1260.11 1228.92 1258.84C1226.15 1258.57 1223.85 1258.38 1221.46 1256.83L1222.39 1255.54C1238.05 1255.09 1254.26 1254.58 1269.9 1255.34C1282.98 1255.98 1295.87 1257.4 1309 1257.41C1321.46 1257.42 1333.9 1256.43 1346.35 1256.22Q1395.36 1255.82 1444.38 1256.1C1465.96 1256.4 1487.54 1257.75 1509.12 1258.56L1635.41 1262.79C1654.14 1263.34 1672.94 1262.83 1691.69 1262.96C1743.64 1263.32 1795.5 1263.56 1847.39 1266.28C1850.88 1250.45 1853.53 1237.59 1861.14 1223.09C1839.17 1222.87 1817.2 1221.24 1795.23 1220.76L1547 1215.36L1332.55 1214.14L1259.32 1213.22C1254.49 1213.14 1249.7 1213.84 1244.88 1213.69C1240.06 1213.54 1233.5 1213.47 1229.64 1210.38L1230.42 1209.02C1242.62 1205.13 1270.86 1208.49 1284.77 1208.74C1281.93 1204.77 1279.16 1200.47 1278.76 1195.47C1278.33 1190.19 1280.42 1185.21 1283.96 1181.37C1305.14 1158.37 1392.28 1146.24 1423.86 1145.86C1422.66 1146.33 1421.47 1146.78 1420.26 1147.22C1410.74 1150.74 1398.93 1151.34 1388.89 1152.95C1362.88 1157.13 1306.37 1165.32 1288.27 1183.94C1285.64 1186.64 1283.93 1189.97 1284.12 1193.82C1284.47 1200.81 1290.07 1205.09 1294.93 1209.28Q1316.69 1209.16 1338.45 1209.27C1348.04 1209.39 1364.02 1211.86 1372.69 1209.61C1372.96 1205.3 1372.91 1200.08 1374.16 1195.96C1375.96 1190.02 1381.1 1184.97 1386.43 1182.07C1394.4 1177.72 1408.61 1174.81 1415.74 1182.6C1418.51 1185.63 1420.22 1191.18 1423.41 1193.56C1426.73 1196.04 1434.56 1197.79 1438.61 1199.08C1440.55 1197.61 1442.52 1196.2 1444.48 1194.76C1449.29 1191.27 1452.94 1194.42 1457.73 1192.74C1464.96 1190.21 1467.63 1179.13 1477.17 1178.94C1483.31 1178.82 1492.38 1183.63 1496.88 1187.64C1505.05 1165.96 1511.49 1143.93 1523.05 1123.69C1465.04 1126.77 1407.3 1122.23 1349.31 1122.86C1319.94 1123.18 1290.56 1124.56 1261.19 1125.29C1249.03 1125.59 1235.36 1127.1 1223.4 1125.53L1223.07 1124.07C1229.24 1121.09 1347.89 1117.37 1363.02 1117.4C1395.84 1117.47 1428.64 1119.07 1461.48 1119.1C1481.5 1119.12 1505.86 1116.4 1524.97 1119.06C1529.51 1111.26 1534.39 1103.43 1538.37 1095.33C1546.5 1078.83 1551.6 1064.7 1564.18 1050.76L1565.55 1039.42C1559.27 1043.28 1516.27 1068.46 1511.63 1068.17C1517.47 1058.33 1557.57 1038.43 1569.01 1032.61C1565.18 1027.69 1561.82 1022.85 1558.73 1017.43Q1545.04 1020.49 1531.6 1024.48Q1518.15 1028.47 1505.01 1033.36C1495.27 1037.05 1485.9 1041.78 1476.01 1045.04L1476.7 1044.46L1477.86 1043.51C1493.31 1030.64 1517.78 1023.22 1537.2 1018.26C1543.5 1016.65 1551.68 1016.02 1557.12 1012.37L1557.19 1010.21C1552.86 1004.97 1546.38 1001.7 1541.31 997.085L1540.37 996.223C1521.37 998.705 1502.87 1001.47 1484.07 1005.25C1478.58 1006.35 1471.72 1010.12 1466.27 1009.54L1466.08 1008.16C1474.01 1000.58 1524.26 993.928 1536.95 992.777C1528.26 980.069 1523.16 965.404 1524.18 949.879C1525.36 931.821 1533.73 921.974 1546.71 910.671C1546.61 910.133 1546.49 909.597 1546.39 909.058C1542.02 885.947 1549.13 864.315 1562.2 845.399C1562.33 831.969 1564.67 805.472 1572.84 794.812C1575 791.987 1577.87 790.36 1581.4 789.956C1596.35 788.249 1614.81 801.487 1626.08 809.814C1629.09 808.282 1632.12 806.783 1635.25 805.521C1677.33 788.556 1735.21 787.078 1777.28 804.864C1790.39 797.064 1804.09 788.026 1818.49 782.868Z"/>
	<path fill="#F4EED6" d="M2026.73 1214.49C2032.4 1213.72 2034.75 1214.64 2039.32 1217.87L2039.16 1219.48C2036.27 1220.67 2033.78 1220.32 2030.75 1220.1C2025.08 1220.31 2019.37 1219.98 2013.7 1219.81C2018.29 1218.33 2022.47 1216.81 2026.73 1214.49Z"/>
	<path fill="#F4EED6" d="M1801.81 1129.71L1817.69 1129.99L1811.3 1139.11L1805.04 1146.52C1804.35 1140.79 1803.14 1135.32 1801.81 1129.71Z"/>
	<path fill="#F4EED6" d="M1573.19 1038.21C1576.37 1039.36 1578.76 1042.33 1581.12 1044.69C1581.97 1049.31 1585.18 1054.74 1584.23 1059.31C1580.61 1056.92 1574.49 1053.83 1572.3 1050.12C1569.98 1046.22 1571.94 1042.14 1573.19 1038.21Z"/>
	<path fill="#F4EED6" d="M1563.16 995.439C1568.85 995.186 1575.27 994.608 1580.9 995.373C1582.81 995.632 1583.74 995.615 1584.99 997.15C1584.84 997.409 1584.71 997.689 1584.52 997.927C1581.49 1001.78 1575.92 1003.04 1571.34 1003.63C1571.04 1003.73 1570.76 1003.87 1570.46 1003.95C1562.74 1006.01 1553.6 999.604 1547.2 996.077L1563.16 995.439Z"/>
	<path fill="#F4EED6" d="M1837.84 906.751C1840.98 908.333 1843.09 911.071 1845.08 913.896C1854.55 927.318 1857.17 947.258 1854.39 963.164L1852.66 963.578C1850.63 951.896 1848.21 940.481 1844.79 929.118C1842.53 921.65 1839.5 914.378 1837.84 906.751Z"/>
	<path fill="#F4EED6" d="M1559.39 860.714L1560.16 861.447C1560.8 863.583 1561.31 899.401 1560.56 901.276C1559.19 904.725 1556.39 904.887 1553.2 906.097C1552.27 905.458 1552.26 905.652 1551.83 904.627C1547.38 893.903 1554.7 870.647 1559.39 860.714Z"/>
	<path fill="#F4EED6" d="M1767.42 982.298C1773.86 981.671 1780.25 981.744 1786.71 981.79C1783.74 986.757 1780.51 991.6 1777.4 996.487C1778.21 1002.28 1777.79 1006.82 1776.71 1012.51C1781.49 1016.21 1786.21 1019.49 1788.83 1025.13L1787.92 1025.52C1782.94 1023.83 1779.76 1020.43 1775.19 1018.26C1774.69 1018.02 1774.18 1017.8 1773.68 1017.57C1769.5 1021.22 1762.72 1028.49 1757.1 1029.24C1756.58 1028.52 1756.41 1027.06 1756.19 1026.18L1757.84 1026.92C1762.2 1021.04 1767.77 1016.41 1773.25 1011.62L1773.88 996.625C1771.04 993.935 1765.3 990.084 1763.78 986.628C1763.03 984.945 1763.21 985.67 1763.91 983.654L1767.42 982.298Z"/>
	<path fill="#F4EED6" d="M1782.24 1078.1L1783.18 1079C1784.31 1082.16 1785.35 1084.36 1783.67 1087.58C1779.1 1096.37 1756.42 1100.96 1747.44 1103.27C1745.5 1100.25 1745.61 1093.56 1745.24 1089.91C1758.45 1087.59 1770.18 1083.98 1782.24 1078.1Z"/>
	<path fill="#F4EED6" d="M1738.09 1113.58C1741.97 1115.13 1742.01 1117.55 1745.01 1120.19C1747.64 1119.18 1746.45 1116.61 1747.83 1114.08C1749.44 1114.26 1750.61 1114.67 1751.98 1115.51C1755.24 1117.5 1757.03 1120.48 1757.7 1124.21C1758.87 1130.65 1757.68 1133.59 1753.94 1138.75C1751.38 1140.19 1749.19 1141.24 1746.25 1141.62C1742.49 1142.12 1738.66 1141.14 1735.81 1138.58C1732.59 1135.68 1731.12 1131.33 1731.19 1127.06C1731.28 1121.09 1734.11 1117.68 1738.09 1113.58Z"/>
	<path fill="#F4EED6" d="M1580.39 904.395C1583.07 904.311 1585.85 904.172 1588.33 905.394C1597.31 909.815 1603.3 919.916 1606.89 928.92C1615.13 949.556 1614.97 971.443 1606.27 991.784C1603.17 991.733 1600.82 992.221 1598.18 990.527C1599.23 983.461 1601.53 976.579 1602.71 969.518C1605.92 950.268 1600.09 930.83 1588.76 915.292C1586.38 912.032 1581.15 908.108 1580.39 904.395Z"/>
	<path fill="#F4EED6" d="M1471.86 1185.85C1473.57 1185.74 1475.29 1185.66 1477.01 1185.75C1481.88 1186.02 1487.87 1186.57 1491.16 1190.65C1495.59 1196.14 1492.71 1204.47 1491.49 1210.63Q1476.12 1210.39 1460.75 1210.39C1455.87 1210.54 1449.43 1211.45 1444.88 1209.51C1442.64 1208.55 1441.93 1207.43 1441.21 1205.24C1442.29 1202.86 1444.12 1201.77 1446.43 1200.75C1452.54 1198.06 1456.4 1199.13 1462.5 1201.25C1464.79 1194.8 1466.66 1190.44 1471.86 1185.85Z"/>
	<path fill="#F4EED6" d="M1989.28 1199.26C1989.37 1199.29 1989.48 1199.3 1989.55 1199.37C1992.12 1201.95 1991.61 1214.69 1991.83 1218.78C1983.11 1218.34 1931.78 1218.17 1927.56 1216.74L1927.2 1214.7C1925.28 1209.13 1922.21 1205.36 1918.41 1201C1942 1202.45 1967.27 1210.75 1989.28 1199.26Z"/>
	<path fill="#F4EED6" d="M1395.16 1183.28C1398.65 1183.06 1402.32 1182.9 1405.77 1183.55C1414.58 1185.22 1412.73 1191.27 1417.22 1196.65C1419.92 1199.9 1424.33 1199.73 1428.22 1200.44C1431.29 1201 1433.38 1201.93 1435.2 1204.57C1435.52 1206.71 1436.09 1207.41 1434.98 1209.34C1429.34 1211.2 1422.06 1210.5 1416.1 1210.53L1381.9 1210.69C1380.11 1207.99 1378.15 1205.38 1376.26 1202.74C1380.73 1192.8 1384.74 1187.23 1395.16 1183.28Z"/>
	<path fill="#F4EED6" d="M1561.11 908.386C1565.37 907.568 1569.25 907.455 1573.3 909.225C1583.01 913.471 1588.77 922.873 1592.27 932.481Q1592.92 934.235 1593.48 936.019Q1594.05 937.803 1594.52 939.612Q1595 941.422 1595.38 943.253Q1595.77 945.084 1596.06 946.931Q1596.36 948.779 1596.56 950.638Q1596.76 952.498 1596.87 954.366Q1596.98 956.233 1597 958.104Q1597.02 959.975 1596.95 961.844Q1596.87 963.713 1596.71 965.577Q1596.54 967.44 1596.28 969.293Q1596.02 971.146 1595.68 972.984Q1595.33 974.822 1594.89 976.641Q1594.45 978.46 1593.92 980.254Q1593.39 982.049 1592.78 983.815Q1592.16 985.582 1591.46 987.316Q1590.76 989.05 1589.97 990.747L1574.47 990.683C1574.43 988.184 1575.72 987.023 1577.06 985.026C1585.17 972.926 1588.07 959.533 1585.16 945.257C1583 934.662 1574.77 921.279 1564.23 917.225C1560.34 915.727 1555.78 915.82 1552.33 913.475C1554.45 910.946 1558.13 909.738 1561.11 908.386Z"/>
	<path fill="#F4EED6" d="M1800.73 908.078C1807.06 907.342 1810.87 907.912 1815.99 911.955C1823.66 918.011 1827.36 928.614 1828.57 937.989C1829.53 945.37 1828.01 952.299 1823.42 958.237C1821.1 956.967 1823.49 939.972 1818.04 933.684Q1817.61 933.189 1817.12 932.745Q1816.63 932.3 1816.1 931.91Q1815.57 931.52 1815 931.19Q1814.43 930.861 1813.83 930.594Q1813.23 930.328 1812.6 930.128Q1811.97 929.929 1811.33 929.798Q1810.68 929.668 1810.02 929.608Q1809.37 929.548 1808.71 929.559C1804.76 929.62 1802.46 931.334 1799.89 934.156C1799.68 934.384 1799.48 934.617 1799.28 934.848C1796.08 940.979 1794.44 948.058 1795.14 955.004C1795.82 961.647 1798.3 964.929 1803.5 968.878L1804.55 969.659L1803.71 970.151C1802.55 969.921 1801.82 969.814 1800.75 969.48C1795.35 967.795 1790.77 962.728 1788.21 957.856C1783.14 948.228 1783.13 936.35 1786.41 926.156C1789.11 917.778 1792.96 912.181 1800.73 908.078Z"/>
	<path fill="#F4EED6" d="M2083.39 1132.49C2087.83 1132.12 2092.03 1131.96 2096.48 1132.26C2093.12 1134.58 2089.55 1135.43 2085.74 1136.72C2082.18 1137.92 2079.28 1139.06 2077.55 1142.61C2077.95 1145.06 2078.04 1145.72 2080.17 1147.33C2087.21 1152.63 2107.08 1150.69 2115.43 1149.35C2122.28 1148.25 2131.83 1146.78 2136.08 1140.85C2136.08 1137.56 2134.63 1136.08 2132.94 1133.3L2133.64 1132.62C2147.05 1131.27 2162.21 1132.17 2175.62 1133.58C2170.56 1138.72 2142.21 1148.62 2134.27 1151.45C2131.94 1153.39 2128.31 1154.55 2125.32 1154.8C2114.75 1155.7 2103.76 1154.7 2093.13 1155Q2049.25 1155.91 2005.46 1158.73C2022.7 1154.71 2046.09 1145.13 2063.55 1139.08C2070.01 1136.85 2076.69 1133.79 2083.39 1132.49Z"/>
	<path fill="#F4EED6" d="M1879.59 1176.68C1882.57 1176.59 1885.03 1177.3 1887.84 1178.29C1901.61 1183.14 1897.21 1193.29 1902.14 1203.96C1904.67 1205.95 1906.11 1205.77 1909.27 1206.16C1912.77 1206.59 1914.82 1206.81 1917.73 1208.89C1919.46 1211.63 1919.64 1212.99 1919.78 1216.11L1918.86 1217.04C1913.85 1218.19 1908.29 1217.53 1903.18 1217.38C1902.62 1216.87 1902.06 1216.35 1901.48 1215.85C1895.7 1210.85 1888.88 1205.93 1880.81 1206.75C1874.32 1207.41 1869.84 1211.45 1865.77 1216.2C1864.72 1216.92 1864.03 1217.17 1862.74 1217.24C1856.49 1217.57 1826.5 1217.93 1822.99 1214.97C1821.73 1212.16 1822.17 1205.56 1823.13 1202.62C1826.8 1191.39 1851.19 1206.95 1860.97 1202.82C1863.14 1200.71 1863.36 1199.19 1864.06 1196.42C1866.52 1186.69 1871.06 1181.73 1879.59 1176.68Z"/>
	<path fill="#F4EED6" d="M1588.57 1050.63C1596.44 1054.12 1603.92 1060.44 1611.4 1064.88C1628.75 1075.16 1650.01 1081.66 1669.63 1085.84C1684.54 1089.02 1700.43 1090.63 1715.67 1090.98C1721.64 1091.11 1728.05 1090.23 1733.92 1090.88C1736.16 1091.13 1736.79 1091.65 1738.52 1092.99C1740.17 1096.75 1739.7 1100.53 1739.57 1104.54C1689.27 1111.12 1636.71 1092.41 1594.39 1066.68C1592.17 1061.38 1590.24 1056.14 1588.57 1050.63Z"/>
	<path fill="#F4EED6" d="M1582.61 807.355C1583.06 807.47 1583.53 807.575 1583.98 807.701C1595.93 811.023 1624.59 843.861 1630.75 854.985L1629.98 855.826C1622.76 853.454 1611.66 842.155 1605.72 841.86C1611.18 850.245 1620.41 854.821 1626.21 863.425C1615.08 857.113 1605.98 849.533 1593.76 845.09C1596.81 848.347 1600.31 851.063 1603.76 853.881C1607.32 856.377 1610.95 858.6 1613.63 862.077L1612.77 863.462C1606.42 864.181 1600.35 857.202 1593.86 856.763L1594.21 858.434C1596.36 860.698 1598.13 862.023 1600.92 863.506C1602.86 864.541 1603.57 864.644 1604.78 866.522C1600.85 867.783 1598.85 863.583 1594.57 863.981L1593.99 865.091C1595.43 866.693 1596.99 868.064 1598.61 869.49L1597.67 870.251C1595.91 869.88 1594.15 869.55 1592.38 869.224L1591.8 870.339L1593.31 872.416C1592.69 875.587 1582.01 882.951 1579.01 886.438C1578.71 886.788 1578.41 887.146 1578.12 887.499C1574.06 865.272 1574.84 828.513 1582.61 807.355Z"/>
	<path fill="#F4EED6" d="M1693.95 975.845C1687.88 974.876 1681.22 970.437 1676.88 966.208C1670.8 960.283 1666.95 951.957 1667.04 943.418Q1667.05 942.608 1667.09 941.8Q1667.14 940.991 1667.23 940.186Q1667.32 939.381 1667.45 938.582Q1667.58 937.783 1667.76 936.992Q1667.93 936.2 1668.14 935.419Q1668.36 934.638 1668.61 933.868Q1668.86 933.099 1669.16 932.344Q1669.45 931.589 1669.78 930.85Q1670.11 930.111 1670.48 929.39Q1670.85 928.67 1671.26 927.969Q1671.66 927.268 1672.11 926.59Q1672.55 925.911 1673.02 925.256Q1673.5 924.602 1674.01 923.972Q1674.52 923.343 1675.06 922.741Q1675.6 922.139 1676.18 921.566Q1676.75 920.993 1677.35 920.45C1683.85 914.611 1692.72 911.157 1701.51 911.873C1710.08 912.573 1718.27 917.698 1723.56 924.34C1728.42 930.443 1731.59 940.362 1730.88 948.212L1729.71 949.113L1728.55 948.098C1728.08 945.989 1727.6 943.875 1726.92 941.824C1725.69 938.128 1723.89 934.972 1720.18 933.337C1716.61 931.765 1712.28 932.161 1708.75 933.659C1703.64 935.834 1699.75 940.311 1697.73 945.425C1694.25 954.224 1697.1 960.712 1700.52 968.831C1702.81 971.108 1705.88 973.262 1706.6 976.413C1703.3 978.163 1697.59 976.641 1693.95 975.845Z"/>
	<path fill="#F4EED6" d="M1834.72 1037.84C1834.99 1038.23 1835.33 1038.59 1835.53 1039.02C1837.47 1043.13 1836.74 1051.21 1836.64 1055.69C1836.09 1080.22 1832.9 1102.19 1821.61 1124.13L1800.58 1125.18C1799.55 1122.7 1798.87 1120.03 1798.08 1117.46C1795.34 1109.77 1790.37 1102.98 1788.36 1095.09C1793.94 1084.67 1788.55 1081.43 1790.58 1074.33C1791.06 1072.69 1806.84 1063.34 1809.12 1061.83C1818.6 1055.55 1827.31 1048.08 1834.01 1038.83L1834.72 1037.84Z"/>
	<path fill="#F4EED6" d="M1550.79 919.157C1552.85 919.382 1554.97 919.597 1556.99 920.093C1564.79 922.011 1571.99 929.861 1575.48 936.785C1580.86 947.446 1581.58 961.161 1577.45 972.362C1574.34 980.762 1568.84 986.797 1560.77 990.591C1556.47 990.719 1549.09 991.791 1545.22 990.249C1538.46 987.551 1534.48 978.058 1532.65 971.64C1528.75 957.921 1528.57 942.584 1535.98 929.949C1539.81 923.401 1543.61 921.16 1550.79 919.157Z"/>
	<path fill="#010000" d="M1557.23 934.574C1558.5 935.509 1559.13 936.011 1559.73 937.536C1562.17 943.666 1563.8 963.823 1560.72 969.699C1559.23 968.209 1558.21 966.878 1557.58 964.83C1555.13 956.822 1553.33 942.008 1557.23 934.574Z"/>
	<path fill="#F4EED6" d="M1690.86 799.516C1718.54 797.393 1744.7 800.402 1771.14 808.741C1769.86 809.604 1768.61 810.493 1767.34 811.375C1760.01 816.48 1754 822.513 1747.72 828.812C1735.8 828.406 1724.31 824.298 1712.35 824.07L1711.03 824.056C1692.15 823.693 1673.63 826.489 1655.44 831.454C1647.03 826.204 1639.22 819.306 1631.22 813.399C1650.13 804.994 1670.49 801.941 1690.86 799.516Z"/>
	<path fill="#F4EED6" d="M1869.26 1222.9C1892.53 1224.5 1916.5 1223.62 1939.82 1223.56C1961.27 1223.51 1982.67 1224.25 2004.11 1224.78C2004.39 1225.99 2004.61 1226.57 2004.45 1227.95C2003.97 1232.14 2001.82 1236.81 2000.95 1241.06C2000.07 1245.33 1998.33 1265.87 1996.56 1268.5C1995.86 1269.54 1994.4 1269.34 1993.25 1269.5L1853.56 1266.36C1856.66 1250.35 1859.97 1236.5 1869.26 1222.9Z"/>
	<path fill="#F4EED6" d="M2186.53 1135.5L2189.28 1135.6C2190.77 1136.71 2190.98 1136.61 2191.72 1138.5C2193.78 1143.69 2195.01 1189.77 2192.87 1194.79C2186 1201.83 2144.2 1220.22 2133.58 1221.99C2133.19 1221.59 2132.65 1221.3 2132.41 1220.8C2131.84 1219.55 2133.04 1211.11 2133.06 1209C2133.14 1198.36 2132.14 1187.47 2131.45 1176.85C2131.24 1173.62 2131.39 1166.44 2128.9 1164.26C2122 1179.99 2130.92 1208.92 2125.89 1220.82C2125.7 1221.28 2125.47 1221.72 2125.26 1222.18C2099.51 1220.9 2073.57 1222 2047.7 1220.72C2051.34 1219.67 2055.38 1218.58 2057.62 1215.5C2059.22 1213.95 2060.62 1212.97 2060.71 1210.51C2060.79 1208 2059.75 1205.88 2057.88 1204.26C2056.11 1202.73 2053.6 1202.22 2051.33 1202.16C2042.25 1201.93 2024.8 1206.88 2017.3 1211.74C2014.24 1213.73 2011.44 1216.64 2008.77 1219.13L1997.64 1218.55C1998.08 1201.06 1995.79 1182.5 1997.9 1165.23C2005.41 1158.97 2105.15 1162.63 2121.89 1160.06C2136.91 1157.75 2152.05 1149.87 2165.94 1143.96C2172.22 1141.3 2181.33 1139.45 2186.53 1135.5Z"/>
	<path fill="#010000" d="M2157.03 1159.5C2161.25 1158.49 2167.16 1158.97 2171.19 1160.66C2174.88 1162.21 2177.62 1165.36 2178.99 1169.07C2181.08 1174.74 2179.83 1181.45 2177.33 1186.78C2174.22 1193.38 2169.17 1198.35 2162.28 1200.73C2160.24 1202.28 2155.76 1203.26 2153.21 1202.87C2150.36 1202.43 2147.7 1199.75 2146.28 1197.36C2142.41 1190.85 2142.2 1182.55 2144.33 1175.44C2146.47 1168.32 2150.55 1163.09 2157.03 1159.5Z"/>
	<path fill="#F4EED6" d="M2162.47 1167.49L2164.23 1168.39C2164.62 1175.36 2165.9 1183.87 2164.55 1190.65L2162.54 1191.51C2161 1190.41 2160.03 1189.39 2159.39 1187.56C2157.03 1180.87 2159.57 1173.54 2162.47 1167.49Z"/>
	<path fill="#010000" d="M2022.23 1173.44C2037.55 1172.72 2053.13 1173.28 2068.48 1173.18C2081.64 1173.1 2095.99 1171.88 2108.99 1173.66C2111.67 1175.48 2112.73 1177.05 2113.5 1180.23C2114.69 1185.18 2114.81 1195.64 2112.09 1200.04C2108.98 1200.7 2105.44 1200.47 2102.25 1200.52C2083.65 1198.72 2064.52 1198.6 2045.84 1198.17C2035.68 1197.93 2023.84 1198.85 2014.02 1196.28C2008.78 1190.72 2013.25 1182.59 2010.75 1176.29C2010.57 1175.84 2010.36 1175.39 2010.17 1174.95L2022.23 1173.44Z"/>
	<path fill="#F4EED6" d="M2054.4 1178.49C2059.67 1178.2 2064.45 1178.35 2069.69 1178.95C2070.47 1180.27 2070.79 1181.27 2071.1 1182.8C2071.91 1186.67 2071.21 1189.5 2069.12 1192.68C2064.77 1194.29 2057.77 1193.3 2053.07 1193.25C2055.7 1188.69 2054.77 1183.5 2054.4 1178.49Z"/>
	<path fill="#F4EED6" d="M2075.67 1179.49C2085.32 1177.89 2096.55 1179.13 2106.39 1179.24C2106.59 1179.63 2106.84 1180.01 2107.01 1180.42C2108.73 1184.66 2107.98 1188.35 2106.15 1192.35C2103.02 1195.17 2080.64 1193.36 2075.39 1193.32C2077.62 1188.51 2077.14 1184.39 2075.67 1179.49Z"/>
	<path fill="#F4EED6" d="M2025.73 1177.51L2047.29 1178.24C2048.19 1179.71 2048.51 1181.06 2048.86 1182.73C2049.73 1186.76 2049.89 1188.35 2047.59 1191.88C2044.49 1193.94 2041.29 1193.34 2037.75 1193.16L2014.66 1193.35C2017.58 1188.31 2014.68 1184.07 2016.42 1179.35C2019.12 1177.27 2022.47 1177.63 2025.73 1177.51Z"/>
	<path fill="#F4EED6" d="M1825.53 1130.18C1873.75 1133.41 1921.96 1133.05 1970.23 1134.07C1988.16 1134.45 2007.83 1133.25 2025.49 1135.45L2025.96 1136.98C2019.28 1157.24 2009.2 1145.86 1998.21 1157C1989.65 1165.67 1991.16 1180.73 1991.1 1192.02C1986.69 1194.46 1982.48 1196.55 1977.75 1198.31C1954.91 1203.15 1930.97 1194.6 1907.7 1197.73C1907.55 1196.81 1907.39 1195.89 1907.25 1194.97C1906.64 1190.86 1905.79 1187.74 1903.65 1184.1C1898.62 1175.56 1890.55 1172.7 1881.45 1170.6C1858.59 1177.31 1866.29 1188.49 1855.51 1196.24C1850.97 1199.5 1842.57 1192.98 1837.04 1192.31C1830.22 1191.47 1825.49 1194.16 1820.18 1198.1C1815.94 1183.44 1810.51 1169.01 1805.95 1154.41C1813.21 1146.9 1819.4 1138.61 1825.53 1130.18Z"/>
	<path fill="#F4EED6" d="M1853.23 1271.16C1870.92 1270.25 1888.82 1271.96 1906.5 1272.51Q1952.17 1273.82 1997.85 1274.29C1998.08 1319.03 2006.86 1343.97 1978.47 1384.05C1974.83 1388 1971.22 1391.95 1967.03 1395.34C1954.33 1405.65 1940.43 1407.59 1924.65 1405.83C1905.95 1403.74 1890.92 1393.24 1879.56 1378.67C1855.4 1347.67 1848.44 1309.49 1853.23 1271.16Z"/>
</svg>
